<?xml version="1.0" encoding="UTF-8"?><svg id="Layer_2" xmlns="http://www.w3.org/2000/svg" viewBox="0 0 63.360015 72"><defs><style>.cls-1{fill:#002654;}.cls-2{fill:#ac864b;}.cls-3{fill:#7b9e6c;}.cls-4{fill:#fff;}.cls-5{fill:#cecece;}.cls-6{stroke-miterlimit:10;}.cls-6,.cls-7{fill:#d3a150;}.cls-6,.cls-8{stroke:#f4f1e9;stroke-width:.5px;}.cls-9{fill:#72b559;}.cls-10,.cls-8{fill:#f4f1e9;}.cls-11{fill:#ce1126;}.cls-12{fill:#ccb789;}.cls-8{stroke-linejoin:round;}</style></defs><g id="Efele_Kai-Piso"><g id="Outer"><path class="cls-5" d="M63.360015,70v-2c-1.104553,0-2-.895447-2-2,0-1.104614.895447-2,2-2v-2c-1.104553,0-2-.895447-2-2,0-1.104614.895447-2,2-2v-2c-1.104553,0-2-.895447-2-2,0-1.104614.895447-2,2-2v-2c-1.104553,0-2-.895447-2-2,0-1.104614.895447-2,2-2v-2c-1.104553,0-2-.895447-2-2,0-1.104614.895447-2,2-2v-2c-1.104553,0-2-.895447-2-2,0-1.104614.895447-2,2-2v-2c-1.104553,0-2-.895447-2-2,0-1.104614.895447-2,2-2v-2c-1.104553,0-2-.895447-2-2,0-1.104614.895447-2,2-2v-2c-1.104553,0-2-.895447-2-2,0-1.104614.895447-2,2-2v-2c-1.104553,0-2-.895447-2-2,0-1.104614.895447-2,2-2v-2c-1.104553,0-2-.895447-2-2,0-1.104614.895447-2,2-2v-2c-.526672,0-1.041809-.213379-1.414246-.585815-.372375-.372375-.585754-.887512-.585754-1.414185h-2.264038c0,1.104553-.895386,2-2,2-1.104553,0-2-.895447-2-2h-2.263977c0,1.104553-.895447,2-2,2s-2-.895447-2-2h-2.263977c0,1.104553-.895447,2-2,2-1.104614,0-2-.895447-2-2h-2.264038c0,1.104553-.895386,2-2,2-1.104553,0-2-.895447-2-2h-2.263977c0,1.104553-.895447,2-2,2s-2-.895447-2-2h-2.263977c0,1.104553-.895447,2-2,2-1.104614,0-2-.895447-2-2h-2.264038c0,1.104553-.895447,2-2,2s-2-.895447-2-2h-2.263977c0,1.104553-.895447,2-2,2s-2-.895447-2-2h-2.263977c0,1.104553-.895447,2-2,2-1.104614,0-2-.895447-2-2h-2.264038c0,.526672-.213379,1.041809-.585754,1.414185-.372437.372437-.887573.585815-1.414246.585815v2c1.104553,0,2,.895386,2,2,0,1.104553-.895447,2-2,2v2c1.104553,0,2,.895386,2,2,0,1.104553-.895447,2-2,2v2c1.104553,0,2,.895386,2,2,0,1.104553-.895447,2-2,2v2c1.104553,0,2,.895386,2,2,0,1.104553-.895447,2-2,2v2c1.104553,0,2,.895386,2,2,0,1.104553-.895447,2-2,2v2c1.104553,0,2,.895386,2,2,0,1.104553-.895447,2-2,2v2c1.104553,0,2,.895386,2,2,0,1.104553-.895447,2-2,2v2c1.104553,0,2,.895386,2,2,0,1.104553-.895447,2-2,2v2c1.104553,0,2,.895386,2,2,0,1.104553-.895447,2-2,2v2c1.104553,0,2,.895386,2,2,0,1.104553-.895447,2-2,2v2c1.104553,0,2,.895386,2,2,0,1.104553-.895447,2-2,2v2c.526672,0,1.041809.213379,1.414246.585754.372375.372437.585754.887573.585754,1.414246h2.264038c0-1.104614.895386-2,2-2,1.104553,0,2,.895386,2,2h2.263977c0-1.104614.895447-2,2-2s2,.895386,2,2h2.263977c0-1.104614.895447-2,2-2,1.104614,0,2,.895386,2,2h2.264038c0-1.104614.895386-2,2-2,1.104553,0,2,.895386,2,2h2.263977c0-1.104614.895447-2,2-2s2,.895386,2,2h2.263977c0-1.104614.895447-2,2-2,1.104614,0,2,.895386,2,2h2.264038c0-1.104614.895386-2,2-2,1.104553,0,2,.895386,2,2h2.263977c0-1.104614.895447-2,2-2s2,.895386,2,2h2.264038c0-1.104614.895386-2,2-2,1.104553,0,2,.895386,2,2h2.263977c0-.526672.213379-1.041809.585754-1.414246.372437-.372375.887573-.585754,1.414246-.585754Z"/><path class="cls-10" d="M62.640015,70v-2c-1.104553,0-2-.895447-2-2,0-1.104614.895447-2,2-2v-2c-1.104553,0-2-.895447-2-2,0-1.104614.895447-2,2-2v-2c-1.104553,0-2-.895447-2-2,0-1.104614.895447-2,2-2v-2c-1.104553,0-2-.895447-2-2,0-1.104614.895447-2,2-2v-2c-1.104553,0-2-.895447-2-2,0-1.104614.895447-2,2-2v-2c-1.104553,0-2-.895447-2-2,0-1.104614.895447-2,2-2v-2c-1.104553,0-2-.895447-2-2,0-1.104614.895447-2,2-2v-2c-1.104553,0-2-.895447-2-2,0-1.104614.895447-2,2-2v-2c-1.104553,0-2-.895447-2-2,0-1.104614.895447-2,2-2v-2c-1.104553,0-2-.895447-2-2,0-1.104614.895447-2,2-2v-2c-1.104553,0-2-.895447-2-2,0-1.104614.895447-2,2-2v-2c-.526672,0-1.041809-.213379-1.414246-.585815-.372375-.372375-.585754-.887512-.585754-1.414185h-2.264038c0,1.104553-.895386,2-2,2-1.104553,0-2-.895447-2-2h-2.263977c0,1.104553-.895447,2-2,2s-2-.895447-2-2h-2.263977c0,1.104553-.895447,2-2,2-1.104614,0-2-.895447-2-2h-2.264038c0,1.104553-.895386,2-2,2-1.104553,0-2-.895447-2-2h-2.263977c0,1.104553-.895447,2-2,2s-2-.895447-2-2h-2.263977c0,1.104553-.895447,2-2,2-1.104614,0-2-.895447-2-2h-2.264038c0,1.104553-.895447,2-2,2s-2-.895447-2-2h-2.263977c0,1.104553-.895447,2-2,2s-2-.895447-2-2h-2.263977c0,1.104553-.895447,2-2,2-1.104614,0-2-.895447-2-2h-2.264038c0,.526672-.213379,1.041809-.585754,1.414185-.372437.372437-.887573.585815-1.414246.585815v2c1.104553,0,2,.895386,2,2,0,1.104553-.895447,2-2,2v2c1.104553,0,2,.895386,2,2,0,1.104553-.895447,2-2,2v2c1.104553,0,2,.895386,2,2,0,1.104553-.895447,2-2,2v2c1.104553,0,2,.895386,2,2,0,1.104553-.895447,2-2,2v2c1.104553,0,2,.895386,2,2,0,1.104553-.895447,2-2,2v2c1.104553,0,2,.895386,2,2,0,1.104553-.895447,2-2,2v2c1.104553,0,2,.895386,2,2,0,1.104553-.895447,2-2,2v2c1.104553,0,2,.895386,2,2,0,1.104553-.895447,2-2,2v2c1.104553,0,2,.895386,2,2,0,1.104553-.895447,2-2,2v2c1.104553,0,2,.895386,2,2,0,1.104553-.895447,2-2,2v2c1.104553,0,2,.895386,2,2,0,1.104553-.895447,2-2,2v2c.526672,0,1.041809.213379,1.414246.585754.372375.372437.585754.887573.585754,1.414246h2.264038c0-1.104614.895386-2,2-2,1.104553,0,2,.895386,2,2h2.263977c0-1.104614.895447-2,2-2s2,.895386,2,2h2.263977c0-1.104614.895447-2,2-2,1.104614,0,2,.895386,2,2h2.264038c0-1.104614.895386-2,2-2,1.104553,0,2,.895386,2,2h2.263977c0-1.104614.895447-2,2-2s2,.895386,2,2h2.263977c0-1.104614.895447-2,2-2,1.104614,0,2,.895386,2,2h2.264038c0-1.104614.895386-2,2-2,1.104553,0,2,.895386,2,2h2.263977c0-1.104614.895447-2,2-2s2,.895386,2,2h2.264038c0-1.104614.895386-2,2-2,1.104553,0,2,.895386,2,2h2.263977c0-.526672.213379-1.041809.585754-1.414246.372437-.372375.887573-.585754,1.414246-.585754Z"/></g><rect id="Inner" class="cls-7" x="6.264007" y="7.2" width="50.112" height="57.6"/><rect id="Inner-2" class="cls-10" x="6.840007" y="7.452" width="49.10976" height="56.448"/><path class="cls-7" d="M31.678102,25.384734s.973608,14.798245,1.867225,14.750373l-3.845745-.343085.935851-14.928191"/><path class="cls-2" d="M30.204582,25.740426s-.864574,13.859574-1.764574,14.759574l1.259574-.707979.935851-14.672872-.430851.621277Z"/><polygon class="cls-2" points="30.130433 25.917021 30.720858 25.103191 31.805965 25.42234 31.805965 24.337234 30.657029 23.810638 30.130433 24.752128 30.130433 25.917021"/><polygon class="cls-2" points="27.928305 40.789362 29.699582 39.792021 30.002773 40.595998 28.440007 41.399976 27.928305 40.789362"/><polygon class="cls-2" points="34.111816 40.135222 29.699582 39.792021 30.002773 40.595998 33.609156 41.076596 34.111816 40.135222"/><polygon class="cls-2" points="30.231497 42.608511 30.002773 45.831915 30.420007 45.86383 30.518731 42.608511 30.231497 42.608511"/><polygon class="cls-2" points="32.21022 42.608511 33.220858 46.151064 33.827241 46.076596 32.635752 42.42766 32.21022 42.608511"/><polygon class="cls-7" points="28.440007 41.399976 26.77139 46.430319 27.728837 46.007447 28.678305 42.560638 29.005433 42.401064 28.566603 45.608511 29.268731 45.640426 29.83522 42.807979 31.510752 42.935638 31.734156 46.712234 32.468199 46.712234 32.040007 43.103191 33.258092 42.592553 34.861816 45.959574 35.691603 45.951596 33.609156 41.076596 30.002773 40.595998 28.440007 41.399976"/><polygon class="cls-2" points="25.678305 46.885106 28.566603 45.608511 35.691603 45.951596 36.795326 47.012766 28.699582 46.895745 25.678305 47.754787 25.678305 46.885106"/><path class="cls-3" d="M36.321929,51.507458c-.345764,0-.63562.186401-.815186.453125-.179565-.266724-.46936-.453125-.815125-.453125-.552307,0-1,.447693-1,1,0,.552246.447693,1,1,1,.345764,0,.635559-.186401.815125-.453186.179565.266785.469421.453186.815186.453186.552307,0,1-.447754,1-1,0-.552307-.447693-1-1-1Z"/><path class="cls-3" d="M32.018706,51.31593c-.432129,0-.79187.277466-.93158.661316-.177979-.276184-.473389-.469788-.826355-.469788-.281921,0-.534241.118469-.716003.306152-.174561-.292175-.480103-.497681-.845215-.497681-.552246,0-1,.447754-1,1,0,.552307.447754,1,1,1,.281921,0,.534241-.118469.716003-.306152.174561.292175.480103.497681.845215.497681.432129,0,.79187-.277466.93158-.661316.177979.276184.473389.469788.826355.469788.552307,0,1-.447693,1-1,0-.552246-.447693-1-1-1Z"/><path class="cls-3" d="M26.440032,50.8c-.388062,0-.715088.227539-.880859.550537-.165771-.322998-.492798-.550537-.880859-.550537-.244446,0-.460449.098022-.634155.243713-.168457-.314636-.489319-.536255-.871155-.536255-.455444,0-.824097.310364-.944885.726868-.181091-.256226-.464905-.434326-.80249-.434326-.367981,0-.676086.208313-.849731.504395-.173645-.296082-.481689-.504395-.849731-.504395-.286621,0-.541077.12384-.723389.317078-.182312-.193237-.436768-.317078-.723389-.317078-.302185,0-.564148.141052-.747498.352844-.148621-.087524-.312256-.151367-.497192-.151367-.390015,0-.718994.229309-.88385.554993-.180542-.260193-.466614-.441467-.807312-.441467-.420288,0-.776917.260498-.924866.627808-.11615-.423706-.487244-.741333-.947815-.741333-.223083,0-.418518.087036-.5849.21051-.182373-.243774-.459534-.411987-.787415-.411987-.552307,0-1,.447693-1,1,0,.552246.447693,1,1,1,.223083,0,.418579-.087036.5849-.21051.182373.243835.459534.411987.787415.411987.420288,0,.776917-.260498.924866-.627808.11615.423706.487244.741333.947815.741333.390015,0,.718994-.229309.88385-.554993.180542.260193.466614.441467.807312.441467.302185,0,.564148-.14093.747498-.352844.148621.087524.312256.151367.497192.151367.286621,0,.541077-.12384.723389-.317078.182312.193237.436768.317078.723389.317078.368042,0,.676086-.208374.849731-.504456.173645.296082.48175.504456.849731.504456.455444,0,.824097-.310425.944885-.726929.181091.256226.464905.434387.80249.434387.244446,0,.460388-.098022.634094-.243713.168457.314636.48938.536255.871216.536255.388062,0,.715088-.227539.880859-.550598.165771.323059.492798.550598.880859.550598.552246,0,1-.447754,1-1,0-.552307-.447754-1-1-1Z"/><path class="cls-3" d="M50.923003,50.31593c-.244568,0-.460571.098083-.634338.243835-.084595-.023254-.167297-.052307-.259277-.052307-.302917,0-.565247.141785-.748657.354553-.150818-.091187-.317566-.157776-.506653-.157776-.277039,0-.527405.112976-.708496.294983-.163391-.116211-.352356-.199219-.568115-.199219-.453247,0-.820923.307312-.943665.720703-.180054-.174744-.423889-.284546-.694641-.284546-.316589,0-.58667.156372-.769897.385986-.134949-.067871-.281494-.114685-.442871-.114685-.382629,0-.704224.22229-.872314.537903-.168091-.315613-.489746-.537903-.872375-.537903-.345215,0-.634644.185852-.814331.451904-.175842-.153625-.399292-.255127-.651062-.255127-.294739,0-.552917.132812-.735901.335632-.172974-.143066-.386475-.239868-.628479-.239868-.552307,0-1,.447693-1,1,0,.552246.447693,1,1,1,.294739,0,.552917-.132812.735901-.335632.172974.143066.386475.239868.628479.239868.345215,0,.634644-.185852.814331-.451904.175842.153625.399231.255127.651062.255127.382629,0,.704285-.222351.872375-.537964.168091.315613.489685.537964.872314.537964.316589,0,.58667-.156372.769897-.385986.134949.067871.281494.114685.442871.114685.453247,0,.820923-.307312.943665-.720703.180054.174744.423889.284546.694641.284546.277039,0,.527405-.112915.708496-.294922.163391.116211.352356.199158.568115.199158.302917,0,.565247-.141785.748657-.354553.150757.091187.317566.157776.506653.157776.244507,0,.460571-.098083.634338-.243835.084595.023254.167297.052307.259277.052307.552246,0,1-.447693,1-1,0-.552246-.447754-1-1-1Z"/><polyline class="cls-2" points="25.678305 48.728191 25.678305 47.754787 28.699582 46.895745 36.795326 47.012766 36.795326 48.010106 28.678305 48.010106 25.678305 48.728191"/><path class="cls-2" d="M30.326145,50.049867s2.165013,1.372436,2.277692,2.64375h1.707447s-.319149-2.399203.207447-2.64375,3.271277,3.266091,3.271277,3.266091c0,0-.713862-4.771277-3.731931-4.978723s-3.895729.829787-3.895729.829787l.163798.882845Z"/><path class="cls-7" d="M28.529369,53.204255s.286562-1.927782,1.796776-3.154389c.647762-.526117,1.520641-.923236,2.692585-.983909,0,0,3.223404-.457447,4.771277,4.25h2.920213l-3.914894-5.305851h-8.117021l-3.12766.718085-2.37766,3.550532,1.420213-.079787s.638298-2.744681,1.803191-2.824468.031915,3.303191.031915,3.303191l2.101064.526596Z"/><path class="cls-9" d="M51.861846,53.31593c-.025818-.113098-.067017-.215149-.127625-.310059.229492-.183228.385742-.453186.385742-.769714,0-.552307-.447693-1-1-1-.254639,0-.481079.102844-.657654.259583-.157837-.104187-.33606-.17981-.539307-.17981-.163086,0-.310852.048218-.446838.117432-.135986-.069214-.283691-.117432-.446777-.117432-.320435,0-.592773.1604-.775818.394775-.144409-.080933-.302185-.139465-.479492-.139465-.340271,0-.625977.180847-.80658.44043-.11322-.044495-.23468-.073364-.363647-.073364-.164734,0-.31366.049377-.450684.119934-.176331-.155823-.401917-.25824-.655701-.25824-.471619,0-.848694.333252-.954102.772522-.102356-.035339-.20813-.065063-.32251-.065063-.237,0-.445618.094421-.617004.232178-.171387-.137756-.380005-.232178-.617004-.232178-.307373,0-.572144.146606-.755554.364807-.181458-.185059-.432922-.301025-.712585-.301025-.351013,0-.644836.19165-.823303.465271-.172302-.140747-.383667-.236511-.623474-.236511-.231873,0-.435608.091736-.605225.224182-.179565-.266663-.469299-.452942-.815002-.452942-.135864,0-.265015.02832-.383118.077393-.182922-.201294-.440491-.332703-.733887-.332703-.365234,0-.670837.205566-.845398.497986-.042419.035461-.080688.070984-.116699.112854-.139648-.074097-.291626-.12677-.460754-.12677-.139954,0-.272705.029541-.393677.081482-.16272-.331909-.496338-.565552-.89093-.565552-.126892,0-.246033.029175-.357727.072266-.111694-.043091-.230774-.072266-.357666-.072266-.237122,0-.445862.094421-.61731.232361-.113831-.427185-.486206-.748291-.949219-.748291-.409973,0-.760498.247925-.914856.601074-.122559-.053528-.256714-.085144-.398987-.085144-.356995,0-.655701.197632-.832642.479187-.18042-.177063-.426514-.287659-.69928-.287659-.191406,0-.360046.068115-.512024.161377-.18335-.211914-.445312-.352905-.747498-.352905-.208069,0-.39032.078491-.550354.187256-.128113-.404663-.493103-.703186-.940125-.703186-.051208,0-.095215.021667-.144348.029114-.172363-.301147-.483826-.513184-.855652-.513184-.392761,0-.724487.231934-.888062.561401-.118103-.049133-.247253-.077332-.383179-.077332-.084412,0-.159668.02832-.237976.048035-.169189-.312195-.488342-.532104-.868408-.532104-.330261,0-.609009.170654-.791077.41748-.169983-.133606-.374817-.225952-.607849-.225952-.160156,0-.305847.045898-.440063.112793-.173523-.296509-.481873-.505249-.85022-.505249-.380737,0-.7005.220581-.869446.53363-.182983-.201294-.440491-.332703-.733887-.332703-.299194,0-.559692.137756-.74292.346008-.149719-.089294-.314819-.15448-.50177-.15448-.234619,0-.440979.093201-.611511.228455-.182007-.248169-.461426-.419983-.792725-.419983-.255188,0-.482178.103027-.658875.260376-.107361-.039368-.220093-.068848-.341125-.068848-.281067,0-.533081.117554-.714722.304199-.164124-.117981-.354675-.201965-.572205-.201965-.122375,0-.236633.029419-.344971.069641-.155396-.099426-.329529-.171875-.52771-.171875-.298279,0-.558228.136719-.741394.343811-.173279-.144165-.387878-.241577-.63092-.241577-.552307,0-1,.447754-1,1,0,.197876.072266.371704.171448.526978-.065979.052673-.120789.111755-.17157.17926h-1.378418v7.292542h43.200012v-7.292542h-1.058167Z"/><path class="cls-12" d="M7.256218,8.340466v55.319031h48.127563V8.340466H7.256218ZM51.119988,59.399976H11.520012v-28.799988c0-3.97644,8.864746-7.200012,19.799988-7.200012s19.799988,3.223572,19.799988,7.200012v28.799988Z"/><path id="Main" class="cls-6" d="M53.11476,9.232509c.367763-.309556.96315-.308817,1.329833.001651.365922.309823.365921.81118-.000002,1.121002l-5.319336,4.490609c-.366614.310526-.365626.813154.002207,1.122651.36697.308771.960658.308771,1.327627,0l3.989502-3.367957c.367221-.310012.367221-.812638,0-1.12265l-2.659666-2.245305c-.367224-.310012-.962611-.310012-1.329835,0h0s-2.659666,2.245305-2.659666,2.245305c-.367221.310012-.367221.812638,0,1.12265l3.989502,3.367957c.367832.309497.963219.308664,1.329833-.001861.365755-.309797.365755-.810991.000001-1.120789l-5.319336-4.490609c-.366684-.310467-.36581-.813095.001952-1.122651.366999-.308914.96088-.308914,1.32788-.000002l1.994752,1.683976,1.994752-1.683976Z"/><path id="Main-2" class="cls-6" d="M53.11476,9.232509c.367763-.309556.96315-.308817,1.329833.001651.365922.309823.365921.81118-.000002,1.121002l-5.319336,4.490609c-.366614.310526-.365626.813154.002207,1.122651.36697.308771.960658.308771,1.327627,0l3.989502-3.367957c.367221-.310012.367221-.812638,0-1.12265l-2.659666-2.245305c-.367224-.310012-.962611-.310012-1.329835,0h0s-2.659666,2.245305-2.659666,2.245305c-.367221.310012-.367221.812638,0,1.12265l3.989502,3.367957c.367832.309497.963219.308664,1.329833-.001861.365755-.309797.365755-.810991.000001-1.120789l-5.319336-4.490609c-.366684-.310467-.36581-.813095.001952-1.122651.366999-.308914.96088-.308914,1.32788-.000002l1.994752,1.683976,1.994752-1.683976Z"/><path class="cls-6" d="M52.600293,9.666822l-.300907.254027M49.940629,9.666822l-.300907.254027M51.270461,13.034779l-.300907.254027M51.270461,15.280086l-.300907.254027M53.629226,10.789472l.300907.254027M48.309881,10.789472l.300907.254027M52.299385,14.157429l.300907.254027M49.639722,14.157429l.300907.254027"/><path class="cls-6" d="M52.619099,9.650945l-.338521.285781M49.959436,9.650945l-.338521.285781M51.289268,13.018902l-.338521.285781M51.289268,15.264209l-.338521.285781M53.61042,10.773595l.338521.285781M48.291074,10.773595l.338521.285781M52.280579,14.141552l.338521.285781M49.620915,14.141552l.338521.285781"/><path class="cls-6" d="M41.16313,22.773557c3.476578.567261,5.203995.976944,8.591202,2.048447-.46077-1.488235-.715134-2.231888-1.271988-3.714172,1.239883-.984818,1.880646-1.463165,3.202164-2.387589-3.741867-1.183701-5.650116-1.636276-9.490723-2.262939-.412292,2.52652-.618408,3.789749-1.030655,6.316254Z"/><path class="cls-8" d="M44.867217,21.310239c-1.521469.539963-2.262955.833878-3.704086,1.463318.137405-.842163.206116-1.26326.343536-2.105423,1.486649-.622009,2.250809-.911591,3.817429-1.441666-.182755.833511-.274124,1.250259-.456879,2.083771Z"/><path class="cls-6" d="M21.476897,22.773557c-3.476547.567261-5.203888.976944-8.591194,2.048447.46077-1.488235.715149-2.231888,1.271996-3.714172-1.239899-.984818-1.880692-1.463165-3.202202-2.387589,3.74192-1.183716,5.650215-1.636292,9.490822-2.262939.412277,2.52652.618393,3.789749,1.030579,6.316254Z"/><path class="cls-8" d="M21.476897,22.773557c-1.441101-.62944-2.182587-.923355-3.704056-1.463318-.182739-.833511-.274124-1.250259-.456879-2.083771,1.566635.530075,2.330811.819656,3.817429,1.441666.137405.842163.206116,1.263245.343506,2.105423Z"/><path class="cls-6" d="M44.867217,21.310239c-10.709732-2.348236-16.384659-2.348236-27.094376,0-.548248-2.500519-.822372-3.750763-1.370667-6.251297,9.188416-2.222595,20.647308-2.22258,29.835724,0-.548309,2.500534-.822433,3.750778-1.370682,6.251297Z"/><path class="cls-10" d="M21.693526,15.156949c-.145462.188568-.217545.283081-.360535.472519.201004,1.186615.301498,1.779907.502548,2.966522.167999.110596.251602.166214.417969.278046-.53981.08786-.809326.135086-1.347427.236099.137299-.165268.206482-.247711.345917-.412155-.139862-.776169-.209778-1.164261-.349609-1.940445-.205246,1.075302-.299225,1.613144-.46994,2.688477-.111664.022064-.16748.033234-.279068.055847-.015579-.029129-.023392-.043686-.038986-.0728.101257-.020569.151886-.030746.25322-.050842.176849-1.14621.274979-1.719513.490631-2.865753-.031799-.176453-.047684-.264679-.079468-.441147-.245483,1.26712-.356293,1.900955-.554047,3.168091-.081741.016388-.122604.024673-.2043.041367-.50914-.861237-.770233-1.289352-1.305328-2.140121.132858.605515.199295.908264.332199,1.513779.044373.202225.089523.342285.135239.420258s.13031.156418.25322.23587c.133133.108032.199402.162231.331375.271027-.607224.127548-.910217.195572-1.514618.340073-.028152-.025803-.042267-.038696-.070465-.064468.568115-.136398.852875-.200851,1.423508-.322296-.056427-.053894-.084686-.080795-.141342-.134552-.519669.111649-.779007.170578-1.296585.294601.021362-.018372.032043-.027557.053452-.045914.18721-.16713.302582-.317444.344437-.452347.04184-.134918.033768-.330872-.024933-.587921-.215744-.944839-.323593-1.417236-.539276-2.362061-.195053-.104523-.292999-.156387-.489822-.259293.64035-.150925.961319-.221939,1.604584-.355118-.149292.187683-.223312.281754-.370102.470337.555603.883804.826508,1.328613,1.354263,2.223541.022797-.108505.034286-.162766.057465-.271271-.47377-.792755-.716248-1.187012-1.212341-1.970825.13826-.145447.207809-.217957.347794-.362579.030075.014175.045105.021286.075134.035507-.134644.132599-.201584.199081-.334732.332428.461746.737625.687775,1.108444,1.13002,1.853836.14679-.880524.225937-1.320862.395691-2.201309-.178955-.123337-.268875-.184677-.449646-.306656.632416-.119873.949249-.175537,1.583908-.278351ZM18.317168,16.514676c.183838.821075.275772,1.231598.459656,2.052673.070419.314484.149765.523865.237457.628418.087692.104568.233475.162201.437332.174316-.014175-.014923-.021286-.022385-.035492-.037308-.218521-.088791-.355637-.254272-.409576-.498383-.018692-.084671-.028046-.127014-.046753-.2117-.149399-.67627-.224091-1.014404-.373459-1.690689-.107147-.167145-.16098-.25061-.269165-.417328ZM21.904677,15.354489c-.126053.116165-.188797.174408-.313629.291229.192368,1.165482.288544,1.748215.480972,2.913696.243149.195038.363754.293198.602936.490784-.620987.09668-.931.149384-1.549774.263535-.022049-.028107-.033096-.04216-.055191-.070236.564728-.104614.847626-.15329,1.41423-.243362-.191605-.155838-.288055-.233353-.482178-.387543-.199982-1.20105-.299942-1.801575-.499878-3.002625.131012-.118042.196854-.176895.329147-.294205.029373.015472.044037.023224.073364.038727Z"/><path class="cls-10" d="M22.166304,15.082288c.593903-.09137.891312-.133331,1.486786-.209793-.148041.179688-.221481.26976-.367172.450348.163879,1.208878.245789,1.813309.409698,3.022171.165817.102875.248337.154617.412613.258698-.548859.070709-.822968.109436-1.370392.193665.142792-.158325.214706-.237259.359589-.394669-.177032-1.209381-.265503-1.814072-.442505-3.023453-.194458-.119583-.292191-.178986-.488617-.296967ZM23.815322,15.020184c-.113022.133545-.169189.200439-.280899.334503.15564,1.18396.233414,1.77594.389069,2.9599.227615.192291.340515.289001.564453.483521-.610214.074753-.914963.116302-1.523453.207794-.033966-.026886-.050964-.040329-.084991-.067169.569412-.08638.854568-.1259,1.425507-.197632-.182999-.15535-.275101-.232666-.460526-.38652-.160324-1.205795-.240448-1.808685-.400757-3.014496.123566-.148834.18576-.223099.310959-.371292.024277.020554.036392.030823.060638.051392Z"/><path class="cls-10" d="M27.642882,14.494641c-.016907.034302-.028122.057495-.033707.06958-.077042.14566-.115326.218552-.191345.364456-.064941.129501-.122147.289978-.171417.481308-.00209.006012-.003113.009018-.005203.015045l-.032501-.018311c-.004776-.014938-.007187-.0224-.011963-.037338-.075607-.217941-.172623-.365784-.290741-.443207-.118103-.077438-.292664-.107376-.522827-.088348-.094162.007782-.187988.019669-.281418.03569-.015076.001312-.022583.001968-.037659.003296.11145,1.265427.167099,1.898148.278503,3.163559.151428.114899.226776.172592.376678.288483-.540253.044205-.810181.06955-1.349518.126724.150772-.153854.226669-.230545.379547-.383392-.11441-1.16037-.171555-1.740585-.285965-2.90097-.088791.007568-.133179.011444-.221954.019348-.214355.021942-.362564.077942-.444199.166519s-.11937.23291-.11351.432724c-.03215.003632-.048218.005463-.080353.009125-.003281-.22963.041382-.394974.134308-.495682.092926-.100723.258438-.164139.495987-.188461.075134-.006516.112701-.009705.187851-.015991.013763-.001358.02063-.002029.034393-.003387-.00563-.057144-.008453-.085724-.014084-.142868-.107712-.00116-.209656.003296-.30574.01326-.269485.027954-.45816.100784-.565262.216156-.107086.115356-.152283.295242-.136292.539185-.014862.001724-.022278.002594-.03714.004349-.120438-.259186-.294144-.543442-.523895-.851364-.008987-.010681-.013474-.016037-.022476-.026718,1.513046-.189194,2.272156-.25975,3.791901-.352768ZM27.045394,15.177441c-.167191-.085876-.358749-.120422-.57341-.102921-.047928.003906-.097717.010956-.149307.021164.103622,1.173187.155258,1.759811.258377,2.933014.207367.203705.310165.30603.513977.511597-.601776.045364-.90242.072113-1.503067.133652-.030258-.028702-.045425-.043045-.075745-.071716.563766-.058456.845947-.084122,1.410721-.128357-.171997-.166367-.258606-.249222-.433029-.414276-.103897-1.21666-.155792-1.825012-.25972-3.041672.06749-.006943.101257-.010376.168762-.01712.202423-.016708.347137-.012512.433899.011322.086761.023819.156311.078995.208542.165314ZM27.85237,14.667065c-.134781.179962-.26915.473907-.400177.881775-.004196.012024-.006287.018036-.010483.03006-.028732-.020432-.043106-.03064-.071884-.051025.003006-.010773.004532-.016159.007553-.026932.126144-.41362.258438-.70372.393906-.870224.00589-.007385.008835-.011093.014709-.018478.026581.021912.039856.032883.066376.054825Z"/><path class="cls-10" d="M30.788634,14.384534c-.130219.139435-.194962.209335-.323669.349472.213425.507935.317947.76239.522552,1.272171.049057-.026062.073608-.039062.122772-.065018-.183884-.461075-.277649-.691254-.468719-1.150833.131454-.14447.197571-.216522.330627-.36026.032913.012695.049362.019058.082245.031799-.126892.13768-.189957.20668-.315399.345016.179993.435379.268387.653412.44194,1.090118.024597-.017639.038971-.028397.043076-.032318.040619-.032883.060989-.049301.101715-.082108.061737-.046875.100967-.079987.117508-.099487.053131.222763.134521.422211.243591.598679-.059143-.004272-.10199-.006409-.12851-.006516-.193848-.000793-.335709.028824-.425171.087708.223129.574677.33194.862564.544144,1.439285.177979.137054.266434.205933.442261.344376-.598434-.008469-.897705-.008728-1.496155-.001343.16185-.137939.243271-.206635.407104-.343399-.134109-.341507-.202133-.51207-.34021-.852768-.219498.219223-.385178.428314-.499023.625916-.027664-.006485-.041519-.00972-.069199-.016174.113724-.193832.285965-.411102.519333-.650192.009537-.011841.014328-.017746.02388-.029587-.023605-.051285-.035431-.076935-.059143-.128204-.238449.19632-.432526.424805-.582718.684143-.022369-.033493-.033585-.050232-.056015-.083694-.107986-.159592-.246399-.340683-.416519-.542603-.012573-.013687-.01886-.020523-.031433-.034195-.145386.338669-.212357.612839-.205002.821701.004333.122971.029404.226135.074951.309586.045547.083466.153046.221924.320221.416443.014282.017166.036713.043884.06723.08017-.637054.017502-.955521.030777-1.592041.066345-.02533-.030273-.038025-.045395-.063431-.075638.600784-.03421.901382-.047302,1.50267-.06543-.020828-.024002-.031235-.035995-.052109-.059967-.134949-.15213-.22496-.270569-.268723-.355988-.043762-.085403-.067917-.18663-.07222-.303726-.007309-.199097.064133-.498978.219513-.898727-.055222-.052155-.082886-.078201-.138351-.130219-.024231.063385-.054474.156296-.090485.278778-.035645.120911-.053391.181381-.088623.302338-.048172.162109-.069824.295898-.065659.401291.004318.109283.026855.19928.067368.270035.040527.070755.123703.166245.24855.287033.012253.011307.03067.029236.055206.053833-.5923.01976-.888397.033524-1.480179.068848.273468-.161102.487686-.366531.642532-.618347s.304031-.63559.450928-1.151474c.004242-.016586.006363-.024887.01062-.041473-.111298-.083633-.269669-.130981-.47464-.14093.104736-.165237.184586-.335861.238968-.512146.029892.024139.048019.039032.054428.044632.057587.046875.086304.070343.143661.117355.048889.041077.106964.08284.174133.125366.020233-.052338.030396-.078491.050751-.130814-.015198-.011185-.022797-.016785-.03801-.027954-.105774-.082199-.194946-.148102-.267151-.197968-.011459-.007751-.017197-.011627-.028656-.019363.018738-.026566.028122-.039856.046906-.066406.112106.063934.220154.139084.32399.225388.152588-.443832.230438-.665512.389282-1.108322-.136887-.129883-.205688-.194626-.344055-.32373.582489-.019257.87384-.025345,1.456558-.030502ZM29.880522,15.00018c-.187012.496857-.278488.745651-.45726,1.243927.160126.147202.297562.293823.412827.439346.057846.073547.08667.110352.144165.184036.002075.001907.012466.014359.031174.037384.017761-.01799.027634-.028961.029556-.032898.016525-.020294.024796-.030441.041351-.05072.00589-.00795.016739-.020874.032562-.038788-.146011-.207932-.316406-.394348-.511368-.558609.145218-.400543.219162-.600586.369705-1.000214-.036942-.089417-.055496-.134109-.092712-.223465ZM30.028701,15.336697c-.129425.342758-.193161.514313-.318665.857742.018936.019028.029465.030457.031616.034317.051697.052521.077484.078812.128952.131454.069.068619.157104.175934.263489.322235.012512.017319.018768.025986.031265.04332.084961-.107193.18663-.213547.305237-.318802-.17366-.428772-.262024-.642822-.441895-1.070267ZM31.714415,15.824902c.044067.176086.155365.417984.330246.726837-.044601-.006424-.069962-.009628-.07605-.009689-.098633-.009308-.147949-.013855-.246658-.022736-.111694-.010544-.192978-.015686-.24379-.015823-.008133-.000015-.028458.0009-.060989.002792.202789.519485.301895.779678.49559,1.300858.263428.233612.393814.351196.65181.587814-.683121-.015121-1.024811-.017487-1.708054-.011841-.022675-.031448-.034042-.047165-.056793-.078598.627487-.005814.941269-.004349,1.568695.007324-.209229-.190247-.314728-.284897-.527481-.473175-.207031-.553864-.313126-.830338-.530472-1.382263.069153-.017593.14856-.026276.238098-.025925.109894.000427.231964.01001.366028.028961-.014374-.02594-.021561-.038895-.03598-.064819-.128128-.231705-.215195-.44017-.259537-.625946.038177.022461.057236.033707.095337.056229Z"/><path class="cls-10" d="M36.182128,14.578732c-.021988.020554-.032959.030838-.054886.051407-.233673.226196-.423523.493256-.570404.799957-.017502-.046295-.030716-.080505-.039566-.102676-.097565-.241867-.210693-.401306-.338043-.478027-.127365-.076721-.362137-.125977-.703812-.143967-.157211-.008286-.346146-.012756-.566681-.012512-.02327.538574-.034897.807846-.058182,1.34642.07869.003387.118042.005157.196716.00882.022202-.47644.033295-.714661.055481-1.191101.159531-.006256.311508-.005386.455765.002441.265533.014389.459427.052948.581284.113602s.226578.170502.313538.329269c-.02771-.0215-.04747-.037552-.059265-.048141-.159714-.136261-.27713-.218048-.350754-.24614-.073624-.028076-.22113-.049026-.442429-.061203-.066803-.003662-.186035-.006271-.35762-.006851-.026367-.000122-.039536-.000168-.065903-.000259-.021301.444809-.031952.667206-.053268,1.112015.226196.010834.339279.0168.565384.029816.170456-.197952.256378-.296631.429565-.493332-.032455.504044-.048676.756058-.081146,1.260101-.143875-.205368-.216492-.307846-.363068-.512314-.334015-.019226-.501099-.027649-.835281-.042084-.028397.656815-.042603.985229-.070969,1.642029.076141.003281.114212.00499.190338.008545.028015-.601685.042038-.902542.070068-1.504227.264999.012329.397461.019257.662338.034622.029968.032257.044922.048401.074814.080688-.265717-.015762-.398636-.022903-.664474-.035629-.027359.571228-.041046.856842-.068405,1.428055.404434.019363.693268.00882.867477-.036926.174225-.045761.31575-.147629.425156-.306366.070923-.101913.106537-.152817.17804-.254517.006866-.011246.020462-.031799.040817-.06163.036362.218109.088318.394348.154938.528763.066635.13443.180847.294174.341934.480148-1.326004-.111191-1.990494-.147232-3.319656-.180206.183594-.131424.275925-.196762.461655-.326675.017136-.522369.025711-.783569.042847-1.305939-.171448.013916-.327469.060364-.467438.138947-.016434-.025024-.024658-.037537-.041122-.062546.125946-.082932.296432-.134171.511063-.152542.001801-.055038.002701-.082565.004517-.137619-.034576-.005035-.059006-.007767-.073288-.008209-.208206-.006577-.400299.061768-.574341.204498.100372-.310394.319809-.462051.655991-.451035.016403-.500122.024612-.750198.041-1.25032-.18634-.146805-.28006-.219849-.468674-.365189,1.34845.033447,2.022537.069061,3.36795.17804ZM36.377104,18.344327c-.070908.099518-.106201.149323-.176559.249069-1.285004-.111984-1.928955-.149506-3.217163-.187607-.017929-.032196-.026917-.048279-.044907-.080444,1.293579.037186,1.940247.074356,3.230637.185928.046417-.070099.069702-.105118.116379-.17511-.26088-.283798-.440613-.576096-.535858-.879272.037338.016998.055969.025513.093262.042572.09021.257919.254959.521927.491089.793945.017273.020355.025894.030548.043121.050919ZM35.326262,15.69888c-.035156.516769-.05275.775162-.087906,1.291946-.029205-.017258-.043823-.025879-.07309-.043106.034485-.516815.051727-.775223.086212-1.292053.029922.017273.044891.025909.074783.043213ZM36.316344,14.795544c-.009674.009766-.014496.014664-.02417.024445-.281906.297958-.470978.553177-.571808.763062-.019257-.026108-.02887-.039169-.048172-.065262.160828-.291718.362259-.55452.605255-.787216.015579.02597.023361.038971.038895.064972Z"/><path class="cls-10" d="M41.008162,15.166608c-.197693.132812-.295975.199631-.491486.334061-.18512,1.189209-.277649,1.783798-.462708,2.973007.124237.158096.185913.23732.308289.396088-.539825-.087616-.810165-.128113-1.351471-.20256.182236-.113342.273834-.169632.457932-.281494.113144-.780518.169724-1.170761.282883-1.951279-.534653.955048-.793716,1.435501-1.295212,2.40152-.11261-.01442-.168915-.021484-.281555-.035324-.005524-.032547-.008316-.048828-.013855-.08139.102234.012527.153336.01889.255524.031876.529678-1.031281.803894-1.544083,1.370834-2.563141.025726-.177444.038589-.266159.064316-.443604-.633453,1.124268-.938766,1.690491-1.526398,2.829895-.082474-.010315-.123718-.015396-.206223-.025406-.209091-.977997-.320496-1.466705-.557037-2.443024-.065781.616425-.098679.924637-.164459,1.541061-.021957.205856-.023575.352997-.005035.441422.018524.088425.073639.189606.164627.303848.091614.144577.1371.216965.227417.361908-.614075-.071091-.921539-.102402-1.536926-.156555-.018402-.033386-.027634-.050079-.046097-.083435.578598.050354.867661.079269,1.445129.144592-.036285-.06897-.054474-.103439-.091003-.172348-.526138-.058472-.789459-.08461-1.316528-.130707.02594-.010666.03891-.016006.06488-.026642.229248-.099304.386032-.205353.468094-.320068.082077-.114731.135834-.303223.161606-.565628.094727-.964508.14212-1.446762.236832-2.41127-.151047-.160843-.227081-.241028-.380219-.400909.651474.059418.976929.093567,1.626999.170731-.200409.130798-.300079.196625-.498291.329086.245621,1.014145.361069,1.52179.57724,2.537659.055862-.095703.083878-.143539.140106-.23912-.197449-.901901-.302048-1.3526-.523117-2.253067.176575-.094238.265228-.141022.443253-.233932.023956.02298.035904.03447.059814.057465-.169205.083176-.253494.125076-.421448.209442.203262.845795.299744,1.269073.482376,2.116043.417252-.788818.631424-1.181473,1.07074-1.962936-.130447-.17363-.196182-.260269-.32869-.433182.636475.086411.9543.133865,1.588867.23732ZM37.384017,15.386151c-.085724.837036-.128601,1.255554-.21431,2.092575-.032837.320587-.023575.544357.026184.67128s.168686.227661.357407.303635c-.008682-.018646-.013031-.027969-.021729-.046616-.17836-.153351-.255524-.353683-.22934-.60231.009079-.086243.013626-.129364.022705-.215607.072556-.688766.108841-1.033157.181381-1.721924-.04837-.192459-.07283-.288666-.122299-.481033ZM41.145919,15.420865c-.156387.070251-.234344.105637-.389725.17691-.1866,1.166443-.279877,1.749649-.466431,2.916077.168839.261978.252151.39328.416565.656464-.61998-.104996-.930542-.153137-1.552536-.240662-.011978-.033646-.01799-.050461-.030029-.084106.56778.079483.851318.122864,1.417435.216873-.132446-.208496-.199371-.312561-.334625-.520294.190643-1.20256.285965-1.803833.476669-3.006393.161606-.070496.242691-.105453.40535-.174835.022949.023972.034409.035965.057327.059967Z"/><path class="cls-10" d="M44.85504,15.923123c-.024841.01712-.037247.025681-.062057.042831-.265274.189545-.492828.42598-.683365.707932-.010696-.04837-.018875-.084167-.024475-.107407-.061951-.253601-.151321-.427917-.26683-.522476-.115494-.094559-.341782-.177643-.678741-.245392-.155045-.031174-.342148-.063187-.561295-.095154-.101257.52948-.151871.79422-.253113,1.323685.077682.014862.116531.022354.194183.037476.091141-.46817.136719-.702255.227875-1.17041.159424.017105.310333.040176.452591.069.261826.053055.449005.119583.561371.197433.11235.077835.200546.201859.264008.371689-.024429-.02533-.041748-.044098-.051941-.05632-.139069-.158203-.243942-.256317-.31308-.294876-.069122-.038559-.212723-.080856-.430923-.125259-.065872-.013397-.18399-.033401-.354416-.059052-.026184-.003967-.039276-.005936-.06546-.009888-.085693.436996-.128525.655502-.214203,1.092484.22319.043762.334717.066193.557587.112137.198135-.170929.297852-.255997.498581-.425278-.105347.493973-.15802.740952-.263351,1.234924-.113297-.224258-.170639-.336273-.286697-.560013-.329224-.067871-.494049-.100616-.823975-.163696-.123459.645737-.185181.968597-.308624,1.614319.075165.014374.112747.021622.187881.036255.115097-.591248.172653-.886871.28775-1.478119.26152.050919.392166.077133.653229.131073.025131.036301.037659.054443.062683.090775-.261856-.054474-.392929-.080948-.655258-.132385-.110016.561203-.165024.841797-.27504,1.402985.399078.078247.687759.110062.867599.090286s.335358-.099854.467178-.240891c.085297-.090454.128098-.135605.213959-.225754.008453-.010132.024948-.028473.049515-.055008.004562.22113.030685.403137.077484.545914.046783.142776.137238.317581.270569.525238-1.303207-.304565-1.958435-.437286-3.273361-.66362.201355-.103271.302505-.154465.505829-.25592.092773-.514359.13916-.771545.231949-1.285904-.172302-.01123-.333969.011978-.484344.069336-.01268-.027161-.019028-.040741-.031738-.067886.137054-.06369.313782-.089539.529602-.076401.009781-.054199.014664-.081314.024445-.135513-.0336-.010025-.05748-.016296-.071594-.018814-.205811-.036865-.406464.002747-.599945.118607.144653-.29248.384506-.410568.716782-.350632.088837-.492432.133255-.738663.222107-1.23111-.163757-.17244-.246231-.258377-.412415-.429672,1.334.22963,1.99881.363312,3.321487.668472ZM44.503279,19.677716c-.084991.088074-.12735.132172-.211807.220551-1.262451-.299408-1.897125-.430649-3.170868-.656189-.013153-.034454-.01973-.051682-.032928-.086136,1.27916.225388,1.91658.356674,3.184418.656433.056351-.062531.084595-.093765.141205-.156174-.218491-.319122-.354904-.634689-.405701-.948654.034668.022293.051971.033463.086594.055801.052368.268433.177979.553833.37355.857651.014236.02269.021332.034027.035538.056717ZM43.841338,16.906049c-.109894.50618-.164825.759277-.274689,1.265457-.02655-.021362-.039841-.032028-.066437-.053345.109207-.506332.163803-.759491.273026-1.265808.027252.021469.040878.032196.0681.053696ZM44.957137,16.157346c-.011047.008255-.016556.01239-.027588.020645-.3237.253479-.548752.478287-.679474.671188-.015366-.028656-.023041-.042984-.038452-.07164.202255-.26506.440735-.49559.716232-.690186.011734.028.017593.041992.029282.069992Z"/><path class="cls-6" d="M41.16313,53.427914c3.476578-.567261,5.203995-.976944,8.591202-2.048447-.46077,1.488235-.715134,2.231888-1.271988,3.714172,1.239883.984818,1.880646,1.463165,3.202164,2.387589-3.741867,1.183701-5.650116,1.636276-9.490723,2.262939-.412292-2.52652-.618408-3.789749-1.030655-6.316254Z"/><path class="cls-8" d="M44.867217,54.891232c-1.521469-.539963-2.262955-.833878-3.704086-1.463318.137405.842178.206116,1.26326.343536,2.105423,1.486649.622009,2.250809.911591,3.817429,1.441666-.182755-.833511-.274124-1.250259-.456879-2.083771Z"/><path class="cls-6" d="M21.476897,53.427914c-3.476547-.567261-5.203888-.976944-8.591194-2.048447.46077,1.488235.715149,2.231888,1.271996,3.714172-1.239899.984818-1.880692,1.463165-3.202202,2.387589,3.74192,1.183716,5.650215,1.636292,9.490822,2.262939.412277-2.526505.618393-3.789749,1.030579-6.316254Z"/><path class="cls-8" d="M21.476897,53.427914c-1.441101.62944-2.182587.923355-3.704056,1.463318-.182739.833511-.274124,1.250259-.456879,2.083771,1.566635-.530075,2.330811-.819656,3.817429-1.441666.137405-.842163.206116-1.263245.343506-2.105423Z"/><path class="cls-6" d="M44.867217,54.891232c-10.709732,2.348236-16.384659,2.348236-27.094376,0-.548248,2.500519-.822372,3.750763-1.370667,6.251297,9.188416,2.222595,20.647308,2.22258,29.835724,0-.548309-2.500534-.822433-3.750778-1.370682-6.251297Z"/><path class="cls-10" d="M20.005599,57.493253c-.013885.010727-.020828.016113-.034729.026825-.147491.119446-.276398.264221-.385681.435883-.006134-.029205-.010941-.050156-.014191-.063812-.035675-.151077-.085434-.254364-.150696-.310196-.064789-.05574-.19191-.103836-.381363-.145615-.087234-.019241-.19249-.039658-.315796-.061584-.071426.315369-.107132.473038-.178543.788391.045181.010239.067764.01532.112961.025467.062668-.279297.093994-.418945.156662-.698257.090485.012314.175964.02626.256058.043839.148041.032516.253342.072052.316849.117554.063507.045486.113541.118927.149857.220322-.014191-.014954-.024094-.026016-.029724-.033188-.079636-.093582-.138519-.151108-.177765-.1745-.038971-.022339-.120178-.046738-.24408-.073883-.037415-.008194-.103897-.020782-.200638-.037338-.014938-.002533-.0224-.003784-.037338-.006332-.058258.260681-.087402.391022-.14566.651688.130295.029129.19548.043503.325897.071869.117752-.101883.176392-.152969.293198-.255432-.063171.296371-.094757.44455-.157944.740921-.067535-.134583-.101059-.20192-.167603-.33667-.193893-.042175-.290756-.063675-.484375-.107529-.087112.384674-.130676.576996-.217804.961655.046082.010422.069122.015625.115204.02597.079102-.352448.118637-.528671.197708-.881119.154099.034576.231186.051605.385468.085114.014664.021957.022018.032944.036713.054901-.155197-.033569-.232758-.050629-.387787-.085297-.074799.33461-.112198.501892-.186996.836487.245514.054886.423691.076187.534119.06488.110931-.0112.205872-.059067.28479-.144257.051331-.054672.07695-.082047.128082-.136826.004883-.005966.015152-.017792.029373-.033783.005249.13269.022827.241989.053436.326996.031113.085114.089722.189789.176849.311874-.813293-.163528-1.218918-.252548-2.027481-.445099.128525-.053284.192627-.080124.320465-.134109.071106-.305008.106644-.457504.177734-.762512-.102249-.011795-.198853-.003525-.290573.024811-.006638-.01683-.009933-.025238-.016556-.042068.084259-.032089.190079-.042099.317535-.02742.007538-.032333.011307-.048492.018829-.080826-.019714-.006592-.033752-.01088-.041626-.012726-.120483-.028183-.240112-.011444-.360077.05011.097916-.16925.242996-.230759.436279-.185699.068146-.29245.102234-.438705.170395-.731155-.086792-.106857-.129959-.160339-.215866-.267517.740448.176331,1.111847.258163,1.85643.409195ZM19.865187,59.750058c-.049973.054626-.075012.081909-.125168.136429-.795044-.158234-1.191605-.244263-1.982193-.430145-.00708-.021317-.01062-.031982-.017685-.053299.791901.1866,1.189117.272964,1.985474.431793.033279-.038361.049911-.057541.083099-.095947-.143555-.187714-.232758-.375336-.268188-.562973.02153.012787.032288.019165.053833.031937.035919.160751.117813.330826.24707.508667.009506.013412.014252.020126.023758.033539ZM19.430403,58.097058c-.064148.304153-.096222.456207-.16037.760361-.016037-.012558-.024048-.018845-.040054-.031418.064392-.304092.096573-.456131.160965-.760239.015778.012527.023666.018784.039459.031296ZM20.065184,57.630795c-.006104.005157-.00914.007721-.015228.012863-.180374.159866-.308716.297821-.383011.415039-.008942-.016998-.013412-.025497-.022339-.042511.115173-.16156.249908-.303284.403137-.426743.006973.016541.010452.024811.017441.041351Z"/><path class="cls-10" d="M20.374099,57.566724c.725159.142075,1.088654.207123,1.817001.325256-.087921.082672-.1521.149277-.192307.198059-.040359.049744-.09436.129852-.162613.242172-.008026.012924-.012039.019363-.02005.032272-.051376-.169952-.110764-.284988-.178558-.344193-.067307-.059097-.190598-.104126-.37001-.1362-.040115-.006378-.060165-.009583-.100266-.016037-.067902-.013062-.101852-.019638-.169724-.032913-.025787-.005524-.038666-.008301-.064438-.013855-.059891.323715-.089813.485565-.149689.809265.043289.008011.064941.011993.108231.019928.052292-.285782.078445-.428696.130753-.714493.020569.003357.030853.005051.051422.008392.073425.009399.150894.021378.232941.035965.239288.042526.37825.129333.417358.261719-.048737-.063705-.104477-.111862-.168823-.141815-.064194-.03093-.166656-.05864-.307388-.083786-.050827-.009079-.113876-.017441-.190155-.025391-.04866.267014-.072968.400528-.121613.667526.107574.019592.161377.029266.269012.048355.134705-.09668.201767-.145233.335358-.242691-.049927.290161-.07489.435257-.124817.725418-.100906-.135834-.151031-.203873-.250641-.340134-.163467-.029022-.245163-.043823-.408447-.074036l-.161057.870667c.076141.10701.11441.160461.19133.267212-.357361-.064606-.535843-.098312-.892426-.168488.136032-.066345.203857-.099731.33905-.16687.056854-.296844.085281-.445282.14212-.742126-.091782-.017563-.178574.000366-.260742.053909-.010864-.017258-.016296-.025879-.02713-.043121.083984-.060104.182175-.078735.296677-.056808.006241-.032593.009369-.048889.01561-.081497-.024872-.006744-.042328-.0121-.052719-.014099-.110367-.02124-.214844.004044-.312881.075226-.002762-.012085-.004135-.018143-.006897-.030228.083084-.138809.216446-.19696.400223-.175674.055817-.291489.083725-.437241.139542-.728729-.077698-.107132-.116348-.160767-.193237-.268158ZM21.250197,59.014264c-.146805-.025772-.220184-.038895-.366867-.065613-.053955.296204-.080933.444275-.134903.740479.10022.173843.150772.260666.252747.434097-.422668-.074585-.633759-.113815-1.055359-.196167-.014542-.022324-.021805-.033508-.036316-.055847.398575.078171.598129.115524.997665.186752-.083679-.142624-.125229-.214035-.207733-.356949.059052-.322647.088577-.483978.147614-.806625.143768.026306.215698.03923.359573.064621.01741.02211.026138.033157.043579.055252ZM21.659789,58.547025c-.050766.299149-.076141.448715-.126907.747849-.017029-.01358-.025543-.020386-.042542-.033966.05101-.299088.076523-.448639.127533-.747742.016754.01355.025146.020325.041916.033859ZM22.307189,58.019437c-.198303.166077-.33371.325684-.40419.479279-.013107-.012466-.019669-.018692-.032776-.031174.07489-.173599.211899-.333878.410019-.483063.010773.013992.016159.020981.026947.034958Z"/><path class="cls-10" d="M24.21733,58.183011c-.013.011749-.019501.017639-.032516.029373-.137695.13031-.255005.284439-.350784.463898-.008286-.028656-.014633-.049179-.01889-.062546-.046768-.147934-.103958-.247131-.173019-.297836-.068558-.050659-.198502-.088959-.389938-.116211-.08812-.012543-.19426-.024902-.318436-.037369-.047394.31987-.071091.479782-.118469.799637.04567.00676.068497.010117.114182.0168.041367-.283234.062057-.42485.103439-.708099.090851.005371.176849.012787.257767.024231.149567.021149.257187.052567.323715.093109s.121765.109955.165451.208298c-.015228-.013824-.025894-.024109-.032028-.030838-.086166-.087265-.149002-.140137-.189758-.160477-.040405-.019318-.122955-.037476-.248123-.055115-.037796-.005325-.104828-.012817-.202194-.021973-.015045-.001389-.022552-.002075-.037582-.003464-.038406.264328-.057617.396515-.096008.660828.131668.019135.197525.028503.329285.046875.10939-.110519.163864-.165924.272293-.276962-.040619.300308-.060913.450439-.101517.750732-.077209-.129059-.115585-.193634-.191803-.322937-.195862-.027298-.293747-.041367-.489426-.070358-.057785.390137-.08667.58519-.14447.975327.04657.006897.069855.01033.116425.01712.052216-.357391.078323-.536087.130524-.893509.155731.022751.233612.033859.389465.055542.01622.020782.024353.031189.040604.051956-.156769-.021683-.235138-.032791-.3918-.055557-.049286.339294-.073929.508926-.123215.848221.248093.036041.426788.043732.535706.024063.109421-.019592.200211-.074524.272278-.165466.046936-.058395.070343-.087646.117065-.146149.00441-.006317.013733-.018875.026672-.035904.015152.131897.040833.239548.077621.321976.037308.082504.103424.182419.199188.297531-.820831-.101349-1.230621-.159271-2.048355-.289612.123688-.062927.185379-.094559.308365-.158127.047821-.309494.071732-.464249.119553-.773743-.102478-.003983-.197845.011642-.28685.046875-.007843-.016281-.011765-.024414-.019592-.040695.081299-.038406.185715-.056442.313446-.051529.005066-.032791.007599-.049194.012665-.082001-.020096-.005081-.034363-.008286-.042313-.009521-.121826-.018921-.239426.006882-.354019.077393.084625-.176208.224167-.248581.419586-.218384.045853-.296753.068771-.44516.114639-.741943-.094208-.09993-.141113-.149963-.234482-.250275.748871.11937,1.1241.172729,1.875656.266815ZM24.246794,60.443845c-.045578.058243-.06842.087357-.114212.145508-.802307-.097458-1.202896-.153091-2.002319-.278183-.008636-.020721-.012939-.031082-.021561-.051804.800766.125717,1.202026.181625,2.005692.279587.030212-.040771.045303-.061157.075424-.101959-.156799-.176285-.259537-.356583-.308823-.54097.022354.011108.033539.016647.055923.027756.047745.157547.141907.320908.283752.488419.010452.01265.015671.018997.026123.031647ZM23.690718,58.828717c-.040985.308136-.061478.462173-.102463.770294-.016876-.011307-.025314-.016968-.042175-.028275.041229-.30809.061844-.462112.103073-.770218.016617.011292.024933.016922.041565.028198ZM24.286849,58.315625c-.005661.0056-.008499.008392-.014175.013992-.167343.17308-.284607.320374-.349686.442902-.010162-.016281-.015228-.024414-.025375-.040695.102386-.169846.225708-.321365.368805-.456116.008179.015976.012253.023956.020432.039917Z"/><path class="cls-10" d="M24.550536,58.223721c.336731.040115.505219.058899.842377.093948-.10936.085617-.164246.128296-.274429.213379-.081024.747009-.12146,1.120438-.202438,1.86734.00589.000626.00885.000946.01474.001587.026016.004776.039032.007156.065048.011917.006714.000717.010056.001068.016769.001785.079193-.741989.118744-1.112946.197998-1.855042.084549-.068344.126709-.1026.21077-.171265.008408.016571.012604.024857.021027.041428-.075668.062103-.113602.093079-.189667.154938-.077789.733994-.116623,1.100906-.194366,1.834808.054398.010666.106567.018082.156418.023224.194275.020065.344925-.006531.452255-.078644.107422-.07309.186447-.203049.237595-.388519.084625.329346.18309.556686.294495.683853-.767029-.065979-1.150192-.10527-1.915268-.196426.110352-.066681.165375-.100143.275085-.167343.083557-.728149.12529-1.092209.208893-1.82045-.087326-.100037-.130768-.150162-.2173-.250519ZM26.3804,60.660046c-.038284.060303-.05748.090439-.095947.150681-.769211-.06488-1.153458-.103638-1.920746-.193756-.016144-.021164-.0242-.031754-.040314-.052917.77681.091858,1.165848.131317,1.944641.197281.025177-.04216.037766-.063232.062866-.105408-.12149-.168884-.213776-.35437-.276352-.554993-.002136-.008041-.003204-.012054-.005341-.020081.022476.010635.033722.015945.056229.026566.003983.012512.005981.018753.009964.03125.066254.179306.15004.34726.251663.50264.005325.007507.007996.011246.013336.018738Z"/><path class="cls-10" d="M28.445388,58.551556c-.012054.012695-.018097.019058-.030167.031738-.127335.140289-.232574.302811-.314484.488968-.010406-.027954-.01825-.047943-.023483-.060944-.057632-.143997-.121994-.238632-.194534-.283997-.072037-.045349-.204254-.073761-.39682-.086533-.088638-.005875-.19519-.010208-.319702-.013306-.023239.32254-.034851.483795-.05806.80629.045944.003311.068924.004944.114883.008163.019974-.285538.029953-.428314.049957-.713882.090805-.00148.176956-.000565.258347.004761.150452.009842.259918.033081.329178.068497s.12944.100494.180283.195267c-.01619-.01265-.027573-.022095-.03418-.028336-.092316-.080536-.158813-.128555-.200912-.145767-.041656-.016205-.125183-.028107-.251083-.036285-.038025-.002472-.105286-.004883-.202881-.006683-.015076-.000259-.022598-.000366-.037659-.000641-.018448.266495-.027664.399734-.046097.666199.132477.009155.198715.01355.331223.021942.100616-.118439.150681-.17778.250305-.296646-.017944.302505-.026901.453735-.044846.756226-.086502-.122879-.129532-.184387-.215088-.307587-.196991-.012482-.295456-.01915-.492355-.033325-.028305.393372-.04245.590057-.070755.983414.04686.003372.070282.005035.117142.008316.025208-.360306.037796-.540466.063004-.900772.156677.010956.235031.016174.391769.026062.017715.019501.026581.029266.044312.048752-.157669-.009827-.236496-.014999-.394104-.025909-.023651.342041-.035477.513031-.059128.855057.249619.017273.428055.011505.534988-.016296.107452-.027786.19371-.089371.258636-.185486.042343-.061768.063461-.092682.105591-.154526.003922-.006638.012253-.019867.023865-.037827.024963.130386.058578.235794.101395.315231.04332.079468.116623.174133.220581.281708-.824799-.039352-1.236984-.066269-2.060364-.134644.118378-.072052.177383-.108246.294998-.180893.024414-.31221.036621-.468323.061035-.780533-.102249.003754-.195984.026505-.281906.068344-.009018-.01564-.013519-.023453-.022537-.039093.078018-.044434.180557-.070282.308029-.074997.002579-.033081.003876-.049637.00647-.082718-.020386-.003555-.034821-.005676-.042831-.006302-.122635-.009689-.237717.024887-.346436.103836.070999-.182083.204422-.264755.401138-.249359.023407-.299377.035126-.449081.058563-.748489-.101227-.092545-.151627-.138916-.252029-.231903.754028.062607,1.13147.087585,1.886749.124908ZM28.644088,60.803769c-.041016.061508-.061584.092255-.102814.153687-.806122-.03688-1.208969-.06221-2.013794-.12674-.010132-.020004-.015198-.030014-.025314-.050018.806183.065033,1.209717.090591,2.017227.127869.027023-.042938.040512-.064392.067444-.107346-.169327-.163986-.28511-.33606-.347992-.51622.023087.009399.034637.014084.057755.023468.059326.153519.165329.309326.319107.465698.011353.011841.017014.017776.028381.029602ZM27.969496,59.235043c-.017746.310333-.026596.465485-.044327.775803-.017639-.01001-.026459-.014999-.044083-.025024.01796-.310303.026947-.465439.044922-.775772.01738.01001.026077.014999.043488.024994ZM28.52455,58.678571c-.005234.006012-.007843.009003-.013077.015015-.153656.185181-.259369.340866-.314972.467941-.011337-.015472-.016998-.023193-.02832-.038666.089218-.177048.200653-.337433.333023-.482559.009338.01532.013992.022964.023346.038269Z"/><path class="cls-10" d="M29.700377,58.599576c.331543.008987.49736.012268.828979.016388-.099564.091736-.149551.137466-.249924.22876-.007141.424438-.010696.636642-.017822,1.061035.040604-.043839.060867-.065781.101318-.10968.005646-.374435.008453-.561661.014114-.936142.080811-.075333.121094-.113068.20137-.188705.010452.01535.015701.023041.026169.038391-.073914.069473-.110992.104156-.185364.173401-.004929.344025-.007401.516006-.012314.860001.227737-.256836.340347-.385803.563065-.644882.080322-.093353.120041-.178238.120224-.253418.000122-.04393-.022003-.086945-.066711-.127136-.045197-.040192-.099213-.06778-.163101-.080902.000046-.007034.000061-.010544.000107-.017563.37355.002441.560364.002136.933899-.001587.000076.007019.000107.010529.000183.017563-.204269.050858-.42308.217941-.661896.498703-.099716.115814-.149811.173615-.250534.288971.262207.505356.396255.757263.670151,1.259491.123856.075851.185974.113617.310623.188812-.382523.00412-.573807.004608-.956345.002502.097-.068207.145325-.102386.24176-.170975-.181747-.348953-.271286-.523773-.447586-.874115-.119308.138702-.179291.207886-.300018.345963-.002869.20108-.004303.30162-.007187.502686.117828.136017.177078.203903.29628.339325-.378952-.003494-.56842-.00676-.947296-.016342-.019409-.019623-.029114-.029465-.048492-.049103.354156.009262.531296.012558.885529.016479-.092499-.108414-.138519-.162704-.230164-.271484.003265-.217865.004913-.326782.008194-.544647.128815-.148407.19281-.222794.319992-.371918-.015564-.030991-.023346-.046494-.038879-.077499-.151215.171036-.227386.256317-.380829.426361-.003662.218628-.005493.327942-.009171.546585.087463.078018.131332.116928.21936.194611-.33728-.004379-.50592-.007782-.843124-.017014.103119-.079208.154495-.118927.256927-.198578.016953-.735855.025421-1.103745.042435-1.839706-.08992-.085678-.134705-.128616-.223923-.21463ZM31.884795,58.776685c-.175522.013748-.349152.116486-.523346.307266-.124695.136566-.187424.204697-.313629.340576.251907.50415.380661.755539.643707,1.256805.208939.132675.314011.198563.525314.329376-.469604.007858-.704453.009445-1.174118.007935-.02066-.019196-.030975-.028809-.051605-.048019.427246.00174.640884.000687,1.0681-.005325-.158676-.099701-.237656-.149811-.394989-.250565-.272659-.514603-.406021-.77269-.666809-1.29039.13414-.147064.200806-.220795.333237-.368637.173706-.190689.350754-.296265.533997-.315887.008057.014755.012085.022125.020142.036865Z"/><path class="cls-10" d="M33.780638,58.562756c-.069824.086044-.104874.129013-.175232.214828.129303.301422.194748.451935.327179.752579.028091-.016556.04213-.024872.070175-.041458-.119919-.27179-.17926-.407837-.296631-.680252.071732-.08873.107437-.133179.178589-.222137.01886.006927.028305.010391.047165.017303-.067719.085358-.101715.127975-.169968.21312.111267.257736.16748.386459.281036.643616.013962-.011444.02211-.018692.024017-.020737.022781-.021072.034164-.031601.0569-.052689.034546-.029114.056412-.050781.065277-.062973.037796.131973.092026.248413.162918.350143-.035202-.000046-.060333.00032-.075867.001144-.114334.006042-.197174.02771-.248672.065399.147644.338409.222427.507401.373978.844864.114426.075134.171814.112549.286987.187134-.371613.021912-.557495.031387-.929321.047409.09816-.085526.147034-.128387.244476-.214325-.091248-.201294-.136505-.302017-.226334-.503662-.127655.135559-.225632.263519-.292801.383347-.017029-.003647-.025574-.005463-.042603-.009109.06781-.117844.169815-.249786.305542-.397369.005356-.007263.008041-.010895.013382-.018158-.015076-.030228-.022614-.045349-.037643-.075562-.139206.121292-.253265.260513-.342514.418152-.013962-.020187-.020935-.030289-.034866-.050491-.066925-.094284-.151306-.202667-.253647-.32341-.007538-.00798-.011292-.011948-.018814-.019913-.086914.202988-.128983.367264-.125305.492157.002182.074158.017242.136215.044785.186172.028061.049942.093872.13295.198807.249588.009033.009476.022903.02562.04213.047424-.398697.013565-.598099.018661-.996918.025467-.015106-.01886-.022644-.02832-.03772-.047195.375748-.00618.563614-.010773.939255-.022964-.013184-.014023-.01976-.021042-.032913-.03508-.083893-.09108-.13913-.16272-.165634-.213715-.026535-.051956-.041016-.113068-.043015-.183334-.003403-.119034.042542-.298019.135422-.538254-.032852-.031403-.049271-.047104-.082016-.078552-.014969.038528-.033005.09375-.055115.167633-.021973.072113-.03299.10817-.055115.180267-.030228.097519-.044373.176987-.042679.240417.001755.065384.014923.11972.039047.162018.024643.043274.075211.100479.152115.173386.007874.006592.018951.017975.034241.032166-.368286.01123-.552475.015411-.920868.020874.174225-.088501.310822-.208435.409317-.357056.098999-.148636.193985-.376541.284683-.685638.002747-.009842.00412-.014755.006866-.024597-.065735-.050949-.158356-.080734-.278992-.089737.064056-.097137.112625-.198914.145935-.304245.016846.015213.027588.024704.031158.027542.033112.028839.049667.043228.08287.072037.028183.024628.06192.050064.101242.076279.012115-.031219.018173-.046829.030258-.078049-.008789-.006775-.013199-.010147-.022003-.016937-.061447-.049973-.112976-.090576-.154678-.120728-.006531-.004898-.009766-.007355-.016296-.012268.010986-.015503.016449-.023285.027405-.038803.06485.039291.127014.084412.187531.136337.089844-.26561.134232-.398483.221832-.664459-.077942-.077454-.116776-.116257-.194199-.19397.326401-.010025.489594-.01622.815857-.030975ZM33.276778,58.943784c-.102631.299133-.154663.448563-.260254.747192.094116.088898.176056.175995.245667.262436.035019.043701.052567.065536.087723.109192.001083.001907.007385.008514.019028.022736.010208-.011124.016006-.018173.017456-.020172.009644-.012482.014465-.018707.024094-.031189.003387-.004044.010147-.0121.019333-.023209-.089539-.123581-.192154-.234177-.307281-.33197.084656-.240326.126495-.360565.209229-.601212-.022049-.053497-.033035-.080276-.054993-.133804ZM33.364592,59.144757c-.07106.206635-.106949.309906-.179413.516327.011429.011337.01767.01796.018753.019867.030777.031387.046204.047043.077072.078384.041153.040543.094299.105042.159149.191452.00766.010254.011475.015396.01915.02565.049454-.065414.108871-.130295.177078-.195663-.109818-.25415-.164185-.381348-.27179-.636017ZM34.351729,59.400372c.032181.103836.105988.244537.222672.4216-.02681-.001373-.042007-.002457-.045517-.002258-.059021-.001724-.088501-.002609-.147491-.004471-.066666-.002228-.115067-.002625-.145218-.001053-.004532.000244-.016541.001846-.036087.00383.136826.304581.206055.456665.346115.760437.171448.12912.257645.193359.430969.321213-.426926.027222-.640503.038895-1.067749.05835-.015015-.018463-.022522-.027725-.037521-.046188.391693-.017609.587463-.02803.978897-.05217-.139526-.103287-.209-.155136-.347305-.259247-.149139-.323303-.222794-.485168-.368271-.809387.04071-.011826.087112-.020081.14035-.022888.065277-.003448.137909-.001526.217819.003723-.009491-.014709-.014252-.022079-.023743-.036789-.085083-.134064-.143265-.256088-.175644-.365799.023087.012451.034622.018677.057724.031097Z"/><path class="cls-10" d="M34.884978,58.502011c.335251-.021744.502792-.033859.837769-.060577-.087036.102936-.130753.154312-.218613.256912.055145.729782.082687,1.094589.137833,1.824265.097809.067017.146866.100418.245239.167023-.342422.027237-.513702.039597-.8564.061813.096954-.08728.145233-.131027.241455-.218704-.050613-.731186-.075897-1.096741-.126511-1.828033-.104675-.080841-.15683-.121384-.260773-.202698ZM35.810408,58.535275c-.066467.076324-.099808.11441-.166733.190536.05571.714478.083542,1.071625.139252,1.78598.133423.121979.20047.18277.335236.304001-.383087.031906-.574722.046295-.95816.071945-.019714-.017853-.029572-.02681-.049255-.044678.357971-.023651.536896-.03685.894562-.065979-.109406-.09726-.16391-.146011-.272415-.24379-.056122-.727631-.084152-1.091431-.140259-1.819183.07428-.084473.111252-.12674.184952-.211441.013123.013046.019684.019562.032822.032608Z"/><path class="cls-10" d="M36.902724,59.381741c.039154.079697.058792.119537.09816.199173-.360733.03624-.541214.052933-.902359.083496-.037308-.080322-.055908-.120483-.093002-.200867.35907-.029907.538528-.046265.897202-.081802ZM37.196227,59.687558c-.387543.040176-.581451.058624-.969467.092255-.017563-.018066-.026352-.027115-.043884-.045197.376053-.032333.56398-.050034.93959-.088531-.043137-.092529-.064621-.138824-.107498-.23143.024841.013977.037247.020966.062119.034912.047501.095245.07132.142838.119141.237991Z"/><path class="cls-10" d="M37.225432,58.301343c.31691-.033829.475266-.051865.791779-.090164.335693-.040634.580215-.026154.734879.046036.195419.091202.309509.237595.33786.44162.017319.124741-.002853.236984-.060318.33847-.057953.101547-.14769.18074-.269028.238098-.121841.057404-.32106.104065-.597977.137573-.088562.010727-.132874.016006-.221466.026382.039566.337799.059341.506683.098892.844482.098099.06636.147278.099426.245926.165375-.340744.041229-.511246.060593-.852417.096832.093246-.092361.139679-.138641.232178-.231369-.030991-.280212-.046494-.420319-.077484-.700546-.014145.000595-.02478.000778-.030807.001434-.086746.009552-.16748.036911-.243515.081268-.007751-.011749-.011612-.017624-.019348-.029373.076096-.053177.145813-.083267.209457-.090225.026062-.002838.039078-.004272.06514-.007156.005524-.001389.008301-.00209.013809-.003479-.003769-.034164-.005661-.051239-.009445-.085388-.027832.000137-.046555.000214-.056061.001266-.128571.014084-.227905.055008-.298828.123245-.008316-.00972-.012466-.014603-.020782-.024338.06015-.137756.170486-.215073.332199-.23288.011398-.001251.017075-.001877.028458-.003143-.037857-.342316-.056793-.513489-.09465-.85585-.095688-.075073-.143372-.112701-.238449-.188171ZM38.940596,58.281888c.076355.024994.1427.07782.198318.159729.055984.080856.0923.177261.108047.288422.035736.252289-.038849.447495-.225006.585175-.14093.103943-.396301.180801-.765518.225998-.061111.007477-.112839.012726-.155167.015823.03447.288071.051697.432098.086166.720169.130219.116165.195618.174072.327057.289505-.367981.045883-.552124.067368-.920624.107422-.021896-.016861-.032806-.025314-.054672-.042191.346191-.037338.519165-.057297.864914-.099777-.106644-.091553-.15976-.137421-.26561-.229462-.037399-.31485-.056091-.472275-.093475-.787125.105331-.006622.216843-.017197.334457-.031876.309814-.03862.533096-.121964.668091-.248825.135117-.125916.186691-.297958.155914-.516434-.012665-.089905-.038162-.16716-.076035-.229874-.037399-.062775-.100174-.131866-.186859-.20668ZM37.821395,58.416394c.040955.349854.061432.52478.102402.874603.009384-.001099.014053-.001633.023438-.002747.018631-.001404.027969-.002106.0466-.003525.00499-.000595.01236-.002441.023209-.004715-.036972-.311386-.05545-.467072-.092422-.778473.077911-.009247.116852-.013947.194733-.023468.150955-.018463.259293-.018494.3246-.00029.065308.018219.124969.065598.179611.142136-.051605-.053314-.111633-.087845-.180069-.102707-.068542-.015839-.16246-.015732-.281525-.001083-.073029.008972-.109543.013397-.182587.022141.035217.294312.052811.441467.088028.735733.236832-.028336.406555-.084457.508331-.165497.101669-.082001.142731-.194839.123718-.33905-.021317-.161636-.085571-.272247-.192261-.332291-.106812-.061005-.267853-.077759-.483353-.051743-.055466.006699-.122864.017715-.202454.030975Z"/><path class="cls-10" d="M39.259307,58.046826c.333206-.047852.499664-.073013.832291-.12587-.078979.109436-.118668.164078-.198486.273224.11174.723251.167633,1.084824.279388,1.807983.102936.059174.154556.088638.258026.147339-.340042.05394-.510208.079651-.850815.128555.090057-.094589.134903-.141968.224213-.236908-.107361-.725006-.161041-1.087509-.268372-1.812607-.110855-.072418-.166107-.108749-.276245-.181717ZM40.186461,58.007657c-.060486.081284-.090836.121872-.15181.203003.11113.707932.166718,1.061844.277878,1.769699.142776.111176.214493.16655.358582.276855-.380356.061783-.570709.09111-.951767.146637-.021088-.016266-.031616-.024414-.052673-.040695.355774-.051544.533508-.07869.888657-.135696-.116882-.088425-.17511-.132751-.291138-.221756-.112579-.721054-.168884-1.081589-.281433-1.802719.067657-.090012.101318-.135056.168381-.225266.01413.011978.021194.01796.035324.029938Z"/><path class="cls-10" d="M42.005767,57.602872c-.045044.092285-.077179.184967-.096878.280182-.038147.186249-.065857.300766-.081985.344543-.002731.004898-.004105.007339-.006836.012222-.007446-.012497-.012695-.021439-.016403-.027695-.052414-.097412-.092789-.164337-.121841-.200623-.028549-.036377-.067459-.068832-.116348-.098495-.123611-.073395-.253113-.097366-.388535-.073181-.125183.022354-.223511.074203-.294571.157822-.071228.082657-.098633.176407-.080917.28035.032974.193436.205383.301315.517624.317917.125351.006943.188095.010254.31366.016495.446198.021042.70372.197128.770004.535294.036819.187775-.005951.361435-.130295.518509-.125031.156204-.298141.255463-.519165.295685-.13858.025223-.297104.03273-.475067.022034-.088654-.005203-.13295-.007904-.221481-.013458-.089737-.004547-.162262-.003311-.218369.006012-.073807.012253-.146332.047913-.217987.106003-.007492-.009079-.011246-.013596-.018738-.022675.115921-.240265.186111-.463791.213593-.668335.013596.001282.020401.001938.033997.003204.055923.176697.155472.30455.29985.383713.144211.078201.319839.099091.525757.061829.162003-.029327.284607-.088913.366882-.177887.081604-.089828.110931-.194855.087906-.315689-.026505-.139038-.114807-.242447-.262863-.308029-.10585-.04689-.310532-.070038-.612549-.074249-.233063-.002502-.408661-.046158-.526382-.128387-.117874-.083191-.190872-.212723-.220078-.389969-.029984-.182053.01239-.341293.126511-.477341.113617-.135971.276154-.22319.48851-.261002.136063-.024231.29982-.028107.490555-.014099.089828.00705.154755.006638.195587-.001129.057358-.010925.115921-.042053.175766-.094421.008423.001938.01265.002914.021088.004852ZM42.219481,58.703061c.184479.087463.298248.232895.339172.438751.043594.219269-.008438.422913-.157867.610001-.149445.187073-.354095.305481-.612167.352493-.131302.023911-.252441.031631-.362823.025269-.121567-.006378-.182297-.00972-.30368-.016739-.071213-.004684-.145477-.000061-.223022.012863-.069443.011581-.131241.034622-.185181.071136-.011993-.018616-.018005-.027924-.029984-.046539.058304-.038193.120911-.062347.186234-.073212.072937-.012146.158066-.016556.254868-.011292.116837.006577.175293.00972.292313.015717.116364.00531.236221-.00322.360336-.025818.243164-.044281.436722-.156494.578201-.335968.141464-.179459.190842-.37352.149536-.582291-.034668-.175247-.129944-.316498-.283875-.423843l-.00206-.010529ZM40.714797,58.910413c.026474.00943.039703.014145.066208.023544.050552.060806.175491.098312.374435.110184.12027.007553.18045.011185.300919.018097.204117.011932.342316.028824.413879.050217.071579.021393.127731.064423.168289.128281-.004501.003632-.006744.005447-.01123.009079-.065216-.049271-.131851-.082443-.199875-.098602-.067841-.015182-.195221-.027695-.38002-.035782-.268433-.011765-.450775-.03186-.545883-.058273-.095764-.027298-.158127-.076294-.186722-.146744ZM41.034224,59.434598c.080139.200211.224792.327087.435333.378952.000961.005371.001434.008072.002396.013443-.236603-.02243-.39827-.148544-.484848-.375427.01886-.006775.028259-.010178.047119-.016968ZM41.681426,58.096005c-.15451-.111176-.304688-.153107-.452637-.126602-.088852.015915-.158157.053894-.207947.115143-.049774.061249-.068054.130768-.054382.209656.014847.085602.089432.162933.224564.231262.006317.002441.009491.003677.015823.006119-.002533.006393-.003799.009598-.006332.015991-.168427-.040619-.263229-.126465-.285461-.255386-.015594-.090439.004654-.169189.060776-.237442.055801-.0672.136078-.111038.24147-.129898.100983-.018082.192566-.012939.275986.015396.08342.02832.149521.076569.198944.145798-.004333.003983-.006485.005966-.010803.009964ZM42.128081,57.653577c-.004196.011566-.006271.017365-.010468.028931-.032547.088943-.058762.172623-.078354.251984-.049347.184586-.077988.288437-.085114.309677-.002579.005661-.003876.008484-.006454.014145-.018219-.003677-.027313-.005508-.045517-.009201.001572-.006668.00238-.009995.003952-.016663.019745-.083252.0504-.191483.091324-.325653.030197-.10051.045212-.150757.075012-.251282.002441-.006042.003677-.009079.006134-.015121.019775.005295.029694.007919.049484.013184Z"/><path class="cls-10" d="M43.318526,57.288617c.281723-.061768.53035-.008499.748383.162384s.370163.430618.453232.781143c.078796.332489.056.617004-.069855.854675-.126068.236725-.336517.389084-.628754.453186-.230362.050537-.450989.024536-.659943-.078552-.306534-.151566-.498718-.431061-.580276-.836868-.069641-.346481-.036331-.63974.096832-.880478.133163-.240723.346085-.390976.640381-.45549ZM43.350692,57.435483c-.392944.086136-.519211.467316-.377396,1.148788.130859.628891.39769.903519.798584.815704.186646-.040878.309921-.156723.369629-.344452.05899-.188568.051208-.442261-.022186-.761963-.083008-.361572-.1866-.604172-.309875-.726364-.12941-.126801-.281891-.170486-.458755-.131714ZM43.893187,57.250653c.183868.040894.346542.145004.488358.312027.142029.167969.243759.375397.303711.625061.087982.366425.062408.686081-.080978.958374-.142899.272186-.376923.444443-.69902.515411-.205658.045319-.412338.020752-.619125-.073502-.000717-.003433-.001083-.005173-.001801-.008606.171967.073639.371277.085098.597412.035309.303207-.066742.528107-.231644.670532-.492523.142929-.261002.172272-.559387.092316-.8936-.059723-.24971-.155182-.457703-.285583-.624466-.129913-.166885-.283646-.278152-.461456-.334457-.00174-.007614-.002625-.011414-.004364-.019028ZM43.782225,57.609402c-.013626-.00412-.020416-.006195-.034012-.01033-.125351-.034744-.234512-.042496-.327789-.021973-.306519.067413-.397812.395355-.272507.98851.0914.432693.249802.699829.476212.797623-.005112.008301-.00769.012451-.012833.020752-.137909-.055069-.246277-.14386-.325073-.264893-.07901-.121979-.141846-.295334-.189453-.521744-.133759-.636276-.029846-.989517.31041-1.064316.154846-.034042.279755-.008163.375046.07637Z"/><rect class="cls-11" x="8.39854" y="9.462861" width="5.4" height="3.6"/><rect class="cls-4" x="8.39854" y="9.462861" width="3.6" height="3.6"/><rect class="cls-1" x="8.39854" y="9.462861" width="1.8" height="3.6"/></g></svg>