<?xml version="1.0" encoding="UTF-8"?><svg id="Layer_2" xmlns="http://www.w3.org/2000/svg" xmlns:xlink="http://www.w3.org/1999/xlink" viewBox="0 0 63.360015 72"><defs><style>.cls-1,.cls-2,.cls-3,.cls-4,.cls-5{stroke:#c09300;}.cls-1,.cls-3,.cls-6,.cls-7,.cls-8{fill:#fff;}.cls-1,.cls-3,.cls-4,.cls-8,.cls-5{stroke-width:.005px;}.cls-1,.cls-9{stroke-linejoin:round;}.cls-2,.cls-3,.cls-4,.cls-10,.cls-8,.cls-5{stroke-miterlimit:10;}.cls-2,.cls-11,.cls-12,.cls-5{fill:#c09300;}.cls-11,.cls-7{fill-rule:evenodd;}.cls-13{fill:#cecece;}.cls-14{fill:#fcd588;}.cls-4{fill:none;}.cls-10,.cls-15{fill:#d3a150;}.cls-10,.cls-9{stroke:#f4f1e9;stroke-width:.5px;}.cls-8{stroke:#fff;}.cls-16,.cls-9{fill:#f4f1e9;}.cls-17{fill:#ce1126;}.cls-18{fill:#ccb789;}.cls-19{clip-path:url(#clippath);}</style><clipPath id="clippath"><path class="cls-12" d="M11.05549,10.909465l-.005026.000157c-.036839,0-.122387-.018891-.155368-.047227-.034551.026183-.121512.047227-.157768.047227-.001695-.000015-.003385-.000188-.005048-.000516l.000853.02459c.001907.029099.007022.058288.014763.086378.024388.088419.074307.163556.145855.220566.071615-.057054.121602-.132259.146034-.220746.007835-.028219.012796-.05716.014808-.086378.000494-.008016.000785-.016043.000875-.024074l.000022.000023Z"/></clipPath></defs><g id="Kisa_Takilo"><path class="cls-13" d="M63.360015,70v-2c-1.104553,0-2-.895447-2-2,0-1.104614.895447-2,2-2v-2c-1.104553,0-2-.895447-2-2,0-1.104614.895447-2,2-2v-2c-1.104553,0-2-.895447-2-2,0-1.104614.895447-2,2-2v-2c-1.104553,0-2-.895447-2-2,0-1.104614.895447-2,2-2v-2c-1.104553,0-2-.895447-2-2,0-1.104614.895447-2,2-2v-2c-1.104553,0-2-.895447-2-2,0-1.104614.895447-2,2-2v-2c-1.104553,0-2-.895447-2-2,0-1.104614.895447-2,2-2v-2c-1.104553,0-2-.895447-2-2,0-1.104614.895447-2,2-2v-2c-1.104553,0-2-.895447-2-2,0-1.104614.895447-2,2-2v-2c-1.104553,0-2-.895447-2-2,0-1.104614.895447-2,2-2v-2c-1.104553,0-2-.895447-2-2,0-1.104614.895447-2,2-2v-2c-.526672,0-1.041809-.213379-1.414246-.585815-.372375-.372375-.585754-.887512-.585754-1.414185h-2.264038c0,1.104553-.895386,2-2,2-1.104553,0-2-.895447-2-2h-2.263977c0,1.104553-.895447,2-2,2s-2-.895447-2-2h-2.263977c0,1.104553-.895447,2-2,2-1.104614,0-2-.895447-2-2h-2.264038c0,1.104553-.895386,2-2,2-1.104553,0-2-.895447-2-2h-2.263977c0,1.104553-.895447,2-2,2s-2-.895447-2-2h-2.263977c0,1.104553-.895447,2-2,2-1.104614,0-2-.895447-2-2h-2.264038c0,1.104553-.895447,2-2,2s-2-.895447-2-2h-2.263977c0,1.104553-.895447,2-2,2s-2-.895447-2-2h-2.263977c0,1.104553-.895447,2-2,2-1.104614,0-2-.895447-2-2h-2.264038c0,.526672-.213379,1.041809-.585754,1.414185-.372437.372437-.887573.585815-1.414246.585815v2c1.104553,0,2,.895386,2,2,0,1.104553-.895447,2-2,2v2c1.104553,0,2,.895386,2,2,0,1.104553-.895447,2-2,2v2c1.104553,0,2,.895386,2,2,0,1.104553-.895447,2-2,2v2c1.104553,0,2,.895386,2,2,0,1.104553-.895447,2-2,2v2c1.104553,0,2,.895386,2,2,0,1.104553-.895447,2-2,2v2c1.104553,0,2,.895386,2,2,0,1.104553-.895447,2-2,2v2c1.104553,0,2,.895386,2,2,0,1.104553-.895447,2-2,2v2c1.104553,0,2,.895386,2,2,0,1.104553-.895447,2-2,2v2c1.104553,0,2,.895386,2,2,0,1.104553-.895447,2-2,2v2c1.104553,0,2,.895386,2,2,0,1.104553-.895447,2-2,2v2c1.104553,0,2,.895386,2,2,0,1.104553-.895447,2-2,2v2c.526672,0,1.041809.213379,1.414246.585754.372375.372437.585754.887573.585754,1.414246h2.264038c0-1.104614.895386-2,2-2,1.104553,0,2,.895386,2,2h2.263977c0-1.104614.895447-2,2-2s2,.895386,2,2h2.263977c0-1.104614.895447-2,2-2,1.104614,0,2,.895386,2,2h2.264038c0-1.104614.895386-2,2-2,1.104553,0,2,.895386,2,2h2.263977c0-1.104614.895447-2,2-2s2,.895386,2,2h2.263977c0-1.104614.895447-2,2-2,1.104614,0,2,.895386,2,2h2.264038c0-1.104614.895386-2,2-2,1.104553,0,2,.895386,2,2h2.263977c0-1.104614.895447-2,2-2s2,.895386,2,2h2.264038c0-1.104614.895386-2,2-2,1.104553,0,2,.895386,2,2h2.263977c0-.526672.213379-1.041809.585754-1.414246.372437-.372375.887573-.585754,1.414246-.585754Z"/><path class="cls-16" d="M62.640015,70v-2c-1.104553,0-2-.895447-2-2,0-1.104614.895447-2,2-2v-2c-1.104553,0-2-.895447-2-2,0-1.104614.895447-2,2-2v-2c-1.104553,0-2-.895447-2-2,0-1.104614.895447-2,2-2v-2c-1.104553,0-2-.895447-2-2,0-1.104614.895447-2,2-2v-2c-1.104553,0-2-.895447-2-2,0-1.104614.895447-2,2-2v-2c-1.104553,0-2-.895447-2-2,0-1.104614.895447-2,2-2v-2c-1.104553,0-2-.895447-2-2,0-1.104614.895447-2,2-2v-2c-1.104553,0-2-.895447-2-2,0-1.104614.895447-2,2-2v-2c-1.104553,0-2-.895447-2-2,0-1.104614.895447-2,2-2v-2c-1.104553,0-2-.895447-2-2,0-1.104614.895447-2,2-2v-2c-1.104553,0-2-.895447-2-2,0-1.104614.895447-2,2-2v-2c-.526672,0-1.041809-.213379-1.414246-.585815-.372375-.372375-.585754-.887512-.585754-1.414185h-2.264038c0,1.104553-.895386,2-2,2-1.104553,0-2-.895447-2-2h-2.263977c0,1.104553-.895447,2-2,2s-2-.895447-2-2h-2.263977c0,1.104553-.895447,2-2,2-1.104614,0-2-.895447-2-2h-2.264038c0,1.104553-.895386,2-2,2-1.104553,0-2-.895447-2-2h-2.263977c0,1.104553-.895447,2-2,2s-2-.895447-2-2h-2.263977c0,1.104553-.895447,2-2,2-1.104614,0-2-.895447-2-2h-2.264038c0,1.104553-.895447,2-2,2s-2-.895447-2-2h-2.263977c0,1.104553-.895447,2-2,2s-2-.895447-2-2h-2.263977c0,1.104553-.895447,2-2,2-1.104614,0-2-.895447-2-2h-2.264038c0,.526672-.213379,1.041809-.585754,1.414185-.372437.372437-.887573.585815-1.414246.585815v2c1.104553,0,2,.895386,2,2,0,1.104553-.895447,2-2,2v2c1.104553,0,2,.895386,2,2,0,1.104553-.895447,2-2,2v2c1.104553,0,2,.895386,2,2,0,1.104553-.895447,2-2,2v2c1.104553,0,2,.895386,2,2,0,1.104553-.895447,2-2,2v2c1.104553,0,2,.895386,2,2,0,1.104553-.895447,2-2,2v2c1.104553,0,2,.895386,2,2,0,1.104553-.895447,2-2,2v2c1.104553,0,2,.895386,2,2,0,1.104553-.895447,2-2,2v2c1.104553,0,2,.895386,2,2,0,1.104553-.895447,2-2,2v2c1.104553,0,2,.895386,2,2,0,1.104553-.895447,2-2,2v2c1.104553,0,2,.895386,2,2,0,1.104553-.895447,2-2,2v2c1.104553,0,2,.895386,2,2,0,1.104553-.895447,2-2,2v2c.526672,0,1.041809.213379,1.414246.585754.372375.372437.585754.887573.585754,1.414246h2.264038c0-1.104614.895386-2,2-2,1.104553,0,2,.895386,2,2h2.263977c0-1.104614.895447-2,2-2s2,.895386,2,2h2.263977c0-1.104614.895447-2,2-2,1.104614,0,2,.895386,2,2h2.264038c0-1.104614.895386-2,2-2,1.104553,0,2,.895386,2,2h2.263977c0-1.104614.895447-2,2-2s2,.895386,2,2h2.263977c0-1.104614.895447-2,2-2,1.104614,0,2,.895386,2,2h2.264038c0-1.104614.895386-2,2-2,1.104553,0,2,.895386,2,2h2.263977c0-1.104614.895447-2,2-2s2,.895386,2,2h2.264038c0-1.104614.895386-2,2-2,1.104553,0,2,.895386,2,2h2.263977c0-.526672.213379-1.041809.585754-1.414246.372437-.372375.887573-.585754,1.414246-.585754Z"/><rect id="Inner" class="cls-15" x="6.264007" y="7.2" width="50.112" height="57.6"/><rect id="Inner-2" class="cls-16" x="6.765127" y="7.776" width="49.10976" height="56.448"/><rect class="cls-14" x="9.360015" y="46.8" width="45" height="12.6"/><path class="cls-18" d="M7.256218,8.340466v55.319031h48.127563V8.340466H7.256218ZM51.119988,59.399976H11.520012v-28.799988c0-3.97644,8.864746-7.200012,19.799988-7.200012s19.799988,3.223572,19.799988,7.200012v28.799988Z"/><path id="Main" class="cls-10" d="M53.11476,9.232509c.367763-.309556.96315-.308817,1.329833.001651.365922.309823.365921.81118-.000002,1.121002l-5.319336,4.490609c-.366614.310526-.365626.813154.002207,1.122651.36697.308771.960658.308771,1.327627,0l3.989502-3.367957c.367221-.310012.367221-.812638,0-1.12265l-2.659666-2.245305c-.367224-.310012-.962611-.310012-1.329835,0h0s-2.659666,2.245305-2.659666,2.245305c-.367221.310012-.367221.812638,0,1.12265l3.989502,3.367957c.367832.309497.963219.308664,1.329833-.001861.365755-.309797.365755-.810991.000001-1.120789l-5.319336-4.490609c-.366684-.310467-.36581-.813095.001952-1.122651.366999-.308914.96088-.308914,1.32788-.000002l1.994752,1.683976,1.994752-1.683976Z"/><path id="Main-2" class="cls-10" d="M53.11476,9.232509c.367763-.309556.96315-.308817,1.329833.001651.365922.309823.365921.81118-.000002,1.121002l-5.319336,4.490609c-.366614.310526-.365626.813154.002207,1.122651.36697.308771.960658.308771,1.327627,0l3.989502-3.367957c.367221-.310012.367221-.812638,0-1.12265l-2.659666-2.245305c-.367224-.310012-.962611-.310012-1.329835,0h0s-2.659666,2.245305-2.659666,2.245305c-.367221.310012-.367221.812638,0,1.12265l3.989502,3.367957c.367832.309497.963219.308664,1.329833-.001861.365755-.309797.365755-.810991.000001-1.120789l-5.319336-4.490609c-.366684-.310467-.36581-.813095.001952-1.122651.366999-.308914.96088-.308914,1.32788-.000002l1.994752,1.683976,1.994752-1.683976Z"/><path class="cls-10" d="M52.600293,9.666822l-.300907.254027M49.940629,9.666822l-.300907.254027M51.270461,13.034779l-.300907.254027M51.270461,15.280086l-.300907.254027M53.629226,10.789472l.300907.254027M48.309881,10.789472l.300907.254027M52.299385,14.157429l.300907.254027M49.639722,14.157429l.300907.254027"/><path class="cls-10" d="M52.619099,9.650945l-.338521.285781M49.959436,9.650945l-.338521.285781M51.289268,13.018902l-.338521.285781M51.289268,15.264209l-.338521.285781M53.61042,10.773595l.338521.285781M48.291074,10.773595l.338521.285781M52.280579,14.141552l.338521.285781M49.620915,14.141552l.338521.285781"/><path class="cls-10" d="M41.163123,22.773557c3.476578.567261,5.203995.976944,8.591217,2.048447-.460777-1.488235-.715141-2.231888-1.272003-3.714172,1.239899-.984818,1.880653-1.463165,3.202171-2.387589-3.741875-1.183701-5.650116-1.636276-9.49073-2.262939-.412285,2.52652-.618408,3.789749-1.030655,6.316254Z"/><path class="cls-9" d="M44.867217,21.310239c-1.521469.539963-2.262955.833878-3.704094,1.463318.137421-.842163.206123-1.26326.343544-2.105423,1.486641-.622009,2.250809-.911591,3.817429-1.441666-.182755.833511-.274132,1.250259-.456879,2.083771Z"/><path class="cls-10" d="M21.476901,22.773557c-3.476551.567261-5.203896.976944-8.591202,2.048447.460773-1.488235.715153-2.231888,1.271996-3.714172-1.239899-.984818-1.880692-1.463165-3.202194-2.387589,3.741917-1.183716,5.650211-1.636292,9.490818-2.262939.412277,2.52652.618389,3.789749,1.030582,6.316254Z"/><path class="cls-9" d="M21.476901,22.773557c-1.441109-.62944-2.182594-.923355-3.704056-1.463318-.182751-.833511-.274124-1.250259-.456879-2.083771,1.566624.530075,2.330803.819656,3.817429,1.441666.137409.842163.206108,1.263245.343506,2.105423Z"/><path class="cls-10" d="M44.867217,21.310239c-10.709724-2.348236-16.384651-2.348236-27.094372,0-.548244-2.500519-.82238-3.750763-1.37067-6.251297,9.188423-2.222595,20.647301-2.22258,29.835724,0-.548302,2.500534-.822433,3.750778-1.370682,6.251297Z"/><path class="cls-16" d="M21.693523,15.156949c-.145454.188568-.217548.283081-.360531.472519.201004,1.186615.301495,1.779907.502548,2.966522.167999.110596.251606.166214.417973.278046-.539814.08786-.809338.135086-1.347427.236099.137291-.165268.206478-.247711.345909-.412155-.139858-.776169-.209774-1.164261-.349606-1.940445-.20525,1.075302-.299229,1.613144-.46994,2.688477-.111671.022064-.167477.033234-.279064.055847-.015579-.029129-.023392-.043686-.038998-.0728.101261-.020569.151897-.030746.253231-.050842.176846-1.14621.274982-1.719513.490623-2.865753-.031792-.176453-.047684-.264679-.079472-.441147-.24548,1.26712-.356281,1.900955-.554039,3.168091-.081741.016388-.122601.024673-.204296.041367-.509144-.861237-.770245-1.289352-1.30534-2.140121.13287.605515.19931.908264.332203,1.513779.04438.202225.089523.342285.135235.420258.045715.077972.130322.156418.253231.23587.133125.108032.199398.162231.331364.271027-.60722.127548-.910213.195572-1.514614.340073-.028152-.025803-.042259-.038696-.070469-.064468.56813-.136398.852875-.200851,1.423512-.322296-.056423-.053894-.084682-.080795-.141342-.134552-.519661.111649-.779007.170578-1.296585.294601.02137-.018372.032055-.027557.053455-.045914.18721-.16713.302578-.317444.344429-.452347.041847-.134918.033775-.330872-.024921-.587921-.215744-.944839-.323601-1.417236-.53928-2.362061-.195045-.104523-.292999-.156387-.489819-.259293.640343-.150925.961308-.221939,1.60458-.355118-.149296.187683-.223316.281754-.370094.470337.555595.883804.826492,1.328613,1.354259,2.223541.022789-.108505.034275-.162766.057457-.271271-.473763-.792755-.716248-1.187012-1.212337-1.970825.138264-.145447.207817-.217957.347794-.362579.030075.014175.045097.021286.075134.035507-.13464.132599-.201588.199081-.33474.332428.461754.737625.68779,1.108444,1.130032,1.853836.146782-.880524.225937-1.320862.395691-2.201309-.178967-.123337-.268887-.184677-.449654-.306656.63242-.119873.949245-.175537,1.583908-.278351ZM18.317169,16.514676c.183838.821075.275764,1.231598.459652,2.052673.070427.314484.149773.523865.237465.628418.087688.104568.233475.162201.437328.174316-.014183-.014923-.021286-.022385-.035488-.037308-.218525-.088791-.355644-.254272-.409573-.498383-.018707-.084671-.028061-.127014-.046768-.2117-.149395-.67627-.224087-1.014404-.373451-1.690689-.107155-.167145-.160988-.25061-.269165-.417328ZM21.904682,15.354489c-.126057.116165-.188801.174408-.313641.291229.192379,1.165482.288555,1.748215.480976,2.913696.243156.195038.363754.293198.60294.490784-.620995.09668-.931004.149384-1.549778.263535-.022053-.028107-.033096-.04216-.055195-.070236.564735-.104614.847637-.15329,1.414242-.243362-.191612-.155838-.288059-.233353-.482182-.387543-.199986-1.20105-.299942-1.801575-.499882-3.002625.13102-.118042.196861-.176895.329155-.294205.029369.015472.044037.023224.073364.038727Z"/><path class="cls-16" d="M22.166297,15.082288c.593906-.09137.891319-.133331,1.486794-.209793-.148041.179688-.221481.26976-.36718.450348.163891,1.208878.2458,1.813309.409706,3.022171.165817.102875.248329.154617.412613.258698-.548855.070709-.822971.109436-1.370392.193665.142784-.158325.21471-.237259.359585-.394669-.177029-1.209381-.265499-1.814072-.442501-3.023453-.194458-.119583-.292191-.178986-.488625-.296967ZM23.815315,15.020184c-.113022.133545-.169186.200439-.280888.334503.155636,1.18396.233418,1.77594.389065,2.9599.227615.192291.340523.289001.564445.483521-.610207.074753-.914955.116302-1.523445.207794-.033962-.026886-.050961-.040329-.084999-.067169.569427-.08638.854568-.1259,1.425522-.197632-.183014-.15535-.275108-.232666-.460541-.38652-.160324-1.205795-.240444-1.808685-.400753-3.014496.123566-.148834.185772-.223099.310963-.371292.024277.020554.036392.030823.060631.051392Z"/><path class="cls-16" d="M27.642875,14.494641c-.016899.034302-.028122.057495-.033699.06958-.077042.14566-.115326.218552-.191345.364456-.064941.129501-.122147.289978-.171417.481308-.00209.006012-.00312.009018-.005211.015045-.012993-.007324-.019493-.010986-.032494-.018311-.004776-.014938-.007187-.0224-.011971-.037338-.0756-.217941-.172615-.365784-.290733-.443207-.118111-.077438-.292656-.107376-.522827-.088348-.094162.007782-.187988.019669-.281425.03569-.015068.001312-.022583.001968-.037643.003296.111443,1.265427.167091,1.898148.278496,3.163559.151428.114899.226776.172592.376678.288483-.540253.044205-.810181.06955-1.349518.126724.150764-.153854.226677-.230545.379539-.383392-.114395-1.16037-.171547-1.740585-.285965-2.90097-.088791.007568-.133179.011444-.221954.019348-.214355.021942-.362556.077942-.444191.166519s-.119362.23291-.113503.432724c-.03215.003632-.048218.005463-.080368.009125-.003273-.22963.041382-.394974.134308-.495682.092934-.100723.258453-.164139.495995-.188461.075134-.006516.112709-.009705.187851-.015991.013763-.001358.02063-.002029.034393-.003387-.005638-.057144-.008453-.085724-.014091-.142868-.107697-.00116-.209641.003296-.30574.01326-.269485.027954-.458145.100784-.565247.216156-.107101.115356-.15229.295242-.136307.539185-.014862.001724-.022278.002594-.03714.004349-.12043-.259186-.294128-.543442-.52388-.851364-.008995-.010681-.013481-.016037-.022476-.026718,1.513031-.189194,2.272141-.25975,3.791885-.352768ZM27.045387,15.177441c-.167191-.085876-.358734-.120422-.573402-.102921-.047935.003906-.097717.010956-.149315.021164.10363,1.173187.155266,1.759811.258377,2.933014.207375.203705.310173.30603.513985.511597-.601768.045364-.902412.072113-1.503075.133652-.030251-.028702-.04541-.043045-.075737-.071716.563774-.058456.845947-.084122,1.410721-.128357-.171997-.166367-.258598-.249222-.433029-.414276-.103897-1.21666-.155792-1.825012-.25972-3.041672.06749-.006943.10125-.010376.168762-.01712.202415-.016708.347137-.012512.433899.011322.086761.023819.156319.078995.208534.165314ZM27.852378,14.667065c-.134796.179962-.269157.473907-.400185.881775-.004189.012024-.006294.018036-.010483.03006-.028732-.020432-.043098-.03064-.071884-.051025.003006-.010773.004532-.016159.007545-.026932.126152-.41362.258453-.70372.393921-.870224.005875-.007385.00882-.011093.014702-.018478.026581.021912.039856.032883.066383.054825Z"/><path class="cls-16" d="M30.788642,14.384534c-.130226.139435-.194969.209335-.323677.349472.213425.507935.31794.76239.52256,1.272171.049049-.026062.073601-.039062.122765-.065018-.183891-.461075-.277641-.691254-.468719-1.150833.131462-.14447.197578-.216522.330627-.36026.032921.012695.049362.019058.082245.031799-.126892.13768-.189964.20668-.315399.345016.179993.435379.268379.653412.44194,1.090118.024605-.017639.038971-.028397.043076-.032318.040627-.032883.060982-.049301.101723-.082108.061737-.046875.100967-.079987.117493-.099487.053131.222763.134529.422211.243599.598679-.059143-.004272-.10199-.006409-.128517-.006516-.193848-.000793-.335701.028824-.425163.087708.223129.574677.33194.862564.544136,1.439285.177986.137054.266441.205933.442268.344376-.598427-.008469-.897713-.008728-1.496155-.001343.161842-.137939.243279-.206635.407097-.343399-.134094-.341507-.202133-.51207-.34021-.852768-.21949.219223-.385178.428314-.499016.625916-.027664-.006485-.041512-.00972-.069199-.016174.113724-.193832.285965-.411102.519325-.650192.009544-.011841.014336-.017746.023888-.029587-.023605-.051285-.035439-.076935-.059143-.128204-.238449.19632-.432526.424805-.582718.684143-.022369-.033493-.033585-.050232-.056015-.083694-.107986-.159592-.246399-.340683-.416527-.542603-.012558-.013687-.018845-.020523-.031425-.034195-.145386.338669-.212364.612839-.205009.821701.004333.122971.029419.226135.074966.309586.04554.083466.15303.221924.320206.416443.01429.017166.036728.043884.067238.08017-.637054.017502-.955528.030777-1.592041.066345-.025337-.030273-.038025-.045395-.063431-.075638.600784-.03421.901375-.047302,1.50267-.06543-.020828-.024002-.031242-.035995-.052116-.059967-.134941-.15213-.22496-.270569-.268715-.355988-.043755-.085403-.067924-.18663-.07222-.303726-.007309-.199097.064133-.498978.219513-.898727-.055214-.052155-.082893-.078201-.138351-.130219-.024231.063385-.054474.156296-.090485.278778-.035652.120911-.053391.181381-.088623.302338-.048172.162109-.069832.295898-.065666.401291.004326.109283.026855.19928.067383.270035.04052.070755.123695.166245.248535.287033.01226.011307.030678.029236.055222.053833-.592316.01976-.888405.033524-1.480186.068848.273468-.161102.487694-.366531.642532-.618347.154846-.251816.304031-.63559.450928-1.151474.004242-.016586.006371-.024887.010612-.041473-.11129-.083633-.269653-.130981-.474625-.14093.104729-.165237.18457-.335861.238953-.512146.0299.024139.048027.039032.054436.044632.057579.046875.086311.070343.143661.117355.048889.041077.106956.08284.174126.125366.020248-.052338.030411-.078491.050751-.130814-.015198-.011185-.022789-.016785-.038002-.027954-.105774-.082199-.194954-.148102-.267151-.197968-.011452-.007751-.017189-.011627-.028656-.019363.018745-.026566.028114-.039856.046898-.066406.112114.063934.220154.139084.323997.225388.15258-.443832.230438-.665512.389282-1.108322-.136887-.129883-.205688-.194626-.344055-.32373.582497-.019257.873848-.025345,1.456566-.030502ZM29.880523,15.00018c-.187019.496857-.278481.745651-.457268,1.243927.160133.147202.297569.293823.412827.439346.057854.073547.086685.110352.14418.184036.00206.001907.012459.014359.031158.037384.017769-.01799.027634-.028961.029564-.032898.016525-.020294.024803-.030441.041351-.05072.005898-.00795.016739-.020874.032562-.038788-.146004-.207932-.316406-.394348-.51136-.558609.145203-.400543.219154-.600586.369698-1.000214-.036949-.089417-.055504-.134109-.092712-.223465ZM30.028701,15.336697c-.129425.342758-.193161.514313-.318657.857742.018929.019028.029457.030457.031601.034317.051704.052521.077492.078812.128967.131454.068993.068619.157097.175934.263481.322235.01252.017319.018768.025986.031273.04332.084961-.107193.186615-.213547.305229-.318802-.173668-.428772-.262032-.642822-.441895-1.070267ZM31.714416,15.824902c.04406.176086.155365.417984.330246.726837-.044601-.006424-.069962-.009628-.076057-.009689-.098625-.009308-.147949-.013855-.246651-.022736-.111687-.010544-.192986-.015686-.243797-.015823-.008125-.000015-.028458.0009-.060974.002792.202789.519485.301888.779678.495583,1.300858.263435.233612.393814.351196.65181.587814-.683121-.015121-1.024818-.017487-1.708054-.011841-.022682-.031448-.034042-.047165-.056786-.078598.62748-.005814.941269-.004349,1.56868.007324-.209221-.190247-.31472-.284897-.527473-.473175-.207031-.553864-.313133-.830338-.530472-1.382263.06916-.017593.148552-.026276.238098-.025925.109894.000427.231964.01001.366035.028961-.014389-.02594-.021576-.038895-.035995-.064819-.128113-.231705-.215187-.44017-.259529-.625946.038177.022461.057236.033707.095337.056229Z"/><path class="cls-16" d="M36.182121,14.578732c-.021973.020554-.032944.030838-.054886.051407-.233665.226196-.423515.493256-.570396.799957-.017502-.046295-.030708-.080505-.039566-.102676-.097565-.241867-.210693-.401306-.338051-.478027s-.362129-.125977-.703796-.143967c-.157211-.008286-.346153-.012756-.566689-.012512-.023262.538574-.034904.807846-.058182,1.34642.078682.003387.118034.005157.196709.00882.022202-.47644.033302-.714661.055489-1.191101.159523-.006256.311501-.005386.455765.002441.265526.014389.459427.052948.581276.113602.121857.060654.226578.170502.313545.329269-.027702-.0215-.04747-.037552-.059265-.048141-.159706-.136261-.27713-.218048-.350754-.24614-.073631-.028076-.221123-.049026-.442429-.061203-.066803-.003662-.186035-.006271-.35762-.006851-.026367-.000122-.039543-.000168-.065903-.000259-.021301.444809-.03196.667206-.053268,1.112015.226196.010834.339279.0168.565384.029816.170448-.197952.256371-.296631.429573-.493332-.032455.504044-.048691.756058-.081146,1.260101-.143883-.205368-.216507-.307846-.363083-.512314-.334007-.019226-.501083-.027649-.835281-.042084-.028389.656815-.042587.985229-.070961,1.642029.076134.003281.114204.00499.190338.008545.028015-.601685.042038-.902542.070068-1.504227.264999.012329.397453.019257.662331.034622.029976.032257.044937.048401.074821.080688-.265717-.015762-.398628-.022903-.664474-.035629-.027367.571228-.041054.856842-.068405,1.428055.404434.019363.693268.00882.867485-.036926.17421-.045761.315742-.147629.425148-.306366.070915-.101913.106537-.152817.17804-.254517.006866-.011246.020462-.031799.040817-.06163.036362.218109.088318.394348.154938.528763.066628.13443.18084.294174.341942.480148-1.326012-.111191-1.990501-.147232-3.319664-.180206.183601-.131424.275917-.196762.461662-.326675.017128-.522369.025696-.783569.042839-1.305939-.171448.013916-.327469.060364-.467445.138947-.016418-.025024-.024651-.037537-.041115-.062546.125938-.082932.29644-.134171.511063-.152542.001801-.055038.002708-.082565.004509-.137619-.034561-.005035-.058998-.007767-.073288-.008209-.208199-.006577-.400291.061768-.574326.204498.100357-.310394.319801-.462051.655975-.451035.016411-.500122.024612-.750198.041008-1.25032-.186333-.146805-.28006-.219849-.468674-.365189,1.348442.033447,2.022545.069061,3.367943.17804ZM36.377113,18.344327c-.070915.099518-.106216.149323-.176559.249069-1.285004-.111984-1.928963-.149506-3.217163-.187607-.017944-.032196-.026924-.048279-.044922-.080444,1.293587.037186,1.940247.074356,3.230644.185928.046425-.070099.06971-.105118.116386-.17511-.260895-.283798-.44062-.576096-.535858-.879272.037331.016998.055969.025513.093246.042572.090218.257919.254959.521927.491096.793945.017273.020355.025887.030548.043129.050919ZM35.326255,15.69888c-.035156.516769-.052734.775162-.087898,1.291946-.029213-.017258-.043831-.025879-.073082-.043106.034477-.516815.05172-.775223.086197-1.292053.029938.017273.044891.025909.074783.043213ZM36.316345,14.795544c-.009674.009766-.014496.014664-.02417.024445-.281914.297958-.470978.553177-.571815.763062-.019249-.026108-.02887-.039169-.048164-.065262.16082-.291718.362259-.55452.605255-.787216.015572.02597.023361.038971.038895.064972Z"/><path class="cls-16" d="M41.00817,15.166608c-.197693.132812-.295982.199631-.491501.334061-.185104,1.189209-.277641,1.783798-.462708,2.973007.124252.158096.185921.23732.308304.396088-.539833-.087616-.810173-.128113-1.351479-.20256.182236-.113342.273834-.169632.457939-.281494.113144-.780518.169716-1.170761.282875-1.951279-.534653.955048-.793716,1.435501-1.295219,2.40152-.112595-.01442-.1689-.021484-.281555-.035324-.005524-.032547-.008301-.048828-.013855-.08139.102242.012527.153336.01889.255531.031876.529678-1.031281.803886-1.544083,1.370834-2.563141.025726-.177444.038589-.266159.064316-.443604-.633461,1.124268-.938774,1.690491-1.526398,2.829895-.082474-.010315-.123718-.015396-.20623-.025406-.209084-.977997-.320488-1.466705-.557022-2.443024-.065788.616425-.098686.924637-.164459,1.541061-.021973.205856-.02359.352997-.005051.441422s.073647.189606.164635.303848c.091614.144577.1371.216965.227417.361908-.614082-.071091-.921532-.102402-1.536926-.156555-.018402-.033386-.027634-.050079-.046097-.083435.578598.050354.867661.079269,1.445122.144592-.036278-.06897-.054466-.103439-.091003-.172348-.526123-.058472-.789459-.08461-1.316513-.130707.02594-.010666.03891-.016006.06488-.026642.229233-.099304.386024-.205353.468094-.320068.082069-.114731.135826-.303223.161598-.565628.094727-.964508.142113-1.446762.236839-2.41127-.151054-.160843-.227081-.241028-.380226-.400909.651474.059418.976921.093567,1.626999.170731-.200417.130798-.300072.196625-.498283.329086.245613,1.014145.361061,1.52179.57724,2.537659.055855-.095703.08387-.143539.140106-.23912-.197449-.901901-.302063-1.3526-.523132-2.253067.176582-.094238.265228-.141022.44326-.233932.023949.02298.035904.03447.059807.057465-.169197.083176-.253487.125076-.421432.209442.203255.845795.299736,1.269073.482361,2.116043.417259-.788818.631432-1.181473,1.070747-1.962936-.130455-.17363-.196182-.260269-.32869-.433182.636482.086411.9543.133865,1.588875.23732ZM37.384017,15.386151c-.085724.837036-.128593,1.255554-.214317,2.092575-.032829.320587-.023567.544357.026192.67128s.168686.227661.357407.303635c-.008682-.018646-.013031-.027969-.021729-.046616-.17836-.153351-.255524-.353683-.22934-.60231.009087-.086243.013626-.129364.022713-.215607.07254-.688766.108826-1.033157.181381-1.721924-.048378-.192459-.072845-.288666-.122307-.481033ZM41.145919,15.420865c-.156387.070251-.234344.105637-.389725.17691-.1866,1.166443-.279877,1.749649-.466431,2.916077.168831.261978.252151.39328.416565.656464-.619972-.104996-.930534-.153137-1.552536-.240662-.011986-.033646-.017998-.050461-.030029-.084106.56778.079483.851318.122864,1.417435.216873-.132446-.208496-.199379-.312561-.334625-.520294.190643-1.20256.285973-1.803833.476662-3.006393.161606-.070496.242691-.105453.40535-.174835.022964.023972.034424.035965.057335.059967Z"/><path class="cls-16" d="M44.855041,15.923123c-.024841.01712-.037247.025681-.062057.042831-.265274.189545-.492828.42598-.683372.707932-.010696-.04837-.018867-.084167-.02446-.107407-.061958-.253601-.151337-.427917-.26683-.522476-.115501-.094559-.341782-.177643-.678749-.245392-.155045-.031174-.342155-.063187-.561302-.095154-.10125.52948-.151871.79422-.253098,1.323685.077682.014862.116524.022354.194168.037476.091148-.46817.136726-.702255.22789-1.17041.159416.017105.310326.040176.452576.069.261833.053055.449013.119583.561371.197433.112358.077835.200562.201859.264023.371689-.024429-.02533-.041763-.044098-.051956-.05632-.139061-.158203-.243935-.256317-.313065-.294876s-.21273-.080856-.430931-.125259c-.065865-.013397-.183998-.033401-.354424-.059052-.026184-.003967-.039268-.005936-.065453-.009888-.085693.436996-.128532.655502-.214211,1.092484.223198.043762.334724.066193.557594.112137.198128-.170929.297859-.255997.498589-.425278-.105354.493973-.158028.740952-.263359,1.234924-.113289-.224258-.170631-.336273-.28669-.560013-.329231-.067871-.494049-.100616-.82399-.163696-.123451.645737-.185173.968597-.308624,1.614319.075172.014374.112755.021622.187881.036255.115105-.591248.172653-.886871.287758-1.478119.26152.050919.392159.077133.653236.131073.025116.036301.037643.054443.062675.090775-.261864-.054474-.392929-.080948-.655251-.132385-.110023.561203-.165031.841797-.275047,1.402985.399071.078247.687759.110062.867607.090286.17984-.019775.33535-.099854.467163-.240891.085304-.090454.128105-.135605.213959-.225754.008461-.010132.024956-.028473.04953-.055008.004555.22113.030685.403137.077469.545914.046791.142776.137245.317581.270576.525238-1.303207-.304565-1.958443-.437286-3.273369-.66362.201363-.103271.302513-.154465.505829-.25592.092781-.514359.139168-.771545.231949-1.285904-.172295-.01123-.333961.011978-.484329.069336-.01268-.027161-.019035-.040741-.031754-.067886.13707-.06369.313789-.089539.52961-.076401.009773-.054199.014664-.081314.024445-.135513-.0336-.010025-.057472-.016296-.071594-.018814-.205818-.036865-.406464.002747-.599945.118607.144661-.29248.384514-.410568.716782-.350632.088837-.492432.133255-.738663.222107-1.23111-.163765-.17244-.246231-.258377-.412415-.429672,1.333992.22963,1.998817.363312,3.321487.668472ZM44.50328,19.677716c-.084999.088074-.12735.132172-.211807.220551-1.262451-.299408-1.897133-.430649-3.170868-.656189-.013145-.034454-.01973-.051682-.032928-.086136,1.279167.225388,1.916573.356674,3.184425.656433.056351-.062531.084595-.093765.14119-.156174-.218483-.319122-.354897-.634689-.405693-.948654.034676.022293.051979.033463.086594.055801.052361.268433.177986.553833.37355.857651.014236.02269.021332.034027.035538.056717ZM43.841331,16.906049c-.109879.50618-.16481.759277-.274681,1.265457-.02655-.021362-.039841-.032028-.066429-.053345.1092-.506332.163795-.759491.27301-1.265808.027267.021469.040886.032196.0681.053696ZM44.957137,16.157346c-.011047.008255-.016556.01239-.027596.020645-.323692.253479-.548752.478287-.679474.671188-.015358-.028656-.023033-.042984-.038445-.07164.202248-.26506.440727-.49559.716232-.690186.011734.028.017593.041992.029282.069992Z"/><polygon class="cls-15" points="23.760015 39.6 12.960015 48.6 16.560015 50.4 23.760015 39.6"/><polygon class="cls-15" points="34.560015 34.2 23.760015 46.8 29.160015 48.6 34.560015 34.2"/><polyline class="cls-18" points="16.560015 50.4 34.560015 50.4 23.760015 39.6 16.560015 50.4"/><polygon class="cls-15" points="43.560015 48.6 45.360015 39.6 41.760015 43.2 43.560015 48.6"/><polygon class="cls-18" points="48.960015 48.6 29.160015 48.6 34.560015 34.2 48.960015 48.6"/><polygon class="cls-18" points="45.360015 39.6 41.760015 48.6 54.360015 48.6 54.360015 46.8 45.360015 39.6"/><path class="cls-10" d="M41.163123,53.424588c3.476578-.567261,5.203995-.976944,8.591217-2.048447-.460777,1.488235-.715141,2.231888-1.272003,3.714172,1.239899.984818,1.880653,1.463165,3.202171,2.387589-3.741875,1.183701-5.650116,1.636276-9.49073,2.262939-.412285-2.52652-.618408-3.789749-1.030655-6.316254Z"/><path class="cls-9" d="M44.867217,54.887906c-1.521469-.539963-2.262955-.833878-3.704094-1.463318.137421.842163.206123,1.26326.343544,2.105423,1.486641.622009,2.250809.911591,3.817429,1.441666-.182755-.833511-.274132-1.250259-.456879-2.083771Z"/><path class="cls-10" d="M21.476901,53.424588c-3.476551-.567261-5.203896-.976944-8.591202-2.048447.460773,1.488235.715153,2.231888,1.271996,3.714172-1.239899.984818-1.880692,1.463165-3.202194,2.387589,3.741917,1.183716,5.650211,1.636292,9.490818,2.262939.412277-2.52652.618389-3.789749,1.030582-6.316254Z"/><path class="cls-9" d="M21.476901,53.424588c-1.441109.62944-2.182594.923355-3.704056,1.463318-.182751.833511-.274124,1.250259-.456879,2.083771,1.566624-.530075,2.330803-.819656,3.817429-1.441666.137409-.842163.206108-1.26326.343506-2.105423Z"/><path class="cls-10" d="M44.867217,54.887906c-10.709724,2.348236-16.384651,2.348236-27.094372,0-.548244,2.500519-.82238,3.750763-1.37067,6.251297,9.188423,2.222595,20.647301,2.22258,29.835724,0-.548302-2.500534-.822433-3.750778-1.370682-6.251297Z"/><path class="cls-16" d="M18.148967,56.871442c.396866.095139.595634.1409.99374.228775-.14275.084534-.214397.126572-.358231.21019-.114632.506439-.171963.759689-.286613,1.266159.059959-.041718.089893-.062607.149647-.104477.100246-.447235.150368-.670837.250603-1.118073.116287-.070023.174244-.105194.289806-.175827.008678.0215.013012.032272.021709.053757-.106174.064743-.159412.097-.266201.16124-.091476.409943-.137222.614914-.22871,1.024872.339336-.250137.507298-.376465.839722-.63147.119431-.091629.188675-.18306.207169-.272003.011135-.053543-.005581-.109879-.049713-.170029-.043648-.060043-.102383-.105362-.175617-.136948.001793-.008408.002689-.012619.004482-.021027.448711.095673.673439.14119,1.123543.227646-.001621.008438-.002434.012665-.004055.021103-.257633.012177-.561619.157028-.918812.434219-.148453.114105-.223015.170929-.372856.284073.19146.671066.291641,1.006378.500973,1.676315.131588.121628.197723.182251.330643.303116-.465008-.088852-.697186-.13562-1.160789-.233841.134464-.057785.2015-.086868.33522-.145416-.134686-.463135-.199944-.694824-.326324-1.158371-.178585.136429-.268368.2043-.448906.339371-.053528.239853-.080299.359802-.133827.59967.109024.192474.164078.288605.275269.480606-.459347-.099503-.688667-.15155-1.146469-.260239-.018814-.028152-.02821-.042252-.04697-.070419.427895.102066.642212.151077,1.071468.245102-.085445-.153519-.127834-.230347-.211926-.38414.058281-.260025.087425-.390045.14571-.65007.193207-.145294.289242-.218338.480209-.365204-.011196-.041214-.016777-.061829-.027908-.103043-.225464.167603-.338955.25087-.567478.41626-.059006.260666-.088512.391006-.147518.651672.086857.115814.13052.173645.218319.289139-.408775-.090546-.612865-.137634-1.020393-.235504.145428-.068756.217907-.103348.362415-.173004.205437-.876083.308174-1.314133.513592-2.190201-.08651-.125443-.129494-.188248-.21492-.31398ZM20.734638,57.626553c-.214203-.025803-.447849.05484-.705563.240982-.183819.133087-.276241.19928-.462109.330902.180424.666367.274895.99939.47237,1.664825.221085.210251.332603.31485.557594.52298-.572384-.105011-.858124-.161041-1.428448-.280197-.020351-.027786-.030506-.041702-.050804-.069519.518593.108917.778358.160446,1.298676.25766-.168449-.158264-.252121-.237717-.418339-.397186-.205746-.683945-.304058-1.026276-.491646-1.711258.198479-.142776.297138-.214584.493259-.359039.255756-.186401.494499-.269821.720032-.248734.005981.01944.00898.029144.014977.048584Z"/><path class="cls-16" d="M21.082973,57.492993c.405487.074722.608486.110214,1.014946.17746-.134026.096237-.201321.144165-.33646.239594-.150593.881989-.225929,1.323013-.376541,2.205032.097519.109406.146511.164017.244976.273026-.419128-.069489-.62846-.10611-1.0466-.183151.142677-.074234.213783-.111572.355515-.186661.157768-.882767.236683-1.324142.394428-2.206863-.100712-.127151-.150768-.190842-.250263-.318436ZM22.174663,57.806821c-.101765.07164-.152813.10733-.255211.178513-.14481.863556-.217258,1.295334-.362087,2.158936.123638.184753.186008.276993.311836.461105-.469212-.075577-.703541-.115723-1.171543-.200745-.018379-.026764-.027557-.040161-.045891-.06694.437038.079819.655857.117676,1.09396.18927-.102528-.148605-.153427-.223007-.254517-.372025.148491-.879623.222767-1.319427.371239-2.199005.113411-.07872.16993-.11824.282562-.197525.011852.019363.01778.029068.029652.048416Z"/><path class="cls-16" d="M24.439338,58.031262c-.087143.090683-.159492.186966-.217812.288895-.114929.202133-.190811.325302-.226295.369965-.005005.004471-.007515.006714-.012527.011185-.003441-.016205-.006393-.028412-.00824-.037506-.024048-.133133-.045914-.226624-.065056-.279373-.01963-.052826-.052254-.105392-.098282-.157852-.115837-.132721-.256573-.211075-.423-.234619-.153702-.021744-.287476.002106-.401928.07103-.11459.069885-.181705.167343-.200989.29483-.036083.238556.122868.429489.479958.567764.142979.055725.214603.083359.358139.138168.511475.195068.745415.495941.694992.913925-.028198.233734-.143707.418777-.349167.553482-.20507.135742-.445755.18544-.719635.147812-.171307-.023529-.359615-.07579-.564198-.156296-.101765-.040268-.152576-.060532-.254066-.101242-.102596-.040283-.18856-.065491-.256943-.076202-.091347-.014297-.189957-.002274-.296387.036942-.005283-.012726-.007919-.019104-.013195-.03183.228733-.235107.397247-.466934.508488-.694839.01527.006729.022919.010071.038197.016785-.003643.227753.063519.415115.202034.561234.138367.147095.335564.239166.590759.274521.200989.027847.367233.004501.496681-.068298.129959-.072723.203987-.183533.222961-.332764.021935-.172485-.041718-.324173-.189674-.457901-.106441-.094788-.335426-.200699-.686047-.320312-.270149-.092224-.457993-.210022-.563091-.351837-.105743-.14093-.140385-.31958-.10619-.535706.035416-.223831.14587-.392105.330299-.507034.18428-.113983.405472-.151779.666065-.114746.167873.023865.358978.079895.575195.169403.101021.04184.176582.066284.227043.072693.070053.008926.150063-.005646.239723-.043823.008873.005432.013306.008133.022186.01355ZM24.272376,59.392499c.182106.170944.259148.383301.229317.637497-.031891.271652-.169258.489944-.414909.650635-.245659.160706-.530186.219925-.850163.176025-.163078-.022369-.308002-.058701-.434494-.108612-.139816-.054199-.20961-.081512-.348915-.136551-.081139-.032013-.169632-.056442-.265892-.071442-.085506-.013321-.166897-.009384-.244362.011856-.006908-.026413-.010353-.039642-.017242-.066071.083694-.021194.165665-.026016.246983-.013306.090012.014053.190716.043427.302658.085999.133945.052216.201042.078125.335449.129578.133919.051956.278194.08815.431854.109238.301159.041321.570618-.016708.804108-.171844.23349-.155151.364075-.362289.394531-.619354.025856-.218262-.031586-.417694-.170471-.601044.000618-.005051.000931-.007553.001549-.012604ZM22.440467,59.059964c.027481.020493.041237.030716.068764.051178.035507.091446.16642.182953.393661.272522.137108.05484.205788.082047.343414.136063.233715.091949.388905.16362.464149.215881.075249.052277.124062.123566.14753.213257-.006729.00267-.010094.004028-.016823.006699-.057358-.082245-.122513-.14592-.195755-.190125-.07312-.045166-.216911-.106659-.429932-.186905-.308544-.116379-.513016-.209671-.613831-.278351-.10096-.067703-.154522-.148239-.161179-.240219ZM22.611499,59.789731c.016697.263306.137127.466309.362904.607071-.000992.006973-.001488.010437-.002483.01741-.26741-.116119-.40797-.324387-.422165-.62294.0247-.00061.037052-.000916.061745-.001541ZM23.876571,58.48158c-.137642-.186584-.295948-.292831-.477119-.318344-.109489-.015427-.204678.002411-.286095.054703-.081276.051331-.128975.125214-.143253.221848-.015564.105331.041595.223526.173084.355927.006336.005249.00951.007874.01585.013123-.00531.005951-.007973.008926-.013287.014877-.180313-.110779-.258064-.24704-.234478-.405487.016396-.110153.07032-.194901.160923-.251709.09124-.057709.201111-.077286.330605-.059036.123604.01741.22839.058411.314354.122253.085823.064819.144646.146469.175735.246109-.006531.002304-.009789.003448-.016319.005737ZM24.562156,58.137692c-.009384.011856-.014084.017776-.023476.029633-.070694.090851-.132874.178696-.185783.262711-.126892.196945-.199318.305893-.215279.328491-.005096.005264-.007645.007889-.012749.013153-.019958-.011185-.029922-.016785-.049858-.028.004555-.007294.006836-.010941.011391-.018234.053978-.087662.130447-.203018.228401-.34343.072868-.105133.109169-.157745.181458-.263107.005165-.00647.007744-.009689.012909-.016144.021179.013977.031776.020966.052986.034927Z"/><path class="cls-16" d="M26.864265,58.252225c-.097946.094162-.14711.141129-.24585.234848.111351.385239.168213.577744.284302.962463.036766-.016373.05513-.024582.091843-.041016-.105064-.347229-.156624-.52095-.257828-.868607.100464-.097305.150482-.146088.250122-.243835.021683.011063.032532.016617.054237.027664-.094917.093887-.142578.140717-.238251.234222.096153.329071.145096.493515.244713.822205.018463-.011368.029549-.018387.032768-.021088.030792-.021622.046165-.03244.076897-.054108.046555-.031891.07576-.054291.088715-.067078.02639.165405.075279.31575.146057.449799-.042587-.005829-.073654-.009949-.092781-.011276-.140411-.009781-.244087.004059-.312279.042053.128815.432831.194687.649078.329407,1.081223.128662.109024.193291.16333.323135.271652-.458061-.028519-.687012-.044983-1.144585-.082367.133141-.089493.199463-.134415.331589-.224655-.081001-.257767-.120956-.386734-.199799-.644745-.176636.145493-.315895.285492-.416687.419876-.020203-.006866-.030296-.0103-.050491-.017181.100716-.132339.245644-.276627.433624-.435791.007996-.00798.011986-.011978.019981-.019943-.013962-.039154-.020935-.058746-.034851-.0979-.188187.127716-.349045.278442-.482521.454819-.013924-.025955-.020882-.03894-.034767-.064911-.067253-.125702-.153954-.269974-.25946-.432114-.007896-.011337-.011848-.017029-.019737-.028381-.137566.23317-.214928.425705-.229965.578323-.008812.089447-.00045.16684.026276.232269.026215.065369.093452.176987.204094.333542.009033.014587.024231.035629.044403.064972-.490395-.045517-.73542-.070831-1.225021-.126526-.015526-.024963-.023277-.03746-.038773-.062439.460892.052795.691544.076935,1.153145.120697-.013519-.01973-.020279-.029602-.033775-.049332-.08905-.123322-.145454-.218216-.169868-.285416-.024513-.066238-.032478-.141647-.023956-.227173.014526-.145813.098122-.356308.2491-.632233-.0354-.04306-.05307-.06459-.088333-.107712-.023636.043808-.054359.107529-.092995.193024-.038033.084564-.057106.126831-.095352.211349-.051849.112595-.082161.207687-.089973.284454-.008102.079697-.000534.147247.022736.203598.022858.055313.07605.133347.159096.233734.007881.009613.020432.024582.036636.0448-.452583-.043976-.678726-.06813-1.130608-.120804.227486-.080688.413849-.20369.557999-.367966.143745-.165283.296227-.427307.455139-.786255.004646-.011719.006966-.017563.011612-.029266-.071472-.072037-.18029-.123428-.325829-.152771.093262-.107895.168602-.22377.225609-.34552.018524.020584.0299.032547.03389.037872.035828.039841.053772.059738.089729.099518.030334.0345.067627.070648.111412.108368.019569-.036133.029343-.054214.048859-.090378-.009758-.009598-.014626-.014404-.024376-.024002-.066795-.069443-.12352-.126236-.168869-.170151-.007378-.006653-.011063-.009979-.018433-.016617.016106-.017593.024147-.026398.04023-.044006.071991.058411.141022.12323.205956.196335.151062-.308289.225777-.462662.373528-.771896-.082962-.106186-.124237-.159348-.206383-.265854.39798.038589.597115.056107.99556.087631ZM26.193977,58.637524c-.170937.347031-.257492.520248-.432777.866028.10125.121658.187698.24057.25956.35701.035789.058594.053734.087875.089722.146423.001434.001114.008156.01152.019852.029236.014809-.011429.022583-.018585.024368-.021362.013832-.01329.020752-.019928.034576-.033218.005074-.005432.01403-.01445.026779-.026077-.090179-.162872-.19799-.312851-.323303-.450241.14035-.278763.209816-.418365.347359-.697922-.018532-.067932-.027748-.101929-.046135-.169876ZM26.269882,58.894391c-.118164.239777-.177773.359512-.298004.598709.011696.015793.018417.025253.019653.028305.032516.042648.048813.06395.081451.106552.044113.055984.098846.141342.165161.255997.007759.013626.01165.020432.019424.034058.070412-.07132.152626-.140717.246094-.209381-.095184-.325531-.141937-.488373-.23378-.81424ZM27.432319,59.353635c.023811.130859.092468.313721.208572.546219-.032028-.006927-.050583-.010086-.05513-.010391-.071556-.010483-.107307-.015778-.178818-.026474-.081261-.013321-.140099-.020401-.176949-.022995-.006058-.000427-.02076-.000488-.044548-.001205.121239.390579.18309.585724.309258.975708.190399.181915.286339.272491.479706.45285-.52697-.029709-.790344-.047501-1.316711-.088913-.015343-.024323-.022995-.036514-.038307-.060852.482086.0383.723289.054977,1.205894.083435-.155579-.146164-.23288-.219513-.386513-.366684-.134163-.414536-.199844-.621979-.32843-1.037201.050926-.01001.109322-.011703.17437-.007156.079674.005554.168022.017426.265022.037445-.00946-.019791-.014175-.029709-.023613-.0495-.08371-.17485-.136444-.331223-.159111-.468887.0261.017868.039162.026779.065308.044601Z"/><path class="cls-16" d="M31.734619,58.42674c-.012619.024506-.02137.041168-.025246.049988-.058395.103546-.087723.155304-.14666.258698-.050072.091049-.097328.206436-.140892.344238-.001587.004318-.002373.006454-.00396.010757-.008774-.006241-.013161-.009354-.021927-.015594-.0028-.010941-.004204-.016403-.007004-.027344-.042488-.164047-.102409-.276337-.179932-.339981-.077515-.063644-.19532-.095245-.35479-.096558-.06517-.000534-.130356.001755-.195602.006851l-.026169-.000305c-.011292.931763-.016968,1.397644-.028282,2.329483.105576.095078.158585.142487.265015.237076-.414955-.003159-.622437-.006546-1.0373-.016968.129677-.097595.194244-.146561.322853-.244858.016899-.855148.025368-1.282715.042259-2.137802-.061989-.001999-.092979-.003052-.154961-.005219-.149551-.003372-.256737.022995-.321335.078827-.065117.056793-.105911.157196-.121788.303299-.022728-.000687-.034103-.001038-.056831-.00174.021172-.167435.068962-.283203.142693-.346558.07373-.063339.193275-.093216.358513-.089493.052216.001953.078339.002899.130562.004745.009697.000183.014549.00029.024246.000473.000832-.042191.001244-.063278.002083-.105469-.073906-.010254-.143913-.015686-.210564-.017258-.187111-.004379-.323616.029587-.407738.101349-.084839.072357-.134743.19899-.149605.37735-.010559-.000351-.015831-.000534-.02639-.000885-.056061-.201248-.145111-.426163-.265556-.676163-.004791-.008774-.007179-.013184-.011963-.021957,1.042084.040466,1.563622.04866,2.60627.041016ZM31.292983,58.899045c-.112106-.072327-.24263-.10788-.392197-.108978-.033684-.000244-.068367.001419-.104553.00499-.004585.863861-.006836,1.295776-.011177,2.159698.142487.163055.214226.2444.358688.406586-.465683-.001389-.69854-.004349-1.164131-.014862-.020393-.023514-.030571-.035278-.050926-.058823.435982.010223.654007.013336,1.090073.015549-.121376-.132294-.181725-.198608-.30175-.331512.009155-.895523.013748-1.343277.022888-2.238724.047112-.000687.070671-.001053.117783-.001846.140503.001144.240379.013199.299225.035843.058846.021652.103859.065643.136078.13208ZM31.872741,58.561322c-.0989.126984-.202576.336761-.312065.629288-.003555.008606-.005333.012909-.008896.021515-.019417-.016327-.029129-.02449-.048523-.040848.002563-.007812.003845-.011734.006416-.019547.10717-.296326.209488-.503067.30854-.620178.004295-.005112.006447-.007675.010735-.012787.017509.017029.02626.025543.043793.042557Z"/><path class="cls-16" d="M33.890846,58.369717c-.085464.105591-.128395.158295-.214676.26355.158226.368439.23851.552399.401413.919724.034431-.020813.051628-.03125.085999-.052109-.147316-.331497-.220016-.497467-.363525-.82988.087555-.109024.131111-.163635.217804-.272995.022881.008301.034332.012451.057228.020706-.082497.10495-.123947.157349-.20723.261993.1362.31459.205147.47168.344765.785461.016907-.013565.027031-.021912.029892-.024994.027855-.025284.041763-.037918.069557-.063232.042213-.037415.068405-.063278.079666-.077576.046715.160858.113884.30397.200745.428192-.042969-.000504-.074303-.000732-.093437.00032-.140518.007736-.241631.034348-.30455.080505.181503.413483.273705.619873.460999,1.031952.141174.092194.212036.138077.354324.229431-.458061.02858-.68721.040649-1.145622.060349.120934-.105316.181129-.158127.300987-.264069-.112335-.245712-.167969-.368713-.278183-.61496-.15712.166306-.277824.32251-.361084.468353-.020882-.004303-.031319-.006454-.052193-.010773.083435-.143814.209229-.304977.375885-.486252.006943-.008896.010406-.013367.017349-.022263-.018715-.037125-.028061-.055679-.046715-.092819-.170769.150085-.311562.319611-.422005.5112-.017029-.024033-.025536-.036057-.042526-.060089-.082283-.116394-.186134-.248795-.310837-.396576-.009239-.010269-.013863-.015427-.023094-.025696-.10743.248428-.160217.449066-.156189.602371.002357.089844.020256.165604.054863.227203.034088.061615.114578.164032.243683.305634.010765.013351.028435.032349.052078.05896-.491798.015701-.73777.021011-1.229729.02652-.018486-.022842-.02771-.034286-.046158-.057129.46315-.004852.694717-.009521,1.15773-.023392-.015854-.017899-.023781-.026855-.039604-.044769-.103569-.111298-.171249-.198471-.203781-.262115-.032509-.062683-.049759-.136505-.051926-.222443-.003685-.146484.053047-.365723.168465-.658249-.040436-.03833-.060623-.05751-.100922-.095917-.017998.046417-.040543.113449-.068222.203079-.027206.088623-.040863.132935-.068291.221542-.037415.118149-.055656.216278-.053871.293427.001846.080078.017731.146164.047783.199188.029518.052063.091911.122879.186684.212189.009003.008545.023293.021835.041862.039902-.454063.012543-.681145.016632-1.13533.020477.215355-.108307.384758-.253494.507217-.434387.121933-.181854.240547-.46077.353508-.83667.003143-.012192.004723-.01828.007866-.030472-.079765-.062607-.193985-.100082-.34185-.111145.079041-.118637.139328-.242966.18071-.370834.020912.018112.033669.02858.038284.033371.040451.03508.060699.052597.10128.087601.03434.030472.075783.061707.123863.093704.014908-.038284.022354-.057449.037216-.095749-.010864-.008301-.016289-.012466-.027145-.020782-.074821-.060608-.138077-.109924-.188477-.147873-.008133-.005676-.012199-.00853-.020332-.014206.013779-.019455.020653-.02919.034409-.048645.078606.049011.15506.104752.228493.169235.111481-.324646.166382-.487106.27449-.812271-.095413-.095078-.142929-.1427-.237564-.238174.399277-.011124.598892-.018448.997971-.036636ZM33.273994,58.835233c-.126411.365555-.19072.548187-.321548.91304.115456.108139.215912.215408.301598.322021.042755.053711.064186.080521.107132.134155.001556.000916.009514.010422.023308.02655.01326-.013184.020088-.02124.021507-.024231.01207-.014893.018105-.022354.030159-.037247.004356-.006027.012115-.016083.023315-.029205-.109627-.150406-.235123-.285843-.376404-.406631.104538-.294006.156082-.441147.257751-.735611-.026802-.065109-.040161-.097702-.066818-.162842ZM33.381126,59.080685c-.087395.252594-.13163.378799-.221146.631058.013557.014236.021393.022781.023003.02565.037529.038284.05632.057388.093971.095612.050682.050095.11554.127991.195518.233521.009392.012558.014091.018829.023491.031387.060966-.079514.133865-.158585.218033-.238312-.134804-.311188-.20137-.46698-.33287-.778915ZM34.59101,59.392072c.039879.126877.130699.29982.274765.516083-.032639-.002899-.051445-.003723-.055992-.003448-.072296-.001526-.108429-.002335-.180695-.004074-.082275-.003128-.141525-.002853-.178398-.000854-.006058.00032-.02066.00209-.04435.004333.16877.372513.254364.558472.427956.929764.211494.156876.317932.234833.532227.389801-.526672.03595-.790176.050995-1.31736.075226-.018227-.022232-.027336-.033371-.045532-.055618.482864-.021851.724213-.035233,1.206665-.06691-.172523-.125732-.258339-.188904-.429031-.315872-.18457-.394669-.275482-.592346-.45459-.988388.049271-.016251.106987-.025192.172089-.028763.079727-.004379.168846-.003555.26757.004272-.011841-.018478-.017746-.027725-.029572-.046204-.104767-.163101-.176498-.311707-.21608-.445496.028114.014481.042175.021713.070328.036148Z"/><path class="cls-16" d="M35.257659,58.290829c.404549-.028275.60675-.04422,1.010864-.079758-.110191.123428-.165604.185013-.277039.307907.042725.517487.064095.776245.106827,1.293762.044403-.05777.066551-.08667.110725-.144531-.038681-.456696-.058022-.685028-.096695-1.141693.089386-.101685.133865-.152603.22242-.254639.014671.017914.022003.026886.036697.044785-.081413.093597-.122292.14032-.204407.233627.035835.418472.053749.627716.089584,1.046219.247154-.340363.368805-.51123.6082-.854141.085999-.12323.12442-.231201.115356-.321579-.005455-.054428-.0382-.103165-.098122-.147308-.059433-.044189-.128784-.069809-.207779-.077988-.000816-.008545-.001228-.012833-.002037-.021393.454727-.043274.681938-.067215,1.135948-.119705.000984.00853.00148.012817.002464.021347-.241394.088867-.487007.318176-.743362.689697-.106873.153366-.160683.229919-.269112.382782.38269.582733.578308.872574.977982,1.448914.16153.076569.242584.114578.405235.190033-.468941.054657-.703621.079651-1.173309.124954.110405-.095459.165375-.143295.274895-.239243-.266624-.401443-.397957-.60289-.65667-1.007187-.128708.183685-.193619.275345-.324524.458328.020966.244873.031448.367325.052414.612198.161026.150925.242043.22612.405052.375946-.465866.042816-.698975.06192-1.165398.095551-.026245-.02121-.039368-.031845-.065567-.053085.436066-.030991.653999-.048492,1.089584-.087509-.127037-.120834-.190247-.181412-.31604-.302917-.022484-.265533-.033722-.3983-.056213-.663834.139854-.196533.209145-.294998.346481-.492371-.022964-.03595-.034431-.05394-.057327-.08992-.163872.227478-.246658.340942-.413971.567245.021988.266342.032982.399536.05497.665894.117035.084442.175766.126511.293633.210358-.415016.036209-.62265.05249-1.038101.081375.117271-.109207.175636-.163956.291809-.273743-.067139-.897385-.100739-1.346024-.1679-2.243332-.119514-.093704-.179031-.140717-.297569-.235046ZM37.938728,58.235852c-.211502.039627-.409515.186584-.598701.441422-.134842.182083-.202843.272934-.339996.454208.370895.581573.56044.870941.947571,1.446533.273216.134277.410652.200638.687164.331711-.576241.071472-.864723.103668-1.442154.161011-.027649-.020416-.041466-.030655-.069069-.051102.525185-.051575.787575-.080292,1.311798-.14357-.20771-.100479-.311104-.151184-.51693-.253464-.400528-.59079-.596489-.887863-.979736-1.485062.145782-.195694.21801-.293793.361137-.490387.187241-.254486.389252-.405655.610107-.453156.011513.016754.017273.025116.028809.041855Z"/><path class="cls-16" d="M38.23014,58.00401c.408287-.050323.612267-.077347,1.019814-.135132-.098869.132004-.148621.197922-.248749.329483.12104.886536.181587,1.329803.302605,2.216385.125717.075119.188774.112518.315308.186966-.42028.059448-.63063.08728-1.051666.13916.113548-.113602.170044-.170532.282471-.284668-.114426-.88942-.171677-1.334122-.286118-2.223495-.134003-.09108-.200737-.136826-.333664-.228699ZM39.363998,57.975949c-.075508.098862-.113449.148224-.189674.246841.12101.867203.181549,1.300812.302544,2.168076.173225.13916.260345.208435.435524.346313-.470001.06868-.705269.100647-1.176239.159882-.02552-.02002-.038269-.030045-.063744-.050095.439903-.054901.659683-.084412,1.098755-.147552-.142296-.110992-.21312-.166702-.354134-.278534-.122314-.883652-.18351-1.325455-.305847-2.209045.08445-.109116.126457-.163757.210037-.273178.017097.014923.025658.022385.042778.037292Z"/><path class="cls-16" d="M39.576614,57.821591c.410797-.060684.616005-.092926,1.025909-.161209-.101669.136169-.152832.204132-.255836.339844.14608.907288.219162,1.360962.365219,2.268295.007133-.001144.010704-.001724.017838-.002869.032852-.002533.049286-.003815.082138-.006393.00795-.001282.011932-.001938.019882-.003235-.146965-.901245-.22049-1.351883-.367477-2.253082.07827-.107376.117188-.161148.194641-.268784.014999.01651.022491.02475.037514.041245-.06926.098007-.104065.146957-.173988.244736.146141.890671.219246,1.336014.365372,2.226715.068214-.005249.132904-.013016.19455-.023331.237419-.039764.408554-.121338.512154-.242844.103775-.120544.155746-.298737.155502-.534973.208046.359375.401382.59581.57576.708984-.935974.176941-1.405396.255905-2.346146.394882.110298-.114639.165161-.172089.274353-.287247-.13575-.886414-.203667-1.329605-.339439-2.215973-.135719-.089493-.203308-.13446-.337944-.224762ZM42.541923,60.095517c-.02565.08374-.038544.125595-.064468.20932-.938278.179352-1.408859.259521-2.351982.400818-.026001-.019409-.038994-.029144-.064949-.048584.955025-.142136,1.431549-.222961,2.381622-.40416.015747-.058289.02359-.087448.039215-.145752-.200333-.158493-.370781-.346298-.511688-.561646-.005333-.008545-.007996-.012833-.013329-.021378.030258.004745.045387.007095.075661.011795.008896.013062.013336.019592.02224.032639.137627.189987.293106.360489.465805.509277.008743.007065.013123.010605.021873.01767Z"/><path class="cls-16" d="M43.168334,57.142819c.344803-.07399.647606-.007339.914223.201904.266617.209229.452454.527359.553978.957062.09568.404984.068054.754089-.088348,1.043732-.156189.290604-.416031.476685-.776527.554123-.284843.061203-.556145.028381-.811981-.098511-.376549-.187302-.609474-.532166-.705078-1.029053-.081757-.424957-.037766-.783249.127365-1.075912.165131-.292679.426094-.476028.786369-.553345ZM43.207275,57.324277c-.481293.103287-.638458.56665-.470764,1.400787.155182.771881.480347,1.108719.97493,1.002686.229828-.049286.383286-.189438.456772-.42012.074203-.229828.065819-.540573-.023148-.932068-.100655-.442932-.227257-.738632-.377831-.888092-.157631-.155869-.343567-.209625-.559959-.163193ZM43.870612,57.100629c.224968.050003.423546.177002.597534.38176.1735.204865.298164.459137.371368.764023.107643.448318.075722.840149-.101318,1.172363-.177551.332336-.466965.544876-.864052.630661-.254036.054886-.508987.02327-.762115-.092743l-.002136-.010529c.21022.089844.456085.105804.735291.045563.374306-.08075.651825-.283203.828842-.602142.176521-.318817.213196-.683502.115105-1.093933-.072884-.304977-.189957-.559143-.348625-.762573-.159386-.204269-.347351-.339828-.564697-.409592-.002075-.00914-.00312-.013718-.005196-.022858ZM43.733756,57.538998c-.016289-.005157-.024445-.007751-.040726-.012939-.153931-.043793-.287445-.053635-.401825-.028992-.375259.080856-.489273.48111-.34066,1.206482.108818.531113.300735.858154.579063.980011-.006111.010086-.009178.015121-.015289.025208-.169937-.06897-.302361-.177338-.398132-.327209-.096077-.148788-.171638-.361725-.227974-.638351-.158676-.779144-.029335-1.209976.386887-1.299622.189636-.040848.342087-.009674.458656.095413Z"/><path d="M8.193919,9.3h5.4v3.6h-5.4v-3.6Z"/><path class="cls-6" d="M8.193919,9.3h5.4v2.4h-5.4v-2.4Z"/><path class="cls-17" d="M8.193919,9.3h5.4v1.2h-5.4v-1.2Z"/><path class="cls-3" d="M10.898748,11.114416l.410927.381473-.029255-.692818c-.004298-.105001-.095544-.080911-.161826-.043034-.067145.043034-.143748.043034-.224676.01462-.080909.028412-.157518.028412-.224664-.014622-.066275-.037873-.157511-.061967-.161819.043034l-.029273.692819.420586-.381473Z"/><path id="C" class="cls-5" d="M10.554708,10.778957l-.028403.673918-.04821.043008.029273-.692818c.013765-.009468.037879-.024101.04734-.024101v-.000007ZM10.612428,10.827197l-.024101.563728-.048191.04932.029262-.650938c.009474.009463.037884.0327.043032.03786v.000029ZM10.664928,10.870217l-.018929.47017-.03873.03786.024108-.536434c.009444.009468.02838.023244.033551.028403h0ZM10.721747,10.894336l-.018936.40072-.037879.030719.018936-.446069c.009474.004302.02841.014627.037879.014627h0ZM10.774248,10.894336l-.013781.333941-.03873.037879.01464-.36751c.00945,0,.033558,0,.037872-.004308h0Z"/><path id="C-2" class="cls-5" d="M11.233068,10.778957l.028403.673918.04821.043008-.029273-.692818c-.013765-.009468-.037879-.024101-.04734-.024101v-.000007ZM11.175348,10.827197l.024101.563728.048191.04932-.029262-.650938c-.009474.009463-.037884.0327-.043032.03786v.000029ZM11.122847,10.870217l.018929.47017.03873.03786-.024108-.536434c-.009444.009468-.02838.023244-.033551.028403h0ZM11.066028,10.894336l.018936.40072.037879.030719-.018936-.446069c-.009474.004302-.02841.014627-.037879.014627h0ZM11.013528,10.894336l.013781.333941.03873.037879-.01464-.36751c-.00945,0-.033558,0-.037872-.004308h0Z"/><path class="cls-5" d="M10.912848,11.190376l.057677.26253-.018946.018931-.019795-.014633-.032712-.234107.013774.234107-.018942.024094-.018936-.024094.013776-.234107-.032702.234107-.019815.014633-.018927-.018931.057667-.262532h.037883,0Z"/><g id="D"><path class="cls-3" d="M10.764768,11.075057l-.11448.406229.157529.024105.067128-.305543-.110178-.124793h.000001Z"/><path class="cls-3" d="M10.726908,11.213657l.013773.033557.07443-.071089"/><path class="cls-3" d="M10.778448,11.129538l.015574.146075.047343-.061969M10.822428,11.237716l.025859.08925M10.858427,11.294176l-.052306.079446M10.822435,11.452918l-.016741-.079186-.014615-.080539-.035042.047453-.015369-.054713-.049047.050307.024945.091506.034425-.05661.018934.057674.035342-.054973M10.683828,11.471836l.031798-.044661.020717.068742.028405-.048194.018946.057682"/></g><g id="D-2"><path class="cls-3" d="M11.023007,11.075057l.11448.406229-.157529.024105-.067128-.305543.110178-.124793h-.000001Z"/><path class="cls-3" d="M11.060867,11.213657l-.013773.033557-.07443-.071089"/><path class="cls-3" d="M11.009328,11.129538l-.015574.146075-.047343-.061969M10.965347,11.237716l-.025859.08925M10.929348,11.294176l.052306.079446M10.96534,11.452918l.016741-.079186.014615-.080539.035042.047453.015369-.054713.049047.050307-.024945.091506-.034425-.05661-.018934.057674-.035342-.054973M11.103947,11.471836l-.031798-.044661-.020717.068742-.028405-.048194-.018946.057682"/></g><path class="cls-1" d="M10.893888,11.662876c.119658,0,.234144-.009467.301277-.028405.028413-.005152.028413-.019785.028413-.038732.028412-.009465.013769-.043022.033565-.043022-.019797.005175-.024094-.033565-.048197-.028389,0-.033579-.033574-.037877-.06198-.028426-.056818.018945-.157529.023251-.25308.023251-.095544-.004306-.195401-.004306-.253073-.023251-.028405-.009452-.061962-.005154-.061962.028426-.02411-.005175-.028412.033565-.048204.028391.019792,0,.005156.033556.033565.043021,0,.018946,0,.033579.029266.038732.066271.018938.180768.028405.300407.028405h.000001Z"/><path class="cls-1" d="M10.731228,11.481255c.038726.005168.081768.009467.11535.005168.01892,0,.032695.032703-.005176.037877-.033558.004291-.08607,0-.11448-.005175-.024101-.004305-.076607-.013767-.110183-.023251-.03357-.014618-.009457-.043007.009463-.038712.029273.009461.067152.018937.10503.024094h-.000004ZM11.056607,11.481255c-.03874.005168-.081768.009467-.114486.005168-.019804,0-.033577.032703.004303.037877.033572.004291.086081,0,.114468-.005175.024114-.004305.076613-.013767.110184-.023251.033579-.014618.009482-.043007-.009464-.038712-.029266.009461-.067139.018937-.105005.024094h0Z"/><path class="cls-1" d="M10.612428,11.462357c-.029262-.005168-.043034.028389-.033556.04732.004298-.009465.024097-.009465.028408-.018931.005148-.014622-.00431-.014622.005148-.028391v.000002ZM10.726908,11.550376c0-.018917.018927-.016591.018927-.035529,0-.009463-.005154-.024103-.014621-.024103s-.018945.009465-.018945.018931c-.004308.018942.014639.021787.014639.040701ZM10.863168,11.495896c.028382,0,.02557.037886.011793.056819,0-.01377-.024097-.018934-.024097-.028389,0-.014651.021756-.014651.012305-.02843ZM11.175347,11.462357c.029266-.005168.043045.028389.033571.04732-.004308-.009465-.024101-.009465-.028405-.018931-.005166-.014622.004308-.014622-.005166-.028391v.000002ZM11.060868,11.550376c0-.018917-.01892-.016591-.01892-.035529,0-.009463.005156-.024103.014627-.024103.009463,0,.018936.009465.018936.018931.004308.018942-.014644.021787-.014644.040701h0ZM10.924607,11.495896c-.028394,0-.025577.037886-.011804.056819,0-.01377.024094-.018934.024094-.028389.000004-.014651-.021756-.014651-.012289-.02843h-.000001Z"/><path class="cls-1" d="M10.621909,11.471836c.009479,0,.024106.004306.028412.009463l-.02844-.009481.000028.000018ZM10.669188,11.486476c.00517,0,.02411.004298.033575.009452l-.0336-.009481.000025.000029ZM10.841388,11.505376c-.009467,0-.028405,0-.033557.004291l.03354-.00432.000017.000029ZM10.788888,11.505376c-.005152-.005175-.024099-.005175-.033561,0h.033561ZM11.165928,11.471836c-.009467,0-.023248.004306-.028413.009463l.028413-.009463ZM11.118587,11.486476c-.005161,0-.024103.004298-.033571.009452l.033599-.009481-.000028.000029ZM10.946388,11.505376c.009477,0,.02841,0,.033571.004291l-.033599-.00432.000028.000029ZM10.998887,11.505376c.005161-.005175.024111-.005175.033572,0h-.0336.000028Z"/><path class="cls-2" d="M10.613928,11.547497c-.003204-.000613-.004887-.003148-.004081-.006148.000983-.003654.00391-.005745.006675-.004766.001759.000621.004979.003867.004993.005032.000017.001337-.001685.004516-.002417.004523-.000316.000003-.000806.00028-.001088.000611-.0006.000709-.00248.001053-.004082.000747h0ZM10.943507,11.571016c-.001192-.000442-.003091-.003112-.003088-.004342.000011-.002323.003445-.006107.005572-.006128.001052-.000007.00393.001488.005005.002607.00195.002028.001524.005356-.000926.007247-.001206.000931-.004801.001268-.006562.000615h-.000001ZM10.945668,11.585895c-.002522-.000853-.003443-.002087-.003649-.004881-.000213-.002913.00007-.003366.003147-.005045l.002194-.001196.002078.000927c.002881.001284.004161.002668.004263.004604.000109.002087-.001439.004221-.003842.005298-.002109.000945-.002235.000954-.004191.000294h0ZM10.640388,11.520556c-.002077-.000066-.004927.001843-.006562.002811-.003895.000915-.008428.003308-.012187.000751-.003703-.001144-.008629-.000242-.009189.004313.000951.00391.006431.006145.009751.003562.002464-.003225.009189-.005117.009937.000375-.002741.004154-.002429.009653-.004687.014063-.000368.002747-.00151.005355-.003.007688-.002773.000278-.005723-.000049-.008063.001687-.003757.000206-.007589.002073-.009751.00525-.002419.003468-.004731.006993-.005438.01125.000643.004349.005625.005597.009376.005812.004.001102.008005.002545.012.003751.006512.001457.012612.003811.019125.005249.009506.002867.019487.004184.029062.006751.001004.000333.001944.000622.003.00075.003975.000825.006047-.003496.006375-.00675.001972-.006958.003477-.014035.005438-.021001.00135-.002793.002979-.009103-.002436-.007686-.003091.001852-.005712.00464-.009563.004874-.005245.000306-.002252.005671-.000187.007875.000456.003524-.000659.007734-.003.0105-.003119.001977-.007029-.000336-.010313-.001124-.003447.000059-.01034-.001701-.007124-.006376.001141-.003461.001242-.007249.002625-.010686.001761-.003688.002013-.007712.002811-.011625-.002168-.004664-.005871.001534-.008811.002061-.002028.001408-.009633.002005-.005626.005625.003452.002622.000806.00718.000187.0105-.000221.004621-.005026.005724-.008812.004688-.003766-.000182-.009008-.002986-.005812-.007126.000727-.00345.001931-.00684.002625-.010313l.004126-.012374c.00065-.00372.001986-.007247.003748-.0105.000105-.004112.002867-.00765.002812-.011812-.00028-.002033-.00119-.002773-.002436-.002812h0ZM10.618826,11.564056c.00049-.000084.000839-.000011.001312.000187.001498.000638.001543.001856,0,.003189-.000674.00058-.001441.001141-.001688.001124-.002806-.000242-.003633-.000659-.003748-.001688-.000105-.000908.000182-.001168.002061-.002063.000933-.000445.001572-.000664.002063-.00075ZM10.612608,11.594176c-.002976-.002797-.002496-.004839.001903-.00812.001884-.001403.003025-.001245.005179.00072.003315.003024.003447.004937.000522.007529-.001446.001281-.002078.001544-.003762.001561-.001761.000018-.00226-.000201-.003842-.001689ZM10.630908,11.599696c-.002772-.000664-.004481-.003449-.003817-.00622.000025-.000103.000052-.000204.000083-.000305.000769-.002608.001217-.002864.00504-.002903.004289-.000042.005122.000676.005162.004452.000024.002126-.00014.002618-.001199.003603-.001242.001155-.003631.001778-.00527.001373h0ZM11.165567,11.600176c-.001362-.001133-.001636-.001646-.001652-.003089-.000018-.002463.001401-.00427.004475-.005663.004092-.001853.005759-.001598.0073.001115.002049.003608.001951.005081-.000503.007512-.001355.001343-.001608.001421-.00471.001452-.003045.000018-.003393-.000063-.00491-.001326ZM10.655208,11.607075c-.002183-.000582-.003315-.002221-.003343-.004839-.000025-.002004.00012-.002323.00152-.003419.000909-.000711.002341-.001319.003471-.001473.001601-.00022.002187-.00008.003475.000825.003303.002322.004005.004619.002092.006849-.002038.002373-.003968.002924-.007217.002057ZM10.786729,11.612956c-.000485-.000604-.001555-.000961-.001666-.001723.000192-.003329.000351-.006699.001413-.009888.000576-.003138.00007-.006417.001165-.009472.001122-.005562.00112-.011296.002413-.016822.00006-.002846.00033-.005694.001155-.008433.000945-.00433.000081-.008857.001357-.013135-.000137-.001608.001713-.005899.003338-.003357.002359.003459.005468.00627.008526.009091.002626.001516.000215.003748-.0016.004499-.002491.000982-.003096.003726-.00292.006133-.00035.002488-.001347.004842-.001449.00738-.000527.003734-.000424.007529-.000909.011258-.001092.003654-.000674.007559-.001039.011326.000048.002391-.001088.004563-.000931.006963-.000291.002433-.0004.005365-.002443.007035-.001972.000996-.004825.000824-.00641-.000854h.000001ZM10.964927,11.554155c-.002894.002189-.005481.004772-.008063.007314-.003555.002692.00292.004259.00375.006562.000944.003517.000888.007263.001126.010875.001076.003308.00155.006831.001312.010313-.00031.003734-.00518.002947-.007312.005063-.002951.001242-.004129.004143-.006376.006186-.001477.002896-.001873.006459-.002061.009751.000211.002687-.001815.005695,0,.008063.000234.000334.00051.000792.00075.001124.000607.000871.002056.000176.003.000375.003021-.000168.00617.000284.009-.000937.00726-.001256.014587-.001357.021938-.001688.004495.000144.008821-.001421.013313-.001312.00352.000779.005105-.003038.005063-.005812-.001994-.003921-.000271-.008572-.001875-.012563-.00141-.004035-.000855-.008568-.001501-.012749-.000088-.003291-.004264-.00451-.006375-.002063-.002049.00207-.005357.002484-.006937.005063-.00178.003614.003763.003618.004687.006375.001056.002786.00071.005884.000937.008812.000685.003555-.003175.003758-.005624.004126-.003221.001207-.007741.002014-.009563-.001874-.001145-.002878-.000989-.005958-.001312-.009001-.00008-.005351-.001366-.010611-.001688-.015937-.000308-.006582-.001445-.01312-.001874-.019688-.000062-.002733-.000425-.007189-.004313-.006375v-.000003ZM10.961178,11.603656l.001874.000187.000187.00225.000187.002249-.002438.000751c-.000799.000238-.001613.000426-.002436.000562-.000386-.000234-.000762-.000484-.001126-.000751-.001317-.000951-.00098-.002309.00075-.004124.000976-.001021.001434-.001219.003-.001124h.000001ZM10.781388,11.547976c-.00228.00081-.005175.004158-.007499.004126-.005281.000372-.004544.005515-.000751.007312.000501.001559.000031.003527.000187.00525.000737.004737-.002252.008549-.001687.013313-.000266.005221-.001842.010306-.002063.015562-.001482.005421-.001499.010993-.002438.0165-.000625.00494-.004197.003197-.007313.001875-.000024-.002141-.000162-.004233-.000187-.006375.001299-.004903-.002646-.006334-.006562-.006937-.004117.000389-.006137-.00314-.00525-.006751.001769-.002106.006217-.00152.009-.001874.005888.001219.00565-.006671.002625-.009376-.002068-.003814-.007189-.005454-.008625-.009375.000573-.005198-.002878-.010394-.007124-.012937-.006531-.000459-.011463.005177-.013875.010686-.002716.000785-.005424.0016-.008063.002625-.004254.001064-.010319.008442-.004501.01125.003266.000899.013202.003166.008812.007686-.002473.004243-.007205.004316-.011437.003189-.004341.000003-.009175-.002112-.009-.007126-.000885-.004499-.00074-.009348-.002811-.0135-.000892-.005035-.006605-.003857-.006938.00075-.0044.003205-.003814.008387-.00075.012188.001912.004373.000018.009465-.001874.013499-.001147.00525-.006937.005429-.011064.007126-.002025.000786-.00977-.000467-.006937.003937.004517.001594.009916.003029.014625.001874.004937-.000611.009225-.003987.011625-.008249.003316-.003361.009012-.001601.013313-.001688.004636-.000011.009376.003256.013874.001126.001305-.003386.007333-.008975.009189-.003189-.000316.005177.004256.007955.009.007314.005183-.000297.003267.003664.003189.00675.000341.005607.003958.008548.008623.010875.00159.000428.00327.000284.004875,0,.004488-.001411.009321-.003412.010688-.008437.001821-.004084.001864-.008705.003187-.012937.001063-.00678.002435-.01356.002625-.020437.001656-.006231.00118-.012816.002436-.019125.000794-.004691.001385-.00938.001875-.014063-.00055-.002503-.001631-.002923-.003-.002438h0ZM10.740701,11.572913c.000909.000112.001413.001225.001501.003189.000095.002183.001238.003963.002625.004312.001094.000274.001.001434-.000187.00225-.000691.000475-.001926.000762-.004126.00075-.003468-.000018-.005618-.000916-.007499-.002812l-.001126-.001124.001688-.001126c.001183-.000933.002309-.001935.003375-.003.001709-.001744.002842-.002548.00375-.002438ZM11.136887,11.525655c-.003403.000157-.006824.000708-.009937.001501-.006242-.000389-.009375.006162-.003375.009375.003608.009207.009242-.001901.014999-.001124.008625.001678.009354.010993.010688.017999.000485.006941.002485.01369.004499.020251.005773.006417-.004324.01044-.008625.005436-.003667-.003986-.011523-.008877-.015937-.003375-.005422.002296-.005645.009542-.010126.011625-.007254.00221-.008168-.006713-.012-.010499-.003524-.004947-.010263-.005379-.015751-.007126-.002573-.005212-.001232-.014074-.006562-.017625-.004475.001825-.012679.010212-.005812.014063.006706.005763-.002927.008405-.006.012374-.00439.004888-.005091.011616-.005814.017814-.007555.004173-.009026-.004727-.009937-.010313-.000587-.006668-.006215-.004712-.010126-.00225-.005715.002316-.008568.007742-.012562.012-.00048.003887.000224.00814.000187.012188.001298.004867.007214.002582.010875.002249.005873-.002456.008277.003765.003562.007314-.003191.004056-.013318.001937-.012374.008436.003263.000382.006663.000259.009937,0,.006542-.001787.013567-.006404.01425-.013688.000862-.00635.010005-.005193.014999-.006562.006245-.0018.013769-.002263.015188.005625.004256.00447.01349.009503.018187.003375.004766-.002912.007057-.008026.006749-.0135-.000972-.004707.007612-.004878.009749-.00225.003129.005148.012906.003629.017626.000751.005017-.003703.006105-.01023.013313-.010313.010693-.003203.021804-.005049.032249-.009.008461-.001845-.001259-.007187-.003375-.010313-.006443-.003186-.012049.009851-.019314.003375-.005612-.004296-.005231-.01246-.007312-.01875-.001422-.008144-.001063-.017535-.006937-.023999-.004035-.004289-.009516-.005323-.015188-.005063h.000002ZM11.096013,11.582469c.000755-.000018.001606.000355.003.001124.002629.001452.004503.003857.004499.005812-.000001.001275-.000326.001362-.002249.00225-.001183.000545-.002529.001131-.003001.001124-.001085-.000011-.003745-.00214-.003748-.003-.000006-.000357-.00035-.001719-.000751-.002811-.000706-.001924-.000597-.001899.000375-.003189.000621-.000825.00112-.001292.001874-.001312h.000001ZM11.1352,11.58453c.002233-.000145.003561.000551.004499.002252.001091.001972.00035.003485-.002438.004685-.001221.000529-.002442.000957-.002625.000938s-.00119-.000615-.00225-.001312c-.00162-.001067-.001856-.001583-.001874-.002812-.000018-.001892.002095-.00358.004687-.003751h.000001ZM11.081574,11.585093c.000655-.000101.00125.000241.002063.000937.00108.000929.001421.001674.001688.003563.000187.001313.000158.003011,0,.00375-.000292.001357-.00032.001295-.003375.001313-.003842.000036-.004198-.000383-.004126-.003938.000048-.00226.00007-.002868.001313-.004124.000962-.000973.001783-.001399.002436-.001501h0ZM11.048575,11.593719c.001197.00028.002327.001185.002625.002624.000393.001906.000048.002773-.001501.003563-.001333.000678-.004404.000905-.00525.000375-.000274-.000172-.000839-.000618-.001124-.001126-.000408-.000727-.000333-.001077.000187-.001499.000364-.000295.000752-.000719.00075-.000937s.000404-.000979.000937-.001688c.000877-.001164.002179-.001594.003375-.001312h.000001ZM11.104074,11.600843c.001068-.000006.001972.000365.002625.000937.001112.000975.001074.002403-.000187.003376-.000811.000625-.005231.000568-.006749,0-.000677-.000253-.000934-.000593-.000937-.001313-.000013-.000845.000224-.001366.001687-.002063.001227-.000585.002495-.00093.003563-.000937h-.000001ZM11.001048,11.629756c-.000575-.000375-.001427-.000702-.000569-.001329.001036-.001815.003108-.002443.004947-.003119.003287-.001424.006124-.003842.008242-.00671.000299-.001998.002543-.003082.002533-.00517.000018-.00285.000187-.00577-.000508-.008556-.000769-.002554-.002709-.004512-.004959-.005843-.001538-.00121-.004043-.001543-.004612-.003685-.000315-.002056.001522-.003622.002164-.005454.00134-.002531.002467-.005183.003906-.00765.001554-.001727.003952-.000095.004756.001573.001136.001666.002141.003454.002705.005384.001814.001991.003422.004326.004074.006972.000891.001863.002299.003614.002217.005796,0,.002499.00141.004724.001322.007238.00008.003364.000078.00687-.001151.010044-.000839.001762-.002523.002818-.003639.004396-.001913.001773-.004022.003474-.006478.004417-.001734.000552-.002741.002554-.004916.002068-.003087.000054-.006219.000474-.009282-.000024.000193.000325-.000938-.00055-.00075-.000344v-.000003ZM10.959949,11.632456c-.001457-.001498-.001772-.002133-.001789-.003603-.000017-.001485.000269-.002074.001694-.003514.002629-.002656.003916-.00272.008454-.000422.004338.002196.005805.002394.006194.000839.000375-.001501.002873-.002874.005245-.002884.001501-.000013.00235.000287.003552.001222.001508.001175.00158.001357.00162.004075.000024.002779-.000013.002884-.001743.004417-.001664.001464-.001931.001554-.003993.001348-.002624-.000264-.004197-.001464-.004625-.003531-.000309-.001499-.000836-.001857-.001231-.000839-.000126.000329-.000772.000733-.001434.000899-.001221.000308-.003294.001611-.004765.003-.000557.000524-.001531.000772-.003112.000787-.002134.000018-.002431-.000109-.00407-.001794h.000001ZM10.841029,11.579056c-.003989.000042-.008284.003397-.008814.007312.000912.004515.004661.008937.00225.013688.001664.006078-.004569.008384-.008814.004875-.002562-.005828-.00386-.012215-.007686-.017437-.004825-.001366-.006927.006341-.010313.009.001678.004531.006575.008594.007124.01425.001172.005489-.002168.011583-.006937.014437-.004115.003928-.009752.002524-.014812.003375-.006145.003591.00451.004905.007313.005063.006285.000639.012811-.00019.017436-.004875.004615-.002203.004259-.010183.009751-.011063.00953-.000425.018976.001462.0285.001688.005096.001219.012981-.000607.0165.003187.000011.006645.005645.010742.011063.013313.002993.000832.006145-.002877.009187-.003563.005791-.001846.004031-.009011.0075-.011812.009902-.000536.019897-.000422.029812-.000562.001888.000048.002445-.002639.003751-.00375-.000218-.003832-.000357-.007636-.000937-.011437-.00191-.004839.000308-.011068-.003189-.015188-.004979-.001357-.009216.003203-.01425.003563-.005556.002475-.010237.007607-.010499.013874-.003291.00538-.008566-.000957-.006751-.005436-.000207-.001952.000422-.004226-.000187-.006-.003042-.00365-.008368-.002457-.012562-.003-.006112.000243-.012077-.001077-.018188-.000937-.005356-.000406-.010931.000466-.016125-.000937-.006189-.000178-.005337-.006231-.006375-.010502-.001098-.000814-.00242-.001138-.003748-.001124ZM10.853029,11.601182c.002057.000042.003998.000311.006.000561.002585.000427.005338-.000888.007874,0,.00586.000997.011721.000762.017626.001313.001558-.000024.002674.001108.003748.002063v.012374c-.000178.001545.000459.003589-.000937.004688-.000448.000308-.00095.000643-.001499.00075-.001624-.00042-.003343-.001488-.004126-.003-.000248-.002145.000108-.004224.000187-.006375-.000042-.000557.000243-.001422,0-.001875-.001275-.000905-.002723-.001494-.004312-.001501-.005096-.000175-.010092-.00055-.015188-.00075-.00424-.000267-.008598.000364-.012749-.00075-.00161-.000586-.003706-.000385-.004687-.002063-.001406-.001633.000621-.00358.002061-.004312.00191-.000868.003943-.001165.006-.001126h.000001ZM10.920713,11.602681c.000952-.000013.001256.000299.001688.002063l.00075.003c.000218.000708-.00013.000937-.001124.001312-.002965.001119-.005915.001007-.006937-.000375-.000466-.000627.000077-.002607.000937-.003375.001737-.001552.003659-.002622.004687-.002625h0Z"/><path class="cls-3" d="M10.967755,10.818561c.004002.00024-.005412-.021408-.005412-.021408.01059.010824.05058.01341.05058.01341-.024-.010596-.047988-.090576-.045168-.154326.002592-.063984-.009168-.08916-.018582-.098568-.012-.012-.05058-.022584-.075984-.024-.014352-.000702-.012.010824-.012.010824-.02658-.006822-.05316-.009408-.06516-.00141-.011298.00753-.01365.045168-.005412.03858.019992-.015996.037404-.00141.049398.015996.010584.015294.009882.058578-.005412.109152-.015996.053166-.059754.106332-.059754.106332.02376,0,.057168-.021168.057168-.021168l-.007998.033168c.02517-.012.045168-.030582.045168-.030582l.023994.02517c.007998-.010584.024-.02517.024-.02517,0,0,.019992.021174.050574.024h0Z"/><path class="cls-4" d="M10.870615,10.665441s-.01341.098568-.03858.126564M10.891795,10.662861s-.005178.099738-.022584.131736M10.910575,10.666881s0,.109152.006588.127734M10.934335,10.672281s.005412.091746.027996.124914"/><path class="cls-5" d="M10.846375,10.617681c-.001176-.0087-.003294-.015528-.006354-.019998-.012-.017406-.0294-.031992-.049398-.015996,0,0,.006822-.021174.021408-.021876.011292-.000708.03693.008466.05952.047046,0,0-.016704-.003762-.0207-.000234-.007536.006588-.004476.011058-.004476.011058h0ZM10.788535,10.555581c.001644-.005412.004236-.01035.00753-.012468.012-.007998.03858-.005412.06516.00141,0,0-.002352-.011526.012-.010818.025404.00141.063984.012.075978.023994.00282.00306.00612.00753.00894.014346h-.000468c-.00588-.008232-.022584-.007758-.026586-.00729-.006354.000708-.01035.000468-.018822.002586-.003996.000942-.010116.002118-.01341.004704-.00258.002118-.004704.009882-.0087.009882-.006354,0-.00588-.001644-.00753-.003528-.002118-.002586-.003294-.006354-.005412-.00612-.006582.001182-.017172-.003996-.030576-.01458s-.018588-.013176-.035994-.012c-.017172.00141-.022584.011058-.022584.011058l.000474-.001176Z"/><circle class="cls-8" cx="10.886839" cy="10.564053" r=".007056"/><path class="cls-3" d="M10.893769,11.263396c.195853-.150636.179059-.371299.179059-.371299-.005168.001034-.010077.00155-.015244.00155-.041083,0-.139068-.023503-.161928-.053356-.024487.02702-.12462.053356-.165444.053356-.005168,0-.010335-.000516-.015244-.00155,0,0-.017053.220656.1788.371299h.000001Z"/><path class="cls-5" d="M11.057208,10.908255l-.005087.000158c-.037232,0-.123714-.019103-.15705-.047744-.034916.026457-.122826.047744-.159457.047744-.001717,0-.003415-.00021-.005098-.000519-.000085.008345.000348.016994.000867.024862.001938.029405.007096.058914.014925.087312.024648.089371.075096.165318.147432.22293.072396-.05766.122904-.13368.147607-.223116.007843-.028392.013016-.057899.014973-.087301.000457-.008232.000916-.018311.000887-.024326h0Z"/><path class="cls-12" d="M11.05549,10.909465l-.005026.000157c-.036839,0-.122387-.018891-.155368-.047227-.034551.026183-.121512.047227-.157768.047227-.001695-.000015-.003385-.000188-.005048-.000516l.000853.02459c.001907.029099.007022.058288.014763.086378.024388.088419.074307.163556.145855.220566.071615-.057054.121602-.132259.146034-.220746.007835-.028219.012796-.05716.014808-.086378.000494-.008016.000785-.016043.000875-.024074l.000022.000023Z"/><g class="cls-19"><path id="B" class="cls-11" d="M10.729566,10.858581h.109554v.38585h-.109554v-.38585Z"/><path class="cls-7" d="M10.839119,10.858581h.109554v.38585h-.109554v-.38585Z"/><path class="cls-11" d="M10.948673,10.858581h.109554v.38585h-.109554v-.38585Z"/></g></g></svg>