<?xml version="1.0" encoding="UTF-8"?><svg id="Layer_2" xmlns="http://www.w3.org/2000/svg" xmlns:xlink="http://www.w3.org/1999/xlink" viewBox="0 0 72.72 62.640015"><defs><style>.cls-1{stroke:#000;}.cls-1,.cls-2,.cls-3,.cls-4{fill:none;}.cls-1,.cls-5,.cls-3,.cls-6{stroke-width:.5px;}.cls-1,.cls-5,.cls-3,.cls-6,.cls-4{stroke-miterlimit:10;}.cls-7{fill:#47321d;}.cls-8{fill:#407036;}.cls-9{fill:#69bc46;}.cls-10{fill:#775936;}.cls-11{fill:#cecece;}.cls-12{fill:#606060;}.cls-13{letter-spacing:-.009766em;}.cls-14{fill:#262626;}.cls-15{fill:#ebe0b3;}.cls-16{fill:red;}.cls-5{stroke:#f4f1e9;}.cls-5,.cls-17{fill:#d3a150;}.cls-18{font-family:Bahnschrift-Bold, Bahnschrift;font-size:7px;font-variation-settings:'wght' 700, 'wdth' 100;font-weight:700;}.cls-18,.cls-19,.cls-6,.cls-20{fill:#f4f1e9;}.cls-3,.cls-6{stroke:#d3a150;}.cls-21{fill:#c4c4c4;}.cls-22{fill:#3a3a3a;}.cls-23{fill:#0019ff;}.cls-24{fill:#ffce00;}.cls-25{fill:#5b4827;}.cls-26{fill:#513e27;}.cls-27{fill:#b28a4f;}.cls-28{fill:#26ff00;}.cls-29{fill:#281d13;}.cls-30{fill:#ccb789;}.cls-31{letter-spacing:-.029297em;}.cls-20{font-family:Algerian, Algerian;font-size:9px;}.cls-32{clip-path:url(#clippath);}.cls-33{fill:#ffa9ff;}.cls-4{stroke:#ccb789;}</style><clipPath id="clippath"><path class="cls-2" d="M61.559982,40.86349c-.000122-13.917542-11.282471-25.19989-25.200012-25.19989s-25.199829,11.282349-25.199951,25.19989v.000122c0,3.464966,2.834961,6.299988,6.299988,6.299988h37.799988c3.465027,0,6.299988-2.835022,6.299988-6.299988v-.000122Z"/></clipPath></defs><g id="Lo-Fi_Meli"><path class="cls-11" d="M70.72,0h-2c0,1.104553-.895447,2-2,2-1.104614,0-2-.895447-2-2h-2c0,1.104553-.895447,2-2,2-1.104614,0-2-.895447-2-2h-2c0,1.104553-.895447,2-2,2-1.104614,0-2-.895447-2-2h-2c0,1.104553-.895447,2-2,2-1.104614,0-2-.895447-2-2h-2c0,1.104553-.895447,2-2,2-1.104614,0-2-.895447-2-2h-2c0,1.104553-.895447,2-2,2-1.104614,0-2-.895447-2-2h-2c0,1.104553-.895447,2-2,2-1.104614,0-2-.895447-2-2h-2c0,1.104553-.895447,2-2,2-1.104614,0-2-.895447-2-2h-2c0,1.104553-.895447,2-2,2-1.104614,0-2-.895447-2-2h-2c0,1.104553-.895447,2-2,2-1.104614,0-2-.895447-2-2h-2c0,1.104553-.895447,2-2,2-1.104614,0-2-.895447-2-2h-2c0,.526672-.213379,1.041809-.585815,1.414246-.372375.372375-.887512.585754-1.414185.585754v2.264038c1.104553,0,2,.895386,2,2,0,1.104553-.895447,2-2,2v2.263977c1.104553,0,2,.895447,2,2,0,1.104553-.895447,2-2,2v2.263977c1.104553,0,2,.895447,2,2,0,1.104614-.895447,2-2,2v2.264038c1.104553,0,2,.895386,2,2,0,1.104553-.895447,2-2,2v2.263977c1.104553,0,2,.895447,2,2,0,1.104553-.895447,2-2,2v2.263977c1.104553,0,2,.895447,2,2,0,1.104614-.895447,2-2,2v2.264038c1.104553,0,2,.895447,2,2s-.895447,2-2,2v2.263977c1.104553,0,2,.895447,2,2,0,1.104553-.895447,2-2,2v2.263977c1.104553,0,2,.895447,2,2,0,1.104614-.895447,2-2,2v2.264038c.526672,0,1.041809.213379,1.414185.585754.372437.372437.585815.887573.585815,1.414246h2c0-1.104553.895386-2,2-2,1.104553,0,2,.895447,2,2h2c0-1.104553.895386-2,2-2,1.104553,0,2,.895447,2,2h2c0-1.104553.895386-2,2-2,1.104553,0,2,.895447,2,2h2c0-1.104553.895386-2,2-2,1.104553,0,2,.895447,2,2h2c0-1.104553.895386-2,2-2,1.104553,0,2,.895447,2,2h2c0-1.104553.895386-2,2-2,1.104553,0,2,.895447,2,2h2c0-1.104553.895386-2,2-2,1.104553,0,2,.895447,2,2h2c0-1.104553.895386-2,2-2,1.104553,0,2,.895447,2,2h2c0-1.104553.895386-2,2-2,1.104553,0,2,.895447,2,2h2c0-1.104553.895386-2,2-2,1.104553,0,2,.895447,2,2h2c0-1.104553.895386-2,2-2,1.104553,0,2,.895447,2,2h2c0-.526672.213379-1.041809.585754-1.414246.372437-.372375.887573-.585754,1.414246-.585754v-2.264038c-1.104614,0-2-.895386-2-2,0-1.104553.895386-2,2-2v-2.263977c-1.104614,0-2-.895447-2-2,0-1.104553.895386-2,2-2v-2.263977c-1.104614,0-2-.895447-2-2s.895386-2,2-2v-2.264038c-1.104614,0-2-.895386-2-2,0-1.104553.895386-2,2-2v-2.263977c-1.104614,0-2-.895447-2-2,0-1.104553.895386-2,2-2v-2.263977c-1.104614,0-2-.895447-2-2s.895386-2,2-2v-2.264038c-1.104614,0-2-.895386-2-2,0-1.104553.895386-2,2-2v-2.263977c-1.104614,0-2-.895447-2-2,0-1.104553.895386-2,2-2v-2.264038c-1.104614,0-2-.895386-2-2s.895386-2,2-2v-2.263977c-.526672,0-1.041809-.213379-1.414246-.585754C70.933379,1.041809,70.72.526672,70.72,0Z"/><path class="cls-19" d="M70,0h-2c0,1.104553-.895447,2-2,2-1.104614,0-2-.895447-2-2h-2c0,1.104553-.895447,2-2,2-1.104614,0-2-.895447-2-2h-2c0,1.104553-.895447,2-2,2-1.104614,0-2-.895447-2-2h-2c0,1.104553-.895447,2-2,2-1.104614,0-2-.895447-2-2h-2c0,1.104553-.895447,2-2,2-1.104614,0-2-.895447-2-2h-2c0,1.104553-.895447,2-2,2-1.104614,0-2-.895447-2-2h-2c0,1.104553-.895447,2-2,2-1.104614,0-2-.895447-2-2h-2c0,1.104553-.895447,2-2,2-1.104614,0-2-.895447-2-2h-2c0,1.104553-.895447,2-2,2-1.104614,0-2-.895447-2-2h-2c0,1.104553-.895447,2-2,2-1.104614,0-2-.895447-2-2h-2c0,1.104553-.895447,2-2,2-1.104614,0-2-.895447-2-2h-2c0,.526672-.213379,1.041809-.585815,1.414246C1.041809,1.786621.526672,2,0,2v2.264038c1.104553,0,2,.895386,2,2,0,1.104553-.895447,2-2,2v2.263977c1.104553,0,2,.895447,2,2,0,1.104553-.895447,2-2,2v2.263977c1.104553,0,2,.895447,2,2,0,1.104614-.895447,2-2,2v2.264038c1.104553,0,2,.895386,2,2,0,1.104553-.895447,2-2,2v2.263977c1.104553,0,2,.895447,2,2,0,1.104553-.895447,2-2,2v2.263977c1.104553,0,2,.895447,2,2,0,1.104614-.895447,2-2,2v2.264038c1.104553,0,2,.895447,2,2,0,1.104553-.895447,2-2,2v2.263977c1.104553,0,2,.895447,2,2S1.104553,52.112,0,52.112v2.263977c1.104553,0,2,.895447,2,2,0,1.104614-.895447,2-2,2v2.264038c.526672,0,1.041809.213379,1.414185.585754.372437.372437.585815.887573.585815,1.414246h2c0-1.104553.895386-2,2-2,1.104553,0,2,.895447,2,2h2c0-1.104553.895386-2,2-2,1.104553,0,2,.895447,2,2h2c0-1.104553.895386-2,2-2,1.104553,0,2,.895447,2,2h2c0-1.104553.895386-2,2-2,1.104553,0,2,.895447,2,2h2c0-1.104553.895386-2,2-2,1.104553,0,2,.895447,2,2h2c0-1.104553.895386-2,2-2,1.104553,0,2,.895447,2,2h2c0-1.104553.895386-2,2-2,1.104553,0,2,.895447,2,2h2c0-1.104553.895386-2,2-2,1.104553,0,2,.895447,2,2h2c0-1.104553.895386-2,2-2,1.104553,0,2,.895447,2,2h2c0-1.104553.895386-2,2-2,1.104553,0,2,.895447,2,2h2c0-1.104553.895386-2,2-2,1.104553,0,2,.895447,2,2h2c0-.526672.213379-1.041809.585754-1.414246.372437-.372375.887573-.585754,1.414246-.585754v-2.264038c-1.104614,0-2-.895386-2-2,0-1.104553.895386-2,2-2v-2.263977c-1.104614,0-2-.895447-2-2,0-1.104553.895386-2,2-2v-2.263977c-1.104614,0-2-.895447-2-2s.895386-2,2-2v-2.264038c-1.104614,0-2-.895386-2-2,0-1.104553.895386-2,2-2v-2.263977c-1.104614,0-2-.895447-2-2,0-1.104553.895386-2,2-2v-2.263977c-1.104614,0-2-.895447-2-2,0-1.104614.895386-2,2-2v-2.264038c-1.104614,0-2-.895386-2-2,0-1.104553.895386-2,2-2v-2.263977c-1.104614,0-2-.895447-2-2,0-1.104553.895386-2,2-2v-2.264038c-1.104614,0-2-.895386-2-2,0-1.104553.895386-2,2-2v-2.263977c-.526672,0-1.041809-.213379-1.414246-.585754C70.213379,1.041809,70,.526672,70,0Z"/><rect id="Inner" class="cls-4" x="11.303993" y="2.520007" width="50.112" height="57.6" transform="translate(5.039985 67.68) rotate(-90)"/><rect class="cls-30" x="7.559998" y="6.031824" width="57.599976" height=".179993"/><rect class="cls-30" x="7.559998" y="6.391809" width="57.599976" height=".179993"/><rect class="cls-30" x="7.559998" y="6.751794" width="57.599976" height=".179993"/><rect class="cls-30" x="7.559998" y="7.108179" width="57.599976" height=".180054"/><rect class="cls-30" x="7.559998" y="7.468225" width="57.599976" height=".179993"/><rect class="cls-30" x="7.559998" y="7.831812" width="57.599976" height=".179993"/><rect class="cls-30" x="7.559998" y="8.191797" width="57.599976" height=".179993"/><rect class="cls-30" x="7.559998" y="8.551782" width="57.599976" height=".180054"/><rect class="cls-30" x="7.559998" y="8.908228" width="57.599976" height=".179993"/><rect class="cls-30" x="7.559998" y="9.268213" width="57.599976" height=".179993"/><rect class="cls-30" x="7.559998" y="9.631799" width="57.599976" height=".179993"/><rect class="cls-30" x="7.559998" y="9.991785" width="57.599976" height=".179993"/><rect class="cls-30" x="7.559998" y="10.351831" width="57.599976" height=".179993"/><rect class="cls-30" x="7.559998" y="10.708215" width="57.599976" height=".179993"/><rect class="cls-30" x="7.559998" y="11.068201" width="57.599976" height=".179993"/><rect class="cls-30" x="7.559998" y="11.431787" width="57.599976" height=".179993"/><rect class="cls-30" x="7.559998" y="11.791833" width="57.599976" height=".179993"/><rect class="cls-30" x="7.559998" y="12.151819" width="57.599976" height=".179993"/><rect class="cls-30" x="7.559998" y="12.508203" width="57.599976" height=".179993"/><rect class="cls-30" x="7.559998" y="12.868188" width="57.599976" height=".179993"/><rect class="cls-30" x="7.559998" y="13.231836" width="57.599976" height=".179993"/><rect class="cls-30" x="7.559998" y="13.591821" width="57.599976" height=".179993"/><rect class="cls-30" x="7.559998" y="13.951807" width="57.599976" height=".179993"/><rect class="cls-30" x="7.559998" y="14.308191" width="57.599976" height=".179993"/><rect class="cls-30" x="7.559998" y="14.668176" width="57.599976" height=".180054"/><rect class="cls-30" x="7.559998" y="15.031824" width="57.599976" height=".179993"/><rect class="cls-30" x="7.559998" y="15.391809" width="57.599976" height=".179993"/><rect class="cls-30" x="7.559998" y="15.751794" width="57.599976" height=".179993"/><rect class="cls-30" x="7.559998" y="16.108179" width="57.599976" height=".180054"/><rect class="cls-30" x="7.559998" y="16.468225" width="57.599976" height=".179993"/><rect class="cls-30" x="7.559998" y="16.831812" width="57.599976" height=".179993"/><rect class="cls-30" x="7.559998" y="17.191797" width="57.599976" height=".179993"/><rect class="cls-30" x="7.559998" y="17.551782" width="57.599976" height=".180054"/><rect class="cls-30" x="7.559998" y="17.908228" width="57.599976" height=".179993"/><rect class="cls-30" x="7.559998" y="18.268213" width="57.599976" height=".179993"/><rect class="cls-30" x="7.559998" y="18.631799" width="57.599976" height=".179993"/><rect class="cls-30" x="7.559998" y="18.991785" width="57.599976" height=".179993"/><rect class="cls-30" x="7.559998" y="19.351831" width="57.599976" height=".179993"/><rect class="cls-30" x="7.559998" y="19.708215" width="57.599976" height=".179993"/><rect class="cls-30" x="7.559998" y="20.068201" width="57.599976" height=".179993"/><rect class="cls-30" x="7.559998" y="20.431787" width="57.599976" height=".179993"/><rect class="cls-30" x="7.559998" y="20.791833" width="57.599976" height=".179993"/><rect class="cls-30" x="7.559998" y="21.151819" width="57.599976" height=".179993"/><rect class="cls-30" x="7.559998" y="21.508203" width="57.599976" height=".179993"/><rect class="cls-30" x="7.559998" y="21.868188" width="57.599976" height=".179993"/><rect class="cls-30" x="7.559998" y="22.231836" width="57.599976" height=".179993"/><rect class="cls-30" x="7.559998" y="22.591821" width="57.599976" height=".179993"/><rect class="cls-30" x="7.559998" y="22.951807" width="57.599976" height=".179993"/><rect class="cls-30" x="7.559998" y="23.308191" width="57.599976" height=".179993"/><rect class="cls-30" x="7.559998" y="23.668176" width="57.599976" height=".180054"/><rect class="cls-30" x="7.559998" y="24.031824" width="57.599976" height=".179993"/><rect class="cls-30" x="7.559998" y="24.391809" width="57.599976" height=".179993"/><rect class="cls-30" x="7.559998" y="24.751794" width="57.599976" height=".179993"/><rect class="cls-30" x="7.559998" y="25.108179" width="57.599976" height=".180054"/><rect class="cls-30" x="7.559998" y="25.468225" width="57.599976" height=".179993"/><rect class="cls-30" x="7.559998" y="25.831812" width="57.599976" height=".179993"/><rect class="cls-30" x="7.559998" y="26.191797" width="57.599976" height=".179993"/><rect class="cls-30" x="7.559998" y="26.551782" width="57.599976" height=".180054"/><rect class="cls-30" x="7.559998" y="26.908228" width="57.599976" height=".179993"/><rect class="cls-30" x="7.559998" y="27.268213" width="57.599976" height=".179993"/><rect class="cls-30" x="7.559998" y="27.631799" width="57.599976" height=".179993"/><rect class="cls-30" x="7.559998" y="27.991785" width="57.599976" height=".179993"/><rect class="cls-30" x="7.559998" y="28.351831" width="57.599976" height=".179993"/><rect class="cls-30" x="7.559998" y="28.708215" width="57.599976" height=".179993"/><rect class="cls-30" x="7.559998" y="29.068201" width="57.599976" height=".179993"/><rect class="cls-30" x="7.559998" y="29.431787" width="57.599976" height=".179993"/><rect class="cls-30" x="7.559998" y="29.791833" width="57.599976" height=".179993"/><rect class="cls-30" x="7.559998" y="30.151819" width="57.599976" height=".179993"/><rect class="cls-30" x="7.559998" y="30.508203" width="57.599976" height=".179993"/><rect class="cls-30" x="7.559998" y="30.868188" width="57.599976" height=".179993"/><rect class="cls-30" x="7.559998" y="31.231836" width="57.599976" height=".179993"/><rect class="cls-30" x="7.559998" y="31.591821" width="57.599976" height=".179993"/><rect class="cls-30" x="7.559998" y="31.951807" width="57.599976" height=".179993"/><rect class="cls-30" x="7.559998" y="32.308191" width="57.599976" height=".179993"/><rect class="cls-30" x="7.559998" y="32.668176" width="57.599976" height=".180054"/><rect class="cls-30" x="7.559998" y="33.031824" width="57.599976" height=".179993"/><rect class="cls-30" x="7.559998" y="33.391809" width="57.599976" height=".179993"/><rect class="cls-30" x="7.559998" y="33.751794" width="57.599976" height=".179993"/><rect class="cls-30" x="7.559998" y="34.108179" width="57.599976" height=".180054"/><rect class="cls-30" x="7.559998" y="34.468225" width="57.599976" height=".179993"/><rect class="cls-30" x="7.559998" y="34.831812" width="57.599976" height=".179993"/><rect class="cls-30" x="7.559998" y="35.191797" width="57.599976" height=".179993"/><rect class="cls-30" x="7.559998" y="35.551782" width="57.599976" height=".180054"/><rect class="cls-30" x="7.559998" y="35.908228" width="57.599976" height=".179993"/><rect class="cls-30" x="7.559998" y="36.268213" width="57.599976" height=".179993"/><rect class="cls-30" x="7.559998" y="36.631799" width="57.599976" height=".179993"/><rect class="cls-30" x="7.559998" y="36.991785" width="57.599976" height=".179993"/><rect class="cls-30" x="7.559998" y="37.351831" width="57.599976" height=".179993"/><rect class="cls-30" x="7.559998" y="37.708215" width="57.599976" height=".179993"/><rect class="cls-30" x="7.559998" y="38.068201" width="57.599976" height=".179993"/><rect class="cls-30" x="7.559998" y="38.431787" width="57.599976" height=".179993"/><rect class="cls-30" x="7.559998" y="38.791833" width="57.599976" height=".179993"/><rect class="cls-30" x="7.559998" y="39.151819" width="57.599976" height=".179993"/><rect class="cls-30" x="7.559998" y="39.508203" width="57.599976" height=".179993"/><rect class="cls-30" x="7.559998" y="39.868188" width="57.599976" height=".179993"/><rect class="cls-30" x="7.559998" y="40.231836" width="57.599976" height=".179993"/><rect class="cls-30" x="7.559998" y="40.591821" width="57.599976" height=".179993"/><rect class="cls-30" x="7.559998" y="40.951807" width="57.599976" height=".179993"/><rect class="cls-30" x="7.559998" y="41.308191" width="57.599976" height=".179993"/><rect class="cls-30" x="7.559998" y="41.668176" width="57.599976" height=".180054"/><rect class="cls-30" x="7.559998" y="42.031824" width="57.599976" height=".179993"/><rect class="cls-30" x="7.559998" y="42.391809" width="57.599976" height=".179993"/><rect class="cls-30" x="7.559998" y="42.751794" width="57.599976" height=".179993"/><rect class="cls-30" x="7.559998" y="43.108179" width="57.599976" height=".180054"/><rect class="cls-30" x="7.559998" y="43.468225" width="57.599976" height=".179993"/><rect class="cls-30" x="7.559998" y="43.831812" width="57.599976" height=".179993"/><rect class="cls-30" x="7.559998" y="44.191797" width="57.599976" height=".179993"/><rect class="cls-30" x="7.559998" y="44.551782" width="57.599976" height=".180054"/><rect class="cls-30" x="7.559998" y="44.908228" width="57.599976" height=".179993"/><rect class="cls-30" x="7.559998" y="45.268213" width="57.599976" height=".179993"/><rect class="cls-30" x="7.559998" y="45.631799" width="57.599976" height=".179993"/><rect class="cls-30" x="7.559998" y="45.991785" width="57.599976" height=".179993"/><rect class="cls-30" x="7.559998" y="46.351831" width="57.599976" height=".179993"/><rect class="cls-30" x="7.559998" y="46.708215" width="57.599976" height=".179993"/><rect class="cls-30" x="7.559998" y="47.068201" width="57.599976" height=".179993"/><rect class="cls-30" x="7.559998" y="47.431787" width="57.599976" height=".179993"/><rect class="cls-30" x="7.559998" y="47.791833" width="57.599976" height=".179993"/><rect class="cls-30" x="7.559998" y="48.151819" width="57.599976" height=".179993"/><rect class="cls-30" x="7.559998" y="48.508203" width="57.599976" height=".179993"/><rect class="cls-30" x="7.559998" y="48.868188" width="57.599976" height=".179993"/><rect class="cls-30" x="7.559998" y="49.231836" width="57.599976" height=".179993"/><rect class="cls-30" x="7.559998" y="49.591821" width="57.599976" height=".179993"/><rect class="cls-30" x="7.559998" y="49.951807" width="57.599976" height=".179993"/><rect class="cls-30" x="7.559998" y="50.308191" width="57.599976" height=".179993"/><rect class="cls-30" x="7.559998" y="50.668176" width="57.599976" height=".180054"/><rect class="cls-30" x="7.559998" y="51.031824" width="57.599976" height=".179993"/><rect class="cls-30" x="7.559998" y="51.391809" width="57.599976" height=".179993"/><rect class="cls-30" x="7.559998" y="51.751794" width="57.599976" height=".179993"/><rect class="cls-30" x="7.559998" y="52.108179" width="57.599976" height=".180054"/><rect class="cls-30" x="7.559998" y="52.468225" width="57.599976" height=".179993"/><rect class="cls-30" x="7.559998" y="52.831812" width="57.599976" height=".179993"/><rect class="cls-30" x="7.559998" y="53.191797" width="57.599976" height=".179993"/><rect class="cls-30" x="7.559998" y="53.551782" width="57.599976" height=".180054"/><rect class="cls-30" x="7.559998" y="53.908228" width="57.599976" height=".179993"/><rect class="cls-30" x="7.559998" y="54.268213" width="57.599976" height=".179993"/><rect class="cls-30" x="7.559998" y="54.631799" width="57.599976" height=".179993"/><rect class="cls-30" x="7.559998" y="54.991785" width="57.599976" height=".179993"/><rect class="cls-30" x="7.559998" y="55.351831" width="57.599976" height=".179993"/><rect class="cls-30" x="7.559998" y="55.708215" width="57.599976" height=".179993"/><rect class="cls-30" x="7.559998" y="56.068201" width="57.599976" height=".179993"/><path id="Main" class="cls-5" d="M63.205717,11.323212c.478937.041159.899416.462684.939167.941502.039668.477823-.314846.832336-.792669.792667l-6.936679-.585999c-.47881-.03966-.833523.31645-.792273.795395.041153.477821.460954.897621.938775.938773l5.202509.439498c.478876.040453.834287-.314957.793833-.793833l-.292998-3.468338c-.040455-.478878-.461457-.899881-.940335-.940336h0s-3.468338-.292998-3.468338-.292998c-.478876-.040454-.834287.314957-.793833.793833l.439498,5.202509c.041249.478944.46284.899357.94165.939018.477687.039568.832085-.314829.792518-.792516l-.585999-6.936679c-.039752-.478818.316278-.833612.795215-.792454.477942.041072.89788.46101.938954.938952l.219752,2.601254,2.601254.219752Z"/><path id="Main-2" class="cls-5" d="M63.205717,11.323212c.478937.041159.899416.462684.939167.941502.039668.477823-.314846.832336-.792669.792667l-6.936679-.585999c-.47881-.03966-.833523.31645-.792273.795395.041153.477821.460954.897621.938775.938773l5.202509.439498c.478876.040453.834287-.314957.793833-.793833l-.292998-3.468338c-.040455-.478878-.461457-.899881-.940335-.940336h0s-3.468338-.292998-3.468338-.292998c-.478876-.040454-.834287.314957-.793833.793833l.439498,5.202509c.041249.478944.46284.899357.94165.939018.477687.039568.832085-.314829.792518-.792516l-.585999-6.936679c-.039752-.478818.316278-.833612.795215-.792454.477942.041072.89788.46101.938954.938952l.219752,2.601254,2.601254.219752Z"/><path class="cls-5" d="M62.534828,11.266535l-.392398-.033149M60.654162,9.385869l-.392398-.033149M59.21299,12.707707l-.392398-.033149M57.625318,14.295379l-.392398-.033149M62.468561,12.787934l.033149.392398M58.707216,9.026589l.033149.392398M59.146716,14.2291l.033149.392398M57.26605,12.348434l.033149.392398"/><path class="cls-5" d="M62.559353,11.268607l-.441448-.037293M60.678687,9.387941l-.441448-.037293M59.237515,12.709779l-.441448-.037293M57.649843,14.297451l-.441448-.037293M62.466489,12.763409l.037293.441448M58.705144,9.002064l.037293.441448M59.144644,14.204575l.037293.441448M57.263978,12.323909l.037293.441448"/><path id="Main-3" class="cls-5" d="M12.369249,8.500647c.041159-.478937.462684-.899416.941502-.939167.477823-.039668.832336.314846.792667.792669l-.585999,6.936679c-.03966.47881.31645.833523.795395.792273.477821-.041153.897621-.460954.938773-.938775l.439498-5.202509c.040453-.478876-.314957-.834287-.793833-.793833l-3.468338.292998c-.478878.040455-.899881.461457-.940336.940335h0s-.292998,3.468339-.292998,3.468339c-.040454.478876.314957.834287.793833.793833l5.202509-.439498c.478944-.041249.899357-.46284.939018-.94165.039568-.477687-.314829-.832085-.792516-.792518l-6.936679.585999c-.478818.039752-.833612-.316278-.792454-.795215.041072-.477942.46101-.89788.938952-.938954l2.601254-.219752.219752-2.601254Z"/><path id="Main-4" class="cls-5" d="M12.369249,8.500647c.041159-.478937.462684-.899416.941502-.939167.477823-.039668.832336.314846.792667.792669l-.585999,6.936679c-.03966.47881.31645.833523.795395.792273.477821-.041153.897621-.460954.938773-.938775l.439498-5.202509c.040453-.478876-.314957-.834287-.793833-.793833l-3.468338.292998c-.478878.040455-.899881.461457-.940336.940335h0s-.292998,3.468339-.292998,3.468339c-.040454.478876.314957.834287.793833.793833l5.202509-.439498c.478944-.041249.899357-.46284.939018-.94165.039568-.477687-.314829-.832085-.792516-.792518l-6.936679.585999c-.478818.039752-.833612-.316278-.792454-.795215.041072-.477942.46101-.89788.938952-.938954l2.601254-.219752.219752-2.601254Z"/><path class="cls-5" d="M12.312571,9.171536l-.033149.392398M10.431905,11.052202l-.033149.392398M13.753744,12.493374l-.033149.392398M15.341415,14.081046l-.033149.392398M13.83397,9.237803l.392398-.033149M10.072625,12.999148l.392398-.033149M15.275136,12.559648l.392398-.033149M13.39447,14.440314l.392398-.033149"/><path class="cls-5" d="M12.314643,9.147011l-.037293.441448M10.433977,11.027677l-.037293.441448M13.755815,12.468849l-.037293.441448M15.343487,14.056521l-.037293.441448M13.809445,9.239875l.441448-.037293M10.0481,13.00122l.441448-.037293M15.250611,12.561719l.441448-.037293M13.369945,14.442385l.441448-.037293"/><path class="cls-19" d="M10.665235,26.365964c.292404-.517426.443779-.770493.756104-1.265366,1.157448.745514,1.736168,1.11824,2.893654,1.86377-.190361.301605-.283508.454773-.465553.765869-.917679-.547623-1.376518-.821426-2.294167-1.369034.060013.017227.089996.025894.14994.043289.510254.819336.776741,1.218338,1.33062,1.99263-.170364.316742-.253479.477386-.415375.803207-.932137-.001572-1.402939.015106-2.351418.08577-.065468-.047882-.09819-.071854-.163544-.119919.971283.443832,1.45694.665756,2.428246,1.109619-.154419.340698-.22934.513412-.37439.863602-1.270645-.526337-1.90596-.789474-3.17659-1.315796.237869-.574249.362511-.855728.622513-1.407455,1.036415-.024719,1.550301-.016937,2.56662.03627-.625359-.809158-.927109-1.226974-1.50666-2.086456Z"/><path class="cls-19" d="M15.485746,25.261411c-.238106.318542-.354721.480881-.582787.811752-1.126617-.792313-1.689896-1.188431-2.816475-1.980728.257996-.374283.389915-.557938.659271-.918289,1.095993.834915,1.643967,1.252335,2.73999,2.087265Z"/><path class="cls-19" d="M13.178228,22.610013c1.03759-1.31987,1.596619-1.930679,2.776093-3.054031.172142.182281.258224.273422.430374.455704-1.154602,1.099655-1.701836,1.697586-2.717545,2.989624-.195564-.156509-.293358-.234772-.488922-.391296ZM14.379034,21.605832c.27816-.317322.41964-.472778.707077-.777252.915123.874695,1.372681,1.312027,2.287849,2.186737-.256531.271744-.382797.410477-.63105.69368-.945572-.841293-1.418343-1.261902-2.363876-2.103165Z"/><path class="cls-19" d="M17.331769,18.326566c.201752-.168655.303413-.251648.508301-.41507,1.514648.556625,2.242935.880127,3.630409,1.602188-.321388.220032-.480347.333359-.794449.566696-.932816-.480652-1.413506-.704422-2.400452-1.114716.20314,1.050354.324066,1.567841.602692,2.583267-.295021.264557-.440445.400162-.726753.678009-.416206-1.518158-.581604-2.301285-.819748-3.900375ZM18.021505,20.734647c.797348-.720367,1.211678-1.05719,2.065163-1.684113.14843.20166.222641.30249.371071.504166-.83403.61264-1.238907.941772-2.018082,1.645721-.167267-.18631-.250893-.279465-.418152-.465775Z"/><path class="cls-19" d="M20.073461,16.299939c.341927-.222519.514565-.330536.862946-.540085.715874,1.178986,1.073776,1.768433,1.789703,2.947433-.307953.185242-.460571.280716-.762833.477432-.755974-1.153946-1.133896-1.73085-1.889816-2.884781ZM20.383543,16.100964c1.099693-.695755,1.667152-1.010544,2.826851-1.573944.110931.224701.166412.337067.277344.561768-1.135239.551514-1.690727.85965-2.767227,1.540741-.134789-.211426-.202187-.317139-.336967-.528564ZM21.148466,17.300809c.915398-.579163,1.385826-.84465,2.345467-1.327484.114014.223175.171021.334778.285019.557953-.938385.472137-1.398392.73175-2.293518,1.29808-.134789-.211411-.202187-.317139-.336967-.528549ZM21.900899,18.481046c.99527-.6297,1.508835-.914581,2.558411-1.424469.110779.22438.166168.336548.276962.560928-1.025162.498032-1.526779.776276-2.498886,1.391312-.134598-.211105-.201889-.316666-.336487-.527771Z"/><path class="cls-19" d="M27.177877,12.944775c.503662-.159821.757111-.234085,1.266617-.371338.367432,1.326874.551102,1.99025.91861,3.317154-.310516.083664-.46524.127853-.773361.220993-.316864-1.021225-.47525-1.53183-.792053-2.553024.03157.053696.047318.080551.078751.134323-.124802.93071-.172318,1.395309-.237747,2.320663-.300934.101868-.45076.15509-.748886.266037-.640274-.654526-.973022-.974014-1.662567-1.595093-.017685-.07872-.026505-.118103-.044006-.196884.413513.986832.62027,1.48024,1.033844,2.467102-.298981.122742-.447647.186493-.743164.31871-.571686-1.254303-.857437-1.881378-1.429062-3.135651.484604-.216843.729111-.319626,1.221802-.513931.725174.712265,1.074203,1.077789,1.744034,1.825073.035019-.997665.068359-1.498993.167191-2.504135Z"/><path class="cls-19" d="M29.577352,12.291699c.389771-.088959.585327-.130173.97757-.206161.269485,1.349533.404205,2.024231.673752,3.373779-.346725.067154-.519592.103607-.864151.182236-.314926-1.339981-.472321-2.009888-.78717-3.349854ZM29.930013,12.213437c1.24791-.269135,1.879303-.370605,3.146561-.507385l.069275.621262c-1.240524.133881-1.858612.233215-3.0802.496674-.054245-.244217-.081375-.366333-.135635-.61055ZM30.23792,13.599393c1.038773-.22403,1.563492-.311951,2.616928-.439667.031067.248108.0466.372177.077667.620285-1.03009.124878-1.543182.210861-2.558945.429932-.05426-.244217-.08139-.366333-.135651-.61055ZM30.540807,14.96272c1.12941-.243576,1.700836-.335419,2.847748-.459198.027679.248123.041519.372192.069199.620331-1.120209.120911-1.67836.210602-2.781479.448517-.054184-.243866-.081284-.365799-.135468-.60965Z"/><path class="cls-19" d="M35.25591,11.549344c1.551437-.05603,2.330673-.034912,3.877197.105591-.023376.248917-.035065.373398-.058441.62233-1.513916-.137543-2.276718-.158203-3.795441-.103363-.009323-.249817-.013992-.374741-.023315-.624557ZM36.694356,11.813092c.395065.004318.59256.009689.987305.026871-.056778,1.261322-.085159,1.891968-.141891,3.15332-.352295-.015335-.528564-.020126-.881149-.023987.014267-1.262512.021423-1.893723.035736-3.156204Z"/><path class="cls-19" d="M39.712179,11.713101c.396683.043671.594711.068741.989899.125381-.201447,1.360992-.302155,2.041428-.50354,3.402435-.349335-.050079-.524384-.072235-.875046-.11084.155441-1.366837.233185-2.050171.388687-3.416977ZM40.07044,11.754681c1.265411.154449,1.895447.264771,3.139816.551575l-.144424.608597c-1.218124-.280762-1.834885-.388748-3.073608-.539948.031296-.248077.046936-.372147.078217-.620224ZM39.892889,13.16261c1.053345.128571,1.577988.216934,2.616608.441818-.054474.244171-.081711.366272-.136169.610443-1.01561-.219925-1.528625-.30632-2.55864-.432053.031281-.248077.046921-.372131.078201-.620209ZM39.718267,14.547528c1.145233.139786,1.715454.239624,2.84166.499191-.057693.243088-.086533.364609-.144211.607697-1.099991-.253525-1.656937-.351044-2.775528-.487579.031235-.247726.046844-.371582.078079-.619308Z"/><path class="cls-19" d="M46.022924,13.100446c.380127.127701.569244.194778.945374.335464-.492264,1.28685-.738342,1.930222-1.23056,3.217102-.332474-.124359-.499649-.183655-.835678-.296539.448334-1.302444.672485-1.953598,1.120865-3.256027ZM45.951513,14.644498c.610031.215454.91246.332062,1.510666.583023.105347.044189.20517.066681.299347.068924.094818.002518.177551-.015961.249023-.055542.071716-.038437.125198-.095993.159683-.172195.035248-.077896.044037-.156387.026215-.236359-.018204-.079132-.06044-.153503-.128891-.221588-.067825-.067795-.15744-.125336-.267929-.171692-.616409-.258591-.928024-.378738-1.556595-.600739.085144-.235474.127731-.353226.212875-.588715.63237.223343.945908.344086,1.566238.603683.307495.128677.558609.287186.751648.471832.193436.183807.316666.378967.370255.581879.05423.203217.032913.398895-.060379.587112-.093277.188232-.235504.32338-.424576.409073-.188446.085983-.408417.117569-.660812.098877-.252014-.019547-.518677-.089417-.804337-.208954-.576263-.241165-.867538-.353317-1.454987-.560791.085022-.235138.127533-.352692.212555-.58783Z"/><path class="cls-19" d="M49.347997,18.189649c-.178925-.220276-.288193-.448151-.327393-.685577-.039154-.237106-.002686-.469193.114761-.69313.181366-.345779.272049-.518661.453415-.864441.117447-.223938.290009-.385223.522141-.480331.231491-.095428.502975-.118088.813293-.065109.309677.052612.63588.179214.970444.382095s.598495.434174.7892.685181c.191315.251389.297562.503387.320557.753464.022415.24968-.041626.476944-.187744.683487-.225632.318924-.33844.478378-.564056.797302-.146118.206543-.336807.344864-.567978.417892-.232254.07341-.487228.079239-.767456.02092-.279694-.057953-.564407-.177811-.859406-.356689-.294998-.178894-.531418-.375092-.709778-.595062ZM50.808568,18.397046c.132721.02533.253113.018616.361588-.020966s.195419-.108292.261688-.209427c.221451-.337936.332153-.506882.553604-.844818.065765-.100357.093353-.209.081696-.326111-.012177-.116333-.061813-.232208-.149399-.346695-.088074-.113693-.208847-.218277-.362427-.311401-.153564-.09314-.302048-.151825-.443558-.177368-.141983-.024734-.267731-.015259-.376816.027527-.109543.043579-.193665.11792-.253098.222107-.200134.350861-.300186.526276-.50032.877136-.059891.104996-.081558.213333-.067474.327255s.062866.223251.145996.328842c.082657.1064.194687.201874.336548.287903s.278732.141479.411972.166016Z"/><path class="cls-19" d="M52.880376,20.708142c-.151306-.165497-.284241-.331543-.399933-.501465-.115158-.169525-.208542-.335938-.279709-.500443.264862-.07106.398346-.10495.667267-.169357.0867.203018.209244.405579.367279.609039.15863.202744.337341.389297.538788.561462.232025.198303.432892.330276.607849.39061.173828.060562.305328.044464.394485-.052948.000504-.000549.000763-.000824.001251-.001373.062164-.067917.083344-.148254.062088-.23967-.021271-.091446-.070023-.189545-.146255-.291275-.076248-.101746-.18074-.225143-.315781-.368393-.004028-.00592-.008148-.010696-.012863-.014755-.004196-.003601-.008835-.00882-.013489-.014023-.021576-.022461-.032379-.033646-.054016-.05603-.237442-.250275-.429169-.465302-.57106-.648987-.142487-.182953-.235504-.376389-.278076-.58107-.043106-.205109.009155-.408539.160065-.609299.000671-.000885.001007-.001328.001678-.002228.133575-.177704.309311-.284622.528687-.316025.219376-.031418.47438.012466.760574.136063.286179.123596.594879.323563.919662.605499.149475.129745.29155.274261.425308.434357s.25444.327682.361023.502701c.107758.17485.197189.351837.27002.530457-.278625.034286-.417145.053162-.692581.094284-.087845-.209717-.198166-.410675-.332275-.600601-.134018-.191101-.280334-.354446-.437698-.491043-.235474-.204407-.441345-.33345-.614456-.390488-.173126-.057037-.296432-.037796-.370621.054138-.000702.00087-.001053.001297-.001755.002167-.0625.077454-.077652.165543-.046417.265488.03067.099487.08606.200455.167099.303375.080505.102478.199417.239258.353958.414474.006332.006744.012589.014664.019531.020721.006851.007217.012573.014679.019424.021896.009979.0112.018875.021454.027161.03244.008362.009796.017776.020538.027191.031296.221756.252029.390976.478134.51268.674789.121185.196167.187393.39679.199921.597336.011871.201218-.065552.384155-.229721.551392-.001297.001328-.001953.001984-.00325.003311-.153748.156616-.338867.237137-.55481.246155-.215286.008347-.452576-.055191-.714249-.184708-.261047-.130219-.536591-.323547-.833008-.576874-.176346-.150726-.339584-.308044-.490967-.472397Z"/><path class="cls-19" d="M55.922033,23.641751c-.258133-.292404-.389511-.435532-.656494-.715622.992401-.957535,1.488617-1.436249,2.481079-2.393768.302032.316849.450653.478775.742676.809555-1.026932.919937-1.54039,1.379868-2.567261,2.299835Z"/><path class="cls-19" d="M58.947439,21.873776c1.071808,1.275269,1.572556,1.962021,2.484833,3.433807-.211472.133759-.31723.200653-.528717.334412-.893036-1.44075-1.38324-2.113022-2.432434-3.361389.190521-.162735.285797-.24411.476318-.40683ZM59.692846,23.264081c.258362.34314.38501.517899.63295.873901-1.030762.732361-1.546173,1.098526-2.576874,1.830902-.221283-.317719-.334305-.473679-.564896-.779922,1.003479-.769974,1.505264-1.154938,2.50882-1.924881Z"/><path class="cls-19" d="M62.426443,27.035581c.135742.25473.202408.383377.333267.643341-.806717,1.457001-1.24823,2.152161-2.194916,3.46048-.17189-.414978-.2612-.619141-.446213-1.020798.633408-.869736.936203-1.321594,1.510559-2.255219-1.088272-.058395-1.626968-.061737-2.689072-.020844-.214142-.37001-.324234-.551712-.550049-.908432,1.582245-.074448,2.392807-.057236,4.036423.101471ZM59.899648,27.153989c.583389.99939.854889,1.52243,1.351105,2.615265-.226974.103912-.340469.155884-.567444.259796-.484894-1.067902-.750214-1.579025-1.320297-2.555634.214661-.127777.321976-.19165.536636-.319427Z"/><path class="cls-6" d="M61.578004,40.859897c-.000122-13.917542-11.282471-25.19989-25.200012-25.19989s-25.199829,11.282349-25.199951,25.19989v.000122c0,3.464966,2.834961,6.299988,6.299988,6.299988h37.799988c3.465027,0,6.299988-2.835022,6.299988-6.299988v-.000122Z"/><g class="cls-32"><rect class="cls-10" x="56.255319" y="24.211816" width="5.980296" height="22.676392"/><rect class="cls-7" x="54.43617" y="22.231836" width="1.819149" height="23.939941"/><rect class="cls-14" x="20.606383" y="35.641809" width="30.287234" height="2.066406"/><rect class="cls-14" x="48.946809" y="17.731836" width="3.189787" height="17.909973"/><rect class="cls-22" x="17.893617" y="21.868188" width="2.511343" height="17.013641"/><rect class="cls-14" x="20.06383" y="20.791833" width=".829787" height="16.084762"/><rect class="cls-22" x="50.893617" y="19.441827" width="2.489362" height="19.440002"/><rect class="cls-22" x="20.06383" y="36.876596" width="30.829787" height="2.005234"/><rect class="cls-22" x="9.666" y="40.411814" width="40.525489" height="10.619995"/><path d="M25.393617,31.16383s-.340426-.776596-.095745-1.457447c0,0,1.095745.468085,1.148936.829787,0,0,.993943-.057747,1.085106-.042553,0,0,.43617-.816008,1.074468-.971834,0,0,.170213,1.173961.095745,1.280344,0,0,.297872.989992-.138298,1.59606,0,0,.62766,1.084791,3.957447,1.212451,0,0,2.180851-.234609,3.478723,2.297589,0,0,.085106.276879-.489362.510921,0,0-.329787.243591-1.297872.302647,0,0-1.978723,1.399481-6.074468-.111157,0,0-1.138298-.138298-2.659574-.37234,0,0-.776596-.244681-.882979-.882979,0,0,.606383-1.808511,1.351064-1.819149,0,0,.085106-.478723,0-.531915,0,0-.670213-.56383-.638298-.893617,0,0,.010638-.914894.085106-.946809Z"/><path d="M35.5,36.248936s-.085106.617021-.053191.691489.329787,1.957447,2.648936,2.829787c0,0,.361702.202128,0,.414894s-1.148936-.085106-1.148936-.085106c0,0-2.521277-1.978723-2.617021-3.56383l1.170213-.287234Z"/><path class="cls-29" d="M15.042542,36.641809l.534241,6.219238c0,.342834.960632.620728,2.14563.620728s2.145569-.277893,2.145569-.620728l.536255-6.219238h-5.361694Z"/><ellipse class="cls-7" cx="17.7224" cy="36.64" rx="2.948936" ry=".549583"/><path class="cls-7" d="M20.671326,36.639978h-5.897888v.991821h.001038c0,.303528,1.320251.549561,2.948914.549561s2.948975-.246033,2.948975-.549561l-.001038-.991821Z"/><ellipse class="cls-10" cx="17.723404" cy="36.641809" rx="2.680851" ry=".499621"/><path class="cls-19" d="M24.228723,42.841791s8.202128-.629974,9.303191-.359985c0,0,.734043.186024.606383.449982,0,0,1.244681.55119,1.196809.990021l.175532,2.159973h-8.952128l-2.329787-3.23999Z"/><path d="M26.510638,45.631799s-.670213-1.584976-1.117021-1.531792c0,0-.079787-.901802-.62234-.901802l-.542553-.356415v.446442l1.898936,2.343567.640095.720032-.257116-.720032Z"/><polyline points="26.558511 46.081781 35.510638 46.081781 35.510638 46.441827 26.819149 46.441827 26.28767 45.811792"/><path d="M56.893617,45.493617s-.529959-16.058197,2.990339-15.341813l3.026044,9.896377-1.350018,6.033585-4.666365-.588149Z"/><path class="cls-1" d="M19.510638,15.931787s16.425532,4.43817,32.638298,0"/><polygon class="cls-16" points="25.307139 21.871993 20.446809 21.061965 20.446809 16.201634 25.307139 17.011662 25.307139 21.871993"/><polygon class="cls-21" points="31.004633 22.588362 26.144303 22.093352 26.144303 17.233021 31.004633 17.728032 31.004633 22.588362"/><polygon class="cls-23" points="36.72 22.749442 31.859669 22.636931 31.859669 17.7766 36.72 17.889111 36.72 22.749442"/><polygon class="cls-24" points="42.504633 22.588362 37.644303 22.805697 37.644303 17.945366 42.504633 17.728032 42.504633 22.588362"/><polygon class="cls-9" points="48.057825 21.781996 43.197494 22.427041 43.197494 17.56671 48.057825 16.921666 48.057825 21.781996"/><path class="cls-14" d="M42.319149,33.211816l1.223404-1.170013s.521277-.163719.819149.266388l.148936.179993-1.255319,1.263611s-.925532-.247311-.93617-.539978Z"/><path class="cls-22" d="M47.87766,27.796809s.824468.590426.739362,1.526596h.989362s1.138298.197666,1.117021,1.008407c0,0,.089508.285864-.489362.266388,0,0-1.248745-.063674-2.56383,1.50527-.680693.812091-1.528473,1.993797-1.914894,3.991212,0,0-.050117.803807-.257013,1.347147-.148903.391041-.443287.574425-.556817.567747,0,0-.567589-.032889-.75-.845745-.047735-.212717-.170567-.471285-.175532-.805621,0,0-.071809-.236128-.510638-.359985s-.390957-2.209394-.390957-2.209394l.981383-1.316489s2.952128-2.909459,2.792553-3.702128c0,0,.106383-.38544.989362-.973404Z"/><polygon class="cls-12" points="29.393617 45.448206 29.680851 44.780851 29.904255 44.998224 29.393617 45.448206"/><polygon points="29.904255 44.998224 33.648936 40.048181 33.382979 39.868188 29.680851 44.780851 29.904255 44.998224"/><polygon class="cls-12" points="33.206392 40.102516 33.467553 40.287949 33.648936 40.048181 33.382979 39.868188 33.970463 39.182728 34.126658 39.290864 33.724155 39.868188 33.850313 39.958185 33.309637 40.714643 33.206392 40.633174 33.417772 40.3602 33.165174 40.157212 33.206392 40.102516"/><path class="cls-26" d="M42.579787,34.288232l.023936.402193-.574468.327128s-2.481383-.115221-2.768617-.005749l-.409574-.179993-1.18617-1.26001s.223404-1.440002.414894-1.440002h.462766l.06383.101179s.335106-.202359.462766-.101179.398936.093915.510638.536377l1.898936-.068176.654255.957637s.558511.007024.446809.730596Z"/><path class="cls-26" d="M29.925532,42.481805c1.12766-.626373,1.861702-.573295,1.957447-.562656s1.542553,1.18903,1.542553,1.18903l.882979.587566.595745.797872-.978723,1.787234c.06383-.427364-1.180851-.922642-1.180851-.922642.042553.449982-.148936.539663-.148936.539663-.62766.159574-1.106383-.08608-1.106383-.08608-.085106,0-.191489-.243707-.191489-.243707l-.297872-.209876s-.074468.326897-.159574.27359-.680851-.899963-.680851-.899963l-.117021-.540039s-.06383.089054-.202128.227352-.223404.042553-.223404.042553c.06383-.319149.212766-.539894.212766-.539894.095745-.007979.095745-1.396276.095745-1.396276"/><path class="cls-27" d="M44.87766,37.97766s-.62234-.269444-.638298-1.165868-.765957-.903564-.765957-.903564c.015957-.179993-.574468-2.041873-.606383-2.156433s-.321419.089996-.321419.089996c.207447.969058-.572198,1.080017-.572198,1.080017h-1.875287l-.03143.042807-.034647.047189s.569024.536438.648811.896423-.079787.179993-.079787.179993c0,0-.81383.706073-.734043,1.353607,0,0-.095745.622772-1.691489,2.156372,0,0-.654255.626373-.606383,1.709991s.654255,2.340027.654255,2.340027l1.882979.27359,4.771277-3.149994,1.452128-3.063599-.526596-1.26001s-.558511,1.26001-.638298,1.350006-.287234.179448-.287234.179448Z"/><path class="cls-17" d="M45.555538,36.874079c-.283372-.507336.399249-1.347451.51893-2.51876,0,0,1.914894-4.390756,4.531915-3.75712,0,0,1.835106,1.709991,2.12234,1.709991s2.728723,4.743937,3.510638,7.456703.861702,3.703331.861702,3.703331l-5.297872,2.613556-.473191,1.349991s-1.920426-.275386-2.191702-.273575-12.382979,0-12.382979,0l-.382979-.531601-2.058511.08162s-1.30759-.009523-1.227803-1.19518c0,0,.066322.034325.217603.100732.100214.04399.209148.138386.291364.183229.202476.110437.373499.205423.373499.122337,0-.179993,1.028499-1.461179-.407671-2.721128,0,0,1.104072.695038,2.731731.450012,0,0-.031915-.363242.382979-.359985s.845745.543579.845745.543579c0,0,4.340426-.720032,4.308511-1.080017s.62234-.449667.62234-.449667c0,0,2.916707-3.414894,2.639204-3.606383,0,0,.599531-1.579386.464206-1.821666Z"/><path class="cls-25" d="M37.06383,28.441827s1.680851,1.263527,1.723404,1.529999c0,0,.255319.720032-.212766,1.350006,0,0-.052488.269989.282267.449982,0,0,.185818.179993.377308.179993,0,0,.361702.805822.978723.71637,0,0-.148936.180054,0,.180054s.489362.363586.489362.363586c0,0-.106383.359985,1.276596.179993,0,0,.170213.363586,1.744681-1.26001,0,0,.319149-.183594.574468.176392,0,0,2.523936-1.937508,2.821808-2.837472l-.098404-.312522-5.574468-4.766388-3.340426.179993-1.87234,2.160034.829787,1.709991Z"/><path d="M39.319149,27.811792s-.191489-1.619995-.148936-1.529999.468085,1.166412.468085,1.166412l.212766.543579s.274439.338992.340426.360046c.106814.034081.297872.089996.297872.089996l.531915.05179,5.276596.66458s1.446809.093658,2.148936-2.426361-3.553191-5.490021-3.553191-5.490021c0,0-1.574468-1.353607-3.12766-1.173615,0,0-.425532.183655-.340426.723633s-2.425532.71637-2.425532.71637l-1.170213.089996s-1.659574,1.166351-1.638298,1.889984-.021277,1.116999-.021277,1.116999c0,0-1,1.226568-.957447,1.676611,0,0-.468085,2.786407.468085,2.606415h1.021277l.361702-.179993-.148936-1.350006.425532,1.083618h.191489l-.212766-1.353607.531915,1.263611h.510638c.212766-.092257.297872-.180054.297872-.180054l.148936-.089996s.06383-.067055.191489-.093567c0,0,.155194-.115068.319149-.176422Z"/><ellipse class="cls-19" cx="44.106383" cy="28.204624" rx="2.489362" ry="2.75356"/><path class="cls-19" d="M43.042553,25.831812l.893617-.183594s-.06383-1.076416-.340426-1.076416-.276596-.178851-.914894.179993l.361702,1.080017Z"/><path class="cls-19" d="M42.042553,25.468225s-1.297872-3.78363-3.191489-3.960022c0,0,.170213-.716431,2.191489-.896423,0,0,2.425532,1.26001,3.276596,4.140015,0,0-.744681.536438-2.276596.716431Z"/></g><path class="cls-3" d="M61.559982,40.86349c-.000122-13.917542-11.282471-25.19989-25.200012-25.19989s-25.199829,11.282349-25.199951,25.19989v.000122c0,3.464966,2.834961,6.299988,6.299988,6.299988h37.799988c3.465027,0,6.299988-2.835022,6.299988-6.299988v-.000122Z"/><ellipse class="cls-6" cx="16.956" cy="48.960007" rx="8.1" ry="5.4"/><ellipse class="cls-17" cx="16.956" cy="48.960007" rx="7.29" ry="4.86"/><text class="cls-20" transform="translate(11.528287 51.948285)"><tspan x="0" y="0">25</tspan></text><ellipse class="cls-6" cx="55.62" cy="48.931785" rx="8.1" ry="5.4"/><ellipse class="cls-17" cx="55.62" cy="48.931785" rx="7.29" ry="4.86"/><text class="cls-20" transform="translate(50.219289 52.055417)"><tspan x="0" y="0">25</tspan></text><text class="cls-18" transform="translate(28.577177 53.849765)"><tspan class="cls-31" x="0" y="0">K</tspan><tspan class="cls-13" x="4.286133" y="0">O</tspan><tspan x="8.736328" y="0">IN</tspan></text><path class="cls-8" d="M14.553191,33.195745c-.638298-.319149-3.234043,1.978723-3.234043,1.978723,0,0,2.829787-1.218546,3.148936-1.332677s.085106-.539663.085106-.539663"/><path class="cls-28" d="M11.319149,35.174468s2.12766-2.555934,3.255319-2.416265l.787234-.005523-.808511.443064s-.595745-.297872-3.234043,1.978723Z"/><path class="cls-28" d="M15.212766,32.195745c-1.829787-.914894-2.659574.926075-2.659574.926075,0,0,1.382979.691576,2.808511-.723633l-.148936-.202443Z"/><path class="cls-28" d="M11.446809,30.365957s.765957.319149,2.702128.489362c0,0-.236405-.871652-1.171394-1.063486s-1.658393.539978-1.658393.539978"/><path class="cls-8" d="M15.446809,31.681818s-.06383-.869052-.638298-.954158-1.212766.404255-1.212766.404255c0,0,1.047523.013872,1.593331.505348.016031.014436.03163.029283.046757.044555"/><path class="cls-8" d="M16.042553,35.834043c-1.161911-.632216-1.527931-.143097-1.627026.074047-.024298.053243-.032548.090135-.032548.090135,0,0-.570888-.523999.852854-.716431s.806721.552249.806721.552249Z"/><path class="cls-8" d="M18.87234,34.876596s1.765957-1.01556,2.212766-1.124801c0,0-1.404255-.470943-2.212766,1.124801Z"/><path class="cls-8" d="M19.297872,34.046809s3.191489-2.680851,4.085106.829787c0,0-.829787-2.617021-4.085106-.829787Z"/><path class="cls-28" d="M20.093851,28.441827s-.157681-.271024-.115128-.450043c0,0-.406674.34592-.799082.360046l.91421.089996Z"/><path class="cls-8" d="M20.093851,28.441827c-1.799766-.690088-2.136404,1.668811-2.136404,1.668811.446809.12766.638298.957447.638298.957447,0,0,.340426-1.524909.957447-1.773093,0,0,.224589-.196464.319149-.546056s.221511-.307109.221511-.307109Z"/><path class="cls-8" d="M23.659574,29.294992s-1-1.84198-2.319149-.406784c0,0-1.025064.882693-1.246574.903625h-.795979s.425532-1.231583,1.382979-1.350006c0,0,.787234-.154861.797872-.360046,0,0,2.031915-.325839,2.180851,1.213211Z"/><rect class="cls-8" x="18.201692" y="31.016533" width=".226558" height="5.340763" transform="translate(14.107503 -4.425335) rotate(22.232375)"/><path class="cls-28" d="M25.93617,30.855319c-2.893617-3.021277-5.191489.957447-5.191489.957447,0,0,.297872-1.879837,2.446809-2.290983s2.744681,1.333536,2.744681,1.333536Z"/><path class="cls-8" d="M21.340426,34.198206c.382979-.040092.680851-1.917355.680851-1.917355,0,0-2.255319-1.404255-2.531915-1.322666s-.386766,1.173615-.386766,1.173615c0,0,1.705915-.297757,1.854851-.170097,0,0,.787234,1.104036.521277,1.520103l-.138298.7164Z"/><path class="cls-8" d="M21.085106,31.4136s1.510638-.366791,2.957447.888528c0,0-.744681-1.713226-2.957447-.888528Z"/><path class="cls-8" d="M23.12766,33.238298c-1.319149-1.489362-3.06383-.622544-3.06383-.622544,0,0,.212766-.633006,1.414894-.483954s1.648936,1.106499,1.648936,1.106499Z"/><path class="cls-8" d="M15.723404,34.558221c-.574468-.318374-1.975144.089996-1.975144.089996,0,0,.297872-.408112.987572-.366463s.987572.276466.987572.276466Z"/><path class="cls-8" d="M22.382979,35.66383c-.680851-2.12766-3.203337-.742022-3.203337-.742022,0,0,.777805.039894,1.267167-.045212,0,0,1.170213-.291815,1.489362.194518s.446809.592716.446809.592716Z"/><path class="cls-28" d="M16.929169,26.551782s.730406.856728-.333424,2.878005l.577966,1.078416s.769733-3.68549-.244542-3.956421Z"/><rect class="cls-28" x="16.595745" y="29.429787" width=".555722" height="7.358891"/><path class="cls-8" d="M15.914894,29.759777s-.212766-1.643024.446809-1.677996c0,0,.539188.738881.567467,2.426422l-1.014275-.748426Z"/><rect class="cls-8" x="17.865729" y="31.676808" width=".106383" height="5.042795" transform="translate(19.499783 -4.37777) rotate(30)"/><polygon class="cls-8" points="17.247898 36.509608 17.038761 36.520617 15.914894 29.759777 16.926496 30.404202 17.247898 36.509608"/><rect class="cls-8" x="17.464877" y="30.132779" width=".788057" height="6.551696" transform="translate(5.177995 -2.288311) rotate(8.57019)"/><polygon class="cls-8" points="19.187865 36.532314 18.418638 36.430436 19.297872 29.791833 20.093851 29.69172 19.187865 36.532314"/><rect class="cls-28" x="17.261527" y="30.237823" width=".170213" height="6.377155" transform="translate(44.419194 59.604759) rotate(161.465026)"/><rect class="cls-28" x="19.701146" y="30.293228" width=".170213" height="6.377155" transform="translate(20.180747 72.371026) rotate(-150)"/><rect class="cls-28" x="17.763134" y="26.672912" width=".169567" height="10.029039" transform="translate(30.774457 65.680755) rotate(-171.42981)"/><rect class="cls-28" x="18.314472" y="35.712247" width="1.028868" height=".118177" transform="translate(48.052268 63.701808) rotate(161.465026)"/><path class="cls-28" d="M13.748261,29.759777s.890037.627457,1.443229.627457,1.531915,1.294584,1.531915,1.294584c0,0,0-2.188201-1-2.273307,0,0-.93617-.394244-1.404255-.250314s-.570888.60158-.570888.60158Z"/><rect class="cls-28" x="15.356849" y="30.162577" width=".459556" height="6.778152" transform="translate(46.58511 53.744483) rotate(147.998278)"/><rect class="cls-28" x="16.919226" y="31.565795" width=".197782" height="5.620706" transform="translate(52.655434 48.564788) rotate(138.047464)"/><rect class="cls-8" x="16.292496" y="35.562361" width=".226349" height="1.051719" transform="translate(52.732057 51.959556) rotate(138.047464)"/><polygon class="cls-8" points="17.016813 36.633324 17.904236 36.75122 15.623255 34.47024 14.735832 34.352344 17.016813 36.633324"/><path class="cls-28" d="M19.106383,35.641809s1.723404.383723,1.978723,1.128404c0,0-.255319-1.191489-1.170213-1.297872s-.808511.169469-.808511.169469Z"/><rect class="cls-8" x="16.103002" y="31.434394" width=".226558" height="5.340763" transform="translate(-10.766223 7.684179) rotate(-20.172496)"/><rect class="cls-28" x="19.216523" y="26.669095" width=".130213" height="9.884084" transform="translate(35.985772 64.656815) rotate(-175.434327)"/><rect class="cls-8" x="18.956763" y="32.143698" width=".106383" height="4.790841" transform="translate(19.81641 -4.877613) rotate(30)"/><rect class="cls-8" x="16.602992" y="34.729131" width="3.657199" height=".314175" transform="translate(-20.996556 33.405335) rotate(-60)"/><rect class="cls-8" x="18.006423" y="31.354749" width=".226558" height="5.340763" transform="translate(19.440145 -4.501348) rotate(30)"/><rect class="cls-8" x="17.340153" y="31.681962" width=".226558" height="5.340763" transform="translate(-10.775708 8.125994) rotate(-20.172496)"/><polygon class="cls-28" points="17.679243 36.678999 17.831755 36.604882 13.381851 27.448206 13.295623 27.658716 17.679243 36.678999"/><circle class="cls-10" cx="16.595745" cy="36.75122" r=".151507"/><circle class="cls-10" cx="16.747252" cy="36.770213" r=".151507"/><circle class="cls-10" cx="16.975195" cy="36.721796" r=".151507"/><circle class="cls-10" cx="17.126702" cy="36.721796" r=".151507"/><circle class="cls-10" cx="17.346634" cy="36.721796" r=".151507"/><circle class="cls-10" cx="17.623924" cy="36.811792" r=".151507"/><circle class="cls-10" cx="17.858906" cy="36.721796" r=".151507"/><circle class="cls-10" cx="18.119702" cy="36.631799" r=".151507"/><circle class="cls-10" cx="18.27121" cy="36.873303" r=".151507"/><circle class="cls-10" cx="18.418638" cy="36.75122" r=".151507"/><circle class="cls-10" cx="18.314971" cy="36.631799" r=".151507"/><circle class="cls-10" cx="18.431591" cy="36.503772" r=".151507"/><circle class="cls-10" cx="18.805616" cy="36.520617" r=".151507"/><circle class="cls-10" cx="18.974842" cy="36.532314" r=".151507"/><circle class="cls-10" cx="19.179642" cy="36.532314" r=".151507"/><path class="cls-33" d="M18.119702,24.211816s.007639,2.52002.346777,2.52002l.11662.071418.222518-.071418c1.352563-1.259949-.642152-2.610016-.642152-2.610016"/><ellipse class="cls-15" cx="18.583099" cy="26.103616" rx=".208872" ry=".676788"/><path class="cls-33" d="M19.425532,22.860979s-.042553.787234.914894,1.87234c0,0,.356965.767598-.608194,1.973674-.030491.038102-.062302.009234-.095485.048201,0,0-.031114.021603-.077442-.069554-.204677-.402731-.706308-1.690664-.133772-3.824661Z"/><ellipse class="cls-15" cx="19.636746" cy="26.00607" rx=".257235" ry=".676788" transform="translate(-1.430809 1.144943) rotate(-3.222418)"/><path class="cls-33" d="M13.441489,27.541489c-.143617-2.154255-1.228723-2.952128-1.228723-2.952128,0,0-.734043,2.179762,1.117021,3.132434l.111702-.180306Z"/><path class="cls-15" d="M13.257927,26.999964c.159137.338211.203527.6522.099147.701313s-.122359-.260048-.281496-.598259-.399169-.577399-.29479-.626512.318002.185247.477139.523458Z"/></g></svg>