<?xml version="1.0" encoding="UTF-8"?><svg id="Layer_2" xmlns="http://www.w3.org/2000/svg" xmlns:xlink="http://www.w3.org/1999/xlink" viewBox="0 0 72.72 62.640015"><defs><style>.cls-1{stroke:#000;}.cls-1,.cls-2,.cls-3,.cls-4{fill:none;}.cls-1,.cls-5,.cls-3,.cls-6{stroke-width:.5px;}.cls-1,.cls-5,.cls-3,.cls-6,.cls-4{stroke-miterlimit:10;}.cls-7{fill:#47321d;}.cls-8{fill:#407036;}.cls-9{fill:#69bc46;}.cls-10{fill:#775936;}.cls-11{fill:#cecece;}.cls-12{font-size:7px;}.cls-12,.cls-13,.cls-6,.cls-14{fill:#f4f1e9;}.cls-12,.cls-14{font-family:Algerian, Algerian;}.cls-15{fill:#606060;}.cls-16{fill:#262626;}.cls-17{fill:#ebe0b3;}.cls-18{fill:red;}.cls-5{stroke:#f4f1e9;}.cls-5,.cls-19{fill:#d3a150;}.cls-3,.cls-6{stroke:#d3a150;}.cls-20{fill:#c4c4c4;}.cls-21{fill:#3a3a3a;}.cls-22{fill:#0019ff;}.cls-23{fill:#ffce00;}.cls-24{fill:#5b4827;}.cls-25{fill:#513e27;}.cls-26{fill:#b28a4f;}.cls-27{fill:#26ff00;}.cls-28{fill:#281d13;}.cls-29{fill:#ccb789;}.cls-14{font-size:9px;}.cls-30{clip-path:url(#clippath);}.cls-31{fill:#ffa9ff;}.cls-4{stroke:#ccb789;}</style><clipPath id="clippath"><path class="cls-2" d="M61.559982,40.86349c-.000122-13.917542-11.282471-25.19989-25.200012-25.19989s-25.199829,11.282349-25.199951,25.19989v.000122c0,3.464966,2.834961,6.299988,6.299988,6.299988h37.799988c3.465027,0,6.299988-2.835022,6.299988-6.299988v-.000122Z"/></clipPath></defs><g id="Lo-Fi_Meli"><path class="cls-11" d="M70.72,0h-2c0,1.104553-.895447,2-2,2-1.104614,0-2-.895447-2-2h-2c0,1.104553-.895447,2-2,2-1.104614,0-2-.895447-2-2h-2c0,1.104553-.895447,2-2,2-1.104614,0-2-.895447-2-2h-2c0,1.104553-.895447,2-2,2-1.104614,0-2-.895447-2-2h-2c0,1.104553-.895447,2-2,2-1.104614,0-2-.895447-2-2h-2c0,1.104553-.895447,2-2,2-1.104614,0-2-.895447-2-2h-2c0,1.104553-.895447,2-2,2-1.104614,0-2-.895447-2-2h-2c0,1.104553-.895447,2-2,2-1.104614,0-2-.895447-2-2h-2c0,1.104553-.895447,2-2,2-1.104614,0-2-.895447-2-2h-2c0,1.104553-.895447,2-2,2-1.104614,0-2-.895447-2-2h-2c0,1.104553-.895447,2-2,2-1.104614,0-2-.895447-2-2h-2c0,.526672-.213379,1.041809-.585815,1.414246-.372375.372375-.887512.585754-1.414185.585754v2.264038c1.104553,0,2,.895386,2,2s-.895447,2-2,2v2.263977c1.104553,0,2,.895447,2,2s-.895447,2-2,2v2.263977c1.104553,0,2,.895447,2,2,0,1.104614-.895447,2-2,2v2.264038c1.104553,0,2,.895386,2,2s-.895447,2-2,2v2.263977c1.104553,0,2,.895447,2,2,0,1.104553-.895447,2-2,2v2.263977c1.104553,0,2,.895447,2,2,0,1.104614-.895447,2-2,2v2.264038c1.104553,0,2,.895447,2,2s-.895447,2-2,2v2.263977c1.104553,0,2,.895447,2,2,0,1.104553-.895447,2-2,2v2.263977c1.104553,0,2,.895447,2,2s-.895447,2-2,2v2.264038c.526672,0,1.041809.213379,1.414185.585754.372437.372437.585815.887573.585815,1.414246h2c0-1.104553.895386-2,2-2,1.104553,0,2,.895447,2,2h2c0-1.104553.895386-2,2-2,1.104553,0,2,.895447,2,2h2c0-1.104553.895386-2,2-2,1.104553,0,2,.895447,2,2h2c0-1.104553.895386-2,2-2,1.104553,0,2,.895447,2,2h2c0-1.104553.895386-2,2-2,1.104553,0,2,.895447,2,2h2c0-1.104553.895386-2,2-2,1.104553,0,2,.895447,2,2h2c0-1.104553.895386-2,2-2,1.104553,0,2,.895447,2,2h2c0-1.104553.895386-2,2-2,1.104553,0,2,.895447,2,2h2c0-1.104553.895386-2,2-2,1.104553,0,2,.895447,2,2h2c0-1.104553.895386-2,2-2,1.104553,0,2,.895447,2,2h2c0-1.104553.895386-2,2-2,1.104553,0,2,.895447,2,2h2c0-.526672.213379-1.041809.585754-1.414246.372437-.372375.887573-.585754,1.414246-.585754v-2.264038c-1.104614,0-2-.895386-2-2s.895386-2,2-2v-2.263977c-1.104614,0-2-.895447-2-2,0-1.104553.895386-2,2-2v-2.263977c-1.104614,0-2-.895447-2-2s.895386-2,2-2v-2.264038c-1.104614,0-2-.895386-2-2,0-1.104553.895386-2,2-2v-2.263977c-1.104614,0-2-.895447-2-2,0-1.104553.895386-2,2-2v-2.263977c-1.104614,0-2-.895447-2-2s.895386-2,2-2v-2.264038c-1.104614,0-2-.895386-2-2,0-1.104553.895386-2,2-2v-2.263977c-1.104614,0-2-.895447-2-2s.895386-2,2-2v-2.264038c-1.104614,0-2-.895386-2-2s.895386-2,2-2v-2.263977c-.526672,0-1.041809-.213379-1.414246-.585754C70.933379,1.041809,70.72.526672,70.72,0Z"/><path class="cls-13" d="M70,0h-2c0,1.104553-.895447,2-2,2-1.104614,0-2-.895447-2-2h-2c0,1.104553-.895447,2-2,2-1.104614,0-2-.895447-2-2h-2c0,1.104553-.895447,2-2,2-1.104614,0-2-.895447-2-2h-2c0,1.104553-.895447,2-2,2-1.104614,0-2-.895447-2-2h-2c0,1.104553-.895447,2-2,2-1.104614,0-2-.895447-2-2h-2c0,1.104553-.895447,2-2,2-1.104614,0-2-.895447-2-2h-2c0,1.104553-.895447,2-2,2-1.104614,0-2-.895447-2-2h-2c0,1.104553-.895447,2-2,2-1.104614,0-2-.895447-2-2h-2c0,1.104553-.895447,2-2,2-1.104614,0-2-.895447-2-2h-2c0,1.104553-.895447,2-2,2-1.104614,0-2-.895447-2-2h-2c0,1.104553-.895447,2-2,2-1.104614,0-2-.895447-2-2h-2c0,.526672-.213379,1.041809-.585815,1.414246C1.041809,1.786621.526672,2,0,2v2.264038c1.104553,0,2,.895386,2,2S1.104553,8.264038,0,8.264038v2.263977c1.104553,0,2,.895447,2,2,0,1.104553-.895447,2-2,2v2.263977c1.104553,0,2,.895447,2,2S1.104553,20.791992,0,20.791992v2.264038c1.104553,0,2,.895386,2,2S1.104553,27.05603,0,27.05603v2.263977c1.104553,0,2,.895447,2,2,0,1.104553-.895447,2-2,2v2.263977c1.104553,0,2,.895447,2,2S1.104553,39.583984,0,39.583984v2.264038c1.104553,0,2,.895447,2,2,0,1.104553-.895447,2-2,2v2.263977c1.104553,0,2,.895447,2,2S1.104553,52.112,0,52.112v2.263977c1.104553,0,2,.895447,2,2S1.104553,58.375977,0,58.375977v2.264038c.526672,0,1.041809.213379,1.414185.585754.372437.372437.585815.887573.585815,1.414246h2c0-1.104553.895386-2,2-2,1.104553,0,2,.895447,2,2h2c0-1.104553.895386-2,2-2,1.104553,0,2,.895447,2,2h2c0-1.104553.895386-2,2-2,1.104553,0,2,.895447,2,2h2c0-1.104553.895386-2,2-2,1.104553,0,2,.895447,2,2h2c0-1.104553.895386-2,2-2,1.104553,0,2,.895447,2,2h2c0-1.104553.895386-2,2-2,1.104553,0,2,.895447,2,2h2c0-1.104553.895386-2,2-2,1.104553,0,2,.895447,2,2h2c0-1.104553.895386-2,2-2,1.104553,0,2,.895447,2,2h2c0-1.104553.895386-2,2-2,1.104553,0,2,.895447,2,2h2c0-1.104553.895386-2,2-2,1.104553,0,2,.895447,2,2h2c0-1.104553.895386-2,2-2,1.104553,0,2,.895447,2,2h2c0-.526672.213379-1.041809.585754-1.414246.372437-.372375.887573-.585754,1.414246-.585754v-2.264038c-1.104614,0-2-.895386-2-2s.895386-2,2-2v-2.263977c-1.104614,0-2-.895447-2-2s.895386-2,2-2v-2.263977c-1.104614,0-2-.895447-2-2,0-1.104614.895386-2,2-2v-2.264038c-1.104614,0-2-.895386-2-2s.895386-2,2-2v-2.263977c-1.104614,0-2-.895447-2-2,0-1.104553.895386-2,2-2v-2.263977c-1.104614,0-2-.895447-2-2s.895386-2,2-2v-2.264038c-1.104614,0-2-.895386-2-2s.895386-2,2-2v-2.263977c-1.104614,0-2-.895447-2-2,0-1.104553.895386-2,2-2v-2.264038c-1.104614,0-2-.895386-2-2s.895386-2,2-2v-2.263977c-.526672,0-1.041809-.213379-1.414246-.585754C70.213379,1.041809,70,.526672,70,0Z"/><rect id="Inner" class="cls-4" x="11.303993" y="2.520007" width="50.112" height="57.6" transform="translate(5.039985 67.68) rotate(-90)"/><rect class="cls-29" x="7.559998" y="6.031824" width="57.599976" height=".179993"/><rect class="cls-29" x="7.559998" y="6.391809" width="57.599976" height=".179993"/><rect class="cls-29" x="7.559998" y="6.751794" width="57.599976" height=".179993"/><rect class="cls-29" x="7.559998" y="7.108179" width="57.599976" height=".180054"/><rect class="cls-29" x="7.559998" y="7.468225" width="57.599976" height=".179993"/><rect class="cls-29" x="7.559998" y="7.831812" width="57.599976" height=".179993"/><rect class="cls-29" x="7.559998" y="8.191797" width="57.599976" height=".179993"/><rect class="cls-29" x="7.559998" y="8.551782" width="57.599976" height=".180054"/><rect class="cls-29" x="7.559998" y="8.908228" width="57.599976" height=".179993"/><rect class="cls-29" x="7.559998" y="9.268213" width="57.599976" height=".179993"/><rect class="cls-29" x="7.559998" y="9.631799" width="57.599976" height=".179993"/><rect class="cls-29" x="7.559998" y="9.991785" width="57.599976" height=".179993"/><rect class="cls-29" x="7.559998" y="10.351831" width="57.599976" height=".179993"/><rect class="cls-29" x="7.559998" y="10.708215" width="57.599976" height=".179993"/><rect class="cls-29" x="7.559998" y="11.068201" width="57.599976" height=".179993"/><rect class="cls-29" x="7.559998" y="11.431787" width="57.599976" height=".179993"/><rect class="cls-29" x="7.559998" y="11.791833" width="57.599976" height=".179993"/><rect class="cls-29" x="7.559998" y="12.151819" width="57.599976" height=".179993"/><rect class="cls-29" x="7.559998" y="12.508203" width="57.599976" height=".179993"/><rect class="cls-29" x="7.559998" y="12.868188" width="57.599976" height=".179993"/><rect class="cls-29" x="7.559998" y="13.231836" width="57.599976" height=".179993"/><rect class="cls-29" x="7.559998" y="13.591821" width="57.599976" height=".179993"/><rect class="cls-29" x="7.559998" y="13.951807" width="57.599976" height=".179993"/><rect class="cls-29" x="7.559998" y="14.308191" width="57.599976" height=".179993"/><rect class="cls-29" x="7.559998" y="14.668176" width="57.599976" height=".180054"/><rect class="cls-29" x="7.559998" y="15.031824" width="57.599976" height=".179993"/><rect class="cls-29" x="7.559998" y="15.391809" width="57.599976" height=".179993"/><rect class="cls-29" x="7.559998" y="15.751794" width="57.599976" height=".179993"/><rect class="cls-29" x="7.559998" y="16.108179" width="57.599976" height=".180054"/><rect class="cls-29" x="7.559998" y="16.468225" width="57.599976" height=".179993"/><rect class="cls-29" x="7.559998" y="16.831812" width="57.599976" height=".179993"/><rect class="cls-29" x="7.559998" y="17.191797" width="57.599976" height=".179993"/><rect class="cls-29" x="7.559998" y="17.551782" width="57.599976" height=".180054"/><rect class="cls-29" x="7.559998" y="17.908228" width="57.599976" height=".179993"/><rect class="cls-29" x="7.559998" y="18.268213" width="57.599976" height=".179993"/><rect class="cls-29" x="7.559998" y="18.631799" width="57.599976" height=".179993"/><rect class="cls-29" x="7.559998" y="18.991785" width="57.599976" height=".179993"/><rect class="cls-29" x="7.559998" y="19.351831" width="57.599976" height=".179993"/><rect class="cls-29" x="7.559998" y="19.708215" width="57.599976" height=".179993"/><rect class="cls-29" x="7.559998" y="20.068201" width="57.599976" height=".179993"/><rect class="cls-29" x="7.559998" y="20.431787" width="57.599976" height=".179993"/><rect class="cls-29" x="7.559998" y="20.791833" width="57.599976" height=".179993"/><rect class="cls-29" x="7.559998" y="21.151819" width="57.599976" height=".179993"/><rect class="cls-29" x="7.559998" y="21.508203" width="57.599976" height=".179993"/><rect class="cls-29" x="7.559998" y="21.868188" width="57.599976" height=".179993"/><rect class="cls-29" x="7.559998" y="22.231836" width="57.599976" height=".179993"/><rect class="cls-29" x="7.559998" y="22.591821" width="57.599976" height=".179993"/><rect class="cls-29" x="7.559998" y="22.951807" width="57.599976" height=".179993"/><rect class="cls-29" x="7.559998" y="23.308191" width="57.599976" height=".179993"/><rect class="cls-29" x="7.559998" y="23.668176" width="57.599976" height=".180054"/><rect class="cls-29" x="7.559998" y="24.031824" width="57.599976" height=".179993"/><rect class="cls-29" x="7.559998" y="24.391809" width="57.599976" height=".179993"/><rect class="cls-29" x="7.559998" y="24.751794" width="57.599976" height=".179993"/><rect class="cls-29" x="7.559998" y="25.108179" width="57.599976" height=".180054"/><rect class="cls-29" x="7.559998" y="25.468225" width="57.599976" height=".179993"/><rect class="cls-29" x="7.559998" y="25.831812" width="57.599976" height=".179993"/><rect class="cls-29" x="7.559998" y="26.191797" width="57.599976" height=".179993"/><rect class="cls-29" x="7.559998" y="26.551782" width="57.599976" height=".180054"/><rect class="cls-29" x="7.559998" y="26.908228" width="57.599976" height=".179993"/><rect class="cls-29" x="7.559998" y="27.268213" width="57.599976" height=".179993"/><rect class="cls-29" x="7.559998" y="27.631799" width="57.599976" height=".179993"/><rect class="cls-29" x="7.559998" y="27.991785" width="57.599976" height=".179993"/><rect class="cls-29" x="7.559998" y="28.351831" width="57.599976" height=".179993"/><rect class="cls-29" x="7.559998" y="28.708215" width="57.599976" height=".179993"/><rect class="cls-29" x="7.559998" y="29.068201" width="57.599976" height=".179993"/><rect class="cls-29" x="7.559998" y="29.431787" width="57.599976" height=".179993"/><rect class="cls-29" x="7.559998" y="29.791833" width="57.599976" height=".179993"/><rect class="cls-29" x="7.559998" y="30.151819" width="57.599976" height=".179993"/><rect class="cls-29" x="7.559998" y="30.508203" width="57.599976" height=".179993"/><rect class="cls-29" x="7.559998" y="30.868188" width="57.599976" height=".179993"/><rect class="cls-29" x="7.559998" y="31.231836" width="57.599976" height=".179993"/><rect class="cls-29" x="7.559998" y="31.591821" width="57.599976" height=".179993"/><rect class="cls-29" x="7.559998" y="31.951807" width="57.599976" height=".179993"/><rect class="cls-29" x="7.559998" y="32.308191" width="57.599976" height=".179993"/><rect class="cls-29" x="7.559998" y="32.668176" width="57.599976" height=".180054"/><rect class="cls-29" x="7.559998" y="33.031824" width="57.599976" height=".179993"/><rect class="cls-29" x="7.559998" y="33.391809" width="57.599976" height=".179993"/><rect class="cls-29" x="7.559998" y="33.751794" width="57.599976" height=".179993"/><rect class="cls-29" x="7.559998" y="34.108179" width="57.599976" height=".180054"/><rect class="cls-29" x="7.559998" y="34.468225" width="57.599976" height=".179993"/><rect class="cls-29" x="7.559998" y="34.831812" width="57.599976" height=".179993"/><rect class="cls-29" x="7.559998" y="35.191797" width="57.599976" height=".179993"/><rect class="cls-29" x="7.559998" y="35.551782" width="57.599976" height=".180054"/><rect class="cls-29" x="7.559998" y="35.908228" width="57.599976" height=".179993"/><rect class="cls-29" x="7.559998" y="36.268213" width="57.599976" height=".179993"/><rect class="cls-29" x="7.559998" y="36.631799" width="57.599976" height=".179993"/><rect class="cls-29" x="7.559998" y="36.991785" width="57.599976" height=".179993"/><rect class="cls-29" x="7.559998" y="37.351831" width="57.599976" height=".179993"/><rect class="cls-29" x="7.559998" y="37.708215" width="57.599976" height=".179993"/><rect class="cls-29" x="7.559998" y="38.068201" width="57.599976" height=".179993"/><rect class="cls-29" x="7.559998" y="38.431787" width="57.599976" height=".179993"/><rect class="cls-29" x="7.559998" y="38.791833" width="57.599976" height=".179993"/><rect class="cls-29" x="7.559998" y="39.151819" width="57.599976" height=".179993"/><rect class="cls-29" x="7.559998" y="39.508203" width="57.599976" height=".179993"/><rect class="cls-29" x="7.559998" y="39.868188" width="57.599976" height=".179993"/><rect class="cls-29" x="7.559998" y="40.231836" width="57.599976" height=".179993"/><rect class="cls-29" x="7.559998" y="40.591821" width="57.599976" height=".179993"/><rect class="cls-29" x="7.559998" y="40.951807" width="57.599976" height=".179993"/><rect class="cls-29" x="7.559998" y="41.308191" width="57.599976" height=".179993"/><rect class="cls-29" x="7.559998" y="41.668176" width="57.599976" height=".180054"/><rect class="cls-29" x="7.559998" y="42.031824" width="57.599976" height=".179993"/><rect class="cls-29" x="7.559998" y="42.391809" width="57.599976" height=".179993"/><rect class="cls-29" x="7.559998" y="42.751794" width="57.599976" height=".179993"/><rect class="cls-29" x="7.559998" y="43.108179" width="57.599976" height=".180054"/><rect class="cls-29" x="7.559998" y="43.468225" width="57.599976" height=".179993"/><rect class="cls-29" x="7.559998" y="43.831812" width="57.599976" height=".179993"/><rect class="cls-29" x="7.559998" y="44.191797" width="57.599976" height=".179993"/><rect class="cls-29" x="7.559998" y="44.551782" width="57.599976" height=".180054"/><rect class="cls-29" x="7.559998" y="44.908228" width="57.599976" height=".179993"/><rect class="cls-29" x="7.559998" y="45.268213" width="57.599976" height=".179993"/><rect class="cls-29" x="7.559998" y="45.631799" width="57.599976" height=".179993"/><rect class="cls-29" x="7.559998" y="45.991785" width="57.599976" height=".179993"/><rect class="cls-29" x="7.559998" y="46.351831" width="57.599976" height=".179993"/><rect class="cls-29" x="7.559998" y="46.708215" width="57.599976" height=".179993"/><rect class="cls-29" x="7.559998" y="47.068201" width="57.599976" height=".179993"/><rect class="cls-29" x="7.559998" y="47.431787" width="57.599976" height=".179993"/><rect class="cls-29" x="7.559998" y="47.791833" width="57.599976" height=".179993"/><rect class="cls-29" x="7.559998" y="48.151819" width="57.599976" height=".179993"/><rect class="cls-29" x="7.559998" y="48.508203" width="57.599976" height=".179993"/><rect class="cls-29" x="7.559998" y="48.868188" width="57.599976" height=".179993"/><rect class="cls-29" x="7.559998" y="49.231836" width="57.599976" height=".179993"/><rect class="cls-29" x="7.559998" y="49.591821" width="57.599976" height=".179993"/><rect class="cls-29" x="7.559998" y="49.951807" width="57.599976" height=".179993"/><rect class="cls-29" x="7.559998" y="50.308191" width="57.599976" height=".179993"/><rect class="cls-29" x="7.559998" y="50.668176" width="57.599976" height=".180054"/><rect class="cls-29" x="7.559998" y="51.031824" width="57.599976" height=".179993"/><rect class="cls-29" x="7.559998" y="51.391809" width="57.599976" height=".179993"/><rect class="cls-29" x="7.559998" y="51.751794" width="57.599976" height=".179993"/><rect class="cls-29" x="7.559998" y="52.108179" width="57.599976" height=".180054"/><rect class="cls-29" x="7.559998" y="52.468225" width="57.599976" height=".179993"/><rect class="cls-29" x="7.559998" y="52.831812" width="57.599976" height=".179993"/><rect class="cls-29" x="7.559998" y="53.191797" width="57.599976" height=".179993"/><rect class="cls-29" x="7.559998" y="53.551782" width="57.599976" height=".180054"/><rect class="cls-29" x="7.559998" y="53.908228" width="57.599976" height=".179993"/><rect class="cls-29" x="7.559998" y="54.268213" width="57.599976" height=".179993"/><rect class="cls-29" x="7.559998" y="54.631799" width="57.599976" height=".179993"/><rect class="cls-29" x="7.559998" y="54.991785" width="57.599976" height=".179993"/><rect class="cls-29" x="7.559998" y="55.351831" width="57.599976" height=".179993"/><rect class="cls-29" x="7.559998" y="55.708215" width="57.599976" height=".179993"/><rect class="cls-29" x="7.559998" y="56.068201" width="57.599976" height=".179993"/><path id="Main" class="cls-5" d="M63.205717,11.323212c.478937.041159.899416.462684.939167.941502.039668.477823-.314846.832336-.792669.792667l-6.936679-.585999c-.47881-.03966-.833523.31645-.792273.795395.041153.477821.460954.897621.938775.938773l5.202509.439498c.478876.040453.834287-.314957.793833-.793833l-.292998-3.468338c-.040455-.478878-.461457-.899881-.940335-.940336h0s-3.468338-.292998-3.468338-.292998c-.478876-.040454-.834287.314957-.793833.793833l.439498,5.202509c.041249.478944.46284.899357.94165.939018.477687.039568.832085-.314829.792518-.792516l-.585999-6.936679c-.039752-.478818.316278-.833612.795215-.792454.477942.041072.89788.46101.938954.938952l.219752,2.601254,2.601254.219752Z"/><path id="Main-2" class="cls-5" d="M63.205717,11.323212c.478937.041159.899416.462684.939167.941502.039668.477823-.314846.832336-.792669.792667l-6.936679-.585999c-.47881-.03966-.833523.31645-.792273.795395.041153.477821.460954.897621.938775.938773l5.202509.439498c.478876.040453.834287-.314957.793833-.793833l-.292998-3.468338c-.040455-.478878-.461457-.899881-.940335-.940336h0s-3.468338-.292998-3.468338-.292998c-.478876-.040454-.834287.314957-.793833.793833l.439498,5.202509c.041249.478944.46284.899357.94165.939018.477687.039568.832085-.314829.792518-.792516l-.585999-6.936679c-.039752-.478818.316278-.833612.795215-.792454.477942.041072.89788.46101.938954.938952l.219752,2.601254,2.601254.219752Z"/><path class="cls-5" d="M62.534828,11.266535l-.392398-.033149M60.654162,9.385869l-.392398-.033149M59.21299,12.707707l-.392398-.033149M57.625318,14.295379l-.392398-.033149M62.468561,12.787934l.033149.392398M58.707216,9.026589l.033149.392398M59.146716,14.2291l.033149.392398M57.26605,12.348434l.033149.392398"/><path class="cls-5" d="M62.559353,11.268607l-.441448-.037293M60.678687,9.387941l-.441448-.037293M59.237515,12.709779l-.441448-.037293M57.649843,14.297451l-.441448-.037293M62.466489,12.763409l.037293.441448M58.705144,9.002064l.037293.441448M59.144644,14.204575l.037293.441448M57.263978,12.323909l.037293.441448"/><path id="Main-3" class="cls-5" d="M12.369249,8.500647c.041159-.478937.462684-.899416.941502-.939167.477823-.039668.832336.314846.792667.792669l-.585999,6.936679c-.03966.47881.31645.833523.795395.792273.477821-.041153.897621-.460954.938773-.938775l.439498-5.202509c.040453-.478876-.314957-.834287-.793833-.793833l-3.468338.292998c-.478878.040455-.899881.461457-.940336.940335h0s-.292998,3.468339-.292998,3.468339c-.040454.478876.314957.834287.793833.793833l5.202509-.439498c.478944-.041249.899357-.46284.939018-.94165.039568-.477687-.314829-.832085-.792516-.792518l-6.936679.585999c-.478818.039752-.833612-.316278-.792454-.795215.041072-.477942.46101-.89788.938952-.938954l2.601254-.219752.219752-2.601254Z"/><path id="Main-4" class="cls-5" d="M12.369249,8.500647c.041159-.478937.462684-.899416.941502-.939167.477823-.039668.832336.314846.792667.792669l-.585999,6.936679c-.03966.47881.31645.833523.795395.792273.477821-.041153.897621-.460954.938773-.938775l.439498-5.202509c.040453-.478876-.314957-.834287-.793833-.793833l-3.468338.292998c-.478878.040455-.899881.461457-.940336.940335h0s-.292998,3.468339-.292998,3.468339c-.040454.478876.314957.834287.793833.793833l5.202509-.439498c.478944-.041249.899357-.46284.939018-.94165.039568-.477687-.314829-.832085-.792516-.792518l-6.936679.585999c-.478818.039752-.833612-.316278-.792454-.795215.041072-.477942.46101-.89788.938952-.938954l2.601254-.219752.219752-2.601254Z"/><path class="cls-5" d="M12.312571,9.171536l-.033149.392398M10.431905,11.052202l-.033149.392398M13.753744,12.493374l-.033149.392398M15.341415,14.081046l-.033149.392398M13.83397,9.237803l.392398-.033149M10.072625,12.999148l.392398-.033149M15.275136,12.559648l.392398-.033149M13.39447,14.440314l.392398-.033149"/><path class="cls-5" d="M12.314643,9.147011l-.037293.441448M10.433977,11.027677l-.037293.441448M13.755815,12.468849l-.037293.441448M15.343487,14.056521l-.037293.441448M13.809445,9.239875l.441448-.037293M10.0481,13.00122l.441448-.037293M15.250611,12.561719l.441448-.037293M13.369945,14.442385l.441448-.037293"/><path class="cls-13" d="M11.598831,24.673761c.002319.252594.004768.378586.012222.629913.865288.547638,1.297951.821457,2.163254,1.36911.188377-.082657.282539-.122665.470749-.200089-.339516.528687-.50312.800369-.816826,1.358353-.006264-.226532-.008263-.340057-.009995-.567596-.576233-.344193-.864357-.516296-1.440575-.860489.508301.852264.775116,1.266876,1.331856,2.07019-.062874.117996-.094017.177307-.155708.29657-.029022-.002563-.043556-.003845-.072594-.006348.055954-.108429.084175-.162399.141106-.269791-.597237-.851639-.882927-1.292068-1.425888-2.198883-.131226-.078384-.196823-.117569-.328049-.195953.593628,1.012085.908089,1.502365,1.56868,2.446732-.045677.087173-.068352.130936-.113396.218796-.889511-.027618-1.338745-.025925-2.244064.010361.476067.226044.714111.339066,1.190178.565125.159691.075821.278717.114136.359337.114929s.186623-.03627.319397-.109268c.157967-.065842.2369-.09787.394722-.16011-.326942.65892-.481682.997787-.772011,1.694321-.034775.013382-.052177.020111-.086952.033661.271973-.656616.41642-.976608.72084-1.600006-.071999.022797-.108017.034363-.180077.057846-.275841.571609-.40728.864319-.656151,1.463486.001602-.032379.002434-.048569.00412-.080933.010345-.287857-.011986-.491562-.071747-.612762-.060051-.120529-.191742-.227875-.39669-.319794-.751724-.337128-1.127594-.505707-1.879295-.842834-.198387.141983-.297371.214661-.494881.363403.328934-.772507.503899-1.148392.872963-1.879425.012672.264465.020363.396393.038345.659531.94342-.036179,1.4114-.036682,2.337563-.004639-.052132-.087143-.078072-.130844-.129646-.218536-.825287-.023407-1.241837-.02182-2.081032.009491.004166-.227982.007248-.342072.015427-.570435.030319-.021469.045494-.032166.075836-.053482-.012489.215073-.01783.322571-.026741.53743.786171-.022446,1.176537-.021439,1.950417.003723-.446808-.67131-.662384-1.015427-1.076736-1.71907-.206215.09613-.309364.145645-.515579.247711.385277-.692047.587151-1.028107,1.007622-1.680237ZM10.011086,28.809579c.649109.29953.973671.449295,1.622787.748825.249184.11499.436096.159317.560837.13385.125618-.025055.258377-.135468.402725-.326843-.018929.005051-.028381.007599-.04731.012695-.20282.160355-.40007.199219-.591843.108994-.066803-.031433-.10022-.047165-.167023-.078598-.532707-.250641-.799065-.375961-1.331772-.626602-.179085.009781-.268768.015305-.448402.027679ZM11.876953,24.602808c-.026566.188309-.039101.282486-.062706.470764.843567.546219,1.265358.819321,2.108948,1.365555.294785-.096024.441917-.141068.735458-.225449-.397163.596191-.587746.903976-.951149,1.538956-.032814.003052-.049248.004608-.082085.007767.331085-.580902.504021-.863281.863335-1.411911-.233139.07045-.349922.107498-.583801.185349-.871704-.560287-1.307549-.840424-2.179237-1.400711.027504-.194809.042053-.292206.072701-.486938.031418-.017426.047119-.026108.078537-.043381Z"/><path class="cls-13" d="M11.915581,24.192743c.402573-.598663.611328-.889267,1.042358-1.453033-.014793.24292-.020927.364182-.030739.606186.83033.624374,1.245491.936554,2.075844,1.560944.185829-.073959.278694-.10968.464272-.178726-.377586.494934-.560555.749924-.913597,1.274933.010803-.221451.017342-.332352.032692-.554459-.847427-.603958-1.271126-.90593-2.11853-1.509872-.220894.098297-.331383.149078-.552299.254028ZM13.172508,22.695032c-.013809.182205-.019989.273209-.03096.454941.806892.619156,1.210342.928726,2.01725,1.547882.285286-.067261.427559-.098282.71109-.15535-.424706.539413-.629982.81842-1.024727,1.395004-.041176.012375-.061775.0186-.102974.031204.36853-.542023.559738-.804901.954666-1.314377-.22963.050293-.344742.077103-.575462.13414-.82402-.627655-1.236023-.941483-2.060013-1.569122.011497-.201675.018112-.302658.033096-.504883.031219-.007828.046822-.011719.078033-.01944Z"/><path class="cls-13" d="M16.070007,19.285196c.003426.035812.006554.05983.007607.072311.010918.154739.016838.231934.029663.386017.013565.135132.050308.285172.110916.449219.001572.0056.00235.008392.003914.013992-.015007.004822-.022507.007248-.037521.0121-.011978-.006348-.017967-.009521-.029961-.015869-.181526-.087982-.343346-.112671-.485672-.073898-.142334.038773-.306717.15329-.490334.345383-.075119.078583-.147758.159729-.21714.244034-.011856.012695-.017784.019043-.029625.031769.787415.742813,1.181129,1.114227,1.968567,1.857056.185341-.039246.277817-.057816.462357-.092819-.412079.429321-.613167.65123-1.004295,1.109497.031647-.216812.048637-.325302.084969-.542435-.739494-.664001-1.109215-.995987-1.848686-1.659973-.06881.076584-.103088.115067-.171349.192429-.163567.188263-.252975.346497-.269241.471191s.034615.249207.152184.372742c-.023888.028946-.035812.043442-.059631.072495-.132576-.145462-.189735-.288879-.171158-.430481.01857-.141586.116928-.320175.298668-.529327.058212-.065201.087418-.097672.146027-.162308.010559-.011978.015854-.01796.026428-.029907-.036423-.0327-.054626-.049057-.091049-.081757-.089325.086166-.170815.172073-.244461.257416-.205452.238052-.318039.443069-.339088.606018-.021065.16304.044327.317169.19516.460571-.010887.013458-.016319.020187-.027191.033661-.243561-.065857-.545181-.102783-.905037-.102478-.013557.000839-.020317.001266-.033875.002106,1.10392-1.420044,1.702362-2.073807,2.968857-3.268753ZM15.922592,20.189935c-.188293.069763-.369774.193207-.54081.37114-.038116.039642-.075989.083511-.11377.130417.727821.691345,1.091545,1.03717,1.81868,1.729263.279404-.021637.418488-.030212.695229-.043076-.463028.467773-.68853.710632-1.125931,1.21431-.04007.004944-.060127.007446-.100235.012573.409958-.474899.620941-.704453,1.053619-1.147736-.229698.016617-.344994.026428-.576424.049164-.752571-.71875-1.128845-1.07811-1.881393-1.79686.052589-.057465.078972-.08609.131882-.143127.161285-.16864.28698-.276413.372826-.326904.086334-.050995.175568-.06665.266327-.049164ZM16.342896,19.245767c-.02169.220612.018547.516708.124069.885605.003067.011185.004593.016769.007668.027969-.035194.007812-.052795.011765-.088013.019714-.003273-.009384-.004898-.014069-.008171-.023453-.113831-.369736-.154182-.662445-.125496-.874252.001358-.009308.002045-.013977.003418-.023285.034622-.00499.051926-.007462.086525-.012299Z"/><path class="cls-13" d="M18.809708,17.006494c-.049606.182373-.073586.273544-.119888.455841.446587.209503.667084.317902,1.102173.541595.031059-.049393.046669-.074051.078026-.123322-.392189-.204147-.590691-.303406-.992302-.496078.047119-.186508.071556-.279785.122139-.466385.036171-.012512.054253-.018753.090424-.031128-.048111.177979-.071381.266937-.116348.444839.379356.184235.566956.278976.937836.47345.013153-.028503.021103-.044907.022667-.049591.020432-.048935.030708-.073395.051407-.122299.032623-.071808.051544-.119446.057419-.143753.156799.122589.327805.21167.511963.267899-.055893.033157-.095413.059021-.119202.075317-.174698.11972-.287231.22934-.338333.32695.482239.259079.719727.39296,1.187103.668823.223602-.011429.334961-.015778.556747-.021774-.532745.346848-.794739.529114-1.308472.911285.071106-.197464.107788-.296097.183456-.493164-.285828-.15419-.430084-.229736-.721207-.377625-.083908.29216-.123009.544159-.121704.75351-.027336.013168-.040993.019791-.068314.033066.000603-.206345.040909-.467453.127052-.782623.002434-.014496.003662-.021729.006111-.036224-.046295-.02034-.069489-.030457-.115921-.050613-.112656.28894-.166206.572769-.165192.849411-.036148-.00853-.054253-.012772-.090469-.021164-.174355-.038605-.386429-.071625-.637245-.094849-.017982-.001038-.02697-.001541-.044968-.002533.047356.329254.131844.560272.245682.697479.066917.080673.141434.134598.223076.161133s.243858.048569.48571.072586c.020821.00209.053452.005997.097702.010712-.532608.426819-.793152.650238-1.300842,1.117126-.037025-.00267-.055565-.003967-.092659-.0065.478882-.442627.724297-.655029,1.225502-1.061966-.029869-.002502-.044815-.003723-.07473-.006134-.192268-.015121-.329773-.03566-.411308-.064606-.080429-.028595-.153397-.081177-.217445-.157852-.109276-.130829-.203262-.382462-.273926-.760376-.074394.00174-.111649.002762-.186249.005096.011551.06041.032661.143524.065117.251755.031601.1064.047585.1595.079903.265533.042114.142624.093193.248398.151421.317184.06012.071045.12616.11644.196899.137451.071228.020584.1912.029449.358528.028214.016998-.000092.041466,0,.074944.000336-.49234.406021-.733421.617691-1.203911,1.05835.14016-.300369.211365-.586548.209908-.86377-.000809-.276489-.073906-.638199-.21376-1.089828-.004868-.014374-.007286-.021561-.012146-.035934-.139481.020569-.301094.097931-.482399.235397.003975-.184921-.015785-.356964-.059814-.514282.038116-.004395.06189-.006714.070709-.007828.074181-.008408.111237-.012451.185257-.020264.063377-.006226.136154-.01767.216545-.035095-.009422-.049332-.014091-.07402-.023346-.123413-.019096.00264-.028641.003967-.047745.006653-.134697.016754-.246346.034332-.334778.050552-.014046.002716-.021072.004074-.035126.006821.002464-.030991.003723-.046478.006271-.077469.131577-.034866.263954-.059036.399757-.071152-.094749-.40712-.139374-.611969-.222969-1.024017-.18808.004593-.282433.007782-.471733.015945.509087-.419174.768745-.620514,1.296997-1.006699ZM18.299721,18.036966c.084679.467667.13073.700012.230156,1.161407.215012-.00798.409798.000153.584053.023148.087608.011993.131317.018158.218552.030899.00325-.000061.018585.001587.045982.00502.006775-.023956.009445-.038467.009178-.041992.004356-.02478.006569-.03717.010994-.061966.000916-.009399.004051-.025497.008316-.048645-.232201-.046753-.475998-.061768-.730171-.042633-.077591-.371674-.114014-.558578-.182045-.93428-.077843-.036606-.116837-.054779-.195015-.090958ZM18.601715,18.168665c.057655.322205.088264.482605.152985.801849.026466.000137.041992.001526.04538.002579.071907.00119.107811.001923.179504.003647.095024.001022.22718.016724.394302.047134.019646.003632.029457.005447.049072.009109.020187-.129471.05587-.269058.108307-.418823-.367821-.183243-.553757-.272385-.92955-.445496ZM20.357758,17.420465c.125519.096039.343689.19664.65004.30835-.043381.022614-.067749.035233-.073151.038818-.093384.053268-.139969.08017-.232971.134476-.105179.0616-.180939.107788-.226501.139236-.007507.005173-.025177.018555-.052963.040222.435287.236893.649887.358917,1.072754.60968.345947.00647.517685.012939.858398.031967-.612091.382446-.912643.58519-1.500488,1.013702-.035248-.007751-.052902-.011597-.088242-.019226.539688-.39537.815125-.583344,1.375412-.939865-.275574-.012726-.414246-.01709-.693192-.021606-.450775-.264832-.679749-.393402-1.144562-.642426.053009-.056259.119919-.111084.200638-.166458.09903-.067917.213104-.136871.343277-.204529-.025421-.00946-.038147-.01416-.063599-.023575-.227966-.084671-.407883-.17662-.538818-.279404.045609-.007858.068405-.011719.113968-.019363Z"/><path class="cls-13" d="M23.985123,13.995401c-.012436.026627-.018616.039963-.03096.066605-.128647.286087-.193802.58078-.1987.882385-.037537-.025497-.065186-.042648-.083572-.054459-.200134-.12558-.379868-.181519-.535889-.16893-.155762.012573-.403763.102448-.737167.279358-.153458.081421-.334702.184845-.543442.310471.226181.399933.339249.599899.56543.999832.074631-.041702.112015-.062408.186905-.103516-.197449-.355392-.296173-.533081-.493637-.888474.148392-.094833.292755-.178909.433792-.253113.258667-.136093.461624-.212723.605301-.233932.143677-.021225.292801.002975.446487.073441-.036255-.001007-.061752-.002792-.077881-.003677-.212906-.01535-.361984-.011963-.445053.007858-.082474.019516-.232925.083038-.449234.19635-.065308.03421-.179092.098343-.341858.194275-.025101.014481-.037643.021744-.062698.036285.183334.332306.275009.498474.458359.830765.21582-.117569.324295-.175095.542297-.287659.070969-.235428.107925-.353134.184723-.588501.193863.384201.290817.576324.484695.960526-.225677-.074158-.339386-.110062-.568558-.179489-.321045.165756-.480423.251373-.796631.428085.275726.487549.413589.731323.689331,1.218887.070374-.039322.105621-.058838.176239-.09758-.249222-.448532-.373825-.672791-.623016-1.121307.251328-.137909.377777-.205139.632126-.336151.042542.007172.063766.010788.106201.018127-.255249.130463-.382172.197449-.634415.334854.235382.426605.353088.639923.588486,1.066544.375854-.204758.636063-.362289.776184-.486023.139114-.124344.224899-.271454.256363-.442932.021088-.110886.031921-.166367.054169-.277344.00145-.011505.004761-.03363.011017-.065781.129181.141495.253845.244186.3741.309448.120117.066391.295929.12674.524887.184799-1.275208.564957-1.898148.891006-3.097855,1.630249.10141-.198715.153412-.297821.259949-.495453-.228271-.382477-.342407-.573715-.570663-.956177-.150955.108521-.271606.232056-.361389.370209-.026993-.008209-.040512-.012314-.067566-.020447.075607-.133133.207321-.26886.395828-.405273-.024094-.040359-.036148-.060547-.060242-.100906-.034058.016708-.058044.028702-.070938.036362-.194504.115707-.338028.277252-.429047.480988-.05632-.279053.072952-.517563.388565-.704041-.218613-.366318-.327942-.549484-.54657-.915802-.243362.004562-.36557.008286-.610901.018631,1.278412-.787735,1.940964-1.137405,3.296448-1.748367ZM25.790192,16.677606c-.023438.107895-.034882.161835-.057175.269684-1.234406.536041-1.838043.845047-3.002777,1.544983-.031174-.012802-.046783-.019196-.078018-.031906,1.169907-.706177,1.776382-1.01796,3.016815-1.558884.012817-.074356.019363-.111526.0327-.185928-.362595-.084473-.656433-.209457-.876953-.384872.042252-.006088.06337-.009094.105591-.014984.196243.145065.463181.257324.798752.345459.024445.006546.036652.009842.061066.016449ZM23.654251,15.261469c.195602.395584.293411.593384.489014.988953-.035004.002655-.05249.004028-.087524.006805-.196777-.395004-.295166-.592514-.491928-.987518.036194-.003357.054276-.005005.090439-.00824ZM24.209412,14.086984c-.004974.01207-.007462.018082-.012421.030151-.14447.363129-.213989.647568-.218506.853958-.029755-.009399-.044647-.014099-.074463-.023422.025299-.296448.103912-.594086.239502-.889221.026367.011383.039551.017105.065887.028534Z"/><path class="cls-13" d="M29.012833,12.254724c-.149521.180252-.223053.270859-.367615.452911.269897.9879.404831,1.481857.674759,2.469772.179001.072998.267822.110245.444077.186188-.550598.138016-.824371.21434-1.367722.381653.129089-.161713.194717-.242172.32814-.402283-.19191-.643524-.287872-.965271-.479752-1.60878-.155334.950806-.216537,1.425735-.306412,2.371841-.111938.037033-.167831.055862-.279404.094147-.018295-.022247-.027451-.033386-.045792-.055618.101334-.034882.152084-.052063.253723-.085907.090302-1.00769.153732-1.513702.31752-2.52684-.043701-.146545-.065536-.219803-.109238-.366364-.191315,1.122116-.264206,1.682678-.36499,2.798248-.082047.027725-.123032.041748-.20488.07016-.589935-.647598-.896362-.964737-1.531326-1.583817.192612.491516.288925.737289.481552,1.228806.064606.164871.12326.275436.17749.333282.054245.057846.147522.108078.279892.15271.145355.067368.21756.101532.360992.170853-.604599.218048-.904114.336487-1.495926.592148-.031067-.015991-.046631-.023987-.077789-.039886.556412-.241776.837814-.354355,1.40564-.562927-.062119-.035538-.093292-.053223-.155807-.088409-.517838.19278-.774658.296036-1.28299.516373.019485-.020401.029236-.030579.048782-.050934.17067-.184265.27211-.336868.30101-.460831.02832-.123718.000732-.28981-.085297-.497772-.315521-.762772-.473282-1.14415-.788788-1.906906-.215561-.046112-.32399-.068146-.54213-.110107.662308-.280457.997391-.410309,1.673569-.649277-.145096.189865-.21637.285278-.356277.476883.661621.64502.98053.975632,1.593704,1.650925.01535-.096741.023209-.145142.039291-.241928-.549713-.597748-.834457-.890961-1.423096-1.464432.134949-.152435.203323-.228241.341888-.379028.033157.006714.049728.010101.082825.016907-.13385.138748-.199997.208542-.330704.348846.547699.541595.813187.817978,1.326843,1.380615.087799-.777756.142563-1.167709.273956-1.948364-.198196-.077454-.29805-.115356-.499207-.189423.67067-.209335,1.008896-.304016,1.689484-.473434ZM25.500671,13.997949c.267624.664322.401428.996475.669052,1.660797.102737.25502.203888.418045.303085.489624.099548.072479.253036.092392.461716.064774-.015778-.009995-.023666-.014984-.039474-.024948-.230392-.035049-.386368-.149277-.464447-.34671-.027191-.068787-.040787-.10318-.067993-.171967-.216858-.548447-.325287-.822662-.54213-1.371109-.127136-.120682-.19101-.180878-.319809-.300461ZM29.247498,12.397394c-.131241.115051-.196228.172943-.324966.289429.255768.971802.383636,1.457672.639435,2.429489.260727.1371.389389.20723.64325.350449-.63295.14856-.947586.232529-1.57132.419861-.024307-.020874-.036469-.031326-.060852-.052139.569473-.172043.856491-.249985,1.433746-.389755-.203415-.111649-.306213-.166534-.513947-.274277-.266785-1.001282-.400162-1.501892-.666916-2.503159.135208-.118256.203461-.176956.341293-.29361.032135.009445.048203.014175.080276.023712Z"/><path class="cls-13" d="M33.210403,11.519128c-.020035.021317-.030029.031998-.049988.053345-.210602.230453-.364166.488892-.463333.772873-.027206-.035995-.047775-.060989-.06131-.077988-.148346-.182175-.299362-.292007-.449554-.32959-.149948-.037521-.410538-.031143-.777969.029739-.169128.02803-.371048.067856-.605469.119598.086731.450195.130081.675278.216797,1.125458.082825-.015472.124237-.023056.207153-.037918-.073776-.398911-.110657-.598358-.184418-.997284.168442-.042114.329834-.075485.485092-.100693.28476-.046219.498947-.054291.640274-.028778.141312.025497.27356.095627.395615.210953-.033676-.012421-.057053-.022186-.071884-.028122-.194855-.08194-.335632-.126022-.419693-.133652-.083389-.007736-.244293.004608-.482269.042816-.071854.011536-.198456.035919-.380737.07457-.028015.005661-.042023.008514-.070007.014236.067764.372589.101654.558899.169434.931473.238663-.042084.358185-.061874.59761-.098953.140121-.200043.211578-.299637.357285-.497971.061401.425003.092102.637527.153503,1.062546-.188309-.141739-.28363-.211823-.476562-.350403-.352554.054596-.528488.084641-.879349.150177.105713.548813.158585.823227.264313,1.37204.078079-.014587.117142-.021729.195328-.035751-.093124-.503448-.139679-.755173-.232773-1.258621.278198-.049881.417603-.07309.696838-.116074.037598.020309.056351.030487.093811.050919-.279968.042252-.419724.065109-.698669.114304.087006.478317.130524.717499.217545,1.195831.415634-.073303.709503-.13942.87886-.212311.169037-.072754.295883-.185547.37915-.337921.054535-.098297.082077-.147385.137772-.245422.004959-.010437.015015-.03035.03096-.058823.076828.174774.161591.311386.253998.411102.091904.100769.237991.213348.434814.340378-1.375229.134171-2.060638.244827-3.410248.553253.156448-.154449.23584-.23111.396912-.383224-.094131-.434372-.14119-.651566-.235321-1.085922-.174805.053741-.325882.131226-.452637.232376-.022644-.016479-.033997-.024719-.056702-.041138.111938-.100998.277115-.18634.495682-.254272-.009933-.045853-.014893-.068771-.024826-.114609-.037033.004791-.063171.008362-.077606.011429-.217697.046417-.401917.152267-.550125.314713.034149-.281174.228867-.463943.581787-.538177-.090149-.416016-.135223-.624039-.225372-1.04007-.228775-.074127-.34404-.110077-.576248-.179718,1.438156-.328674,2.167908-.448822,3.632538-.600723ZM34.063446,14.627969c-.055954.09491-.083649.142426-.138489.237625-1.328308.120209-1.990616.221283-3.296127.505371-.025116-.022125-.037704-.033203-.062927-.055267,1.312164-.288071,1.977936-.390793,3.313324-.513611.035416-.066422.053238-.099594.089157-.165909-.314163-.193909-.550797-.404892-.702728-.640564.041565.007568.062332.011368.103821.019089.138702.199234.354095.389648.641754.578522.02092.01387.031357.020828.052216.034744ZM32.502777,12.613458c.059464.436325.089188.654495.148651,1.09082-.033661-.008575-.050491-.012833-.084198-.021301-.060745-.436142-.09111-.654236-.15184-1.090378.034988.008286.05246.012451.087387.020859ZM33.392273,11.676477c-.008469.009872-.012695.014801-.021133.024658-.249741.298584-.40419.545944-.473175.73996-.024979-.018311-.037476-.027451-.062531-.0457.116714-.27269.28389-.529739.503922-.766678.021194.019089.031784.028656.052917.04776Z"/><path class="cls-13" d="M39.462128,11.512766c-.023834.026047-.039276.044144-.047668.053116-.105301.109589-.157486.164612-.260971.275101-.089325.098648-.174973.224442-.25592.377319-.003067.004837-.004608.007248-.007675.012085-.012772-.008148-.019165-.012207-.031967-.02034-.002823-.013168-.004242-.01976-.00708-.032928-.048828-.194214-.131104-.33223-.246902-.414246-.115814-.082031-.299698-.131348-.550385-.145279-.102554-.005692-.205307-.00795-.308197-.005768-.016357-.000748-.024521-.001114-.040894-.001831-.049133,1.078598-.0737,1.617874-.122818,2.696487.141678.114944.211746.172867.350342.289597-.561569-.032211-.842834-.041092-1.405243-.044373.172958-.115402.260406-.172424.437134-.285034.022125-.99118.033203-1.486725.055359-2.47789-.096451-.002869-.144684-.00412-.24118-.00621-.233231-.003174-.399429.030258-.497528.097916-.098099.067673-.155304.186401-.171494.355484-.034912.000305-.052353.000488-.08725.000885.022583-.194595.08931-.330215.200714-.406921.111389-.076706.297348-.116302.556488-.112778.081741.002289.122589.003555.2043.006393.014969.000305.02243.000473.037399.000793.001083-.048828.001633-.073227.002731-.12204-.115784-.012268-.22644-.01889-.331787-.020004-.293884-.003143-.506729.041504-.63472.130707-.128677.088242-.197067.237076-.207169.444305-.016052.00029-.024063.000427-.040131.000732-.100494-.228638-.256317-.483276-.472794-.759354-.008728-.009872-.013092-.014786-.021835-.024658,1.659973-.057053,2.494064-.029312,4.147141.138733ZM38.716736,11.993814c-.166687-.096344-.367523-.15274-.600449-.16626-.05191-.003021-.106674-.003128-.163498-.001221-.048813,1.000031-.073471,1.500015-.123199,2.5.187119.197311.2789.296783.458923.497177-.622482-.044235-.934448-.057388-1.558304-.065735-.027878-.027328-.041855-.040985-.06987-.068237.586349.006332.879578.017395,1.464844.055328-.153442-.162628-.231384-.243393-.389694-.403809.053238-1.03656.07988-1.554825.133148-2.591385.073456.002472.110184.00383.18364.006744.220154.012283.375244.036835.464569.068665.089996.031876.156418.088898.19989.168732ZM39.660492,11.691766c-.173584.128494-.363083.352783-.564423.673569-.00618.009644-.009277.014435-.015457.024078-.027481-.021362-.041245-.032013-.068817-.053314.004745-.008591.007126-.012878.011887-.021484.196686-.32753.38356-.549622.555008-.666992.007599-.005096.011398-.007629.019012-.012711.025162.02272.03772.034088.06279.056854Z"/><path class="cls-13" d="M43.388931,12.173929c-.026169.013474-.039246.020248-.065353.033783-.277313.147705-.510117.340652-.700195.575623-.013474-.042892-.024414-.073212-.031418-.093704-.078217-.220566-.182663-.373993-.312454-.458679-.128922-.085526-.376831-.164505-.743866-.227982-.168945-.029205-.372757-.058075-.611099-.08638-.07103.45285-.106552.67926-.177582,1.132095.083237.01265.124832.019119.207993.032379.065842-.400253.09877-.600388.164612-1.000641.172989.015701.336426.037323.491364.064636.284164.05011.488998.112991.613693.183563.12471.070557.225723.180206.301788.329102-.027573-.022797-.046326-.039688-.058304-.050186-.156128-.141403-.274002-.229294-.350723-.264145-.076065-.034729-.232056-.076065-.469421-.118332-.071671-.012772-.19931-.031433-.384201-.054962-.028305-.003876-.04248-.005783-.070801-.009598-.062561.373474-.093842.560226-.156403.933685.239166.038818.358566.059479.596954.103317.200058-.142456.301285-.212814.506119-.351776-.086365.420792-.129547.63121-.215912,1.051987-.129578-.195572-.195709-.292999-.330627-.487106-.351028-.064529-.527039-.09407-.879745-.147659-.086594.552048-.129883.828079-.216461,1.380142.078491.011917.117706.018021.196106.030518.083099-.505142.124634-.757721.207733-1.262848.279022.044464.418304.06842.696259.119797.02858.031509.042816.047272.071213.078857-.278427-.052307-.417953-.076721-.697479-.122101-.080307.479462-.120468.719208-.200775,1.198669.416519.067612.716263.102005.900772.08905.184219-.012939.342255-.077469.47261-.193634.084885-.074677.127563-.111862.213455-.185913.00824-.008194.02449-.023651.049225-.045227.013199.190048.046875.346725.100296.471176.052597.125275.15239.279541.295288.464218-1.345581-.327545-2.029526-.447754-3.402939-.601044.199432-.094116.300079-.140244.50322-.230652.058701-.440369.088043-.660568.146744-1.100922-.182709-.006836-.351044.01651-.504501.070145-.015701-.02298-.023575-.034485-.039368-.057434.139465-.058365.3237-.084457.552383-.076614.006195-.046478.009293-.069717.015503-.116196-.036469-.00766-.062271-.012894-.076889-.01474-.220551-.027863-.429626.011322-.623978.115646.127365-.253754.372284-.361954.729507-.315857.056229-.421768.084351-.632675.140564-1.054443-.190125-.145096-.286346-.216888-.481064-.358932,1.463501.163345,2.192383.2892,3.628159.629318ZM43.139206,15.385309c-.085159.070938-.127502.106583-.2117.178162-1.296829-.325485-1.955963-.447266-3.280258-.608871-.016129-.029129-.024216-.043701-.040451-.0728,1.331787.16008,1.994705.281418,3.299042.606735.056061-.050903.084183-.076279.140686-.126907-.231216-.28653-.383133-.5634-.446625-.835602.036697.020844.055023.031281.091614.052246.063385.233505.202255.484009.410126.757034.01506.019989.022568.029984.037567.050003ZM42.348877,12.972009c-.092041.430817-.138062.646225-.230103,1.077026-.028854-.019165-.043304-.028717-.07225-.047791.090775-.431076.136169-.646606.226944-1.077682.030212.019348.045288.029022.075409.048447ZM43.50737,12.382242c-.011353.0065-.017014.00975-.028351.016266-.337494.198929-.567398.381165-.698456.54126-.017365-.025482-.026062-.038223-.043533-.063675.20285-.218521.448074-.40567.736542-.556335.013565.024979.020309.037491.033798.062485Z"/><path class="cls-13" d="M45.908432,12.888177c.590927.195892.884247.301636,1.465363.528839.616638.241074,1.0233.494553,1.223129.726669.253662.294647.315231.577438.189026.841507-.076813.160736-.203903.271652-.378113.335739-.175217.064697-.379471.074829-.616714.035095-.236267-.040375-.585861-.159195-1.055023-.342621-.150131-.058701-.225388-.087479-.376251-.143951-.172638.450958-.258957.676453-.431595,1.127411.103882.156311.154922.234695.255188.391968-.537003-.209885-.808151-.307312-1.354523-.487213.200592-.056686.301605-.084076.50499-.136856.13414-.377106.201202-.565643.335342-.942749-.023987-.010391-.041092-.017334-.051331-.020874-.147354-.050858-.297256-.073273-.44902-.069427-.005249-.020233-.007889-.03035-.013168-.050598.157211-.015594.290894-.003738.400101.033569.044174.015076.066238.022675.110352.037949.010284.002319.015411.003479.025696.005798.016388-.046066.024582-.069107.04097-.115189-.045563-.021011-.077026-.033875-.093399-.03949-.220566-.075729-.411774-.092911-.570343-.053452-.007736-.018097-.011597-.02713-.019363-.045227.183716-.136307.418503-.159149.698364-.062531.019989.006912.029999.010376.049973.017303.163788-.460388.245682-.690598.40947-1.151001-.117676-.168854-.177505-.253006-.299118-.42067ZM48.892227,14.354395c.106003.104004.170044.23175.191193.38063.021317.150055-.003555.295746-.073761.439026-.158966.324356-.441055.475418-.842178.465149-.303116-.007385-.756393-.145706-1.374847-.391113-.102478-.040665-.189041-.076416-.258728-.1064-.150925.383453-.226379.57518-.377304.958633.115494.24324.171341.365143.279327.609299-.571243-.232224-.860031-.339706-1.442413-.53743-.022583-.036179-.03392-.05426-.056702-.090393.549423.184616.822021.284561,1.361725.499741-.090851-.195068-.137497-.292465-.233231-.486862.163467-.419312.245193-.628952.408646-1.048248.173172.074417.358948.151505.556061.231628.519135.211044.929077.313599,1.242783.291031.313293-.021683.540665-.16893.67775-.450577.056976-.117065.081726-.230072.073822-.340027-.007706-.108795-.051254-.250809-.132141-.424088ZM46.882416,13.50448c-.178665.46669-.268005.700043-.446671,1.166718.01622.006073.024338.009109.040543.015198.031509.013107.047256.019684.078735.032898.008453.003204.022095.007339.041534.01265.161606-.414551.242416-.621826.404037-1.036392.140869.053726.211151.081039.351395.136612.271866.107742.455307.204758.55043.28624.09613.080826.158966.191971.188171.33371-.042648-.111313-.116013-.207809-.21907-.287262-.103287-.080612-.261459-.165512-.47522-.250824-.131119-.052338-.196808-.078094-.328476-.128799-.154236.39183-.231339.587738-.385574.979568.406586.15657.719681.236221.945892.227859.226044-.008362.383469-.10524.467651-.293808.094162-.210907.076904-.40274-.054657-.572678-.132172-.170197-.393539-.336746-.784973-.489349-.100693-.039261-.225311-.084076-.373749-.132339Z"/><path class="cls-13" d="M51.370621,15.303064c.492538.284805.801285.65976.917938,1.098282.116684.438675.02327.871658-.26326,1.297531-.270676.402283-.61673.633545-1.030106.709885-.413391.076355-.829391-.014587-1.265366-.267059-.344742-.199631-.604599-.456192-.785629-.781342-.266663-.478516-.282257-.977173-.019562-1.502518.224609-.449188.553619-.734207.997437-.839401.443802-.105179.933929-.012955,1.448547.284622ZM51.262375,15.488229c-.680206-.393341-1.26297-.131638-1.72757.741318-.429169.806412-.331894,1.36586.273621,1.715515.281891.162781.556061.187546.83075.072693.275223-.114517.539932-.366302.789902-.759842.283051-.445633.407089-.804413.363312-1.074295-.045837-.282547-.223938-.518417-.530014-.695389ZM52.262985,15.991266c.221344.275314.332825.585175.336227.922485.002853.336929-.103226.654404-.310013.954453-.304611.442001-.697998.69516-1.169083.779526-.471619.08519-.933182-.013596-1.408249-.291031-.303757-.177368-.542587-.419662-.723969-.732788.002426-.004486.003632-.006714.006058-.0112.155746.255066.400467.475098.735764.670502.449707.2621.894073.356522,1.352661.280106.458374-.076385.831802-.307175,1.10788-.710541.206375-.301514.318512-.610794.330505-.931427.012558-.320267-.078171-.624359-.272507-.906937.00589-.009262.008835-.013885.014725-.023148ZM51.707199,16.189844c-.014709-.020981-.022079-.031464-.03685-.052414-.142166-.190125-.295212-.332214-.454849-.425064-.524689-.305191-.999847-.066544-1.412781.688629-.301605.551544-.346832.999252-.149765,1.345825-.014984.00322-.022461.004837-.03743.008102-.124512-.206284-.181396-.414429-.168701-.625809.012161-.21167.09549-.462341.251816-.750702.440033-.811737.959595-1.064774,1.543732-.725189.2659.154572.420959.336182.464828.536621Z"/><path class="cls-13" d="M56.087906,18.792795c-.170471.003922-.3246.030075-.463181.077988-.272873.093048-.443024.148453-.515182.161407-.009216-.000168-.013824-.000244-.023026-.000381.004822-.020386.008514-.035263.011749-.045395.047333-.156754.073303-.270889.07901-.343033.005081-.071396-.00769-.155212-.038239-.250854-.078735-.241699-.227402-.449249-.442459-.619339-.198685-.157135-.395966-.24649-.588409-.267853-.192429-.021362-.333725.030411-.423111.150742-.166473.224121-.04509.546326.344238.983246.155655.17572.232544.264389.384369.443298.541199.635544.626083,1.153442.29834,1.51738-.182205.202347-.436646.281036-.75853.24472-.322525-.035568-.627792-.17598-.927475-.419449-.187347-.152222-.381256-.341995-.583176-.569489-.100845-.113174-.151703-.169418-.254288-.281158-.104034-.112106-.196701-.195969-.276306-.252945-.10495-.075134-.232788-.125687-.382355-.150635-.000534-.017059-.000809-.025574-.001358-.042633.393143-.106949.718735-.238205.972412-.401703.016174.018005.024261.027008.040405.045044-.116562.238617-.126007.482025-.033279.732986.092728.250977.2798.485428.562332.713211.222885.179718.430756.286804.626663.318253.195862.031448.352753-.017044.466782-.148941.131989-.152649.149994-.360413.047241-.61734-.073822-.184586-.295898-.486115-.679138-.885773-.296082-.307098-.482162-.570374-.553116-.798309-.070938-.227936-.034866-.446655.112656-.654282.152054-.214005.383102-.313263.695801-.288879.312134.025177.643539.169281.984146.4375.218994.17244.450607.40477.689835.697815.111984.138168.198135.234665.2612.289398.088486.076813.203094.139618.343796.190308.008682.014038.013.021057.021652.035095ZM55.0289,19.983774c.115829.333588.067841.611343-.133667.830566-.215424.23436-.516891.320358-.900009.274002-.383774-.045624-.741364-.209991-1.087524-.491608-.176208-.143341-.325485-.284866-.448013-.425507-.135834-.154144-.204544-.230576-.343582-.382095-.080383-.088943-.175385-.173096-.284836-.251846-.096893-.069717-.198044-.118515-.302292-.144852.00412-.032043.006165-.04805.010208-.080109.112213.029327.215805.077377.308014.143524.102798.073746.210617.171524.323502.292084.134094.146088.200409.219757.331543.368286.131241.147385.279831.288696.446884.424561.327377.266266.668625.419479,1.03418.460922.366653.041122.653198-.042267.856598-.265076.171692-.18808.234055-.435257.17923-.741882.003906-.004395.005859-.006592.009766-.010971ZM52.880493,18.140466c.02597.042404.038895.063644.064651.106125.001907.122559.128265.314087.371323.582718.146515.162445.218918.24437.36203.409637.243332.280563.390839.48288.451248.598206.060516.11554.077805.228088.051636.337387-.009628-.003128-.014435-.004669-.024063-.007782-.019211-.130127-.060486-.248764-.123642-.35405-.063644-.105713-.20343-.28656-.426376-.537796-.323029-.363388-.538803-.61293-.635391-.75972-.096603-.14679-.127167-.271271-.091415-.374725ZM52.735565,19.038766c-.114456.288544-.070938.584076.122849.895462-.004837.006165-.007263.009247-.012085.015411-.25737-.316422-.322739-.630417-.188858-.954224.03125.017273.046875.02594.078094.04335ZM55.077377,18.712869c-.071121-.315033-.224838-.568192-.457169-.752701-.139709-.110947-.279495-.172318-.416931-.185303s-.239975.02626-.308121.115982c-.074646.098297-.057999.268661.044464.513641.005585.010803.008362.01619.013916.026993-.01033.001877-.015488.002823-.025818.004715-.177689-.262741-.213364-.467148-.101288-.615753.078445-.104019.194031-.149704.347885-.13443.15332.014847.314545.087357.480652.219193.159042.126251.277435.261734.356415.405624.078445.143448.108917.280548.091217.410522-.010101-.003403-.015137-.005096-.025223-.008484ZM56.183243,19.019876c-.019806.002625-.029724.003967-.049515.006638-.149048.019577-.283829.046127-.404587.078918-.285614.073563-.444061.117645-.477997.124435-.009766.000839-.014648.001251-.024414.00209-.018677-.029266-.028046-.0439-.046814-.073135.01001-.00325.015015-.004868.02504-.008102.122269-.039185.290558-.083572.504333-.12973.159195-.034866.239075-.051743.399429-.084427.010925-.001236.016373-.001846.027313-.003067.018951.034531.028397.051804.047211.08638Z"/><path class="cls-13" d="M56.629868,19.252664c.499329.469543.743378.713028,1.218857,1.217468-.232819-.048859-.348984-.071777-.580643-.114624-.740417.730316-1.110626,1.095444-1.851013,1.82576.040298.192764.059479.289124.095947.48175-.417343-.441864-.63147-.655289-1.069351-1.067062.208908.038879.313644.059662.52359.103928.723648-.749802,1.085495-1.12468,1.809174-1.874481-.056091-.229111-.085403-.343689-.146561-.572739ZM57.857056,20.688089c-.174454-.039581-.261551-.058502-.43541-.09465-.731476.707977-1.097229,1.061951-1.82869,1.769928.017975.290237.024918.434967.034805.723434-.455963-.497681-.690796-.737244-1.172501-1.197754-.004654-.041855-.007019-.06279-.011856-.10466.452545.429901.673569.653,1.103714,1.115463-.011536-.233795-.018646-.350998-.035522-.585892.742493-.723633,1.113754-1.085434,1.856277-1.809067.192841.039276.289444.059952.483032.103439.002502.031906.003738.047852.006149.079758Z"/><path class="cls-13" d="M60.790939,24.1513c-.036285-.003067-.060715-.004272-.073349-.005478-.156189-.017197-.234131-.025177-.389755-.039932-.136795-.01059-.291565-.000015-.463531.032501-.005798.000595-.008682.000885-.014481.001495-.002747-.016174-.004135-.024231-.006912-.040405.007996-.011078.011978-.016617.019958-.027695.112778-.169327.159775-.329727.141052-.481094-.018707-.151382-.109604-.338135-.273834-.556107-.067184-.089172-.137115-.176025-.21048-.259903-.010849-.014053-.016266-.021057-.02713-.035095-.849533.669754-1.274307,1.004623-2.123795,1.674393.011887.193085.016953.28949.025345.481934-.367126-.489334-.556564-.726761-.946106-1.187164.207794.064957.311844.098892.520172.169724.764603-.63443,1.146912-.95163,1.911545-1.586044-.065079-.081009-.097778-.121338-.163452-.201584-.160187-.192764-.301285-.305756-.420807-.340851-.119507-.03508-.249115-.00322-.388214.094986-.024551-.028076-.036835-.042068-.061462-.070038.162842-.109848.311844-.145187.447449-.105316.13562.039856.295151.164734.473129.378906.055252.068314.082764.1026.137589.171463.010193.012466.015289.018707.025482.031189.037659-.03125.056488-.046875.094147-.07811-.071442-.103058-.143585-.197952-.216171-.284698-.202484-.24202-.38533-.384613-.541183-.429886-.155945-.045303-.316513-.003189-.480194.125092-.011398-.012772-.01709-.01915-.028503-.031891.102783-.231583.186691-.524811.244598-.880157.001389-.013504.002075-.020233.003448-.033737,1.199219,1.292862,1.760971,1.995544,2.785446,3.513504ZM59.907974,23.837854c-.043335-.203857-.140701-.409531-.292862-.612656-.033905-.045258-.071991-.090927-.113052-.136948-.789917.618271-1.185028.927185-1.97554,1.544647-.018692.285675-.029892.427917-.055878.711029-.400436-.551331-.608078-.818024-1.036636-1.333481.001205-.040771.001801-.061172.002853-.10199.403961.48291.600098.732285.97937,1.246811.015961-.235519.02269-.353714.033554-.590881.820602-.638641,1.230927-.957962,2.051575-1.596588.049332.062637.073914.094086.12291.157196.14418.191452.233734.337692.271927.433609.038635.096512.041824.190002.01178.279251ZM60.793793,24.438684c-.218002-.06337-.519547-.076492-.902313-.035355-.011597.001114-.01738.001663-.028976.002777-.003006-.037369-.004532-.056046-.00766-.09343.009811-.001663.014709-.002487.024536-.004135.384628-.049698.682693-.037537.890823.031143.00914.003128.013702.004684.022858.007828.000336.036484.000504.054703.000732.091171Z"/><path class="cls-13" d="M62.741577,27.483087c-.178986-.093811-.268478-.139557-.44754-.228775-.265732.430542-.401794.642685-.679977,1.060303.046417.044525.069595.06691.115906.111877.253174-.376434.377304-.567368.620392-.954407.183365.091583.275009.138565.458282.23497.008438.041718.012619.062576.02092.10434-.174866-.092056-.262314-.136978-.437271-.224655-.231812.365509-.350021.545944-.590836.901886.02739.020676.043106.03302.047684.035782.047256.033218.070892.049942.118103.083557.069077.051773.11525.083313.139252.095306-.1427.141632-.253036.306503-.331436.493835-.027222-.068634-.048904-.117584-.062698-.147232-.101334-.217621-.199371-.364044-.292404-.441299-.319473.461136-.483002.687607-.817215,1.131821-.014221.246124-.022583.368912-.041794.613876-.291824-.668381-.446609-.993729-.772369-1.62677.191528.119415.287155.18074.478119.306625.190048-.272842.283722-.410767.468246-.689575-.286041-.154388-.536301-.250259-.74823-.293732-.01001-.03183-.015045-.047729-.025146-.079514.208603.044662.467865.143448.776886.305023.014404.005798.021576.008698.03598.014526.026108-.045044.039139-.067596.065094-.112778-.279221-.183945-.559845-.30159-.839645-.359207.013031-.036438.019531-.054688.032455-.091202.060364-.176193.119812-.393097.174454-.65184.003281-.018692.004913-.028015.008163-.046722-.338135-.018005-.581558.023804-.734192.115112-.089737.053696-.153473.120728-.190475.200851-.036987.080124-.079559.245514-.133759.495102-.004684.021484-.012665.055023-.022903.100662-.365234-.650177-.557114-.965256-.957489-1.575348.007599-.037613.011368-.056442.018829-.094116.379578.57518.561951.871689.910355,1.482559.006226-.030884.009323-.046326.015472-.077255.039215-.198822.077225-.338516.116669-.417969.038956-.078354.101151-.143997.186508-.195496.145615-.087845.41095-.13559.800995-.132309.007538-.078415.011185-.117676.018204-.196259-.062363-.000168-.148788.005066-.261948.017166-.111206.011551-.166733.017578-.277634.030045-.148987.015366-.261978.047546-.338654.094528-.079163.048523-.133286.108322-.163406.177948-.02977.070206-.053925.193619-.073685.369125-.002029.017822-.005203.043427-.00972.078461-.347794-.598953-.529572-.889771-.907379-1.454086.281738.199371.559662.327698.838318.379822.277832.052658.651031.047791,1.123581-.007828.015091-.002197.022629-.003296.037735-.005478-.003006-.149658-.060303-.333435-.174911-.548035.185287.040024.360886.053314.52478.038559-.000458.040527-.00116.065735-.001175.075134-.001022.078888-.001663.118317-.003204.197067-.001785.067368.000504.14563.007935.2332.050903.000122.07637.000214.127319.000549-.000244-.020523-.000397-.030762-.000687-.0513.000092-.144257-.003433-.264252-.008484-.359619-.000931-.015182-.001419-.022766-.00238-.037949.030884.008713.046295.013107.077194.021942.018326.144089.025955.287262.021103.431931.422348-.01651.634613-.021255,1.06105-.023422.0186-.199142.027115-.298965.042572-.49913.359039.619431.531326.937393.860092,1.589813ZM61.759995,26.71676c-.483032-.009201-.723312-.008942-1.201157.0009-.018829.227173-.051132.430634-.095795.609726-.022888.089935-.034485.134827-.058029.224396-.000336.003448-.003891.019318-.010712.047577.023407.012253.03775.018173.041336.018631.024536.009888.036789.014862.061325.024826.009399.002975.025284.009735.048187.019196.075531-.23616.12056-.490692.132797-.762009.384811-.004669.57811-.003952.966248.003754.046509-.074615.069656-.112015.115799-.186996ZM61.589935,27.00834c-.332825-.007492-.498672-.008911-.829071-.007263-.003403.027847-.006714.04393-.008194.047287-.010086.075531-.015244.113266-.025803.188614-.01268.100143-.044739.236557-.095825.407272-.006042.020065-.009079.030075-.015167.05011.12851.049133.265442.117142.410812.20575.229706-.352188.342377-.530594.563248-.891769ZM62.14032,29.061136c-.112061.114182-.239456.328125-.388077.637161-.018036-.052948-.028061-.082611-.031082-.089386-.043442-.114899-.065414-.172119-.109848-.286194-.050446-.129074-.088562-.222015-.115189-.278732-.004395-.009338-.015915-.031616-.034683-.066727-.291168.417007-.439911.622055-.743286,1.024902-.04628.376785-.072388.564224-.130249.93692-.319931-.772369-.491653-1.147018-.856384-1.873306.012039-.036102.018036-.054169.029968-.090332.336624.666351.495987,1.009232.795029,1.714417.04422-.300949.064468-.452118.101135-.755692.320938-.429626.478012-.648544.785049-1.094147.050919.070251.098785.155365.14566.25592.05748.123352.114365.263733.168182.422134.012527-.025558.018784-.03833.031265-.063934.112244-.229004.226456-.403183.346008-.521576.002716.051422.003998.077148.0065.128571Z"/><path class="cls-6" d="M61.578004,40.859897c-.000122-13.917542-11.282471-25.19989-25.200012-25.19989s-25.199829,11.282349-25.199951,25.19989v.000122c0,3.464966,2.834961,6.299988,6.299988,6.299988h37.799988c3.465027,0,6.299988-2.835022,6.299988-6.299988v-.000122Z"/><g class="cls-30"><rect class="cls-10" x="56.255319" y="24.211816" width="5.980296" height="22.676392"/><rect class="cls-7" x="54.43617" y="22.231836" width="1.819149" height="23.939941"/><rect class="cls-16" x="20.606383" y="35.641809" width="30.287234" height="1.234787"/><rect class="cls-16" x="48.946809" y="17.731836" width="1.946809" height="17.909973"/><rect class="cls-16" x="20.06383" y="20.791833" width=".829787" height="16.084762"/><rect class="cls-21" x="50.893617" y="19.441827" width="2.489362" height="19.440002"/><rect class="cls-21" x="20.06383" y="36.876596" width="30.829787" height="2.005234"/><rect class="cls-21" x="17.893617" y="21.868188" width="2.170213" height="17.013641"/><rect class="cls-21" x="9.666" y="40.411814" width="40.525489" height="10.619995"/><path d="M25.393617,31.16383s-.340426-.776596-.095745-1.457447c0,0,1.095745.468085,1.148936.829787,0,0,.993943-.057747,1.085106-.042553,0,0,.43617-.816008,1.074468-.971834,0,0,.170213,1.173961.095745,1.280344,0,0,.297872.989992-.138298,1.59606,0,0,.62766,1.084791,3.957447,1.212451,0,0,2.180851-.234609,3.478723,2.297589,0,0,.085106.276879-.489362.510921,0,0-.329787.243591-1.297872.302647,0,0-1.978723,1.399481-6.074468-.111157,0,0-1.138298-.138298-2.659574-.37234,0,0-.776596-.244681-.882979-.882979,0,0,.606383-1.808511,1.351064-1.819149,0,0,.085106-.478723,0-.531915,0,0-.670213-.56383-.638298-.893617,0,0,.010638-.914894.085106-.946809Z"/><path d="M35.5,36.248936s-.085106.617021-.053191.691489.329787,1.957447,2.648936,2.829787c0,0,.361702.202128,0,.414894s-1.148936-.085106-1.148936-.085106c0,0-2.521277-1.978723-2.617021-3.56383l1.170213-.287234Z"/><path class="cls-28" d="M15.042542,36.641809l.534241,6.219238c0,.342834.960632.620728,2.14563.620728s2.145569-.277893,2.145569-.620728l.536255-6.219238h-5.361694Z"/><ellipse class="cls-7" cx="17.7224" cy="36.64" rx="2.948936" ry=".549583"/><path class="cls-7" d="M20.671326,36.639978h-5.897888v.991821h.001038c0,.303528,1.320251.549561,2.948914.549561s2.948975-.246033,2.948975-.549561l-.001038-.991821Z"/><ellipse class="cls-10" cx="17.723404" cy="36.641809" rx="2.680851" ry=".499621"/><path class="cls-13" d="M24.228723,42.841791s8.202128-.629974,9.303191-.359985c0,0,.734043.186024.606383.449982,0,0,1.244681.55119,1.196809.990021l.175532,2.159973h-8.952128l-2.329787-3.23999Z"/><path d="M26.510638,45.631799s-.670213-1.584976-1.117021-1.531792c0,0-.079787-.901802-.62234-.901802l-.542553-.356415v.446442l1.898936,2.343567.640095.720032-.257116-.720032Z"/><polyline points="26.558511 46.081781 35.510638 46.081781 35.510638 46.441827 26.819149 46.441827 26.28767 45.811792"/><path d="M56.893617,45.493617s-.529959-16.058197,2.990339-15.341813l3.026044,9.896377-1.350018,6.033585-4.666365-.588149Z"/><path class="cls-1" d="M19.510638,15.931787s16.425532,4.43817,32.638298,0"/><polygon class="cls-18" points="25.307139 21.871993 20.446809 21.061965 20.446809 16.201634 25.307139 17.011662 25.307139 21.871993"/><polygon class="cls-20" points="31.004633 22.588362 26.144303 22.093352 26.144303 17.233021 31.004633 17.728032 31.004633 22.588362"/><polygon class="cls-22" points="36.72 22.749442 31.859669 22.636931 31.859669 17.7766 36.72 17.889111 36.72 22.749442"/><polygon class="cls-23" points="42.504633 22.588362 37.644303 22.805697 37.644303 17.945366 42.504633 17.728032 42.504633 22.588362"/><polygon class="cls-9" points="48.057825 21.781996 43.197494 22.427041 43.197494 17.56671 48.057825 16.921666 48.057825 21.781996"/><path class="cls-16" d="M42.319149,33.211816l1.223404-1.170013s.521277-.163719.819149.266388l.148936.179993-1.255319,1.263611s-.925532-.247311-.93617-.539978Z"/><path class="cls-21" d="M47.87766,27.796809s.824468.590426.739362,1.526596h.989362s1.138298.197666,1.117021,1.008407c0,0,.089508.285864-.489362.266388,0,0-1.248745-.063674-2.56383,1.50527-.680693.812091-1.528473,1.993797-1.914894,3.991212,0,0-.050117.803807-.257013,1.347147-.148903.391041-.443287.574425-.556817.567747,0,0-.567589-.032889-.75-.845745-.047735-.212717-.170567-.471285-.175532-.805621,0,0-.071809-.236128-.510638-.359985s-.390957-2.209394-.390957-2.209394l.981383-1.316489s2.952128-2.909459,2.792553-3.702128c0,0,.106383-.38544.989362-.973404Z"/><polygon class="cls-15" points="29.393617 45.448206 29.680851 44.780851 29.904255 44.998224 29.393617 45.448206"/><polygon points="29.904255 44.998224 33.648936 40.048181 33.382979 39.868188 29.680851 44.780851 29.904255 44.998224"/><polygon class="cls-15" points="33.206392 40.102516 33.467553 40.287949 33.648936 40.048181 33.382979 39.868188 33.970463 39.182728 34.126658 39.290864 33.724155 39.868188 33.850313 39.958185 33.309637 40.714643 33.206392 40.633174 33.417772 40.3602 33.165174 40.157212 33.206392 40.102516"/><path class="cls-25" d="M42.579787,34.288232l.023936.402193-.574468.327128s-2.481383-.115221-2.768617-.005749l-.409574-.179993-1.18617-1.26001s.223404-1.440002.414894-1.440002h.462766l.06383.101179s.335106-.202359.462766-.101179.398936.093915.510638.536377l1.898936-.068176.654255.957637s.558511.007024.446809.730596Z"/><path class="cls-25" d="M29.925532,42.481805c1.12766-.626373,1.861702-.573295,1.957447-.562656s1.542553,1.18903,1.542553,1.18903l.882979.587566.595745.797872-.978723,1.787234c.06383-.427364-1.180851-.922642-1.180851-.922642.042553.449982-.148936.539663-.148936.539663-.62766.159574-1.106383-.08608-1.106383-.08608-.085106,0-.191489-.243707-.191489-.243707l-.297872-.209876s-.074468.326897-.159574.27359-.680851-.899963-.680851-.899963l-.117021-.540039s-.06383.089054-.202128.227352-.223404.042553-.223404.042553c.06383-.319149.212766-.539894.212766-.539894.095745-.007979.095745-1.396276.095745-1.396276"/><path class="cls-26" d="M44.87766,37.97766s-.62234-.269444-.638298-1.165868-.765957-.903564-.765957-.903564c.015957-.179993-.574468-2.041873-.606383-2.156433s-.321419.089996-.321419.089996c.207447.969058-.572198,1.080017-.572198,1.080017h-1.875287l-.03143.042807-.034647.047189s.569024.536438.648811.896423-.079787.179993-.079787.179993c0,0-.81383.706073-.734043,1.353607,0,0-.095745.622772-1.691489,2.156372,0,0-.654255.626373-.606383,1.709991s.654255,2.340027.654255,2.340027l1.882979.27359,4.771277-3.149994,1.452128-3.063599-.526596-1.26001s-.558511,1.26001-.638298,1.350006-.287234.179448-.287234.179448Z"/><path class="cls-19" d="M45.555538,36.874079c-.283372-.507336.399249-1.347451.51893-2.51876,0,0,1.914894-4.390756,4.531915-3.75712,0,0,1.835106,1.709991,2.12234,1.709991s2.728723,4.743937,3.510638,7.456703.861702,3.703331.861702,3.703331l-5.297872,2.613556-.473191,1.349991s-1.920426-.275386-2.191702-.273575-12.382979,0-12.382979,0l-.382979-.531601-2.058511.08162s-1.30759-.009523-1.227803-1.19518c0,0,.066322.034325.217603.100732.100214.04399.209148.138386.291364.183229.202476.110437.373499.205423.373499.122337,0-.179993,1.028499-1.461179-.407671-2.721128,0,0,1.104072.695038,2.731731.450012,0,0-.031915-.363242.382979-.359985s.845745.543579.845745.543579c0,0,4.340426-.720032,4.308511-1.080017s.62234-.449667.62234-.449667c0,0,2.916707-3.414894,2.639204-3.606383,0,0,.599531-1.579386.464206-1.821666Z"/><path class="cls-24" d="M37.06383,28.441827s1.680851,1.263527,1.723404,1.529999c0,0,.255319.720032-.212766,1.350006,0,0-.052488.269989.282267.449982,0,0,.185818.179993.377308.179993,0,0,.361702.805822.978723.71637,0,0-.148936.180054,0,.180054s.489362.363586.489362.363586c0,0-.106383.359985,1.276596.179993,0,0,.170213.363586,1.744681-1.26001,0,0,.319149-.183594.574468.176392,0,0,2.523936-1.937508,2.821808-2.837472l-.098404-.312522-5.574468-4.766388-3.340426.179993-1.87234,2.160034.829787,1.709991Z"/><path d="M35.680851,28.888208h1.021277l.361702-.179993-.148936-1.350006.425532,1.083618h.191489l-.212766-1.353607.531915,1.263611h.510638c.212766-.092257.297872-.180054.297872-.180054l.148936-.089996s.06383-.067055.191489-.093567.106383-.176422.212766-.176422h.106383s-.191489-1.619995-.148936-1.529999.468085,1.166412.468085,1.166412l.212766.543579c.12766,0,.212766-.000061.276596.179993s-.042553.144651.06383.180054.297872.089996.297872.089996c0,0,.085106-.05179.212766,0s.191489.128203.255319.089996l.06383-.038207,5.276596.66458s1.446809.093658,2.148936-2.426361-3.553191-5.490021-3.553191-5.490021c0,0-1.574468-1.353607-3.12766-1.173615,0,0-.425532.183655-.340426.723633s-2.425532.71637-2.425532.71637l-1.170213.089996s-1.659574,1.166351-1.638298,1.889984-.021277,1.116999-.021277,1.116999c0,0-1,1.226568-.957447,1.676611,0,0-.468085,2.786407.468085,2.606415Z"/><ellipse class="cls-13" cx="44.106383" cy="28.204624" rx="2.489362" ry="2.75356"/><path class="cls-13" d="M43.042553,25.831812l.893617-.183594s-.06383-1.076416-.340426-1.076416-.276596-.178851-.914894.179993l.361702,1.080017Z"/><path class="cls-13" d="M42.042553,25.468225s-1.297872-3.78363-3.191489-3.960022c0,0,.170213-.716431,2.191489-.896423,0,0,2.425532,1.26001,3.276596,4.140015,0,0-.744681.536438-2.276596.716431Z"/></g><path class="cls-3" d="M61.559982,40.86349c-.000122-13.917542-11.282471-25.19989-25.200012-25.19989s-25.199829,11.282349-25.199951,25.19989v.000122c0,3.464966,2.834961,6.299988,6.299988,6.299988h37.799988c3.465027,0,6.299988-2.835022,6.299988-6.299988v-.000122Z"/><ellipse class="cls-6" cx="16.956" cy="48.960007" rx="8.1" ry="5.4"/><ellipse class="cls-19" cx="16.956" cy="48.960007" rx="7.29" ry="4.86"/><text class="cls-14" transform="translate(11.52829 51.94829)"><tspan x="0" y="0">25</tspan></text><ellipse class="cls-6" cx="55.62" cy="48.931785" rx="8.1" ry="5.4"/><ellipse class="cls-19" cx="55.62" cy="48.931785" rx="7.29" ry="4.86"/><text class="cls-14" transform="translate(50.219307 52.055419)"><tspan x="0" y="0">25</tspan></text><text class="cls-12" transform="translate(28.635284 53.849772)"><tspan x="0" y="0">KOIN</tspan></text><path class="cls-8" d="M14.553191,33.195745c-.638298-.319149-3.234043,1.978723-3.234043,1.978723,0,0,2.829787-1.218546,3.148936-1.332677s.085106-.539663.085106-.539663"/><path class="cls-27" d="M11.319149,35.174468s2.12766-2.555934,3.255319-2.416265l.787234-.005523-.808511.443064s-.595745-.297872-3.234043,1.978723Z"/><path class="cls-27" d="M15.212766,32.195745c-1.829787-.914894-2.659574.926075-2.659574.926075,0,0,1.382979.691576,2.808511-.723633l-.148936-.202443Z"/><path class="cls-27" d="M11.446809,30.365957s.765957.319149,2.702128.489362c0,0-.236405-.871652-1.171394-1.063486s-1.658393.539978-1.658393.539978"/><path class="cls-8" d="M15.446809,31.681818s-.06383-.869052-.638298-.954158-1.212766.404255-1.212766.404255c0,0,1.047523.013872,1.593331.505348.016031.014436.03163.029283.046757.044555"/><path class="cls-8" d="M16.042553,35.834043c-1.161911-.632216-1.527931-.143097-1.627026.074047-.024298.053243-.032548.090135-.032548.090135,0,0-.570888-.523999.852854-.716431s.806721.552249.806721.552249Z"/><path class="cls-8" d="M18.87234,34.876596s1.765957-1.01556,2.212766-1.124801c0,0-1.404255-.470943-2.212766,1.124801Z"/><path class="cls-8" d="M19.297872,34.046809s3.191489-2.680851,4.085106.829787c0,0-.829787-2.617021-4.085106-.829787Z"/><path class="cls-27" d="M20.093851,28.441827s-.157681-.271024-.115128-.450043c0,0-.406674.34592-.799082.360046l.91421.089996Z"/><path class="cls-8" d="M20.093851,28.441827c-1.799766-.690088-2.136404,1.668811-2.136404,1.668811.446809.12766.638298.957447.638298.957447,0,0,.340426-1.524909.957447-1.773093,0,0,.224589-.196464.319149-.546056s.221511-.307109.221511-.307109Z"/><path class="cls-8" d="M23.659574,29.294992s-1-1.84198-2.319149-.406784c0,0-1.025064.882693-1.246574.903625h-.795979s.425532-1.231583,1.382979-1.350006c0,0,.787234-.154861.797872-.360046,0,0,2.031915-.325839,2.180851,1.213211Z"/><rect class="cls-8" x="18.201692" y="31.016533" width=".226558" height="5.340763" transform="translate(14.107503 -4.425335) rotate(22.232375)"/><path class="cls-27" d="M25.93617,30.855319c-2.893617-3.021277-5.191489.957447-5.191489.957447,0,0,.297872-1.879837,2.446809-2.290983s2.744681,1.333536,2.744681,1.333536Z"/><path class="cls-8" d="M21.340426,34.198206c.382979-.040092.680851-1.917355.680851-1.917355,0,0-2.255319-1.404255-2.531915-1.322666s-.386766,1.173615-.386766,1.173615c0,0,1.705915-.297757,1.854851-.170097,0,0,.787234,1.104036.521277,1.520103l-.138298.7164Z"/><path class="cls-8" d="M21.085106,31.4136s1.510638-.366791,2.957447.888528c0,0-.744681-1.713226-2.957447-.888528Z"/><path class="cls-8" d="M23.12766,33.238298c-1.319149-1.489362-3.06383-.622544-3.06383-.622544,0,0,.212766-.633006,1.414894-.483954s1.648936,1.106499,1.648936,1.106499Z"/><path class="cls-8" d="M15.723404,34.558221c-.574468-.318374-1.975144.089996-1.975144.089996,0,0,.297872-.408112.987572-.366463s.987572.276466.987572.276466Z"/><path class="cls-8" d="M22.382979,35.66383c-.680851-2.12766-3.203337-.742022-3.203337-.742022,0,0,.777805.039894,1.267167-.045212,0,0,1.170213-.291815,1.489362.194518s.446809.592716.446809.592716Z"/><path class="cls-27" d="M16.929169,26.551782s.730406.856728-.333424,2.878005l.577966,1.078416s.769733-3.68549-.244542-3.956421Z"/><rect class="cls-27" x="16.595745" y="29.429787" width=".555722" height="7.358891"/><path class="cls-8" d="M15.914894,29.759777s-.212766-1.643024.446809-1.677996c0,0,.539188.738881.567467,2.426422l-1.014275-.748426Z"/><rect class="cls-8" x="17.865729" y="31.676808" width=".106383" height="5.042795" transform="translate(19.499783 -4.37777) rotate(30)"/><polygon class="cls-8" points="17.247898 36.509608 17.038761 36.520617 15.914894 29.759777 16.926496 30.404202 17.247898 36.509608"/><rect class="cls-8" x="17.464877" y="30.132779" width=".788057" height="6.551696" transform="translate(5.177995 -2.288311) rotate(8.57019)"/><polygon class="cls-8" points="19.187865 36.532314 18.418638 36.430436 19.297872 29.791833 20.093851 29.69172 19.187865 36.532314"/><rect class="cls-27" x="17.261527" y="30.237823" width=".170213" height="6.377155" transform="translate(44.419194 59.604759) rotate(161.465026)"/><rect class="cls-27" x="19.701146" y="30.293228" width=".170213" height="6.377155" transform="translate(20.180747 72.371026) rotate(-150)"/><rect class="cls-27" x="17.763134" y="26.672912" width=".169567" height="10.029039" transform="translate(30.774457 65.680755) rotate(-171.42981)"/><rect class="cls-27" x="18.314472" y="35.712247" width="1.028868" height=".118177" transform="translate(48.052268 63.701808) rotate(161.465026)"/><path class="cls-27" d="M13.748261,29.759777s.890037.627457,1.443229.627457,1.531915,1.294584,1.531915,1.294584c0,0,0-2.188201-1-2.273307,0,0-.93617-.394244-1.404255-.250314s-.570888.60158-.570888.60158Z"/><rect class="cls-27" x="15.356849" y="30.162577" width=".459556" height="6.778152" transform="translate(46.58511 53.744483) rotate(147.998278)"/><rect class="cls-27" x="16.919226" y="31.565795" width=".197782" height="5.620706" transform="translate(52.655434 48.564788) rotate(138.047464)"/><rect class="cls-8" x="16.292496" y="35.562361" width=".226349" height="1.051719" transform="translate(52.732057 51.959556) rotate(138.047464)"/><polygon class="cls-8" points="17.016813 36.633324 17.904236 36.75122 15.623255 34.47024 14.735832 34.352344 17.016813 36.633324"/><path class="cls-27" d="M19.106383,35.641809s1.723404.383723,1.978723,1.128404c0,0-.255319-1.191489-1.170213-1.297872s-.808511.169469-.808511.169469Z"/><rect class="cls-8" x="16.103002" y="31.434394" width=".226558" height="5.340763" transform="translate(-10.766223 7.684179) rotate(-20.172496)"/><rect class="cls-27" x="19.216523" y="26.669095" width=".130213" height="9.884084" transform="translate(35.985772 64.656815) rotate(-175.434327)"/><rect class="cls-8" x="18.956763" y="32.143698" width=".106383" height="4.790841" transform="translate(19.81641 -4.877613) rotate(30)"/><rect class="cls-8" x="16.602992" y="34.729131" width="3.657199" height=".314175" transform="translate(-20.996556 33.405335) rotate(-60)"/><rect class="cls-8" x="18.006423" y="31.354749" width=".226558" height="5.340763" transform="translate(19.440145 -4.501348) rotate(30)"/><rect class="cls-8" x="17.340153" y="31.681962" width=".226558" height="5.340763" transform="translate(-10.775708 8.125994) rotate(-20.172496)"/><polygon class="cls-27" points="17.679243 36.678999 17.831755 36.604882 13.381851 27.448206 13.295623 27.658716 17.679243 36.678999"/><circle class="cls-10" cx="16.595745" cy="36.75122" r=".151507"/><circle class="cls-10" cx="16.747252" cy="36.770213" r=".151507"/><circle class="cls-10" cx="16.975195" cy="36.721796" r=".151507"/><circle class="cls-10" cx="17.126702" cy="36.721796" r=".151507"/><circle class="cls-10" cx="17.346634" cy="36.721796" r=".151507"/><circle class="cls-10" cx="17.623924" cy="36.811792" r=".151507"/><circle class="cls-10" cx="17.858906" cy="36.721796" r=".151507"/><circle class="cls-10" cx="18.119702" cy="36.631799" r=".151507"/><circle class="cls-10" cx="18.27121" cy="36.873303" r=".151507"/><circle class="cls-10" cx="18.418638" cy="36.75122" r=".151507"/><circle class="cls-10" cx="18.314971" cy="36.631799" r=".151507"/><circle class="cls-10" cx="18.431591" cy="36.503772" r=".151507"/><circle class="cls-10" cx="18.805616" cy="36.520617" r=".151507"/><circle class="cls-10" cx="18.974842" cy="36.532314" r=".151507"/><circle class="cls-10" cx="19.179642" cy="36.532314" r=".151507"/><path class="cls-31" d="M18.119702,24.211816s.007639,2.52002.346777,2.52002l.11662.071418.222518-.071418c1.352563-1.259949-.642152-2.610016-.642152-2.610016"/><ellipse class="cls-17" cx="18.583099" cy="26.103616" rx=".208872" ry=".676788"/><path class="cls-31" d="M19.425532,22.860979s-.042553.787234.914894,1.87234c0,0,.356965.767598-.608194,1.973674-.030491.038102-.062302.009234-.095485.048201,0,0-.031114.021603-.077442-.069554-.204677-.402731-.706308-1.690664-.133772-3.824661Z"/><ellipse class="cls-17" cx="19.636746" cy="26.00607" rx=".257235" ry=".676788" transform="translate(-1.430809 1.144943) rotate(-3.222418)"/><path class="cls-31" d="M13.441489,27.541489c-.143617-2.154255-1.228723-2.952128-1.228723-2.952128,0,0-.734043,2.179762,1.117021,3.132434l.111702-.180306Z"/><path class="cls-17" d="M13.257927,26.999964c.159137.338211.203527.6522.099147.701313s-.122359-.260048-.281496-.598259-.399169-.577399-.29479-.626512.318002.185247.477139.523458Z"/></g></svg>