<?xml version="1.0" encoding="UTF-8"?><svg id="Layer_2" xmlns="http://www.w3.org/2000/svg" viewBox="0 0 63.360015 72"><defs><style>.cls-1{fill:#69bc46;}.cls-2{fill:#fff;}.cls-3{fill:#cecece;}.cls-4{fill:#fcd588;}.cls-5{fill:red;}.cls-6{stroke-width:.1px;}.cls-6,.cls-7,.cls-8,.cls-9{stroke-miterlimit:10;}.cls-6,.cls-9{fill:#dc143c;stroke:#003893;}.cls-7,.cls-10{fill:#d3a150;}.cls-7,.cls-11{stroke:#f4f1e9;stroke-width:.5px;}.cls-12{fill:#c4c4c4;}.cls-8{fill:none;stroke:#000;}.cls-8,.cls-9{stroke-width:.25px;}.cls-13{fill:#0019ff;}.cls-14,.cls-11{fill:#f4f1e9;}.cls-15{fill:#ffce00;}.cls-16{fill:#ccb789;}.cls-11{stroke-linejoin:round;}</style></defs><g id="Pouta_Moci-Kolin"><g id="Outer"><path class="cls-3" d="M63.360015,70v-2c-1.104553,0-2-.895447-2-2,0-1.104614.895447-2,2-2v-2c-1.104553,0-2-.895447-2-2,0-1.104614.895447-2,2-2v-2c-1.104553,0-2-.895447-2-2,0-1.104614.895447-2,2-2v-2c-1.104553,0-2-.895447-2-2,0-1.104614.895447-2,2-2v-2c-1.104553,0-2-.895447-2-2,0-1.104614.895447-2,2-2v-2c-1.104553,0-2-.895447-2-2,0-1.104614.895447-2,2-2v-2c-1.104553,0-2-.895447-2-2,0-1.104614.895447-2,2-2v-2c-1.104553,0-2-.895447-2-2,0-1.104614.895447-2,2-2v-2c-1.104553,0-2-.895447-2-2,0-1.104614.895447-2,2-2v-2c-1.104553,0-2-.895447-2-2,0-1.104614.895447-2,2-2v-2c-1.104553,0-2-.895447-2-2,0-1.104614.895447-2,2-2v-2c-.526672,0-1.041809-.213379-1.414246-.585815-.372375-.372375-.585754-.887512-.585754-1.414185h-2.264038c0,1.104553-.895386,2-2,2-1.104553,0-2-.895447-2-2h-2.263977c0,1.104553-.895447,2-2,2s-2-.895447-2-2h-2.263977c0,1.104553-.895447,2-2,2-1.104614,0-2-.895447-2-2h-2.264038c0,1.104553-.895386,2-2,2-1.104553,0-2-.895447-2-2h-2.263977c0,1.104553-.895447,2-2,2s-2-.895447-2-2h-2.263977c0,1.104553-.895447,2-2,2-1.104614,0-2-.895447-2-2h-2.264038c0,1.104553-.895447,2-2,2s-2-.895447-2-2h-2.263977c0,1.104553-.895447,2-2,2s-2-.895447-2-2h-2.263977c0,1.104553-.895447,2-2,2-1.104614,0-2-.895447-2-2h-2.264038c0,.526672-.213379,1.041809-.585754,1.414185-.372437.372437-.887573.585815-1.414246.585815v2c1.104553,0,2,.895386,2,2,0,1.104553-.895447,2-2,2v2c1.104553,0,2,.895386,2,2,0,1.104553-.895447,2-2,2v2c1.104553,0,2,.895386,2,2,0,1.104553-.895447,2-2,2v2c1.104553,0,2,.895386,2,2,0,1.104553-.895447,2-2,2v2c1.104553,0,2,.895386,2,2,0,1.104553-.895447,2-2,2v2c1.104553,0,2,.895386,2,2,0,1.104553-.895447,2-2,2v2c1.104553,0,2,.895386,2,2,0,1.104553-.895447,2-2,2v2c1.104553,0,2,.895386,2,2,0,1.104553-.895447,2-2,2v2c1.104553,0,2,.895386,2,2,0,1.104553-.895447,2-2,2v2c1.104553,0,2,.895386,2,2,0,1.104553-.895447,2-2,2v2c1.104553,0,2,.895386,2,2,0,1.104553-.895447,2-2,2v2c.526672,0,1.041809.213379,1.414246.585754.372375.372437.585754.887573.585754,1.414246h2.264038c0-1.104614.895386-2,2-2,1.104553,0,2,.895386,2,2h2.263977c0-1.104614.895447-2,2-2s2,.895386,2,2h2.263977c0-1.104614.895447-2,2-2,1.104614,0,2,.895386,2,2h2.264038c0-1.104614.895386-2,2-2,1.104553,0,2,.895386,2,2h2.263977c0-1.104614.895447-2,2-2s2,.895386,2,2h2.263977c0-1.104614.895447-2,2-2,1.104614,0,2,.895386,2,2h2.264038c0-1.104614.895386-2,2-2,1.104553,0,2,.895386,2,2h2.263977c0-1.104614.895447-2,2-2s2,.895386,2,2h2.264038c0-1.104614.895386-2,2-2,1.104553,0,2,.895386,2,2h2.263977c0-.526672.213379-1.041809.585754-1.414246.372437-.372375.887573-.585754,1.414246-.585754Z"/><path class="cls-14" d="M62.640015,70v-2c-1.104553,0-2-.895447-2-2,0-1.104614.895447-2,2-2v-2c-1.104553,0-2-.895447-2-2,0-1.104614.895447-2,2-2v-2c-1.104553,0-2-.895447-2-2,0-1.104614.895447-2,2-2v-2c-1.104553,0-2-.895447-2-2,0-1.104614.895447-2,2-2v-2c-1.104553,0-2-.895447-2-2,0-1.104614.895447-2,2-2v-2c-1.104553,0-2-.895447-2-2,0-1.104614.895447-2,2-2v-2c-1.104553,0-2-.895447-2-2,0-1.104614.895447-2,2-2v-2c-1.104553,0-2-.895447-2-2,0-1.104614.895447-2,2-2v-2c-1.104553,0-2-.895447-2-2,0-1.104614.895447-2,2-2v-2c-1.104553,0-2-.895447-2-2,0-1.104614.895447-2,2-2v-2c-1.104553,0-2-.895447-2-2,0-1.104614.895447-2,2-2v-2c-.526672,0-1.041809-.213379-1.414246-.585815-.372375-.372375-.585754-.887512-.585754-1.414185h-2.264038c0,1.104553-.895386,2-2,2-1.104553,0-2-.895447-2-2h-2.263977c0,1.104553-.895447,2-2,2s-2-.895447-2-2h-2.263977c0,1.104553-.895447,2-2,2-1.104614,0-2-.895447-2-2h-2.264038c0,1.104553-.895386,2-2,2-1.104553,0-2-.895447-2-2h-2.263977c0,1.104553-.895447,2-2,2s-2-.895447-2-2h-2.263977c0,1.104553-.895447,2-2,2-1.104614,0-2-.895447-2-2h-2.264038c0,1.104553-.895447,2-2,2s-2-.895447-2-2h-2.263977c0,1.104553-.895447,2-2,2s-2-.895447-2-2h-2.263977c0,1.104553-.895447,2-2,2-1.104614,0-2-.895447-2-2h-2.264038c0,.526672-.213379,1.041809-.585754,1.414185-.372437.372437-.887573.585815-1.414246.585815v2c1.104553,0,2,.895386,2,2,0,1.104553-.895447,2-2,2v2c1.104553,0,2,.895386,2,2,0,1.104553-.895447,2-2,2v2c1.104553,0,2,.895386,2,2,0,1.104553-.895447,2-2,2v2c1.104553,0,2,.895386,2,2,0,1.104553-.895447,2-2,2v2c1.104553,0,2,.895386,2,2,0,1.104553-.895447,2-2,2v2c1.104553,0,2,.895386,2,2,0,1.104553-.895447,2-2,2v2c1.104553,0,2,.895386,2,2,0,1.104553-.895447,2-2,2v2c1.104553,0,2,.895386,2,2,0,1.104553-.895447,2-2,2v2c1.104553,0,2,.895386,2,2,0,1.104553-.895447,2-2,2v2c1.104553,0,2,.895386,2,2,0,1.104553-.895447,2-2,2v2c1.104553,0,2,.895386,2,2,0,1.104553-.895447,2-2,2v2c.526672,0,1.041809.213379,1.414246.585754.372375.372437.585754.887573.585754,1.414246h2.264038c0-1.104614.895386-2,2-2,1.104553,0,2,.895386,2,2h2.263977c0-1.104614.895447-2,2-2s2,.895386,2,2h2.263977c0-1.104614.895447-2,2-2,1.104614,0,2,.895386,2,2h2.264038c0-1.104614.895386-2,2-2,1.104553,0,2,.895386,2,2h2.263977c0-1.104614.895447-2,2-2s2,.895386,2,2h2.263977c0-1.104614.895447-2,2-2,1.104614,0,2,.895386,2,2h2.264038c0-1.104614.895386-2,2-2,1.104553,0,2,.895386,2,2h2.263977c0-1.104614.895447-2,2-2s2,.895386,2,2h2.264038c0-1.104614.895386-2,2-2,1.104553,0,2,.895386,2,2h2.263977c0-.526672.213379-1.041809.585754-1.414246.372437-.372375.887573-.585754,1.414246-.585754Z"/></g><rect id="Inner" class="cls-10" x="6.264007" y="7.2" width="50.112" height="57.6"/><rect id="Inner-2" class="cls-14" x="6.765127" y="7.776" width="49.10976" height="56.448"/><line class="cls-8" x1="10.080007" y1="32.4" x2="26.280007" y2="21.6"/><polygon class="cls-4" points="24.480007 37.8 31.680007 16.2 40.680007 37.8 24.480007 37.8"/><polyline class="cls-10" points="28.080007 43.2 28.080007 36 40.680007 37.8 40.680007 43.2"/><polygon class="cls-4" points="28.080007 43.2 28.080007 36 24.480007 41.4 24.480007 43.2 28.080007 43.2"/><polygon class="cls-10" points="24.480007 41.4 22.680007 39.6 28.080007 32.4 42.480007 34.2 40.680007 37.8 28.080007 36 24.480007 41.4"/><polyline class="cls-10" points="24.480007 37.8 24.480007 32.4 24.480007 30.6 26.280007 32.4 26.280007 36"/><polyline class="cls-10" points="31.680007 34.2 31.680007 30.6 35.280007 27 38.880007 30.6 38.880007 36"/><line class="cls-8" x1="52.380007" y1="32.4" x2="36.180007" y2="21.6"/><path class="cls-12" d="M51.479995,59.399976v-14.320129c-4.454834-2.243958-11.264343-3.679871-18.899963-3.679871-13.420532,0-24.300049,4.432373-24.300049,9.900024,0,.303589.038879.603333.104553.899963h-.104553v9h45v-1.799988h-1.799988Z"/><polygon class="cls-1" points="41.580007 27.9 38.880007 26.1 38.880007 23.4 41.580007 25.2 41.580007 27.9"/><polygon class="cls-12" points="52.380007 35.1 49.680007 33.3 49.680007 30.6 52.380007 32.4 52.380007 35.1"/><path class="cls-16" d="M7.256218,8.340466v55.319031h48.127563V8.340466H7.256218ZM51.119988,59.399976H11.520012v-28.799988c0-3.97644,8.864746-7.200012,19.799988-7.200012s19.799988,3.223572,19.799988,7.200012v28.799988Z"/><path id="Main" class="cls-7" d="M53.11476,9.232509c.367763-.309556.96315-.308817,1.329833.001651.365922.309823.365921.81118-.000002,1.121002l-5.319336,4.490609c-.366614.310526-.365626.813154.002207,1.122651.36697.308771.960658.308771,1.327627,0l3.989502-3.367957c.367221-.310012.367221-.812638,0-1.12265l-2.659666-2.245305c-.367224-.310012-.962611-.310012-1.329835,0h0s-2.659666,2.245305-2.659666,2.245305c-.367221.310012-.367221.812638,0,1.12265l3.989502,3.367957c.367832.309497.963219.308664,1.329833-.001861.365755-.309797.365755-.810991.000001-1.120789l-5.319336-4.490609c-.366684-.310467-.36581-.813095.001952-1.122651.366999-.308914.96088-.308914,1.32788-.000002l1.994752,1.683976,1.994752-1.683976Z"/><path id="Main-2" class="cls-7" d="M53.11476,9.232509c.367763-.309556.96315-.308817,1.329833.001651.365922.309823.365921.81118-.000002,1.121002l-5.319336,4.490609c-.366614.310526-.365626.813154.002207,1.122651.36697.308771.960658.308771,1.327627,0l3.989502-3.367957c.367221-.310012.367221-.812638,0-1.12265l-2.659666-2.245305c-.367224-.310012-.962611-.310012-1.329835,0h0s-2.659666,2.245305-2.659666,2.245305c-.367221.310012-.367221.812638,0,1.12265l3.989502,3.367957c.367832.309497.963219.308664,1.329833-.001861.365755-.309797.365755-.810991.000001-1.120789l-5.319336-4.490609c-.366684-.310467-.36581-.813095.001952-1.122651.366999-.308914.96088-.308914,1.32788-.000002l1.994752,1.683976,1.994752-1.683976Z"/><path class="cls-7" d="M52.600293,9.666822l-.300907.254027M49.940629,9.666822l-.300907.254027M51.270461,13.034779l-.300907.254027M51.270461,15.280086l-.300907.254027M53.629226,10.789472l.300907.254027M48.309881,10.789472l.300907.254027M52.299385,14.157429l.300907.254027M49.639722,14.157429l.300907.254027"/><path class="cls-7" d="M52.619099,9.650945l-.338521.285781M49.959436,9.650945l-.338521.285781M51.289268,13.018902l-.338521.285781M51.289268,15.264209l-.338521.285781M53.61042,10.773595l.338521.285781M48.291074,10.773595l.338521.285781M52.280579,14.141552l.338521.285781M49.620915,14.141552l.338521.285781"/><path class="cls-7" d="M41.163131,22.773557c3.476578.567261,5.203995.976944,8.591202,2.048447-.46077-1.488235-.715134-2.231888-1.271988-3.714172,1.239883-.984818,1.880646-1.463165,3.202164-2.387589-3.741867-1.183701-5.650116-1.636276-9.490723-2.262939-.412292,2.52652-.618408,3.789749-1.030655,6.316254Z"/><path class="cls-11" d="M44.867217,21.310239c-1.521469.539963-2.262955.833878-3.704086,1.463318.137405-.842163.206116-1.26326.343536-2.105423,1.486649-.622009,2.250809-.911591,3.817429-1.441666-.182755.833511-.274124,1.250259-.456879,2.083771Z"/><path class="cls-7" d="M21.476898,22.773557c-3.476547.567261-5.203888.976944-8.591202,2.048447.46077-1.488235.715149-2.231888,1.272003-3.714172-1.239899-.984818-1.880692-1.463165-3.202194-2.387589,3.741913-1.183716,5.650208-1.636292,9.490814-2.262939.412277,2.52652.618393,3.789749,1.030579,6.316254Z"/><path class="cls-11" d="M21.476898,22.773557c-1.441101-.62944-2.182587-.923355-3.704056-1.463318-.182739-.833511-.274124-1.250259-.456879-2.083771,1.566635.530075,2.330811.819656,3.817429,1.441666.137405.842163.206116,1.263245.343506,2.105423Z"/><path class="cls-7" d="M44.867217,21.310239c-10.709732-2.348236-16.384659-2.348236-27.094376,0-.548248-2.500519-.822372-3.750763-1.370667-6.251297,9.188416-2.222595,20.647308-2.22258,29.835724,0-.548309,2.500534-.822433,3.750778-1.370682,6.251297Z"/><path class="cls-14" d="M21.693527,15.156949c-.145462.188568-.217545.283081-.360535.472519.201004,1.186615.301498,1.779907.502548,2.966522.167999.110596.251602.166214.417969.278046-.53981.08786-.809341.135086-1.347427.236099.137299-.165268.206482-.247711.345917-.412155-.139862-.776169-.209778-1.164261-.349609-1.940445-.205246,1.075302-.299225,1.613144-.46994,2.688477-.111664.022064-.16748.033234-.279068.055847-.015579-.029129-.023392-.043686-.039001-.0728.101273-.020569.151901-.030746.253235-.050842.176849-1.14621.274979-1.719513.490631-2.865753-.031799-.176453-.047684-.264679-.079468-.441147-.245483,1.26712-.356293,1.900955-.554047,3.168091-.081741.016388-.122604.024673-.2043.041367-.50914-.861237-.770233-1.289352-1.305328-2.140121.132858.605515.199295.908264.332199,1.513779.044373.202225.089523.342285.135239.420258s.13031.156418.25322.23587c.133133.108032.199402.162231.331375.271027-.607224.127548-.910217.195572-1.514618.340073-.028152-.025803-.042267-.038696-.070465-.064468.568115-.136398.852859-.200851,1.423508-.322296-.056427-.053894-.084686-.080795-.141342-.134552-.519669.111649-.779007.170578-1.296585.294601.021362-.018372.032043-.027557.053452-.045914.18721-.16713.302582-.317444.344421-.452347.041855-.134918.033783-.330872-.024918-.587921-.215744-.944839-.323593-1.417236-.539276-2.362061-.195053-.104523-.292999-.156387-.489822-.259293.64035-.150925.961304-.221939,1.604584-.355118-.149292.187683-.223312.281754-.370102.470337.555603.883804.826492,1.328613,1.354263,2.223541.022797-.108505.034271-.162766.057465-.271271-.47377-.792755-.716248-1.187012-1.212341-1.970825.13826-.145447.207809-.217957.347794-.362579.030075.014175.04509.021286.075134.035507-.134644.132599-.201584.199081-.334732.332428.461746.737625.687775,1.108444,1.13002,1.853836.14679-.880524.225937-1.320862.395691-2.201309-.178955-.123337-.268875-.184677-.449646-.306656.632416-.119873.949249-.175537,1.583908-.278351ZM18.317169,16.514676c.183838.821075.275772,1.231598.459656,2.052673.070419.314484.149765.523865.237457.628418.087692.104568.233475.162201.437332.174316-.014191-.014923-.021286-.022385-.035492-.037308-.218521-.088791-.355637-.254272-.409576-.498383-.018707-.084671-.028046-.127014-.046753-.2117-.149399-.67627-.224091-1.014404-.373459-1.690689-.107162-.167145-.160995-.25061-.269165-.417328ZM21.904678,15.354489c-.126053.116165-.188797.174408-.313629.291229.192368,1.165482.288544,1.748215.480972,2.913696.243149.195038.363754.293198.602936.490784-.620987.09668-.931.149384-1.549774.263535-.022049-.028107-.033096-.04216-.055191-.070236.564728-.104614.847626-.15329,1.41423-.243362-.191605-.155838-.288055-.233353-.482178-.387543-.199982-1.20105-.299942-1.801575-.499878-3.002625.131012-.118042.196854-.176895.329147-.294205.029373.015472.044037.023224.073364.038727Z"/><path class="cls-14" d="M22.166305,15.082288c.593903-.09137.891312-.133331,1.486786-.209793-.148041.179688-.221481.26976-.367188.450348.163895,1.208878.245804,1.813309.409714,3.022171.165817.102875.248337.154617.412613.258698-.548859.070709-.822968.109436-1.370392.193665.142792-.158325.214706-.237259.359589-.394669-.177032-1.209381-.265503-1.814072-.442505-3.023453-.194458-.119583-.292191-.178986-.488617-.296967ZM23.815322,15.020184c-.113037.133545-.169189.200439-.280899.334503.15564,1.18396.233414,1.77594.389069,2.9599.227615.192291.340515.289001.564453.483521-.610214.074753-.914963.116302-1.523453.207794-.033966-.026886-.050964-.040329-.084991-.067169.569412-.08638.854568-.1259,1.425507-.197632-.183014-.15535-.275101-.232666-.460526-.38652-.160339-1.205795-.240448-1.808685-.400757-3.014496.123566-.148834.18576-.223099.310959-.371292.024277.020554.036392.030823.060638.051392Z"/><path class="cls-14" d="M27.642883,14.494641c-.016907.034302-.028122.057495-.033707.06958-.077042.14566-.115326.218552-.191345.364456-.064941.129501-.122147.289978-.171417.481308-.00209.006012-.003128.009018-.005203.015045l-.032501-.018311c-.004776-.014938-.007187-.0224-.011963-.037338-.075607-.217941-.172623-.365784-.290741-.443207-.118103-.077438-.292664-.107376-.522827-.088348-.094162.007782-.187988.019669-.281433.03569-.01506.001312-.022568.001968-.037643.003296.11145,1.265427.167099,1.898148.278503,3.163559.151428.114899.226776.172592.376678.288483-.540253.044205-.810181.06955-1.349518.126724.150772-.153854.226669-.230545.379547-.383392-.11441-1.16037-.171555-1.740585-.285965-2.90097-.088791.007568-.133179.011444-.221954.019348-.214355.021942-.362564.077942-.444199.166519s-.11937.23291-.11351.432724c-.03215.003632-.048218.005463-.080353.009125-.003281-.22963.041382-.394974.134308-.495682.092926-.100723.258438-.164139.495987-.188461.075134-.006516.112701-.009705.187851-.015991.013763-.001358.02063-.002029.034393-.003387-.00563-.057144-.008453-.085724-.014084-.142868-.107712-.00116-.209656.003296-.30574.01326-.269485.027954-.45816.100784-.565262.216156-.107086.115356-.152283.295242-.136292.539185-.014862.001724-.022278.002594-.03714.004349-.120438-.259186-.294144-.543442-.523895-.851364-.008987-.010681-.013474-.016037-.022476-.026718,1.513046-.189194,2.272156-.25975,3.791901-.352768ZM27.045379,15.177441c-.167175-.085876-.358734-.120422-.573395-.102921-.047943.003906-.097717.010956-.149307.021164.103622,1.173187.155258,1.759811.258377,2.933014.207367.203705.310165.30603.513977.511597-.601776.045364-.90242.072113-1.503067.133652-.030258-.028702-.045425-.043045-.075745-.071716.563766-.058456.845947-.084122,1.410721-.128357-.171997-.166367-.258606-.249222-.433029-.414276-.103897-1.21666-.155792-1.825012-.25972-3.041672.06749-.006943.101242-.010376.168762-.01712.202423-.016708.347137-.012512.433899.011322.086761.023819.156311.078995.208527.165314ZM27.852371,14.667065c-.134781.179962-.26915.473907-.400177.881775-.004196.012024-.006287.018036-.010483.03006-.028732-.020432-.043106-.03064-.071884-.051025.003006-.010773.004532-.016159.007538-.026932.12616-.41362.258453-.70372.393921-.870224.00589-.007385.00882-.011093.014709-.018478.026581.021912.039856.032883.066376.054825Z"/><path class="cls-14" d="M30.788635,14.384534c-.130219.139435-.194962.209335-.323669.349472.213425.507935.317947.76239.522552,1.272171.049057-.026062.073608-.039062.122772-.065018-.183884-.461075-.277649-.691254-.468719-1.150833.131454-.14447.197571-.216522.330627-.36026.032913.012695.049362.019058.082245.031799-.126892.13768-.189957.20668-.315399.345016.179993.435379.268387.653412.44194,1.090118.024597-.017639.038971-.028397.043076-.032318.040619-.032883.060989-.049301.101715-.082108.061737-.046875.100967-.079987.117508-.099487.053131.222763.134521.422211.243591.598679-.059143-.004272-.10199-.006409-.12851-.006516-.193848-.000793-.335709.028824-.425171.087708.223129.574677.33194.862564.544144,1.439285.177979.137054.266434.205933.442261.344376-.598434-.008469-.897705-.008728-1.496155-.001343.161835-.137939.243271-.206635.407104-.343399-.134109-.341507-.202133-.51207-.34021-.852768-.219498.219223-.385178.428314-.499023.625916-.027664-.006485-.041519-.00972-.069199-.016174.113724-.193832.285965-.411102.519333-.650192.009537-.011841.014328-.017746.02388-.029587-.023605-.051285-.035431-.076935-.059143-.128204-.238449.19632-.432526.424805-.582718.684143-.022369-.033493-.033585-.050232-.056015-.083694-.107986-.159592-.246399-.340683-.416519-.542603-.012573-.013687-.01886-.020523-.031433-.034195-.145386.338669-.212357.612839-.205002.821701.004333.122971.029404.226135.074951.309586.045547.083466.153046.221924.320221.416443.014282.017166.036713.043884.06723.08017-.637054.017502-.955521.030777-1.592041.066345-.025345-.030273-.038025-.045395-.063431-.075638.600784-.03421.901382-.047302,1.50267-.06543-.020828-.024002-.031235-.035995-.052109-.059967-.134949-.15213-.22496-.270569-.268723-.355988-.043762-.085403-.067917-.18663-.07222-.303726-.007309-.199097.064133-.498978.219513-.898727-.055222-.052155-.082886-.078201-.138351-.130219-.024231.063385-.054474.156296-.090485.278778-.035645.120911-.053391.181381-.088623.302338-.048172.162109-.069824.295898-.065659.401291.004318.109283.02684.19928.067368.270035s.123703.166245.24855.287033c.012253.011307.03067.029236.055206.053833-.5923.01976-.888397.033524-1.480179.068848.273468-.161102.487686-.366531.642532-.618347s.304031-.63559.450928-1.151474c.004242-.016586.006363-.024887.01062-.041473-.111298-.083633-.269669-.130981-.47464-.14093.104736-.165237.184586-.335861.238968-.512146.029892.024139.048019.039032.054428.044632.057587.046875.086304.070343.143661.117355.048889.041077.106949.08284.174133.125366.020233-.052338.030396-.078491.050751-.130814-.015213-.011185-.022797-.016785-.03801-.027954-.105774-.082199-.194962-.148102-.267151-.197968-.011459-.007751-.017197-.011627-.028656-.019363.018738-.026566.028122-.039856.046906-.066406.112106.063934.220154.139084.32399.225388.152588-.443832.230438-.665512.389282-1.108322-.136887-.129883-.205688-.194626-.344055-.32373.582489-.019257.87384-.025345,1.456558-.030502ZM29.880523,15.00018c-.187012.496857-.278488.745651-.45726,1.243927.160126.147202.297562.293823.412827.439346.057846.073547.08667.110352.144165.184036.002075.001907.012466.014359.031174.037384.017761-.01799.027634-.028961.029556-.032898.016525-.020294.024796-.030441.041351-.05072.00589-.00795.016739-.020874.032562-.038788-.146011-.207932-.316406-.394348-.511368-.558609.145218-.400543.219162-.600586.369705-1.000214-.036942-.089417-.055496-.134109-.092712-.223465ZM30.028701,15.336697c-.129425.342758-.193161.514313-.318665.857742.018936.019028.029465.030457.031616.034317.051697.052521.077484.078812.128952.131454.069.068619.157104.175934.263489.322235.012512.017319.018768.025986.031265.04332.084961-.107193.18663-.213547.305237-.318802-.173676-.428772-.262039-.642822-.441895-1.070267ZM31.714416,15.824902c.044067.176086.155365.417984.330246.726837-.044601-.006424-.069962-.009628-.07605-.009689-.098633-.009308-.147949-.013855-.246658-.022736-.111694-.010544-.192978-.015686-.24379-.015823-.008133-.000015-.028458.0009-.060989.002792.202789.519485.301895.779678.49559,1.300858.263428.233612.393814.351196.65181.587814-.683121-.015121-1.024811-.017487-1.708054-.011841-.022675-.031448-.034042-.047165-.056793-.078598.627487-.005814.941269-.004349,1.568695.007324-.209229-.190247-.314728-.284897-.527481-.473175-.207031-.553864-.313141-.830338-.530472-1.382263.069153-.017593.14856-.026276.238098-.025925.109894.000427.231964.01001.366028.028961-.014374-.02594-.021561-.038895-.035995-.064819-.128113-.231705-.215179-.44017-.259521-.625946.038177.022461.057236.033707.095337.056229Z"/><path class="cls-14" d="M36.182113,14.578732c-.021973.020554-.032944.030838-.054871.051407-.233673.226196-.423523.493256-.570404.799957-.017502-.046295-.030716-.080505-.039566-.102676-.097565-.241867-.210693-.401306-.338058-.478027-.12735-.076721-.362122-.125977-.703796-.143967-.157211-.008286-.346146-.012756-.566681-.012512-.02327.538574-.034897.807846-.058182,1.34642.07869.003387.118042.005157.196716.00882.022202-.47644.033295-.714661.055481-1.191101.159531-.006256.311493-.005386.455765.002441.265533.014389.459427.052948.581284.113602s.226562.170502.313538.329269c-.02771-.0215-.04747-.037552-.059265-.048141-.159714-.136261-.27713-.218048-.350754-.24614-.073624-.028076-.22113-.049026-.442429-.061203-.066803-.003662-.186035-.006271-.35762-.006851-.026367-.000122-.039536-.000168-.065903-.000259-.021301.444809-.031952.667206-.053268,1.112015.226196.010834.339279.0168.565384.029816.170456-.197952.256363-.296631.429565-.493332-.032455.504044-.048676.756058-.081146,1.260101-.143875-.205368-.216492-.307846-.363068-.512314-.334015-.019226-.501099-.027649-.835281-.042084-.028397.656815-.042603.985229-.070969,1.642029.076141.003281.114212.00499.190338.008545.028015-.601685.042038-.902542.070068-1.504227.264999.012329.397461.019257.662338.034622.029968.032257.044922.048401.074814.080688-.265717-.015762-.398636-.022903-.664474-.035629-.027359.571228-.041046.856842-.068405,1.428055.404434.019363.693268.00882.867477-.036926.174225-.045761.31575-.147629.425156-.306366.070923-.101913.106537-.152817.17804-.254517.006866-.011246.020462-.031799.040817-.06163.036362.218109.088318.394348.154938.528763.066635.13443.180832.294174.341934.480148-1.326004-.111191-1.990494-.147232-3.319656-.180206.183594-.131424.275925-.196762.461655-.326675.017136-.522369.025711-.783569.042847-1.305939-.171448.013916-.327469.060364-.467438.138947-.016434-.025024-.024658-.037537-.041122-.062546.125946-.082932.296432-.134171.511063-.152542.001801-.055038.002701-.082565.004517-.137619-.034576-.005035-.059006-.007767-.073288-.008209-.208206-.006577-.400299.061768-.574341.204498.100372-.310394.319809-.462051.655991-.451035.016403-.500122.024612-.750198.041-1.25032-.18634-.146805-.28006-.219849-.468674-.365189,1.34845.033447,2.022537.069061,3.367935.17804ZM36.377105,18.344327c-.070908.099518-.106201.149323-.176559.249069-1.285004-.111984-1.928955-.149506-3.217163-.187607-.017944-.032196-.026917-.048279-.044907-.080444,1.293579.037186,1.940247.074356,3.230637.185928.046417-.070099.069702-.105118.116379-.17511-.26088-.283798-.440613-.576096-.535858-.879272.037338.016998.055969.025513.093262.042572.09021.257919.254944.521927.491089.793945.017273.020355.025894.030548.043121.050919ZM35.326263,15.69888c-.035156.516769-.05275.775162-.087906,1.291946-.029205-.017258-.043823-.025879-.07309-.043106.034485-.516815.051727-.775223.086197-1.292053.029938.017273.044907.025909.074799.043213ZM36.316345,14.795544c-.009674.009766-.014496.014664-.02417.024445-.281906.297958-.470978.553177-.571808.763062-.019257-.026108-.02887-.039169-.048172-.065262.160828-.291718.362259-.55452.605255-.787216.015579.02597.023361.038971.038895.064972Z"/><path class="cls-14" d="M41.008163,15.166608c-.197693.132812-.295975.199631-.491486.334061-.18512,1.189209-.277649,1.783798-.462708,2.973007.124237.158096.185913.23732.308289.396088-.539825-.087616-.810165-.128113-1.351471-.20256.182236-.113342.273834-.169632.457932-.281494.113144-.780518.169724-1.170761.282883-1.951279-.534653.955048-.793716,1.435501-1.295212,2.40152-.11261-.01442-.168915-.021484-.281555-.035324-.005524-.032547-.008316-.048828-.01387-.08139.102249.012527.153351.01889.255539.031876.529678-1.031281.803894-1.544083,1.370834-2.563141.025726-.177444.038589-.266159.064316-.443604-.633453,1.124268-.938766,1.690491-1.526398,2.829895-.082474-.010315-.123718-.015396-.206223-.025406-.209091-.977997-.320496-1.466705-.557037-2.443024-.065781.616425-.098679.924637-.164459,1.541061-.021957.205856-.023575.352997-.005051.441422.018539.088425.073654.189606.164642.303848.091614.144577.1371.216965.227417.361908-.614075-.071091-.921539-.102402-1.536926-.156555-.018402-.033386-.027634-.050079-.046097-.083435.578598.050354.867661.079269,1.445129.144592-.036285-.06897-.054474-.103439-.091003-.172348-.526138-.058472-.789459-.08461-1.316528-.130707.02594-.010666.03891-.016006.06488-.026642.229248-.099304.386032-.205353.468094-.320068.082077-.114731.135834-.303223.161606-.565628.094727-.964508.142105-1.446762.236832-2.41127-.151047-.160843-.227081-.241028-.380219-.400909.651474.059418.976913.093567,1.626999.170731-.200409.130798-.300079.196625-.498291.329086.245621,1.014145.361069,1.52179.57724,2.537659.055862-.095703.083878-.143539.140106-.23912-.197449-.901901-.302048-1.3526-.523117-2.253067.176575-.094238.265213-.141022.443253-.233932.023956.02298.035904.03447.059814.057465-.169205.083176-.253494.125076-.421448.209442.203262.845795.299744,1.269073.482376,2.116043.417252-.788818.631424-1.181473,1.07074-1.962936-.130463-.17363-.196182-.260269-.32869-.433182.636475.086411.9543.133865,1.588867.23732ZM37.384017,15.386151c-.085724.837036-.128601,1.255554-.21431,2.092575-.032837.320587-.023575.544357.026184.67128s.168686.227661.357407.303635c-.008682-.018646-.013031-.027969-.021729-.046616-.17836-.153351-.255524-.353683-.22934-.60231.009079-.086243.013626-.129364.022705-.215607.072556-.688766.108826-1.033157.181381-1.721924-.04837-.192459-.07283-.288666-.122299-.481033ZM41.145919,15.420865c-.156387.070251-.234344.105637-.389725.17691-.1866,1.166443-.279877,1.749649-.466431,2.916077.168839.261978.252151.39328.416565.656464-.61998-.104996-.930542-.153137-1.552536-.240662-.011978-.033646-.01799-.050461-.030029-.084106.56778.079483.851318.122864,1.417435.216873-.132446-.208496-.199371-.312561-.334625-.520294.190643-1.20256.285965-1.803833.476654-3.006393.161621-.070496.242691-.105453.405365-.174835.022949.023972.034409.035965.057327.059967Z"/><path class="cls-14" d="M44.855041,15.923123c-.024841.01712-.037247.025681-.062057.042831-.265274.189545-.492828.42598-.683365.707932-.010696-.04837-.018875-.084167-.024475-.107407-.061951-.253601-.151321-.427917-.26683-.522476-.115494-.094559-.341782-.177643-.678741-.245392-.155045-.031174-.342148-.063187-.561295-.095154-.101257.52948-.151871.79422-.253113,1.323685.077682.014862.116531.022354.194183.037476.091141-.46817.136719-.702255.227875-1.17041.159424.017105.310333.040176.452591.069.261826.053055.449005.119583.561371.197433.11235.077835.200546.201859.264008.371689-.024429-.02533-.041748-.044098-.051941-.05632-.139069-.158203-.243942-.256317-.31308-.294876-.069122-.038559-.212723-.080856-.430923-.125259-.065872-.013397-.18399-.033401-.354416-.059052-.026184-.003967-.039276-.005936-.06546-.009888-.085693.436996-.128525.655502-.214203,1.092484.22319.043762.334717.066193.557587.112137.198135-.170929.297852-.255997.498581-.425278-.105347.493973-.15802.740952-.263351,1.234924-.113297-.224258-.170639-.336273-.286697-.560013-.329224-.067871-.494049-.100616-.823975-.163696-.123459.645737-.185181.968597-.308624,1.614319.075165.014374.112747.021622.187881.036255.115097-.591248.172638-.886871.28775-1.478119.26152.050919.392166.077133.653229.131073.025131.036301.037659.054443.062683.090775-.261856-.054474-.392929-.080948-.655258-.132385-.110016.561203-.165024.841797-.27504,1.402985.399078.078247.687759.110062.867599.090286s.335358-.099854.467178-.240891c.085297-.090454.128098-.135605.213959-.225754.008453-.010132.024948-.028473.049515-.055008.004562.22113.030685.403137.077484.545914.046783.142776.137238.317581.270569.525238-1.303207-.304565-1.958435-.437286-3.273361-.66362.201355-.103271.302505-.154465.505829-.25592.092773-.514359.13916-.771545.231949-1.285904-.172302-.01123-.333969.011978-.484344.069336-.01268-.027161-.019028-.040741-.031738-.067886.137054-.06369.313782-.089539.529602-.076401.009781-.054199.014664-.081314.024445-.135513-.0336-.010025-.05748-.016296-.071594-.018814-.205811-.036865-.406464.002747-.599945.118607.144653-.29248.384506-.410568.716782-.350632.088837-.492432.133255-.738663.222107-1.23111-.163757-.17244-.246231-.258377-.412415-.429672,1.334.22963,1.99881.363312,3.321487.668472ZM44.50328,19.677716c-.084991.088074-.12735.132172-.211807.220551-1.262451-.299408-1.897125-.430649-3.170868-.656189-.013153-.034454-.01973-.051682-.032928-.086136,1.27916.225388,1.91658.356674,3.184418.656433.056351-.062531.084595-.093765.141205-.156174-.218491-.319122-.354904-.634689-.405701-.948654.034668.022293.051971.033463.086594.055801.052368.268433.177979.553833.37355.857651.014236.02269.021332.034027.035538.056717ZM43.841339,16.906049c-.109894.50618-.164825.759277-.274689,1.265457-.02655-.021362-.039841-.032028-.066437-.053345.109207-.506332.163803-.759491.273026-1.265808.027252.021469.040878.032196.0681.053696ZM44.957137,16.157346c-.011047.008255-.016556.01239-.027588.020645-.3237.253479-.548767.478287-.679474.671188-.015366-.028656-.023041-.042984-.038452-.07164.202255-.26506.440735-.49559.716232-.690186.011734.028.017593.041992.029282.069992Z"/><polygon class="cls-13" points="15.480007 28.8 12.780007 30.6 12.780007 33.3 15.480007 31.5 15.480007 28.8"/><polygon class="cls-15" points="20.880007 25.2 18.180007 27 18.180007 29.7 20.880007 27.9 20.880007 25.2"/><polygon class="cls-5" points="46.980007 31.5 44.280007 29.7 44.280007 27 46.980007 28.8 46.980007 31.5"/><path class="cls-7" d="M41.163131,53.427914c3.476578-.567261,5.203995-.976944,8.591202-2.048447-.46077,1.488235-.715134,2.231888-1.271988,3.714172,1.239883.984818,1.880646,1.463165,3.202164,2.387589-3.741867,1.183701-5.650116,1.636276-9.490723,2.262939-.412292-2.52652-.618408-3.789749-1.030655-6.316254Z"/><path class="cls-11" d="M44.867217,54.891232c-1.521469-.539963-2.262955-.833878-3.704086-1.463318.137405.842178.206116,1.26326.343536,2.105423,1.486649.622009,2.250809.911591,3.817429,1.441666-.182755-.833511-.274124-1.250259-.456879-2.083771Z"/><path class="cls-7" d="M21.476898,53.427914c-3.476547-.567261-5.203888-.976944-8.591202-2.048447.46077,1.488235.715149,2.231888,1.272003,3.714172-1.239899.984818-1.880692,1.463165-3.202194,2.387589,3.741913,1.183716,5.650208,1.636292,9.490814,2.262939.412277-2.526505.618393-3.789749,1.030579-6.316254Z"/><path class="cls-11" d="M21.476898,53.427914c-1.441101.62944-2.182587.923355-3.704056,1.463318-.182739.833511-.274124,1.250259-.456879,2.083771,1.566635-.530075,2.330811-.819656,3.817429-1.441666.137405-.842163.206116-1.263245.343506-2.105423Z"/><path class="cls-7" d="M44.867217,54.891232c-10.709732,2.348236-16.384659,2.348236-27.094376,0-.548248,2.500519-.822372,3.750763-1.370667,6.251297,9.188416,2.222595,20.647308,2.22258,29.835724,0-.548309-2.500534-.822433-3.750778-1.370682-6.251297Z"/><path class="cls-14" d="M18.369766,57.296063c.259735.061691.389725.091766.649994.15033.276306.062164.464828.142609.566055.243134.12915.12645.176651.273926.141418.442154-.021408.102264-.068893.185135-.142548.247437-.074066.064209-.166824.10144-.278336.11235-.111526.010925-.281052-.00885-.50824-.059982-.072586-.016327-.108871-.024551-.181412-.041122-.063156.276474-.094727.414688-.157883.691177.058502.079483.08786.119186.146805.198517-.278595-.062683-.41774-.09491-.69574-.161072.098923-.046722.14827-.070206.246765-.117355.053604-.228973.080414-.34346.134018-.572418-.011581-.003708-.01973-.006622-.024643-.007782-.070847-.016617-.142273-.017471-.214249-.00351-.002869-.01152-.004288-.017288-.007156-.028824.074509-.020355.137726-.02446.189835-.012192.021225.00499.03186.007492.053085.012466.004822.000717.007217.001099.012024.001816.006592-.028137.009888-.042221.016479-.070374-.021927-.008133-.036911-.012665-.044769-.014511-.105057-.024689-.194794-.019989-.269501.014313-.003799-.010162-.005707-.015228-.009506-.025375.085434-.09198.194-.122223.326294-.091187.009415.002213.01413.003311.023529.005524.065445-.279541.098175-.419312.163635-.698853-.054626-.0858-.081818-.128738-.135956-.214661ZM19.727218,57.761472c.053177.041153.09021.101761.111313.180954.02092.08017.022186.165192.003174.256989-.043182.20845-.156555.340729-.341171.395462-.139755.042282-.361542.031036-.664154-.036697-.050262-.011246-.092651-.020813-.126694-.030518-.053345.23584-.080017.35376-.133362.589615.069763.127518.104874.191238.175583.318558-.300934-.066757-.451248-.101151-.751495-.171951-.012604-.019028-.01889-.028534-.031464-.047577.282043.066727.423233.099197.705887.162354-.057907-.101807-.086716-.15274-.143997-.254669.058533-.257904.087799-.386856.146332-.644745.084564.0242.175247.046585.27182.068008.254242.056396.452576.05368.594025-.007263s.230362-.181229.267715-.360977c.015488-.07457.017258-.142014.005432-.202347-.012039-.059357-.041718-.131393-.088943-.215195ZM18.807861,57.55354c-.065338.285995-.098007.42897-.16333.714966.007645.00174.011475.002609.019119.004364.015121.004242.022705.006378.037827.010605.003922.0009.0103.00235.019562.002441.057755-.254456.086639-.381668.144409-.636124.063995.014526.096008.021744.160049.036087.124191.027802.209747.057556.255676.089615.046692.033203.0802.087448.101578.163025-.025314-.057434-.063461-.101517-.112366-.132401-.049408-.031204-.123917-.057205-.221985-.079102-.059998-.013397-.090012-.020142-.149979-.033707-.054474.240768-.081711.361176-.136169.601944.194275.043961.342667.048492.44548.012955.102798-.035553.167038-.112671.192764-.231995.028381-.131729.007889-.237778-.058334-.314392-.066452-.076889-.188721-.136169-.365967-.176102-.045517-.010254-.101639-.020935-.168335-.032181Z"/><path class="cls-14" d="M20.864242,57.810086c.235916.044815.407913.16745.518829.369888.109924.202271.140488.451385.088531.747635-.049088.279892-.159729.490646-.332718.631271-.173981.140442-.38295.187805-.625961.141663-.191803-.036423-.351395-.12735-.477097-.27388-.184631-.216019-.240555-.494003-.171265-.83168.059296-.288895.180054-.50322.360397-.644241.180344-.141037.392685-.187515.639282-.140656ZM20.840728,57.933835c-.328888-.062485-.549698.188477-.66304.757355-.104767.525787.009476.822159.34314.885605.155319.029526.286636-.0177.393326-.143066.106506-.124405.183823-.321823.232635-.590866.055267-.304581.05542-.523849.001236-.657913-.057205-.139572-.159393-.223007-.307297-.251114ZM21.315658,57.970349c.127335.090576.217239.224457.270462.399323.053223.174881.062164.367661.025925.577438-.053711.310806-.178253.546143-.375458.70755-.198212.16124-.43219.218277-.699875.167679-.171066-.032349-.320419-.119019-.446945-.25853.000519-.00267.000793-.004013.001312-.006699.107025.111755.25502.185425.443054.221008.252396.04776.476715-.005829.670471-.15889.192612-.152145.313904-.371185.362991-.654053.03656-.210709.032349-.400711-.012512-.571198-.0439-.170303-.124893-.306595-.242218-.408249.001114-.006165.001678-.009216.002792-.015381ZM21.113403,58.208371c-.008911-.007599-.013351-.011398-.022263-.018997-.084427-.068207-.165359-.110214-.243393-.124985-.2565-.048599-.433365.17392-.530762.669312-.071213.362198-.037323.617859.102951.768127-.006439.004333-.009644.0065-.016083.010834-.087189-.086395-.140991-.190475-.161682-.30899-.020508-.119476-.011765-.273041.025497-.461777.104996-.531708.299469-.768448.584061-.714523.129639.024567.216797.084366.261673.181Z"/><path class="cls-14" d="M23.586364,58.276837c-.116531.068558-.174973.102692-.292252.170639-.054001.374619-.080994.561951-.134995.936584-.024796.172043-.048615.294907-.070541.368698-.022934.073639-.054489.132233-.095749.175568-.104568.111084-.282486.1483-.532639.109589-.264267-.040894-.438858-.132843-.522995-.273376-.067337-.111053-.077759-.303925-.031784-.579407.064026-.383743.096039-.575607.160095-.959351-.067902-.084198-.10173-.126373-.169098-.21077.275742.047043.413712.069702.68988.113281-.091736.064606-.137756.096817-.230011.161057-.061081.378296-.091614.567429-.152695.94574-.013184.089279-.019775.133896-.032944.223175-.023193.143646-.008652.25087.044067.320618.052567.070694.153015.11734.30098.140137.163071.025116.282242-.003601.357254-.087265.060104-.066132.108017-.22197.143875-.466415.057449-.374924.086136-.562378.143509-.937317-.079544-.096542-.119141-.144882-.197952-.241699.249435.037613.374252.055725.623993.090515ZM23.622543,58.382428c-.088974.054718-.133591.082001-.223022.136353-.051208.360443-.076813.540665-.128006.901093-.041885.294891-.093292.483887-.154388.565887-.124908.168533-.332092.23056-.620239.186264-.248703-.038223-.426315-.12735-.531754-.266327.004456.003098.006683.004639.011139.007751.019257.01503.028885.022537.048157.037537.11264.089554.266739.149841.461731.179871.278839.042938.47644-.014435.591309-.16954.061432-.083893.111572-.263184.150787-.537735.053009-.371231.079514-.556839.132538-.92807.097824-.058228.146591-.087448.243896-.146118.007141.013229.010712.019821.017853.033035ZM22.635345,58.217053c-.066376.048126-.09964.072128-.16629.120056-.068451.429718-.102676.644592-.171112,1.074326-.006989.040009-.010498.060028-.017471.100052.006912.076248.010406.11438.017441.190643.017105.041275.053894.091599.110123.153748.000366.005585.000534.008392.0009.013977-.079361-.04599-.130142-.102524-.152252-.170319s-.022522-.167755-.001526-.298889c.069443-.433929.104172-.650894.17363-1.084808.076538-.053009.114716-.07959.190887-.132874.006271.013641.009384.020462.015671.034088Z"/><path class="cls-14" d="M25.364105,58.495602c-.010696.016541-.017715.026596-.021286.032104-.047501.065613-.07132.098404-.119064.163925-.041199.05838-.081741.132523-.121689.222412-.001495.002594-.002228.003891-.003723.00647-.005493-.004532-.00824-.006805-.013733-.011353-.000916-.00795-.001373-.011932-.002289-.019897-.016327-.113831-.048676-.194077-.09642-.242737s-.125275-.079117-.233231-.091827c-.044159-.005188-.088547-.008499-.133163-.009933-.00708-.000839-.010605-.001266-.01767-.002121-.075958.630585-.113922.945877-.189865,1.576462.063828.071823.09584.107681.16008.179321-.277512-.032547-.416183-.049652-.693375-.085571.093689-.056793.140427-.085281.233658-.142441.072769-.578629.109146-.86795.181931-1.446579-.041824-.005661-.062744-.008499-.104538-.014236-.101212-.012924-.176392-.003128-.223785.030075-.047348.033173-.08223.099442-.103256.197128-.015396-.002045-.023102-.003067-.038483-.005127.025986-.111801.065979-.186249.120987-.224289.054031-.038177.137543-.050827.249481-.03653.035248.00528.052872.007919.088135.013153.006485.000809.009735.001221.016205.002029.003616-.028671.005417-.043015.009018-.071701-.049286-.0121-.096603-.020081-.141708-.025879-.12648-.016235-.220917-.003159-.283569.039703-.062775.043839-.105377.125778-.127502.24498-.007095-.000961-.010635-.001434-.017746-.002396-.024292-.139282-.069107-.299118-.134232-.475784-.002655-.006683-.003998-.01001-.006638-.016693.705902.098221,1.059464.141693,1.767471.217331ZM25.028411,58.782025c-.070419-.057037-.156143-.091385-.257446-.103241-.022614-.002655-.046448-.003494-.071274-.004471-.066895.585251-.100311.877884-.167084,1.463135.083344.120773.125244.181091.209549.301575-.31102-.035477-.466461-.05426-.7771-.093948-.011993-.017288-.01799-.025925-.029968-.043213.29097.037338.436539.055099.727859.088745-.071198-.098663-.106613-.148041-.177139-.246918.072189-.606247.108276-.909378.180496-1.515625.031891.003403.047821.005096.079727.008453.095322.011215.162643.026611.199951.045776.037811.019424.065765.052658.082428.099731ZM25.447021,58.597684c-.076736.078339-.163132.212494-.259888.402344-.003021.005569-.004517.008347-.007523.013916-.011871-.012299-.017807-.018448-.029663-.030746.002365-.005249.003571-.007874.005936-.013107.095184-.192917.180435-.32518.25647-.396683.003326-.003174.004974-.004776.008286-.007965.010544.012909.015823.019348.026382.032242Z"/><path class="cls-14" d="M26.829757,58.632748c-.066849.064392-.100357.096527-.167572.160721.075745.262634.114166.393906.192139.656311.024963-.011353.03743-.017059.062347-.028427-.070557-.236649-.105392-.355026-.174149-.591873.068512-.066513.102692-.099838.170822-.166565.014786.007828.022202.011734.037018.019547-.06488.063507-.097412.095215-.162643.158524.06517.224731.09816.337051.164963.5616.012619-.007843.019958-.012177.022095-.013977.02095-.014832.031433-.022263.052353-.03714.031616-.021103.051727-.03624.060471-.046356.017532.112946.050003.215256.09758.306839-.0289-.003082-.049805-.0056-.06279-.006561-.094894-.007004-.165329.001282-.211563.027084.086288.295441.130142.443085.219193.738205.086166.074402.129395.111542.216125.185623-.307678-.021164-.461472-.032761-.768936-.058014.089584-.060837.134247-.091354.223358-.152527-.053986-.175858-.08078-.263794-.133774-.439774-.119263.099045-.213135.194946-.281052.287125-.013596-.005081-.020386-.007629-.033981-.012726.067703-.089218.165512-.188644.292603-.296814.005295-.005432.00795-.008163.013245-.013611-.009354-.026627-.014008-.039932-.023331-.066574-.127213.086563-.235748.189957-.325516.310532-.009399-.018066-.014084-.027115-.023468-.045197-.045364-.084366-.104019-.182709-.175781-.293213-.005371-.007553-.008057-.011322-.013428-.018875-.092377.159225-.143951.29068-.153687.394714-.005753.061249.000031.113785.018295.15863.017349.043793.063354.119675.137665.226395.006317.009399.016266.024033.029846.043869-.3293-.029556-.493866-.045517-.822815-.079773-.010559-.016815-.015839-.025223-.026382-.042038.309845.03244.464844.047623.774994.075882-.009232-.013382-.013824-.020096-.023041-.033478-.05986-.083939-.098236-.148346-.114868-.194046-.016724-.044724-.021942-.097214-.016434-.155533.009354-.099167.065201-.241959.166504-.431702-.024002-.028885-.035965-.043335-.059906-.07225-.0159.029907-.036697.074051-.062332.13147-.025482.058014-.038269.087021-.063858.145004-.034714.077133-.054672.141937-.059708.194427-.005219.054428.000076.100067.015854.137863s.051498.091232.107605.158264c.005539.006393.013763.016968.02475.030731-.304199-.028214-.456238-.04332-.760147-.075562.152496-.056488.276627-.141068.373581-.25502.095749-.112122.197769-.292496.303848-.537415.00322-.008316.004807-.012497.008026-.020813-.048828-.047821-.122467-.082397-.221176-.102036.062759-.074219.113129-.152695.151321-.236313.012665.013992.020447.021622.023041.025787.024475.026703.036728.040054.061264.066727.020737.024551.046051.048538.07579.073898.013168-.024658.01976-.036972.032898-.061646-.006622-.0065-.009918-.00975-.016525-.016266-.045685-.047455-.084106-.085464-.115219-.115921-.00499-.00441-.007477-.006607-.012451-.011017.010742-.011917.016144-.017868.026886-.029785.049271.039078.0961.083725.140701.132019.10141-.21022.151733-.315445.251617-.526108-.05658-.07254-.084793-.108856-.140991-.181519.271362.025116.407135.03685.678726.05867ZM26.373382,58.896161c-.115738.236862-.174103.355133-.291855.5914.068771.082855.127487.163635.175995.242462.024323.03981.036514.059692.060913.099487.000931.001053.005432.007324.013443.019791.009705-.006989.015228-.01239.016403-.014252.009308-.009384.013947-.014069.023254-.023468.003265-.002655.009369-.008987.018143-.017044-.061081-.111145-.134232-.212677-.219193-.306671.094437-.189896.141342-.284927.234467-.47522-.01265-.046585-.018982-.069885-.03157-.116486ZM26.425262,59.071271c-.080032.16362-.120285.245346-.201294.408676.008102.010529.012558.016815.013382.018845.022125.029037.033218.043564.055405.072586.029861.037933.067032.0961.11174.174438.005264.009079.007904.013626.013184.022705.047592-.048828.103012-.096069.166275-.142731-.06427-.221725-.095993-.332626-.158691-.55452ZM27.213683,59.3849c.015533.089249.061554.21402.139038.373093-.021835-.004456-.03421-.007278-.037216-.007492-.048386-.007309-.072586-.011002-.120956-.018417-.054703-.008865-.094513-.014755-.119537-.016617-.003998-.000305-.014084-.000076-.030167-.000305.080887.266174.121887.3992.205063.665085.127319.124908.19133.187164.320038.311371-.353592-.022888-.530289-.03569-.883591-.06398-.010361-.016495-.015518-.02475-.025848-.04126.323776.026077.485733.037994.809738.059555-.103638-.100449-.155228-.150803-.257965-.251709-.088516-.283173-.132141-.42485-.218048-.708344.034607-.005203.073975-.007141.117981-.003891.054001.003998.113663.013229.179153.025696-.006332-.012985-.009476-.01947-.015793-.032455-.055847-.119492-.091064-.226852-.106155-.320969.017685.012268.02655.018387.044266.03064Z"/><path class="cls-14" d="M30.491958,58.806653c-.082092.080444-.123291.120605-.205978.200729-.011017.601868-.016541.902802-.027573,1.504639.073593.069717.110504.104523.18454.174011-.280746-.004242-.421112-.007217-.701797-.014847.086685-.066025.129883-.099121.21608-.165466.009277-.394409.013931-.591629.023209-.986053-.201599.506348-.30452.759079-.514648,1.263535-.058685-.001877-.088043-.002853-.146729-.004868-.004349-.015793-.006531-.023682-.010864-.039459.053146.001846.079727.002731.132874.004456.221725-.538391.33017-.808151.542313-1.348633.002106-.089417.003159-.134155.005264-.223572-.235275.596603-.355835.894287-.602875,1.488312-.042709-.001419-.064056-.002151-.106766-.003662-.150513-.478622-.224045-.718185-.367706-1.197769-.013138.309494-.019699.464233-.032837.773727-.004425.104385-.000458.177872.011917.22139.012375.043533.043869.091766.094604.145615.05217.068954.078339.103394.130814.172241-.319702-.012146-.479538-.019318-.799103-.035858-.010178-.016174-.015274-.024261-.025452-.040451.299789.015671.449753.022537.74968.034317-.021332-.033279-.031982-.049927-.053238-.083221-.272064-.010956-.408081-.017242-.680008-.031387.013138-.005966.01973-.008957.032852-.014923.115799-.052704.192734-.109665.231613-.169403.038849-.058762.061523-.154495.067673-.286179.022598-.484238.03389-.726364.056503-1.210617-.074768-.076233-.112-.114395-.186249-.190872.305038.015305.457581.021912.762741.033051-.088394.073776-.132736.11058-.22171.184006.147842.496613.223602.74469.378784,1.24028.023453-.050034.035172-.075058.058517-.125122-.140732-.439484-.209641-.659439-.344482-1.099762.079788-.053589.119598-.08046.199005-.134338.012054.010193.018097.015289.030167.025482-.075684.048965-.113602.073395-.189621.122101.125519.413269.18959.619751.320251,1.032288.168884-.41243.251923-.618988.415146-1.032639-.070374-.07872-.105423-.118149-.175278-.197083.299316.008408.44899.011597.748367.016006ZM28.805831,59.104443c-.018738.420288-.028091.630447-.046829,1.05072-.007187.16098.004028.272919.032822.334778.0298.061905.093918.108704.193466.139099-.005142-.008804-.007706-.013214-.012848-.022018-.096878-.070374-.142349-.168198-.136963-.293076.001862-.04332.002792-.064972.004669-.108292.014923-.346161.022385-.519257.037323-.865417-.028793-.094299-.043121-.141449-.07164-.235794ZM30.573104,58.923032c-.06749.046387-.101303.069519-.169067.115692-.009583.590561-.014359.885864-.023941,1.476379.104004.117706.156265.176453.261337.293701-.324753-.003784-.487137-.006805-.811829-.015137-.008163-.015839-.012238-.023758-.020386-.039597.295761.00769.443649.01059.739456.014511-.08374-.093307-.125427-.140015-.208481-.233627.010284-.60849.015427-.91275.025711-1.521271.07074-.046478.106049-.069763.176483-.116455.012283.01033.018433.015488.030716.025803Z"/><path class="cls-14" d="M31.543029,58.793713c.23909-.000977.430557.086624.577454.264236.14592.177628.223129.416367.228577.717102.005157.284134-.063049.512115-.205505.683105-.143478.171021-.338806.257324-.585098.258362-.194366.000809-.367569-.058029-.518173-.177887-.221344-.176834-.328674-.439041-.325043-.783752.003113-.294907.080414-.528336.229828-.701187s.348053-.258972.597961-.259979ZM31.543548,58.91969c-.333313.001343-.501373.289841-.504196.869919-.002594.536133.165192.805252.503357.803925.15741-.00061.27684-.071991.357346-.215393.080521-.142426.118637-.350967.11528-.624374-.003799-.309555-.045288-.524857-.123718-.646133-.082428-.126114-.198181-.188553-.348068-.187943ZM32.014755,58.865002c.141708.064651.255066.178955.340332.3405.085281.161545.130661.349091.13504.561935.0065.315369-.070633.570114-.232849.766144-.163239.19603-.381195.2966-.652451.297943-.173355.00087-.335739-.05574-.485825-.168549,0-.002731.000015-.004105.000015-.006836.125763.089294.284348.133392.474899.132477.255768-.001221.465012-.095657.625366-.283737.16037-.186111.236511-.424179.230804-.711227-.004257-.213837-.044464-.399567-.120728-.55838-.075272-.158829-.180389-.277206-.314407-.354645-.000076-.006256-.000122-.009369-.000198-.015625ZM31.862213,59.137234c-.010147-.005768-.015228-.008652-.025375-.01442-.09549-.050873-.182571-.076675-.261642-.076309-.259933.00119-.390488.253387-.391663.75827-.000854.369141.080734.613647.246353.734406-.005478.005478-.008194.008224-.013672.013702-.101608-.068176-.17392-.160095-.216614-.272491-.042709-.113358-.063309-.265778-.062698-.45816.001694-.542007.146744-.811508.43515-.81282.131363-.000595.227951.041504.290161.127823Z"/><path class="cls-14" d="M34.154724,58.786694c-.006119.011642-.009186.017487-.015305.029129-.080887.157593-.150711.314423-.209183.469635-.004532.013901-.006805.020844-.011337.034744-.008148-.003937-.012222-.00589-.020355-.009811-.029587-.146271-.087402-.261902-.174042-.345184s-.188751-.122086-.305969-.117691c-.125107.0047-.22757.061874-.30809.172913-.10141.138062-.147522.36795-.138138.690094.008072.277222.063553.49353.168686.647507.104111.153992.246124.227432.423828.22052.142166-.005539.253998-.056366.33403-.150833s.124313-.227615.132355-.398117c.002075-.041153.018143-.063416.048279-.06488.039185-.001892.060867.029297.064011.092697.004669.094604-.012604.194214-.052231.297806-.08374.219131-.274414.335892-.570541.347168-.264587.010086-.478439-.073425-.638275-.246872-.159378-.174438-.24173-.412979-.248749-.716614-.006485-.280212.067429-.517181.218857-.710846.151932-.19368.343201-.294281.57515-.30304.110092-.004166.235916.018127.379028.065536.075058.025009.13678.035797.185028.033493.0522-.002487.098801-.018478.138702-.048843.009689.004608.014557.006897.024261.01149ZM34.272857,60.042065c-.003616.242706-.064896.43074-.182816.562515-.118881.132797-.290573.204239-.514893.212982-.170288.006638-.330307-.038696-.479874-.13472-.000137-.004684-.000214-.007034-.000351-.011719.13269.077988.291168.113724.475601.106552.201752-.007843.364288-.076752.485291-.207626.059128-.062439.101379-.13298.126984-.209534.025589-.076569.039734-.177017.043503-.301392.000549-.013321.000809-.019989.001343-.03331.018066.0065.02713.009766.045212.016251ZM33.737457,59.05946c-.093002-.066376-.179276-.099045-.259216-.095963-.255661.009842-.376373.254562-.361115.736755.006958.21962.042786.401215.108231.545609.065399.143402.154892.235123.267075.273895.000229.005844.000336.008774.000549.014633-.120605-.018906-.220016-.104767-.295853-.255356-.07605-.151016-.117828-.345062-.125092-.580307-.015564-.504639.116776-.760284.396912-.771027.094711-.003647.184082.033737.267715.11322.00032.007416.000473.011139.000793.018539ZM34.265685,58.851361c-.005722.011642-.00856.017471-.014282.029114-.097961.187027-.176117.356079-.233643.508423-.016693-.007034-.025024-.010544-.041702-.017578.006073-.014755.009125-.022141.015198-.036896.04483-.104782.084274-.191772.118515-.260941.04335-.085449.064941-.128204.107941-.213745.005356-.010834.008041-.016266.013397-.0271.013824.007507.020752.01123.034576.018723Z"/><path class="cls-14" d="M34.359847,58.729947c.279617-.015213.419373-.023697.698837-.042419-.073685.084793-.110657.127151-.184906.2117.038635.608932.057938.913422.096542,1.522324.080505.057114.12088.085617.201782.142456-.283951.018967-.42598.027573-.710083.04303.081268-.072098.121796-.108215.202545-.180603-.035431-.609863-.053131-.914856-.088593-1.524765-.0867-.068527-.129944-.102859-.216125-.171722ZM35.13121,58.766797c-.056183.063339-.084351.094986-.140854.158188.039001.595612.058487.893417.097473,1.488998.109283.103226.164185.154709.274429.257416-.317474.022202-.476257.032211-.79393.050049-.016357-.014725-.024521-.022095-.040863-.036835.296707-.016464.445038-.02565.741562-.045929-.089432-.082748-.133987-.124222-.222809-.207321-.039261-.606903-.058899-.910385-.09819-1.517319.062439-.069809.093567-.104752.155609-.174744.011032.011002.016541.01651.027573.027496Z"/><path class="cls-14" d="M36.029388,59.486218c.031647.066757.047501.100113.079315.166824-.299973.025284-.450012.036942-.750214.058273-.030121-.067169-.045135-.100784-.075089-.167984.298508-.020889.447708-.032303.745987-.057114ZM36.268798,59.745175c-.322083.028015-.483231.040894-.805603.064346-.01442-.015396-.021622-.023102-.036026-.038513.312546-.022552.46875-.034912.781036-.061752-.034485-.077408-.051682-.116119-.085968-.193588.020264.011612.030411.017426.050705.029007.038239.080231.057404.120331.095856.2005Z"/><path class="cls-14" d="M36.241989,58.59567c.275574-.024323.4133-.037338.688629-.065079-.074203.08522-.111481.127762-.186279.212723.034195.352264.05127.528381.085449.88063.029648-.039764.044434-.059662.073975-.099472-.03064-.310989-.045944-.466492-.076584-.777481.059891-.069885.089737-.104858.149246-.174896.009949.011948.014923.017914.024857.029861-.05452.064453-.081894.096649-.136749.160965.02829.285324.042435.427994.070724.713303.164032-.234528.245132-.352066.405518-.587723.057877-.083817.082672-.157288.07579-.220383-.003922-.035919-.02652-.069794-.067383-.09877-.04097-.029938-.088364-.046463-.142426-.051544-.000671-.006226-.000992-.009323-.001648-.015549.31012-.032776.465073-.050247.774826-.087357.000748.00621.001129.009293.001862.015503-.16452.06102-.331741.217972-.503616.472641-.071564.105316-.107529.157913-.179825.263.263748.394684.397598.591278.669296.98288.10907.051453.163757.077042.273346.12796-.314865.037933-.472382.055817-.787613.089432.073334-.065567.109879-.098404.1828-.1642-.182098-.272308-.272247-.408829-.450653-.682541-.085403.12587-.128387.188721-.214828.31427.016571.167145.024857.250717.041412.417862.109665.101395.164749.151947.27533.252808-.312302.032318-.468552.047424-.781158.0755-.018066-.014069-.027084-.021103-.045135-.035172.292511-.026062.438705-.040024.730957-.069794-.086227-.081528-.129196-.12236-.214844-.204208-.017807-.180756-.026703-.271133-.04451-.451889.092453-.135117.138351-.202744.229614-.338211-.015808-.024292-.023697-.036438-.03949-.06073-.109222.156082-.16423.234009-.275085.389587.017624.181549.026428.272339.044037.453903.079742.056229.11972.084274.199844.140228-.278488.027924-.417816.041046-.696533.065598.077164-.075424.115631-.11319.192291-.188873-.05603-.611084-.08403-.916641-.140091-1.527756-.082367-.062653-.123428-.09407-.205353-.157028ZM38.069457,58.538861c-.144043.027283-.279175.128662-.406357.302277-.09053.125046-.136063.187485-.227676.312164.255112.394287.384583.590744.647293.982162.184647.090698.277359.135666.463562.224884-.386703.048569-.580231.071228-.967514.113281-.018723-.013687-.028091-.020523-.046814-.034225.352158-.037979.528122-.058319.879822-.101685-.139664-.068573-.20929-.103073-.348068-.172485-.272003-.401428-.406006-.602936-.669937-1.007431.097443-.134659.145859-.202087.24205-.337158.126205-.173447.262955-.277878.413315-.309814.008133.011215.012192.016815.020325.02803Z"/><path class="cls-14" d="M39.087448,58.252255c.23735-.033264.439377.027649.609268.183777.1689.156265.277802.38237.32373.679611.043411.280838.006348.515961-.112152.704666-.119522.188858-.301453.300705-.545929.335007-.192963.027069-.372894-.007843-.538574-.106262-.243622-.14534-.386002-.39061-.428833-.732651-.036652-.292633.008621-.534363.133682-.7258.125076-.191437.310715-.303589.558807-.338348ZM39.104934,58.376996c-.330887.046371-.458862.354904-.383499.930054.069656.531586.272995.775543.608719.728531.15625-.021881.265274-.108749.325928-.261734.060806-.152008.070068-.363708.029892-.634171-.045486-.306198-.115707-.513916-.209961-.623474-.098892-.113831-.22229-.160049-.371078-.139206ZM39.566161,58.259076c.14949.044891.277527.142822.384033.291351s.176376.328293.209412.538589c.04895.3116.006607.574463-.128159.790634-.135788.216339-.338287.345383-.607529.383362-.172073.024277-.340973-.009872-.505219-.101395-.000351-.002701-.000534-.004059-.0009-.006775.136917.071503.29985.093842.488983.0672.253876-.035767.448853-.158554.583038-.365677.133408-.205917.178375-.452393.134033-.736038-.033051-.211304-.098541-.389801-.195709-.53685-.096207-.147202-.21611-.250336-.359695-.308945-.000916-.006195-.001373-.009262-.002289-.015457ZM39.45079,58.549496c-.010666-.004364-.015991-.006561-.026657-.010925-.101715-.037506-.191696-.0513-.270187-.040253-.258026.036301-.354172.303864-.287308.804291.048889.365875.163361.597061.344116.694351-.004883.006195-.007339.009308-.012238.015488-.110092-.053833-.194656-.135468-.251831-.240738-.057434-.105759-.098175-.254868-.123505-.445572-.07135-.537262.036362-.823883.322647-.864151.130402-.018341.231522.010391.304962.087509Z"/><path class="cls-14" d="M40.140243,58.113278c.279617-.044601.419327-.067795.698502-.115952-.068863.093536-.103455.140244-.172958.233566.104187.617813.156311.926727.260498,1.544556.004822-.000824.007233-.001221.012054-.002045.021957-.002121.032944-.003189.054901-.005325.005615-.000961.008438-.00145.014069-.002396-.10434-.613449-.15654-.920166-.26088-1.533585.052658-.073547.078903-.110352.13118-.184021.010315.010895.015472.016357.025803.027252-.0466.067139-.069977.100708-.116882.167755.103577.60643.15538.909637.258942,1.516083.044861-.003693.089386-.009369.129547-.016327.160675-.027817.275208-.082993.345078-.166.068039-.08168.103714-.203339.103149-.364059.141296.244202.270935.405914.389389.483017-.629333.118317-.944672.17308-1.576279.273849.073029-.078506.109436-.117813.181961-.196548-.098495-.603333-.147751-.904984-.246246-1.508301-.092987-.060425-.139359-.090714-.231827-.15152ZM42.156997,59.656537c-.017426.057007-.026154.08551-.043701.142502-.630127.11937-.945831.174652-1.578262.276443-.017426-.013031-.026138-.019547-.043533-.032578.640518-.102661.960266-.158508,1.598434-.279205.010788-.03981.01619-.059708.026932-.099518-.134995-.108566-.249908-.23616-.3452-.383377-.003601-.006088-.005386-.00914-.009003-.015213.020416.003372.030624.005051.051041.008408.005768.008865.008652.01329.014435.022156.092407.130798.198944.245941.314087.348282.005905.004837.008865.007263.014771.0121Z"/><path class="cls-14" d="M41.777038,57.827206c.275803-.052429.413589-.079514.688889-.135437-.061691.093826-.092682.140732-.154968.23439.119324.598343.179016.897522.29834,1.495895.087326.045914.131088.068802.218781.11438-.279739.056747-.419739.084259-.699997.137543.070892-.082275.106201-.123459.176575-.205948-.116287-.599762-.174454-.899643-.290726-1.499374-.095016-.056381-.14238-.084656-.236893-.141449ZM42.548644,57.760617c-.047516.070312-.07135.105438-.119202.175659.117905.585083.176895.877609.294815,1.462723.122498.087677.183975.131363.307373.218399-.313095.06456-.469818.095749-.783569.155945-.017822-.012482-.026733-.018738-.04454-.031235.292664-.055954.438858-.084885.730957-.144638-.100021-.070038-.149887-.105179-.249313-.175659-.11972-.596313-.179611-.894455-.299316-1.490723.052887-.077545.079239-.116348.131714-.194031.012436.00943.018646.014145.031082.02356Z"/><path class="cls-14" d="M44.341262,57.277219c-.096252.083267-.154739.151154-.176895.204514-.031174.084564-.029175.198395.004822.343887.008698.037277.013062.055908.021759.093185.117386.502472.176086.753708.293442,1.256241-.101303.023651-.151993.03537-.253372.058578-.402313-.458557-.600388-.689468-.990189-1.154419.067123.311188.100693.466782.167831.777985.004715.025757.00708.038635.01181.064392.024933.080933.037399.121399.062378.202332.040527.091156.1017.151871.182617.182175.005707.003159.00856.004715.014282.007874-.14743-.013733-.246628-.140381-.297714-.378113-.010788-.054031-.016174-.081024-.026962-.135056-.067322-.313156-.100983-.469727-.168304-.782867-.044968-.053452-.067413-.0802-.112228-.133743.07045.330048.105682.495071.176147.825134.055847.261673.110413.429779.163498.502289.053497.074432.151138.115448.291962.122574.063675.042038.095551.063004.159439.104874-.325165.072037-.487961.106888-.813889.17421-.012787-.013321-.019196-.019974-.031967-.033295.30127-.062103.451736-.094147.752365-.160278-.038193-.024811-.057266-.037216-.095367-.062073-.27948.061066-.419373.090744-.699387.148315.113525-.067215.182693-.140625.207748-.219727.025055-.079117.019302-.204666-.017029-.376663-.096863-.458618-.145325-.687927-.242172-1.14653-.090759-.047501-.136063-.071335-.226425-.119202.293732-.060959.44043-.092438.733505-.157379-.069885.072693-.10495.108978-.175293.181458.399185.479172.602127.717087,1.014587,1.189484-.015839-.068512-.023743-.102768-.039581-.17128-.352921-.404343-.526962-.607803-.870117-1.017136.069473-.072449.104111-.108719.173126-.181381.013687.008545.020538.012833.034225.021362-.061203.064148-.091888.096176-.153442.160156.315231.378052.47493.566071.798386.939941-.061569-.266418-.092361-.399628-.153931-.666031-.00705-.030441-.010559-.04567-.017593-.076111-.038269-.165543-.078247-.273483-.118378-.322449-.039856-.04863-.120941-.087357-.240753-.114288.263107-.05957.394516-.090164.657059-.152939ZM44.417877,57.371335c-.006805.019302-.010208.028961-.017029.048264-.070312.034927-.112946.079132-.128311.130936-.016098.052979-.011322.134109.014465.243423.138626.587753.207977.881607.346588,1.469452-.128647.030334-.193008.045334-.321777.074921-.011505-.013382-.017242-.020081-.028732-.033478.120697-.027695.18103-.041718.30162-.070068-.133362-.567383-.200104-.851044-.333481-1.418365-.031296-.133072-.035049-.231689-.012466-.292023.022675-.060577.081833-.111633.179123-.153061Z"/><path id="a" class="cls-9" d="M8.207849,11.987807h4.382092l-4.382092-2.744182v5.842789h4.382092l-4.382092-4.382092v1.283485Z"/><path id="a-2" class="cls-6" d="M9.491335,11.987807h3.098606l-4.382092-2.744182v5.842789h4.382092l-3.098606-3.098607Z"/><path class="cls-2" d="M8.430585,10.958739c.189446.482027.733783.71921,1.21581.529764.242521-.095316.434448-.287243.529764-.529764,0,.482027-.39076.872787-.872787.872787s-.872787-.39076-.872787-.872787"/><circle class="cls-2" cx="9.303372" cy="11.364922" r=".406151"/><g id="d"><g id="c"><path id="b" class="cls-2" d="M9.4588,10.989687l-.045385-.177983-.110042.147067"/><path id="b-2" class="cls-2" d="M9.590564,11.07773l.026181-.181803-.157946.093761"/><path id="b-3" class="cls-2" d="M9.678607,11.209495l.093761-.157946-.181803.026181"/></g><g id="c-2"><path id="b-4" class="cls-2" d="M9.709523,11.364922l.147067-.110042-.177983-.045385"/><path id="b-5" class="cls-2" d="M9.678607,11.52035l.177983-.045385-.147067-.110042"/><path id="b-6" class="cls-2" d="M9.590564,11.652115l.181803.026181-.093761-.157946"/></g></g><g id="d-2"><g id="c-3"><path id="b-7" class="cls-2" d="M9.147945,10.989687l.045385-.177983.110042.147067"/><path id="b-8" class="cls-2" d="M9.01618,11.07773l-.026181-.181803.157946.093761"/><path id="b-9" class="cls-2" d="M8.928137,11.209495l-.093761-.157946.181803.026181"/></g><g id="c-4"><path id="b-10" class="cls-2" d="M8.897221,11.364922l-.147067-.110042.177983-.045385"/><path id="b-11" class="cls-2" d="M8.928137,11.52035l-.177983-.045385.147067-.110042"/><path id="b-12" class="cls-2" d="M9.01618,11.652115l-.181803.026181.093761-.157946"/></g></g><circle class="cls-2" cx="9.303372" cy="13.537125" r=".594752"/><g id="g"><g id="f"><path id="e" class="cls-2" d="M9.457305,14.111612l-.153933.363289-.153933-.363289"/><path id="e-2" class="cls-2" d="M9.149439,12.962639l.153933-.363289.153933.363289"/></g><g id="f-2"><path id="e-3" class="cls-2" d="M8.728886,13.691058l-.363289-.153933.363289-.153933"/><path id="e-4" class="cls-2" d="M9.877859,13.383192l.363289.153933-.363289.153933"/></g></g><g id="g-2"><g id="f-3"><path id="e-5" class="cls-2" d="M9.149439,14.111612l-.314954.237651.048334-.391584"/><path id="e-6" class="cls-2" d="M9.457305,12.962639l.314954-.237651-.048334.391584"/></g><g id="f-4"><path id="e-7" class="cls-2" d="M8.728886,13.383192l-.237651-.314954.391584.048334"/><path id="e-8" class="cls-2" d="M9.877859,13.691058l.237651.314954-.391584-.048334"/></g></g><g id="g-3"><g id="f-5"><path id="e-9" class="cls-2" d="M8.882819,13.957678l-.391584.048334.237651-.314954"/><path id="e-10" class="cls-2" d="M9.723925,13.116572l.391584-.048334-.237651.314954"/></g><g id="f-6"><path id="e-11" class="cls-2" d="M8.882819,13.116572l-.048334-.391584.314954.237651"/><path id="e-12" class="cls-2" d="M9.723925,13.957678l.048334.391584-.314954-.237651"/></g></g></g></svg>