<?xml version="1.0" encoding="UTF-8"?><svg id="Layer_2" xmlns="http://www.w3.org/2000/svg" xmlns:xlink="http://www.w3.org/1999/xlink" viewBox="0 0 72.72 62.640015"><defs><style>.cls-1{stroke:#000;}.cls-1,.cls-2,.cls-3,.cls-4,.cls-5,.cls-6{stroke-miterlimit:10;}.cls-1,.cls-2,.cls-3,.cls-4,.cls-6{stroke-width:.5px;}.cls-1,.cls-7,.cls-5,.cls-6{fill:none;}.cls-8{fill:#47321d;}.cls-9{fill:#407036;}.cls-10{fill:#a9fffd;}.cls-2{fill:#fff;}.cls-2,.cls-3,.cls-5,.cls-6{stroke:#a9fffd;}.cls-11{fill:#775936;}.cls-12{fill:#cecece;}.cls-13{fill:#606060;}.cls-14{fill:#262626;}.cls-15{fill:#ebe0b3;}.cls-16{fill:#ffabfb;}.cls-17{font-family:Bahnschrift-Bold, Bahnschrift;font-size:7px;font-variation-settings:'wght' 700, 'wdth' 100;font-weight:700;}.cls-17,.cls-18,.cls-3,.cls-4,.cls-19{fill:#f4f1e9;}.cls-20{fill:#c4c4c4;}.cls-21{fill:#3a3a3a;}.cls-22{fill:#5b4827;}.cls-23{fill:#513e27;}.cls-24{fill:#26ff00;}.cls-25{fill:#281d13;}.cls-4{stroke:#ff8fff;}.cls-19{font-family:Algerian, Algerian;font-size:9px;}.cls-26{clip-path:url(#clippath);}.cls-27{fill:#71afac;}</style><clipPath id="clippath"><path class="cls-7" d="M61.559982,40.86349c-.000122-13.917542-11.282471-25.19989-25.200012-25.19989s-25.199829,11.282349-25.199951,25.19989v.000122c0,3.464966,2.834961,6.299988,6.299988,6.299988h37.799988c3.465027,0,6.299988-2.835022,6.299988-6.299988v-.000122Z"/></clipPath></defs><g id="_Kua_Lo-Fi_Meli"><path class="cls-12" d="M70.72,0h-2c0,1.104553-.895447,2-2,2-1.104614,0-2-.895447-2-2h-2c0,1.104553-.895447,2-2,2-1.104614,0-2-.895447-2-2h-2c0,1.104553-.895447,2-2,2-1.104614,0-2-.895447-2-2h-2c0,1.104553-.895447,2-2,2-1.104614,0-2-.895447-2-2h-2c0,1.104553-.895447,2-2,2-1.104614,0-2-.895447-2-2h-2c0,1.104553-.895447,2-2,2-1.104614,0-2-.895447-2-2h-2c0,1.104553-.895447,2-2,2-1.104614,0-2-.895447-2-2h-2c0,1.104553-.895447,2-2,2-1.104614,0-2-.895447-2-2h-2c0,1.104553-.895447,2-2,2-1.104614,0-2-.895447-2-2h-2c0,1.104553-.895447,2-2,2-1.104614,0-2-.895447-2-2h-2c0,1.104553-.895447,2-2,2-1.104614,0-2-.895447-2-2h-2c0,.526672-.213379,1.041809-.585815,1.414246-.372375.372375-.887512.585754-1.414185.585754v2.264038c1.104553,0,2,.895386,2,2s-.895447,2-2,2v2.263977c1.104553,0,2,.895447,2,2,0,1.104553-.895447,2-2,2v2.263977c1.104553,0,2,.895447,2,2,0,1.104614-.895447,2-2,2v2.264038c1.104553,0,2,.895386,2,2s-.895447,2-2,2v2.263977c1.104553,0,2,.895447,2,2,0,1.104553-.895447,2-2,2v2.263977c1.104553,0,2,.895447,2,2,0,1.104614-.895447,2-2,2v2.264038c1.104553,0,2,.895447,2,2s-.895447,2-2,2v2.263977c1.104553,0,2,.895447,2,2s-.895447,2-2,2v2.263977c1.104553,0,2,.895447,2,2s-.895447,2-2,2v2.264038c.526672,0,1.041809.213379,1.414185.585754.372437.372437.585815.887573.585815,1.414246h2c0-1.104553.895386-2,2-2,1.104553,0,2,.895447,2,2h2c0-1.104553.895386-2,2-2,1.104553,0,2,.895447,2,2h2c0-1.104553.895386-2,2-2,1.104553,0,2,.895447,2,2h2c0-1.104553.895386-2,2-2,1.104553,0,2,.895447,2,2h2c0-1.104553.895386-2,2-2,1.104553,0,2,.895447,2,2h2c0-1.104553.895386-2,2-2,1.104553,0,2,.895447,2,2h2c0-1.104553.895386-2,2-2,1.104553,0,2,.895447,2,2h2c0-1.104553.895386-2,2-2,1.104553,0,2,.895447,2,2h2c0-1.104553.895386-2,2-2,1.104553,0,2,.895447,2,2h2c0-1.104553.895386-2,2-2,1.104553,0,2,.895447,2,2h2c0-1.104553.895386-2,2-2,1.104553,0,2,.895447,2,2h2c0-.526672.213379-1.041809.585754-1.414246.372437-.372375.887573-.585754,1.414246-.585754v-2.264038c-1.104614,0-2-.895386-2-2s.895386-2,2-2v-2.263977c-1.104614,0-2-.895447-2-2,0-1.104553.895386-2,2-2v-2.263977c-1.104614,0-2-.895447-2-2s.895386-2,2-2v-2.264038c-1.104614,0-2-.895386-2-2,0-1.104553.895386-2,2-2v-2.263977c-1.104614,0-2-.895447-2-2,0-1.104553.895386-2,2-2v-2.263977c-1.104614,0-2-.895447-2-2s.895386-2,2-2v-2.264038c-1.104614,0-2-.895386-2-2,0-1.104553.895386-2,2-2v-2.263977c-1.104614,0-2-.895447-2-2,0-1.104553.895386-2,2-2v-2.264038c-1.104614,0-2-.895386-2-2s.895386-2,2-2v-2.263977c-.526672,0-1.041809-.213379-1.414246-.585754C70.933379,1.041809,70.72.526672,70.72,0Z"/><path class="cls-18" d="M70,0h-2c0,1.104553-.895447,2-2,2-1.104614,0-2-.895447-2-2h-2c0,1.104553-.895447,2-2,2-1.104614,0-2-.895447-2-2h-2c0,1.104553-.895447,2-2,2-1.104614,0-2-.895447-2-2h-2c0,1.104553-.895447,2-2,2-1.104614,0-2-.895447-2-2h-2c0,1.104553-.895447,2-2,2-1.104614,0-2-.895447-2-2h-2c0,1.104553-.895447,2-2,2-1.104614,0-2-.895447-2-2h-2c0,1.104553-.895447,2-2,2-1.104614,0-2-.895447-2-2h-2c0,1.104553-.895447,2-2,2-1.104614,0-2-.895447-2-2h-2c0,1.104553-.895447,2-2,2-1.104614,0-2-.895447-2-2h-2c0,1.104553-.895447,2-2,2-1.104614,0-2-.895447-2-2h-2c0,1.104553-.895447,2-2,2-1.104614,0-2-.895447-2-2h-2c0,.526672-.213379,1.041809-.585815,1.414246C1.041809,1.786621.526672,2,0,2v2.264038c1.104553,0,2,.895386,2,2,0,1.104553-.895447,2-2,2v2.263977c1.104553,0,2,.895447,2,2,0,1.104553-.895447,2-2,2v2.263977c1.104553,0,2,.895447,2,2S1.104553,20.791992,0,20.791992v2.264038c1.104553,0,2,.895386,2,2,0,1.104553-.895447,2-2,2v2.263977c1.104553,0,2,.895447,2,2,0,1.104553-.895447,2-2,2v2.263977c1.104553,0,2,.895447,2,2,0,1.104614-.895447,2-2,2v2.264038c1.104553,0,2,.895447,2,2S1.104553,45.848022,0,45.848022v2.263977c1.104553,0,2,.895447,2,2,0,1.104553-.895447,2-2,2v2.263977c1.104553,0,2,.895447,2,2,0,1.104614-.895447,2-2,2v2.264038c.526672,0,1.041809.213379,1.414185.585754.372437.372437.585815.887573.585815,1.414246h2c0-1.104553.895386-2,2-2,1.104553,0,2,.895447,2,2h2c0-1.104553.895386-2,2-2,1.104553,0,2,.895447,2,2h2c0-1.104553.895386-2,2-2,1.104553,0,2,.895447,2,2h2c0-1.104553.895386-2,2-2,1.104553,0,2,.895447,2,2h2c0-1.104553.895386-2,2-2,1.104553,0,2,.895447,2,2h2c0-1.104553.895386-2,2-2,1.104553,0,2,.895447,2,2h2c0-1.104553.895386-2,2-2,1.104553,0,2,.895447,2,2h2c0-1.104553.895386-2,2-2,1.104553,0,2,.895447,2,2h2c0-1.104553.895386-2,2-2,1.104553,0,2,.895447,2,2h2c0-1.104553.895386-2,2-2,1.104553,0,2,.895447,2,2h2c0-1.104553.895386-2,2-2,1.104553,0,2,.895447,2,2h2c0-.526672.213379-1.041809.585754-1.414246.372437-.372375.887573-.585754,1.414246-.585754v-2.264038c-1.104614,0-2-.895386-2-2,0-1.104553.895386-2,2-2v-2.263977c-1.104614,0-2-.895447-2-2,0-1.104553.895386-2,2-2v-2.263977c-1.104614,0-2-.895447-2-2s.895386-2,2-2v-2.264038c-1.104614,0-2-.895386-2-2,0-1.104553.895386-2,2-2v-2.263977c-1.104614,0-2-.895447-2-2,0-1.104553.895386-2,2-2v-2.263977c-1.104614,0-2-.895447-2-2,0-1.104614.895386-2,2-2v-2.264038c-1.104614,0-2-.895386-2-2,0-1.104553.895386-2,2-2v-2.263977c-1.104614,0-2-.895447-2-2,0-1.104553.895386-2,2-2v-2.264038c-1.104614,0-2-.895386-2-2,0-1.104553.895386-2,2-2v-2.263977c-.526672,0-1.041809-.213379-1.414246-.585754C70.213379,1.041809,70,.526672,70,0Z"/><rect class="cls-16" x="7.559998" y="6.031824" width="57.599976" height=".179993"/><rect class="cls-16" x="7.559998" y="6.391809" width="57.599976" height=".179993"/><rect class="cls-16" x="7.559998" y="6.751794" width="57.599976" height=".179993"/><rect class="cls-16" x="7.559998" y="7.108179" width="57.599976" height=".180054"/><rect class="cls-16" x="7.559998" y="7.468225" width="57.599976" height=".179993"/><rect class="cls-16" x="7.559998" y="7.831812" width="57.599976" height=".179993"/><rect class="cls-16" x="7.559998" y="8.191797" width="57.599976" height=".179993"/><rect class="cls-16" x="7.559998" y="8.551782" width="57.599976" height=".180054"/><rect class="cls-16" x="7.559998" y="8.908228" width="57.599976" height=".179993"/><rect class="cls-16" x="7.559998" y="9.268213" width="57.599976" height=".179993"/><rect class="cls-16" x="7.559998" y="9.631799" width="57.599976" height=".179993"/><rect class="cls-16" x="7.559998" y="9.991785" width="57.599976" height=".179993"/><rect class="cls-16" x="7.559998" y="10.351831" width="57.599976" height=".179993"/><rect class="cls-16" x="7.559998" y="10.708215" width="57.599976" height=".179993"/><rect class="cls-16" x="7.559998" y="11.068201" width="57.599976" height=".179993"/><rect class="cls-16" x="7.559998" y="11.431787" width="57.599976" height=".179993"/><rect class="cls-16" x="7.559998" y="11.791833" width="57.599976" height=".179993"/><rect class="cls-16" x="7.559998" y="12.151819" width="57.599976" height=".179993"/><rect class="cls-16" x="7.559998" y="12.508203" width="57.599976" height=".179993"/><rect class="cls-16" x="7.559998" y="12.868188" width="57.599976" height=".179993"/><rect class="cls-16" x="7.559998" y="13.231836" width="57.599976" height=".179993"/><rect class="cls-16" x="7.559998" y="13.591821" width="57.599976" height=".179993"/><rect class="cls-16" x="7.559998" y="13.951807" width="57.599976" height=".179993"/><rect class="cls-16" x="7.559998" y="14.308191" width="57.599976" height=".179993"/><rect class="cls-16" x="7.559998" y="14.668176" width="57.599976" height=".180054"/><rect class="cls-16" x="7.559998" y="15.031824" width="57.599976" height=".179993"/><rect class="cls-16" x="7.559998" y="15.391809" width="57.599976" height=".179993"/><rect class="cls-16" x="7.559998" y="15.751794" width="57.599976" height=".179993"/><rect class="cls-16" x="7.559998" y="16.108179" width="57.599976" height=".180054"/><rect class="cls-16" x="7.559998" y="16.468225" width="57.599976" height=".179993"/><rect class="cls-16" x="7.559998" y="16.831812" width="57.599976" height=".179993"/><rect class="cls-16" x="7.559998" y="17.191797" width="57.599976" height=".179993"/><rect class="cls-16" x="7.559998" y="17.551782" width="57.599976" height=".180054"/><rect class="cls-16" x="7.559998" y="17.908228" width="57.599976" height=".179993"/><rect class="cls-16" x="7.559998" y="18.268213" width="57.599976" height=".179993"/><rect class="cls-16" x="7.559998" y="18.631799" width="57.599976" height=".179993"/><rect class="cls-16" x="7.559998" y="18.991785" width="57.599976" height=".179993"/><rect class="cls-16" x="7.559998" y="19.351831" width="57.599976" height=".179993"/><rect class="cls-16" x="7.559998" y="19.708215" width="57.599976" height=".179993"/><rect class="cls-16" x="7.559998" y="20.068201" width="57.599976" height=".179993"/><rect class="cls-16" x="7.559998" y="20.431787" width="57.599976" height=".179993"/><rect class="cls-16" x="7.559998" y="20.791833" width="57.599976" height=".179993"/><rect class="cls-16" x="7.559998" y="21.151819" width="57.599976" height=".179993"/><rect class="cls-16" x="7.559998" y="21.508203" width="57.599976" height=".179993"/><rect class="cls-16" x="7.559998" y="21.868188" width="57.599976" height=".179993"/><rect class="cls-16" x="7.559998" y="22.231836" width="57.599976" height=".179993"/><rect class="cls-16" x="7.559998" y="22.591821" width="57.599976" height=".179993"/><rect class="cls-16" x="7.559998" y="22.951807" width="57.599976" height=".179993"/><rect class="cls-16" x="7.559998" y="23.308191" width="57.599976" height=".179993"/><rect class="cls-16" x="7.559998" y="23.668176" width="57.599976" height=".180054"/><rect class="cls-16" x="7.559998" y="24.031824" width="57.599976" height=".179993"/><rect class="cls-16" x="7.559998" y="24.391809" width="57.599976" height=".179993"/><rect class="cls-16" x="7.559998" y="24.751794" width="57.599976" height=".179993"/><rect class="cls-16" x="7.559998" y="25.108179" width="57.599976" height=".180054"/><rect class="cls-16" x="7.559998" y="25.468225" width="57.599976" height=".179993"/><rect class="cls-16" x="7.559998" y="25.831812" width="57.599976" height=".179993"/><rect class="cls-16" x="7.559998" y="26.191797" width="57.599976" height=".179993"/><rect class="cls-16" x="7.559998" y="26.551782" width="57.599976" height=".180054"/><rect class="cls-16" x="7.559998" y="26.908228" width="57.599976" height=".179993"/><rect class="cls-16" x="7.559998" y="27.268213" width="57.599976" height=".179993"/><rect class="cls-16" x="7.559998" y="27.631799" width="57.599976" height=".179993"/><rect class="cls-16" x="7.559998" y="27.991785" width="57.599976" height=".179993"/><rect class="cls-16" x="7.559998" y="28.351831" width="57.599976" height=".179993"/><rect class="cls-16" x="7.559998" y="28.708215" width="57.599976" height=".179993"/><rect class="cls-16" x="7.559998" y="29.068201" width="57.599976" height=".179993"/><rect class="cls-16" x="7.559998" y="29.431787" width="57.599976" height=".179993"/><rect class="cls-16" x="7.559998" y="29.791833" width="57.599976" height=".179993"/><rect class="cls-16" x="7.559998" y="30.151819" width="57.599976" height=".179993"/><rect class="cls-16" x="7.559998" y="30.508203" width="57.599976" height=".179993"/><rect class="cls-16" x="7.559998" y="30.868188" width="57.599976" height=".179993"/><rect class="cls-16" x="7.559998" y="31.231836" width="57.599976" height=".179993"/><rect class="cls-16" x="7.559998" y="31.591821" width="57.599976" height=".179993"/><rect class="cls-16" x="7.559998" y="31.951807" width="57.599976" height=".179993"/><rect class="cls-16" x="7.559998" y="32.308191" width="57.599976" height=".179993"/><rect class="cls-16" x="7.559998" y="32.668176" width="57.599976" height=".180054"/><rect class="cls-16" x="7.559998" y="33.031824" width="57.599976" height=".179993"/><rect class="cls-16" x="7.559998" y="33.391809" width="57.599976" height=".179993"/><rect class="cls-16" x="7.559998" y="33.751794" width="57.599976" height=".179993"/><rect class="cls-16" x="7.559998" y="34.108179" width="57.599976" height=".180054"/><rect class="cls-16" x="7.559998" y="34.468225" width="57.599976" height=".179993"/><rect class="cls-16" x="7.559998" y="34.831812" width="57.599976" height=".179993"/><rect class="cls-16" x="7.559998" y="35.191797" width="57.599976" height=".179993"/><rect class="cls-16" x="7.559998" y="35.551782" width="57.599976" height=".180054"/><rect class="cls-16" x="7.559998" y="35.908228" width="57.599976" height=".179993"/><rect class="cls-16" x="7.559998" y="36.268213" width="57.599976" height=".179993"/><rect class="cls-16" x="7.559998" y="36.631799" width="57.599976" height=".179993"/><rect class="cls-16" x="7.559998" y="36.991785" width="57.599976" height=".179993"/><rect class="cls-16" x="7.559998" y="37.351831" width="57.599976" height=".179993"/><rect class="cls-16" x="7.559998" y="37.708215" width="57.599976" height=".179993"/><rect class="cls-16" x="7.559998" y="38.068201" width="57.599976" height=".179993"/><rect class="cls-16" x="7.559998" y="38.431787" width="57.599976" height=".179993"/><rect class="cls-16" x="7.559998" y="38.791833" width="57.599976" height=".179993"/><rect class="cls-16" x="7.559998" y="39.151819" width="57.599976" height=".179993"/><rect class="cls-16" x="7.559998" y="39.508203" width="57.599976" height=".179993"/><rect class="cls-16" x="7.559998" y="39.868188" width="57.599976" height=".179993"/><rect class="cls-16" x="7.559998" y="40.231836" width="57.599976" height=".179993"/><rect class="cls-16" x="7.559998" y="40.591821" width="57.599976" height=".179993"/><rect class="cls-16" x="7.559998" y="40.951807" width="57.599976" height=".179993"/><rect class="cls-16" x="7.559998" y="41.308191" width="57.599976" height=".179993"/><rect class="cls-16" x="7.559998" y="41.668176" width="57.599976" height=".180054"/><rect class="cls-16" x="7.559998" y="42.031824" width="57.599976" height=".179993"/><rect class="cls-16" x="7.559998" y="42.391809" width="57.599976" height=".179993"/><rect class="cls-16" x="7.559998" y="42.751794" width="57.599976" height=".179993"/><rect class="cls-16" x="7.559998" y="43.108179" width="57.599976" height=".180054"/><rect class="cls-16" x="7.559998" y="43.468225" width="57.599976" height=".179993"/><rect class="cls-16" x="7.559998" y="43.831812" width="57.599976" height=".179993"/><rect class="cls-16" x="7.559998" y="44.191797" width="57.599976" height=".179993"/><rect class="cls-16" x="7.559998" y="44.551782" width="57.599976" height=".180054"/><rect class="cls-16" x="7.559998" y="44.908228" width="57.599976" height=".179993"/><rect class="cls-16" x="7.559998" y="45.268213" width="57.599976" height=".179993"/><rect class="cls-16" x="7.559998" y="45.631799" width="57.599976" height=".179993"/><rect class="cls-16" x="7.559998" y="45.991785" width="57.599976" height=".179993"/><rect class="cls-16" x="7.559998" y="46.351831" width="57.599976" height=".179993"/><rect class="cls-16" x="7.559998" y="46.708215" width="57.599976" height=".179993"/><rect class="cls-16" x="7.559998" y="47.068201" width="57.599976" height=".179993"/><rect class="cls-16" x="7.559998" y="47.431787" width="57.599976" height=".179993"/><rect class="cls-16" x="7.559998" y="47.791833" width="57.599976" height=".179993"/><rect class="cls-16" x="7.559998" y="48.151819" width="57.599976" height=".179993"/><rect class="cls-16" x="7.559998" y="48.508203" width="57.599976" height=".179993"/><rect class="cls-16" x="7.559998" y="48.868188" width="57.599976" height=".179993"/><rect class="cls-16" x="7.559998" y="49.231836" width="57.599976" height=".179993"/><rect class="cls-16" x="7.559998" y="49.591821" width="57.599976" height=".179993"/><rect class="cls-16" x="7.559998" y="49.951807" width="57.599976" height=".179993"/><rect class="cls-16" x="7.559998" y="50.308191" width="57.599976" height=".179993"/><rect class="cls-16" x="7.559998" y="50.668176" width="57.599976" height=".180054"/><rect class="cls-16" x="7.559998" y="51.031824" width="57.599976" height=".179993"/><rect class="cls-16" x="7.559998" y="51.391809" width="57.599976" height=".179993"/><rect class="cls-16" x="7.559998" y="51.751794" width="57.599976" height=".179993"/><rect class="cls-16" x="7.559998" y="52.108179" width="57.599976" height=".180054"/><rect class="cls-16" x="7.559998" y="52.468225" width="57.599976" height=".179993"/><rect class="cls-16" x="7.559998" y="52.831812" width="57.599976" height=".179993"/><rect class="cls-16" x="7.559998" y="53.191797" width="57.599976" height=".179993"/><rect class="cls-16" x="7.559998" y="53.551782" width="57.599976" height=".180054"/><rect class="cls-16" x="7.559998" y="53.908228" width="57.599976" height=".179993"/><rect class="cls-16" x="7.559998" y="54.268213" width="57.599976" height=".179993"/><rect class="cls-16" x="7.559998" y="54.631799" width="57.599976" height=".179993"/><rect class="cls-16" x="7.559998" y="54.991785" width="57.599976" height=".179993"/><rect class="cls-16" x="7.559998" y="55.351831" width="57.599976" height=".179993"/><rect class="cls-16" x="7.559998" y="55.708215" width="57.599976" height=".179993"/><rect class="cls-16" x="7.559998" y="56.068201" width="57.599976" height=".179993"/><rect id="Inner" class="cls-5" x="11.303993" y="2.520007" width="50.112" height="57.6" transform="translate(5.039985 67.68) rotate(-90)"/><path id="Main" class="cls-2" d="M63.205717,11.323212c.478937.041159.899416.462684.939167.941502.039668.477823-.314846.832336-.792669.792667l-6.936679-.585999c-.47881-.03966-.833523.31645-.792273.795395.041153.477821.460954.897621.938775.938773l5.202509.439498c.478876.040453.834287-.314957.793833-.793833l-.292998-3.468338c-.040455-.478878-.461457-.899881-.940335-.940336h0s-3.468338-.292998-3.468338-.292998c-.478876-.040454-.834287.314957-.793833.793833l.439498,5.202509c.041249.478944.46284.899357.94165.939018.477687.039568.832085-.314829.792518-.792516l-.585999-6.936679c-.039752-.478818.316278-.833612.795215-.792454.477942.041072.89788.46101.938954.938952l.219752,2.601254,2.601254.219752Z"/><path id="Main-2" class="cls-2" d="M63.205717,11.323212c.478937.041159.899416.462684.939167.941502.039668.477823-.314846.832336-.792669.792667l-6.936679-.585999c-.47881-.03966-.833523.31645-.792273.795395.041153.477821.460954.897621.938775.938773l5.202509.439498c.478876.040453.834287-.314957.793833-.793833l-.292998-3.468338c-.040455-.478878-.461457-.899881-.940335-.940336h0s-3.468338-.292998-3.468338-.292998c-.478876-.040454-.834287.314957-.793833.793833l.439498,5.202509c.041249.478944.46284.899357.94165.939018.477687.039568.832085-.314829.792518-.792516l-.585999-6.936679c-.039752-.478818.316278-.833612.795215-.792454.477942.041072.89788.46101.938954.938952l.219752,2.601254,2.601254.219752Z"/><path class="cls-2" d="M62.534828,11.266535l-.392398-.033149M60.654162,9.385869l-.392398-.033149M59.21299,12.707707l-.392398-.033149M57.625318,14.295379l-.392398-.033149M62.468561,12.787934l.033149.392398M58.707216,9.026589l.033149.392398M59.146716,14.2291l.033149.392398M57.26605,12.348434l.033149.392398"/><path class="cls-2" d="M62.559353,11.268607l-.441448-.037293M60.678687,9.387941l-.441448-.037293M59.237515,12.709779l-.441448-.037293M57.649843,14.297451l-.441448-.037293M62.466489,12.763409l.037293.441448M58.705144,9.002064l.037293.441448M59.144644,14.204575l.037293.441448M57.263978,12.323909l.037293.441448"/><path id="Main-3" class="cls-2" d="M12.369249,8.500647c.041159-.478937.462684-.899416.941502-.939167.477823-.039668.832336.314846.792667.792669l-.585999,6.936679c-.03966.47881.31645.833523.795395.792273.477821-.041153.897621-.460954.938773-.938775l.439498-5.202509c.040453-.478876-.314957-.834287-.793833-.793833l-3.468338.292998c-.478878.040455-.899881.461457-.940336.940335h0s-.292998,3.468339-.292998,3.468339c-.040454.478876.314957.834287.793833.793833l5.202509-.439498c.478944-.041249.899357-.46284.939018-.94165.039568-.477687-.314829-.832085-.792516-.792518l-6.936679.585999c-.478818.039752-.833612-.316278-.792454-.795215.041072-.477942.46101-.89788.938952-.938954l2.601254-.219752.219752-2.601254Z"/><path id="Main-4" class="cls-2" d="M12.369249,8.500647c.041159-.478937.462684-.899416.941502-.939167.477823-.039668.832336.314846.792667.792669l-.585999,6.936679c-.03966.47881.31645.833523.795395.792273.477821-.041153.897621-.460954.938773-.938775l.439498-5.202509c.040453-.478876-.314957-.834287-.793833-.793833l-3.468338.292998c-.478878.040455-.899881.461457-.940336.940335h0s-.292998,3.468339-.292998,3.468339c-.040454.478876.314957.834287.793833.793833l5.202509-.439498c.478944-.041249.899357-.46284.939018-.94165.039568-.477687-.314829-.832085-.792516-.792518l-6.936679.585999c-.478818.039752-.833612-.316278-.792454-.795215.041072-.477942.46101-.89788.938952-.938954l2.601254-.219752.219752-2.601254Z"/><path class="cls-2" d="M12.312571,9.171536l-.033149.392398M10.431905,11.052202l-.033149.392398M13.753744,12.493374l-.033149.392398M15.341415,14.081046l-.033149.392398M13.83397,9.237803l.392398-.033149M10.072625,12.999148l.392398-.033149M15.275136,12.559648l.392398-.033149M13.39447,14.440314l.392398-.033149"/><path class="cls-2" d="M12.314643,9.147011l-.037293.441448M10.433977,11.027677l-.037293.441448M13.755815,12.468849l-.037293.441448M15.343487,14.056521l-.037293.441448M13.809445,9.239875l.441448-.037293M10.0481,13.00122l.441448-.037293M15.250611,12.561719l.441448-.037293M13.369945,14.442385l.441448-.037293"/><path class="cls-18" d="M10.471752,33.732729c.323181.089966.484741.134933.807892.224899-.069946.260483-.103607.391861-.168304.656799-.325317-.081512-.487976-.122269-.813324-.203781-.62204.297806-.932495.459991-1.550323.812286.063934-.308624.097504-.461639.167816-.764969.432159-.208038.648651-.305893,1.08194-.489716-.290039-.375122-.432434-.566299-.711639-.955505.082428-.293076.125214-.438324.213715-.726105.37619.593124.570892.882614.972229,1.446091Z"/><path class="cls-18" d="M11.854229,32.076159c-.088135.256439-.13089.385864-.213654.647095-.825287-.274292-1.238037-.411453-2.063263-.685745.089661-.28302.135956-.423233.231445-.701065.818115.295883,1.227325.443832,2.045471.739716Z"/><path class="cls-18" d="M9.963299,30.897845c.37207-1.030579.578613-1.527573,1.028046-2.485077.141968.070084.212952.105133.354919.175217-.443146.944122-.64679,1.434174-1.013672,2.450333-.147736-.056198-.221588-.08429-.369293-.140472ZM10.4864,30.02318c.1026-.256454.155212-.383499.262909-.635147.729187.328827,1.093903.493256,1.82312.822098-.100037.233749-.148895.351761-.244202.589966-.736694-.31076-1.105133-.466156-1.841827-.776917Z"/><path class="cls-18" d="M11.522625,27.340548c.078735-.150742.118591-.225601.199219-.37439,1.017059-.045258,1.521027-.044205,2.515106.001343-.135437.223129-.201965.335953-.33255.56424-.666321-.036148-1.00235-.044846-1.678741-.04248.365112.582581.553864.868011.942627,1.426041-.118805.240707-.176941.362381-.290497.608261-.569946-.844513-.841705-1.28186-1.355164-2.183014ZM12.477428,28.631289c.315491-.643158.482391-.955795.832794-1.563232.135895.081757.203857.122635.339752.204376-.345245.598495-.509674.906525-.820526,1.540222-.140808-.07254-.211212-.108826-.35202-.181366Z"/><path class="cls-18" d="M13.84074,23.652407c.20224-.270447.305176-.403595.514435-.665665.678131.552979,1.017303.829498,1.695465,1.382492-.133331.166962-.199219.251358-.329468.422012-.535187-.418503-.802826-.627762-1.338013-1.04628.036011.016342.053986.024536.089966.040939.273224.537094.414734.802002.706879,1.323868-.124359.171158-.185791.257599-.307068.432251-.571228-.108383-.859406-.156418-1.440186-.239655-.03656-.036316-.05481-.054459-.091309-.090836.560547.382828.840881.574249,1.401398.957077-.120239.182144-.179535.274124-.296417.459946-.731689-.477615-1.097626-.716446-1.829254-1.194061.183472-.291672.27713-.435425.46817-.718719.630219.119263.942749.185837,1.561798.332245-.33255-.549667-.493927-.828949-.806396-1.395615Z"/><path class="cls-18" d="M16.852276,23.416125c-.159912.180588-.238983.272079-.395111.457428-.664581-.569519-.997009-.854294-1.66156-1.423813.169159-.200821.254791-.299942.42807-.495575.651398.584778.977203.877182,1.628601,1.46196Z"/><path class="cls-18" d="M16.241741,20.868136c.684235-.689819,1.040222-1.016434,1.775299-1.633179.102661.121414.154022.182114.256714.303528-.724792.608124-1.075836.930176-1.750488,1.610336-.11264-.112274-.168945-.168411-.281525-.280685ZM17.008678,20.370913c.179871-.169373.27066-.252853.453857-.417419.538208.59726.807373.895905,1.345581,1.493164-.170166.152863-.254517.230408-.42157.387726-.551147-.585388-.826782-.878082-1.377869-1.46347Z"/><path class="cls-18" d="M18.294414,19.005404c.190674-.155609.286804-.232224.48053-.383011.542023.687363.813171,1.031067,1.355225,1.71843-.178833.139175-.267548.2099-.443542.353531-.556854-.675568-.835388-1.013367-1.392212-1.68895ZM18.467296,18.865527c.612671-.491562.927094-.725037,1.569611-1.167389.09137.130005.137085.194992.228455.325012-.633514.436172-.943542.666367-1.547668,1.151062l-.250397-.308685ZM19.036297,19.566958c.518555-.416031.783783-.614944,1.324524-.994568.092529.129211.138794.193832.231323.323044-.532928.374146-.794342.57019-1.305389.980225-.100189-.123474-.150269-.185226-.250458-.308701ZM19.595745,20.256548c.574097-.460602.868713-.679352,1.470734-1.093857.0914.130005.137085.195023.228485.325012-.593048.40831-.88327.62381-1.448792,1.077545-.100159-.123474-.150238-.185226-.250427-.308701Z"/><path class="cls-18" d="M23.014355,18.320513c-.172119.024979-.326874.008301-.463837-.0522-.137268-.059723-.25174-.162842-.342255-.309647-.125946-.204285-.188904-.306412-.31485-.510696-.09024-.146378-.129456-.294846-.114655-.445206.01416-.150009.080475-.296753.198456-.437897.118378-.141937.285797-.272751.500885-.389481.178192-.09668.3526-.155289.521332-.176285.168976-.020554.325745-.003464.469482.050369.143951.05426.26944.144119.376312.268814-.219574.107574-.328827.162628-.546143.275253-.054779-.052887-.115875-.090317-.182922-.112854-.067078-.022537-.138123-.029526-.212128-.020767-.074036.008774-.148651.033173-.224548.074341-.09845.053436-.173859.112991-.226471.178787-.053467.06572-.082367.134995-.087738.207428-.005157.072861.013855.145691.056854.219009.121338.206955.182007.310425.303345.517395.043243.07373.097351.126572.162018.158844.064697.032272.137665.044128.219238.034729.080933-.009064.167603-.03894.261108-.089691.073273-.039764.132477-.086517.178406-.140961.045929-.054428.07666-.114395.093353-.180756.016113-.066055.01651-.135941.000763-.210159.211639-.10968.318054-.1633.531921-.268066.036438.159195.037292.310181.002319.453842-.035187.143219-.103546.273956-.20578.393188-.1026.11998-.235138.223099-.399323.31221-.198212.107559-.382721.174713-.555145.200455Z"/><path class="cls-18" d="M25.27232,17.172137c-.175018.00856-.326996-.023346-.457764-.09668-.129944-.073181-.234131-.186127-.30954-.339874-.245392-.500275-.368103-.750412-.613434-1.250671.219086-.103271.329163-.153687.550232-.252121.236359.50914.354584.763702.590973,1.272842.052673.113449.135956.182526.249603.207626.113861.025558.246887.00563.401794-.059647.156128-.065781.263458-.14711.323242-.245804.059937-.098221.066406-.205109.018341-.320511-.215698-.517853-.323578-.776779-.539246-1.294632.224365-.089249.337006-.13269.56308-.217133.202942.518143.304474.777222.507446,1.295349.062378.159241.07486.310852.039581.453659-.035736.143509-.11673.27359-.243652.392258-.127106.11821-.294891.220322-.505005.308853-.210083.088531-.400848.137482-.575653.146484Z"/><path class="cls-18" d="M27.415569,14.104311c.145935-.04628.219025-.068924.36554-.113251.733124.688217,1.083344,1.043167,1.749146,1.770798-.231903.059647-.347534.090759-.578064.155563-.441467-.49379-.669556-.736832-1.139801-1.214111-.100861.654221-.143005.980972-.210907,1.632629-.227203.077057-.340424.116898-.565887.199127.113281-.969315.189087-1.456238.379974-2.430756ZM27.295543,15.653201c.605377-.206802.911102-.30127,1.527039-.472351.044525.151764.066772.227661.111298.379425-.606842.168564-.908081.261642-1.504547.465393-.053497-.148972-.080261-.22348-.133789-.372467Z"/><path class="cls-18" d="M29.343273,13.565463c.286438-.06955.430084-.102524.718109-.164871.614105.54921.908569.831787,1.471161,1.410034-.016632.018585-.024963.027878-.041534.046494-.12561-.670242-.188416-1.005386-.313965-1.675613.226746-.040024.340332-.058929.56781-.094543.142548.857239.213928,1.285858.356567,2.143097-.270294.042313-.405182.065155-.674316.114197-.555176-.565933-.845673-.842392-1.451263-1.379593.016541-.019547.024841-.029312.041412-.048828.153992.654236.231018.981339.38501,1.635559-.20752.046097-.311066.070175-.51767.120346-.216522-.842499-.32486-1.263763-.541321-2.106277Z"/><path class="cls-18" d="M32.441875,12.986269c.23877-.031616.358368-.046219.597748-.073013.102753.863159.154236,1.294754.257111,2.157913-.220947.024734-.331329.038208-.551727.067398-.121277-.860901-.181946-1.291382-.303131-2.152298ZM32.939068,14.715838c.696899-.085922,1.046875-.11795,1.747742-.160141.010101.157501.015167.236252.025269.393753-.690399.041565-1.035187.073105-1.721649.157745-.020538-.15654-.030823-.234818-.051361-.391357Z"/><path class="cls-18" d="M35.652996,14.908831c-.230469.006027-.345703.010239-.575989.021057-.043488-.867859-.065247-1.301819-.108612-2.169693.249481-.011719.374329-.016281.623993-.022827.02417.868576.036346,1.302887.060608,2.171463Z"/><path class="cls-18" d="M36.125866,14.491305c.2258-.002029.338745-.001923.564545.00058-.002533.213837-.003784.320755-.006287.534592-.223053.15419-.332977.232407-.549347.390991-.003571-.370468-.005341-.555679-.008911-.926163Z"/><path class="cls-18" d="M38.480022,12.800524c.240295.01683.360352.026459.60025.048111-.083252.865143-.124786,1.297745-.207916,2.162888-.221436-.019989-.332275-.02887-.554047-.044403.064636-.866623.096954-1.299957.161713-2.166595ZM38.67506,13.752856c.394226.03125.591125.050232.984039.094925.069061.007843.131134.003845.187164-.012054.055267-.015488.100861-.041855.136047-.078812.035126-.036499.055969-.081116.062988-.133408.007202-.053741-.001129-.10257-.025055-.1474-.023987-.044342-.061218-.081421-.111755-.110138-.0513-.028305-.112579-.046844-.184387-.055008-.400726-.045578-.601532-.064941-1.003571-.096802.013306-.157272.019958-.235916.033234-.393188.401733.03183.602356.051132,1.002808.096466.197784.022385.368439.071213.510651.146027.142975.074417.246948.167496.314087.278778.066376.111664.088654.23259.068085.363892-.020508.130814-.078705.239685-.17334.327316-.095306.08754-.217865.148743-.369781.184021-.151245.035355-.320404.041855-.508881.020508-.381561-.043198-.572723-.061584-.955536-.091919.013275-.157272.019928-.235931.033203-.393204Z"/><path class="cls-18" d="M41.220684,13.120043c.237701.038925.356415.059601.593292.103363-.167419.853592-.251068,1.280426-.418365,2.134033-.218658-.04039-.328217-.059479-.547638-.095413.149017-.856781.223541-1.285202.372711-2.141983ZM41.435436,13.156023c.758514.129944,1.135956.207214,1.884583.386368-.038818.153244-.058228.229858-.097076.383102-.738159-.176651-1.110321-.252838-1.858215-.380966.02829-.155396.042419-.233109.070709-.388504ZM41.274761,14.038821c.641968.109985.961578.174072,1.596375.32045-.037506.153549-.056244.230331-.09375.383881-.625641-.144257-.940613-.207428-1.573303-.315811.028259-.155396.042419-.233109.070679-.388519ZM41.116863,14.906725c.710724.121765,1.064362.194168,1.765839.36203-.038788.153229-.058197.229874-.097015.383102-.69101-.165359-1.039368-.236679-1.739502-.356613.02829-.155396.042419-.233109.070679-.388519Z"/><path class="cls-18" d="M43.777386,15.900012c-.12384-.056488-.237183-.119171-.341522-.188782-.103851-.06897-.194458-.142761-.271423-.220673.135864-.105179.204437-.157364.342651-.26091.093964.095444.208588.181366.343689.257523.13562.076797.278931.137222.431915.182571.176208.052246.320038.073257.43158.060547.110931-.012909.180481-.057846.206909-.136261.000183-.000565.000275-.000854.000458-.001404.018616-.055222.011108-.105453-.021698-.15181-.032959-.045898-.082581-.087723-.148285-.125-.065826-.036804-.152496-.078766-.259674-.124573-.003662-.002106-.007446-.003754-.010742-.00473-.003296-.000992-.00708-.002625-.010742-.004745-.01712-.006927-.025635-.010391-.042786-.017288-.189331-.080032-.344604-.153305-.464996-.22258-.120514-.068817-.214508-.156738-.283295-.263855-.067993-.107407-.082642-.23735-.040985-.390289.000153-.000565.000214-.000854.000366-.001419.037048-.135956.113037-.240768.227844-.313797.115509-.072845.264832-.111694.448975-.114929.184296-.003723.396942.029953.636078.102005.109589.03302.218414.075699.327271.128952.108215.053024.211426.11348.308807.180969.097351.06749.186249.140656.266754.218781-.142944.098251-.213867.147797-.354706.247696-.096222-.092682-.20224-.174377-.317749-.244751-.116333-.070114-.233032-.122452-.349274-.157471-.175354-.052826-.316528-.072159-.42453-.059708-.10788.011978-.171936.054672-.193115.12648-.000183.000565-.000275.000854-.000427.001419-.017883.060547-.007507.114716.03186.163971.038818.048599.092163.091782.159668.128677.067383.037354.163788.084412.288849.141617.004883.003006.010071.005081.01593.00737.005188.002075.010193.004639.015228.007187.007721.003357.015411.006714.022278.010345.006897.003632.014435.007462.022125.010834.179565.082977.32486.163727.437286.240372.111572.076904.195068.169815.249329.278595.053772.108109.054871.231842.0047.370987-.000397.001114-.00061.001648-.001007.002762-.04718.130859-.129913.22818-.24762.292862-.117035.064896-.26474.095016-.442291.092453-.17691-.00235-.378479-.038269-.60553-.105576-.134796-.039978-.26416-.088394-.388153-.144424Z"/><path class="cls-18" d="M46.187603,16.709322c-.215546-.083252-.323761-.123688-.540985-.202133.309082-.815247.463654-1.2229.772919-2.038132.235321.084991.35257.128799.58609.218979-.327301.808502-.490906,1.212784-.818024,2.021286Z"/><path class="cls-18" d="M47.620342,14.933733c.273041.112854.408905.171082.679077.291138.154968.800705.217621,1.200317.313873,1.9953-.024872.004959-.037323.007446-.062134.012466.312653-.609207.469025-.913834.78183-1.523026.207428.102524.310669.154877.516113.26181-.414581.768478-.621826,1.152725-1.036224,1.921188-.24411-.127045-.366943-.188873-.614075-.309189-.097809-.780441-.16098-1.172684-.316376-1.958496.02536-.005875.038055-.008789.063446-.014587-.279999.613205-.419952.9198-.69986,1.53299-.195374-.085464-.293457-.127182-.490417-.208588.345825-.800385.518738-1.200607.864746-2.001007Z"/><path class="cls-18" d="M51.146862,16.692019c.81424.4814,1.212433.740341,1.986359,1.2948-.093719.128403-.140594.192596-.234283.320984-.763092-.546707-1.155731-.802048-1.958557-1.276703.082581-.135635.123871-.203445.206482-.339081ZM51.798229,17.301241c.204437.129974.30603.196167.507812.330933-.453217.663315-.679779.994965-1.132904,1.658279-.187439-.125183-.281799-.186676-.47168-.307388.43866-.672729.65799-1.009094,1.096771-1.681824Z"/><path class="cls-18" d="M53.422619,18.1971c.197113.145248.294983.219101.489166.369171-.539978.689102-.809906,1.033661-1.349701,1.722763-.17923-.138519-.269562-.20668-.451508-.340759.52475-.700455.78714-1.050705,1.312042-1.751175ZM53.600323,18.329195c.626404.469604.932343.71669,1.527161,1.235489-.104889.119568-.157318.179352-.262177.29892-.586487-.511551-.888153-.755188-1.505768-1.218216.096313-.12648.14447-.189713.240784-.316193ZM53.053173,19.047671c.530151.397446.789825.605255,1.296753,1.039108-.10379.120468-.155701.18071-.259491.301178-.499603-.427567-.755554-.632401-1.278015-1.024094.096313-.12648.14447-.189728.240753-.316193ZM52.515362,19.754015c.586914.440018.873566.671539,1.430908,1.157669-.104828.119553-.157257.179352-.262085.298904-.549042-.478867-.831421-.706924-1.409576-1.140381.096283-.12648.14444-.189728.240753-.316193Z"/><path class="cls-18" d="M55.270855,22.620364c-.069092-.163956-.092438-.319931-.067932-.468399.023682-.148621.096039-.284698.217651-.407333.16922-.170639.253815-.255951.423065-.42659.121246-.122269.25766-.194962.409821-.21492.151672-.020493.313538.011063.483398.09523.170715.084351.343292.220016.514618.406921.141907.154846.245392.315109.310272.47847.064484.163681.088654.323959.073059.479477-.015961.155823-.07193.301193-.167297.435547-.164215-.196396-.247345-.293335-.415588-.484665.038025-.066284.059082-.135422.063873-.207123s-.006836-.143906-.03479-.215439c-.027985-.071533-.071533-.140121-.131958-.206055-.07843-.085571-.15686-.146713-.235504-.183838-.078796-.037994-.154724-.050827-.227661-.039703-.073303.011475-.14032.046768-.20163.105835-.173065.166718-.259583.250076-.432617.416809-.061646.059402-.099854.124771-.115021.195938-.015137.071152-.007965.145905.022461.224396.029968.077972.08197.156952.156464.23822.05835.06366.119995.111938.185791.14537.065826.033447.133148.050613.203156.05246.069519.001312.138763-.013824.208099-.04599.163818.186356.244781.280762.404724.472015-.148041.071365-.297302.105286-.448669.101959-.151001-.003647-.298279-.043045-.442963-.118378-.145538-.075516-.282104-.184219-.412903-.326904-.157867-.172241-.271973-.339188-.341919-.503311Z"/><path class="cls-18" d="M56.997997,24.619936c-.054779-.175217-.063263-.335312-.025116-.482895.038208-.146698.12262-.275955.255005-.385147.430817-.355286.64624-.532944,1.077087-.888229.160034.197968.239044.298172.39505.500977-.442047.348129-.663025.522186-1.10498.870316-.09848.077576-.144897.176636-.139709.297211.004822.12088.059784.251694.165527.395767.106598.145218.215698.238022.329407.278625.113281.040909.220947.025391.322571-.047882.456085-.328888.684143-.493332,1.140289-.822205.148041.211609.221008.318634.364777.535065-.459808.315826-.689667.473755-1.149414.789597-.141296.097061-.288269.140945-.43924.13385-.151733-.007416-.302216-.064133-.453552-.16983-.15094-.105972-.296692-.2565-.440125-.451904s-.242432-.378387-.297577-.553314Z"/><path class="cls-18" d="M60.607525,26.2027c.084534.14476.126312.21759.208984.364288-.48822.911743-.747498,1.354904-1.293488,2.212021-.119873-.239288-.181091-.35762-.30603-.591751.372833-.567154.553375-.856918.901947-1.447769-.675079.021683-1.010132.042206-1.674103.101562-.136688-.222183-.206238-.332001-.347656-.549026.990997-.079773,1.493896-.098434,2.510345-.089325ZM59.040417,26.384539c.365662.591141.540405.895645.87207,1.522507-.138611.076797-.207916.115204-.346527.192001-.326782-.61763-.498962-.917633-.859253-1.500061.133453-.08577.200226-.128662.33371-.214447Z"/><path class="cls-18" d="M61.648845,28.162814c.143677.298462.213684.449509.349976.755173-.38446.777328-.588257,1.156418-1.016724,1.89267-.022583-.015366-.033905-.023056-.056519-.03833.630585-.261353.945892-.392044,1.576538-.653397.097321.247589.144806.372467.237366.624451-.811188.313919-1.216705.470886-2.027802.784821-.109955-.299393-.166779-.447388-.284027-.740036.417786-.723724.616364-1.096283.990784-1.860062.023621.014511.035431.021805.059052.036407-.607483.289993-.911194.434982-1.518616.724976-.099487-.219376-.150269-.328033-.253906-.54332.777527-.393341,1.16626-.590012,1.943878-.983353Z"/><path class="cls-18" d="M63.013469,31.522356c.090576.269241.134552.405106.219696.679169-.826904.269226-1.240295.403854-2.067139.673096-.078613-.252975-.119202-.378372-.20282-.626892.820068-.290146,1.230103-.435226,2.050262-.725372ZM61.428753,32.39786c.25708.791153.373535,1.197632.580048,2.032501-.152954.038879-.229431.058334-.382385.097214-.20343-.822418-.318146-1.222839-.571381-2.002182.149475-.05101.224243-.076523.373718-.127533Z"/><path class="cls-18" d="M61.884258,35.663439c-.05838-.281952-.08905-.421753-.153229-.698914.845703-.199509,1.268524-.299271,2.114288-.498795.06955.300293.102753.451736.166016.757202-.850861.176208-1.276245.264313-2.127075.440506Z"/><path class="cls-4" d="M61.578004,40.859897c-.000122-13.917542-11.282471-25.19989-25.200012-25.19989s-25.199829,11.282349-25.199951,25.19989v.000122c0,3.464966,2.834961,6.299988,6.299988,6.299988h37.799988c3.465027,0,6.299988-2.835022,6.299988-6.299988v-.000122Z"/><g class="cls-26"><rect class="cls-11" x="56.255319" y="24.211816" width="5.980296" height="22.676392"/><rect class="cls-8" x="54.43617" y="22.231836" width="1.819149" height="23.939941"/><rect class="cls-14" x="20.606383" y="35.641809" width="30.287234" height="2.156403"/><rect class="cls-14" x="48.946809" y="17.731836" width="3.328085" height="17.909973"/><rect class="cls-21" x="50.893617" y="19.441827" width="2.489362" height="19.440002"/><rect class="cls-21" x="20.06383" y="36.876596" width="30.829787" height="2.005234"/><rect class="cls-21" x="17.893617" y="21.868188" width="2.511343" height="17.013641"/><rect class="cls-14" x="20.06383" y="20.791833" width=".829787" height="16.084762"/><rect class="cls-21" x="9.666" y="40.411814" width="40.525489" height="10.619995"/><path d="M25.393617,31.16383s-.340426-.776596-.095745-1.457447c0,0,1.095745.468085,1.148936.829787,0,0,.993943-.057747,1.085106-.042553,0,0,.43617-.816008,1.074468-.971834,0,0,.170213,1.173961.095745,1.280344,0,0,.297872.989992-.138298,1.59606,0,0,.62766,1.084791,3.957447,1.212451,0,0,2.180851-.234609,3.478723,2.297589,0,0,.085106.276879-.489362.510921,0,0-.329787.243591-1.297872.302647,0,0-1.978723,1.399481-6.074468-.111157,0,0-1.138298-.138298-2.659574-.37234,0,0-.776596-.244681-.882979-.882979,0,0,.606383-1.808511,1.351064-1.819149,0,0,.085106-.478723,0-.531915,0,0-.670213-.56383-.638298-.893617,0,0,.010638-.914894.085106-.946809Z"/><path d="M35.5,36.248936s-.085106.617021-.053191.691489.329787,1.957447,2.648936,2.829787c0,0,.361702.202128,0,.414894s-1.148936-.085106-1.148936-.085106c0,0-2.521277-1.978723-2.617021-3.56383l1.170213-.287234Z"/><path class="cls-25" d="M15.042542,36.641809l.534241,6.219238c0,.342834.960632.620728,2.14563.620728s2.145569-.277893,2.145569-.620728l.536255-6.219238h-5.361694Z"/><ellipse class="cls-8" cx="17.7224" cy="36.64" rx="2.948936" ry=".549583"/><path class="cls-8" d="M20.671326,36.639978h-5.897888v.991821h.001038c0,.303528,1.320251.549561,2.948914.549561s2.948975-.246033,2.948975-.549561l-.001038-.991821Z"/><ellipse class="cls-11" cx="17.723404" cy="36.641809" rx="2.680851" ry=".499621"/><path class="cls-18" d="M24.228723,42.841791s8.202128-.629974,9.303191-.359985c0,0,.734043.186024.606383.449982,0,0,1.244681.55119,1.196809.990021l.175532,2.159973h-8.952128l-2.329787-3.23999Z"/><path d="M26.510638,45.631799s-.670213-1.584976-1.117021-1.531792c0,0-.079787-.901802-.62234-.901802l-.542553-.356415v.446442l1.898936,2.343567.640095.720032-.257116-.720032Z"/><polyline points="26.558511 46.081781 35.510638 46.081781 35.510638 46.441827 26.819149 46.441827 26.28767 45.811792"/><path d="M56.893617,45.493617s-.529959-16.058197,2.990339-15.341813l3.026044,9.896377-1.350018,6.033585-4.666365-.588149Z"/><path class="cls-1" d="M19.510638,15.931787s16.425532,4.43817,32.638298,0"/><polygon class="cls-10" points="25.307139 21.871993 20.446809 21.061965 20.446809 16.201634 25.307139 17.011662 25.307139 21.871993"/><polygon class="cls-20" points="31.004633 22.588362 26.144303 22.093352 26.144303 17.233021 31.004633 17.728032 31.004633 22.588362"/><polygon class="cls-16" points="36.72 22.749442 31.859669 22.636931 31.859669 17.7766 36.72 17.889111 36.72 22.749442"/><polygon class="cls-10" points="42.504633 22.588362 37.644303 22.805697 37.644303 17.945366 42.504633 17.728032 42.504633 22.588362"/><polygon class="cls-20" points="48.057825 21.781996 43.197494 22.427041 43.197494 17.56671 48.057825 16.921666 48.057825 21.781996"/><path class="cls-14" d="M42.319149,33.211816l1.223404-1.170013s.521277-.163719.819149.266388l.148936.179993-1.255319,1.263611s-.925532-.247311-.93617-.539978Z"/><path class="cls-21" d="M47.87766,27.796809s.824468.590426.739362,1.526596h.989362s1.138298.197666,1.117021,1.008407c0,0,.089508.285864-.489362.266388,0,0-1.248745-.063674-2.56383,1.50527-.680693.812091-1.528473,1.993797-1.914894,3.991212,0,0-.050117.803807-.257013,1.347147-.148903.391041-.443287.574425-.556817.567747,0,0-.567589-.032889-.75-.845745-.047735-.212717-.170567-.471285-.175532-.805621,0,0-.071809-.236128-.510638-.359985s-.390957-2.209394-.390957-2.209394l.981383-1.316489s2.952128-2.909459,2.792553-3.702128c0,0,.106383-.38544.989362-.973404Z"/><polygon class="cls-13" points="29.393617 45.448206 29.680851 44.780851 29.904255 44.998224 29.393617 45.448206"/><polygon points="29.904255 44.998224 33.648936 40.048181 33.382979 39.868188 29.680851 44.780851 29.904255 44.998224"/><polygon class="cls-13" points="33.206392 40.102516 33.467553 40.287949 33.648936 40.048181 33.382979 39.868188 33.970463 39.182728 34.126658 39.290864 33.724155 39.868188 33.850313 39.958185 33.309637 40.714643 33.206392 40.633174 33.417772 40.3602 33.165174 40.157212 33.206392 40.102516"/><path class="cls-23" d="M42.579787,34.288232l.023936.402193-.574468.327128s-2.481383-.115221-2.768617-.005749l-.409574-.179993-1.18617-1.26001s.223404-1.440002.414894-1.440002h.462766l.06383.101179s.335106-.202359.462766-.101179.398936.093915.510638.536377l1.898936-.068176.654255.957637s.558511.007024.446809.730596Z"/><path class="cls-23" d="M29.925532,42.481805c1.12766-.626373,1.861702-.573295,1.957447-.562656s1.542553,1.18903,1.542553,1.18903l.882979.587566.595745.797872-.978723,1.787234c.06383-.427364-1.180851-.922642-1.180851-.922642.042553.449982-.148936.539663-.148936.539663-.62766.159574-1.106383-.08608-1.106383-.08608-.085106,0-.191489-.243707-.191489-.243707l-.297872-.209876s-.074468.326897-.159574.27359-.680851-.899963-.680851-.899963l-.117021-.540039s-.06383.089054-.202128.227352-.223404.042553-.223404.042553c.06383-.319149.212766-.539894.212766-.539894.095745-.007979.095745-1.396276.095745-1.396276"/><path class="cls-27" d="M44.87766,37.97766s-.62234-.269444-.638298-1.165868-.765957-.903564-.765957-.903564c.015957-.179993-.574468-2.041873-.606383-2.156433s-.321419.089996-.321419.089996c.207447.969058-.572198,1.080017-.572198,1.080017h-1.875287l-.03143.042807-.034647.047189s.569024.536438.648811.896423-.079787.179993-.079787.179993c0,0-.81383.706073-.734043,1.353607,0,0-.095745.622772-1.691489,2.156372,0,0-.654255.626373-.606383,1.709991s.654255,2.340027.654255,2.340027l1.882979.27359,4.771277-3.149994,1.452128-3.063599-.526596-1.26001s-.558511,1.26001-.638298,1.350006-.287234.179448-.287234.179448Z"/><path class="cls-10" d="M45.555538,36.874079c-.283372-.507336.399249-1.347451.51893-2.51876,0,0,1.914894-4.390756,4.531915-3.75712,0,0,1.835106,1.709991,2.12234,1.709991s2.728723,4.743937,3.510638,7.456703.861702,3.703331.861702,3.703331l-5.297872,2.613556-.473191,1.349991s-1.920426-.275386-2.191702-.273575-12.382979,0-12.382979,0l-.382979-.531601-2.058511.08162s-1.30759-.009523-1.227803-1.19518c0,0,.066322.034325.217603.100732.100214.04399.209148.138386.291364.183229.202476.110437.373499.205423.373499.122337,0-.179993,1.028499-1.461179-.407671-2.721128,0,0,1.104072.695038,2.731731.450012,0,0-.031915-.363242.382979-.359985s.845745.543579.845745.543579c0,0,4.340426-.720032,4.308511-1.080017s.62234-.449667.62234-.449667c0,0,2.916707-3.414894,2.639204-3.606383,0,0,.599531-1.579386.464206-1.821666Z"/><path class="cls-22" d="M37.06383,28.441827s1.680851,1.263527,1.723404,1.529999c0,0,.255319.720032-.212766,1.350006,0,0-.052488.269989.282267.449982,0,0,.185818.179993.377308.179993,0,0,.361702.805822.978723.71637,0,0-.148936.180054,0,.180054s.489362.363586.489362.363586c0,0-.106383.359985,1.276596.179993,0,0,.170213.363586,1.744681-1.26001,0,0,.319149-.183594.574468.176392,0,0,2.523936-1.937508,2.821808-2.837472l-.098404-.312522-5.574468-4.766388-3.340426.179993-1.87234,2.160034.829787,1.709991Z"/><path d="M39.319149,27.811792s-.191489-1.619995-.148936-1.529999.468085,1.166412.468085,1.166412l.212766.543579s.274439.338992.340426.360046c.106814.034081.297872.089996.297872.089996l.531915.05179,5.276596.66458s1.446809.093658,2.148936-2.426361-3.553191-5.490021-3.553191-5.490021c0,0-1.574468-1.353607-3.12766-1.173615,0,0-.425532.183655-.340426.723633s-2.425532.71637-2.425532.71637l-1.170213.089996s-1.659574,1.166351-1.638298,1.889984-.021277,1.116999-.021277,1.116999c0,0-1,1.226568-.957447,1.676611,0,0-.468085,2.786407.468085,2.606415h1.021277l.361702-.179993-.148936-1.350006.425532,1.083618h.191489l-.212766-1.353607.531915,1.263611h.510638c.212766-.092257.297872-.180054.297872-.180054l.148936-.089996s.06383-.067055.191489-.093567c0,0,.155194-.115068.319149-.176422Z"/><ellipse class="cls-16" cx="44.106383" cy="28.204624" rx="2.489362" ry="2.75356"/><path class="cls-16" d="M43.042553,25.831812l.893617-.183594s-.06383-1.076416-.340426-1.076416-.276596-.178851-.914894.179993l.361702,1.080017Z"/><path class="cls-16" d="M42.042553,25.468225s-1.297872-3.78363-3.191489-3.960022c0,0,.170213-.716431,2.191489-.896423,0,0,2.425532,1.26001,3.276596,4.140015,0,0-.744681.536438-2.276596.716431Z"/></g><path class="cls-6" d="M61.559982,40.86349c-.000122-13.917542-11.282471-25.19989-25.200012-25.19989s-25.199829,11.282349-25.199951,25.19989v.000122c0,3.464966,2.834961,6.299988,6.299988,6.299988h37.799988c3.465027,0,6.299988-2.835022,6.299988-6.299988v-.000122Z"/><ellipse class="cls-3" cx="16.956" cy="48.960007" rx="8.1" ry="5.4"/><ellipse class="cls-16" cx="16.956" cy="48.960007" rx="7.29" ry="4.86"/><text class="cls-19" transform="translate(11.587353 51.948287)"><tspan x="0" y="0">20</tspan></text><ellipse class="cls-3" cx="55.62" cy="48.931785" rx="8.1" ry="5.4"/><ellipse class="cls-16" cx="55.62" cy="48.931785" rx="7.29" ry="4.86"/><text class="cls-19" transform="translate(50.21928 52.055419)"><tspan x="0" y="0">25</tspan></text><text class="cls-17" transform="translate(28.402843 53.849765)"><tspan x="0" y="0">NIEN</tspan></text><path class="cls-9" d="M14.553191,33.195745c-.638298-.319149-3.234043,1.978723-3.234043,1.978723,0,0,2.829787-1.218546,3.148936-1.332677s.085106-.539663.085106-.539663"/><path class="cls-24" d="M11.319149,35.174468s2.12766-2.555934,3.255319-2.416265l.787234-.005523-.808511.443064s-.595745-.297872-3.234043,1.978723Z"/><path class="cls-24" d="M15.212766,32.195745c-1.829787-.914894-2.659574.926075-2.659574.926075,0,0,1.382979.691576,2.808511-.723633l-.148936-.202443Z"/><path class="cls-24" d="M11.446809,30.365957s.765957.319149,2.702128.489362c0,0-.236405-.871652-1.171394-1.063486s-1.658393.539978-1.658393.539978"/><path class="cls-9" d="M15.446809,31.681818s-.06383-.869052-.638298-.954158-1.212766.404255-1.212766.404255c0,0,1.047523.013872,1.593331.505348.016031.014436.03163.029283.046757.044555"/><path class="cls-9" d="M16.042553,35.834043c-1.161911-.632216-1.527931-.143097-1.627026.074047-.024298.053243-.032548.090135-.032548.090135,0,0-.570888-.523999.852854-.716431s.806721.552249.806721.552249Z"/><path class="cls-9" d="M18.87234,34.876596s1.765957-1.01556,2.212766-1.124801c0,0-1.404255-.470943-2.212766,1.124801Z"/><path class="cls-9" d="M19.297872,34.046809s3.191489-2.680851,4.085106.829787c0,0-.829787-2.617021-4.085106-.829787Z"/><path class="cls-24" d="M20.093851,28.441827s-.157681-.271024-.115128-.450043c0,0-.406674.34592-.799082.360046l.91421.089996Z"/><path class="cls-9" d="M20.093851,28.441827c-1.799766-.690088-2.136404,1.668811-2.136404,1.668811.446809.12766.638298.957447.638298.957447,0,0,.340426-1.524909.957447-1.773093,0,0,.224589-.196464.319149-.546056s.221511-.307109.221511-.307109Z"/><path class="cls-9" d="M23.659574,29.294992s-1-1.84198-2.319149-.406784c0,0-1.025064.882693-1.246574.903625h-.795979s.425532-1.231583,1.382979-1.350006c0,0,.787234-.154861.797872-.360046,0,0,2.031915-.325839,2.180851,1.213211Z"/><rect class="cls-9" x="18.201692" y="31.016533" width=".226558" height="5.340763" transform="translate(14.107503 -4.425335) rotate(22.232375)"/><path class="cls-24" d="M25.93617,30.855319c-2.893617-3.021277-5.191489.957447-5.191489.957447,0,0,.297872-1.879837,2.446809-2.290983s2.744681,1.333536,2.744681,1.333536Z"/><path class="cls-9" d="M21.340426,34.198206c.382979-.040092.680851-1.917355.680851-1.917355,0,0-2.255319-1.404255-2.531915-1.322666s-.386766,1.173615-.386766,1.173615c0,0,1.705915-.297757,1.854851-.170097,0,0,.787234,1.104036.521277,1.520103l-.138298.7164Z"/><path class="cls-9" d="M21.085106,31.4136s1.510638-.366791,2.957447.888528c0,0-.744681-1.713226-2.957447-.888528Z"/><path class="cls-9" d="M23.12766,33.238298c-1.319149-1.489362-3.06383-.622544-3.06383-.622544,0,0,.212766-.633006,1.414894-.483954s1.648936,1.106499,1.648936,1.106499Z"/><path class="cls-9" d="M15.723404,34.558221c-.574468-.318374-1.975144.089996-1.975144.089996,0,0,.297872-.408112.987572-.366463s.987572.276466.987572.276466Z"/><path class="cls-9" d="M22.382979,35.66383c-.680851-2.12766-3.203337-.742022-3.203337-.742022,0,0,.777805.039894,1.267167-.045212,0,0,1.170213-.291815,1.489362.194518s.446809.592716.446809.592716Z"/><path class="cls-24" d="M16.929169,26.551782s.730406.856728-.333424,2.878005l.577966,1.078416s.769733-3.68549-.244542-3.956421Z"/><rect class="cls-24" x="16.595745" y="29.429787" width=".555722" height="7.358891"/><path class="cls-9" d="M15.914894,29.759777s-.212766-1.643024.446809-1.677996c0,0,.539188.738881.567467,2.426422l-1.014275-.748426Z"/><rect class="cls-9" x="17.865729" y="31.676808" width=".106383" height="5.042795" transform="translate(19.499783 -4.37777) rotate(30)"/><polygon class="cls-9" points="17.247898 36.509608 17.038761 36.520617 15.914894 29.759777 16.926496 30.404202 17.247898 36.509608"/><rect class="cls-9" x="17.464877" y="30.132779" width=".788057" height="6.551696" transform="translate(5.177995 -2.288311) rotate(8.57019)"/><polygon class="cls-9" points="19.187865 36.532314 18.418638 36.430436 19.297872 29.791833 20.093851 29.69172 19.187865 36.532314"/><rect class="cls-24" x="17.261527" y="30.237823" width=".170213" height="6.377155" transform="translate(44.419194 59.604759) rotate(161.465026)"/><rect class="cls-24" x="19.701146" y="30.293228" width=".170213" height="6.377155" transform="translate(20.180747 72.371026) rotate(-150)"/><rect class="cls-24" x="17.763134" y="26.672912" width=".169567" height="10.029039" transform="translate(30.774457 65.680755) rotate(-171.42981)"/><rect class="cls-24" x="18.314472" y="35.712247" width="1.028868" height=".118177" transform="translate(48.052268 63.701808) rotate(161.465026)"/><path class="cls-24" d="M13.748261,29.759777s.890037.627457,1.443229.627457,1.531915,1.294584,1.531915,1.294584c0,0,0-2.188201-1-2.273307,0,0-.93617-.394244-1.404255-.250314s-.570888.60158-.570888.60158Z"/><rect class="cls-24" x="15.356849" y="30.162577" width=".459556" height="6.778152" transform="translate(46.58511 53.744483) rotate(147.998278)"/><rect class="cls-24" x="16.919226" y="31.565795" width=".197782" height="5.620706" transform="translate(52.655434 48.564788) rotate(138.047464)"/><rect class="cls-9" x="16.292496" y="35.562361" width=".226349" height="1.051719" transform="translate(52.732057 51.959556) rotate(138.047464)"/><polygon class="cls-9" points="17.016813 36.633324 17.904236 36.75122 15.623255 34.47024 14.735832 34.352344 17.016813 36.633324"/><path class="cls-24" d="M19.106383,35.641809s1.723404.383723,1.978723,1.128404c0,0-.255319-1.191489-1.170213-1.297872s-.808511.169469-.808511.169469Z"/><rect class="cls-9" x="16.103002" y="31.434394" width=".226558" height="5.340763" transform="translate(-10.766223 7.684179) rotate(-20.172496)"/><rect class="cls-24" x="19.216523" y="26.669095" width=".130213" height="9.884084" transform="translate(35.985772 64.656815) rotate(-175.434327)"/><rect class="cls-9" x="18.956763" y="32.143698" width=".106383" height="4.790841" transform="translate(19.81641 -4.877613) rotate(30)"/><rect class="cls-9" x="16.602992" y="34.729131" width="3.657199" height=".314175" transform="translate(-20.996556 33.405335) rotate(-60)"/><rect class="cls-9" x="18.006423" y="31.354749" width=".226558" height="5.340763" transform="translate(19.440145 -4.501348) rotate(30)"/><rect class="cls-9" x="17.340153" y="31.681962" width=".226558" height="5.340763" transform="translate(-10.775708 8.125994) rotate(-20.172496)"/><polygon class="cls-24" points="17.679243 36.678999 17.831755 36.604882 13.381851 27.448206 13.295623 27.658716 17.679243 36.678999"/><circle class="cls-11" cx="16.595745" cy="36.75122" r=".151507"/><circle class="cls-11" cx="16.747252" cy="36.770213" r=".151507"/><circle class="cls-11" cx="16.975195" cy="36.721796" r=".151507"/><circle class="cls-11" cx="17.126702" cy="36.721796" r=".151507"/><circle class="cls-11" cx="17.346634" cy="36.721796" r=".151507"/><circle class="cls-11" cx="17.623924" cy="36.811792" r=".151507"/><circle class="cls-11" cx="17.858906" cy="36.721796" r=".151507"/><circle class="cls-11" cx="18.119702" cy="36.631799" r=".151507"/><circle class="cls-11" cx="18.27121" cy="36.873303" r=".151507"/><circle class="cls-11" cx="18.418638" cy="36.75122" r=".151507"/><circle class="cls-11" cx="18.314971" cy="36.631799" r=".151507"/><circle class="cls-11" cx="18.431591" cy="36.503772" r=".151507"/><circle class="cls-11" cx="18.805616" cy="36.520617" r=".151507"/><circle class="cls-11" cx="18.974842" cy="36.532314" r=".151507"/><circle class="cls-11" cx="19.179642" cy="36.532314" r=".151507"/><path class="cls-10" d="M18.119702,24.211816s.007639,2.52002.346777,2.52002l.11662.071418.222518-.071418c1.352563-1.259949-.642152-2.610016-.642152-2.610016"/><ellipse class="cls-15" cx="18.583099" cy="26.103616" rx=".208872" ry=".676788"/><path class="cls-10" d="M19.425532,22.860979s-.042553.787234.914894,1.87234c0,0,.356965.767598-.608194,1.973674-.030491.038102-.062302.009234-.095485.048201,0,0-.031114.021603-.077442-.069554-.204677-.402731-.706308-1.690664-.133772-3.824661Z"/><ellipse class="cls-15" cx="19.636746" cy="26.00607" rx=".257235" ry=".676788" transform="translate(-1.430809 1.144943) rotate(-3.222418)"/><path class="cls-10" d="M13.441489,27.541489c-.143617-2.154255-1.228723-2.952128-1.228723-2.952128,0,0-.734043,2.179762,1.117021,3.132434l.111702-.180306Z"/><path class="cls-15" d="M13.257927,26.999964c.159137.338211.203527.6522.099147.701313s-.122359-.260048-.281496-.598259-.399169-.577399-.29479-.626512.318002.185247.477139.523458Z"/></g></svg>