<?xml version="1.0" encoding="UTF-8"?><svg id="Layer_2" xmlns="http://www.w3.org/2000/svg" xmlns:xlink="http://www.w3.org/1999/xlink" viewBox="0 0 72.72 62.640015"><defs><style>.cls-1{stroke:#000;}.cls-1,.cls-2,.cls-3,.cls-4,.cls-5,.cls-6{stroke-miterlimit:10;}.cls-1,.cls-2,.cls-3,.cls-4,.cls-6{stroke-width:.5px;}.cls-1,.cls-7,.cls-5,.cls-6{fill:none;}.cls-8{fill:#47321d;}.cls-9{fill:#407036;}.cls-10{fill:#a9fffd;}.cls-2{fill:#fff;}.cls-2,.cls-3,.cls-5,.cls-6{stroke:#a9fffd;}.cls-11{fill:#775936;}.cls-12{fill:#cecece;}.cls-13{fill:#606060;}.cls-14{fill:#262626;}.cls-15{fill:#ebe0b3;}.cls-16{fill:#ffabfb;}.cls-17{font-family:Bahnschrift-Bold, Bahnschrift;font-size:7px;font-variation-settings:'wght' 700, 'wdth' 100;font-weight:700;}.cls-17,.cls-18,.cls-3,.cls-4,.cls-19{fill:#f4f1e9;}.cls-20{fill:#c4c4c4;}.cls-21{fill:#3a3a3a;}.cls-22{fill:#5b4827;}.cls-23{fill:#513e27;}.cls-24{fill:#26ff00;}.cls-25{fill:#281d13;}.cls-4{stroke:#ff8fff;}.cls-19{font-family:Algerian, Algerian;font-size:9px;}.cls-26{clip-path:url(#clippath);}.cls-27{fill:#71afac;}</style><clipPath id="clippath"><path class="cls-7" d="M61.559982,40.86349c-.000122-13.917542-11.282471-25.19989-25.200012-25.19989s-25.199829,11.282349-25.199951,25.19989v.000122c0,3.464966,2.834961,6.299988,6.299988,6.299988h37.799988c3.465027,0,6.299988-2.835022,6.299988-6.299988v-.000122Z"/></clipPath></defs><g id="_Kua_Lo-Fi_Meli"><path class="cls-12" d="M70.72,0h-2c0,1.104553-.895447,2-2,2-1.104614,0-2-.895447-2-2h-2c0,1.104553-.895447,2-2,2-1.104614,0-2-.895447-2-2h-2c0,1.104553-.895447,2-2,2-1.104614,0-2-.895447-2-2h-2c0,1.104553-.895447,2-2,2-1.104614,0-2-.895447-2-2h-2c0,1.104553-.895447,2-2,2-1.104614,0-2-.895447-2-2h-2c0,1.104553-.895447,2-2,2-1.104614,0-2-.895447-2-2h-2c0,1.104553-.895447,2-2,2-1.104614,0-2-.895447-2-2h-2c0,1.104553-.895447,2-2,2-1.104614,0-2-.895447-2-2h-2c0,1.104553-.895447,2-2,2-1.104614,0-2-.895447-2-2h-2c0,1.104553-.895447,2-2,2-1.104614,0-2-.895447-2-2h-2c0,1.104553-.895447,2-2,2-1.104614,0-2-.895447-2-2h-2c0,.526672-.213379,1.041809-.585815,1.414246-.372375.372375-.887512.585754-1.414185.585754v2.264038c1.104553,0,2,.895386,2,2s-.895447,2-2,2v2.263977c1.104553,0,2,.895447,2,2,0,1.104553-.895447,2-2,2v2.263977c1.104553,0,2,.895447,2,2,0,1.104614-.895447,2-2,2v2.264038c1.104553,0,2,.895386,2,2s-.895447,2-2,2v2.263977c1.104553,0,2,.895447,2,2,0,1.104553-.895447,2-2,2v2.263977c1.104553,0,2,.895447,2,2,0,1.104614-.895447,2-2,2v2.264038c1.104553,0,2,.895447,2,2s-.895447,2-2,2v2.263977c1.104553,0,2,.895447,2,2s-.895447,2-2,2v2.263977c1.104553,0,2,.895447,2,2s-.895447,2-2,2v2.264038c.526672,0,1.041809.213379,1.414185.585754.372437.372437.585815.887573.585815,1.414246h2c0-1.104553.895386-2,2-2,1.104553,0,2,.895447,2,2h2c0-1.104553.895386-2,2-2,1.104553,0,2,.895447,2,2h2c0-1.104553.895386-2,2-2,1.104553,0,2,.895447,2,2h2c0-1.104553.895386-2,2-2,1.104553,0,2,.895447,2,2h2c0-1.104553.895386-2,2-2,1.104553,0,2,.895447,2,2h2c0-1.104553.895386-2,2-2,1.104553,0,2,.895447,2,2h2c0-1.104553.895386-2,2-2,1.104553,0,2,.895447,2,2h2c0-1.104553.895386-2,2-2,1.104553,0,2,.895447,2,2h2c0-1.104553.895386-2,2-2,1.104553,0,2,.895447,2,2h2c0-1.104553.895386-2,2-2,1.104553,0,2,.895447,2,2h2c0-1.104553.895386-2,2-2,1.104553,0,2,.895447,2,2h2c0-.526672.213379-1.041809.585754-1.414246.372437-.372375.887573-.585754,1.414246-.585754v-2.264038c-1.104614,0-2-.895386-2-2s.895386-2,2-2v-2.263977c-1.104614,0-2-.895447-2-2,0-1.104553.895386-2,2-2v-2.263977c-1.104614,0-2-.895447-2-2s.895386-2,2-2v-2.264038c-1.104614,0-2-.895386-2-2,0-1.104553.895386-2,2-2v-2.263977c-1.104614,0-2-.895447-2-2,0-1.104553.895386-2,2-2v-2.263977c-1.104614,0-2-.895447-2-2s.895386-2,2-2v-2.264038c-1.104614,0-2-.895386-2-2,0-1.104553.895386-2,2-2v-2.263977c-1.104614,0-2-.895447-2-2,0-1.104553.895386-2,2-2v-2.264038c-1.104614,0-2-.895386-2-2s.895386-2,2-2v-2.263977c-.526672,0-1.041809-.213379-1.414246-.585754C70.933379,1.041809,70.72.526672,70.72,0Z"/><path class="cls-18" d="M70,0h-2c0,1.104553-.895447,2-2,2-1.104614,0-2-.895447-2-2h-2c0,1.104553-.895447,2-2,2-1.104614,0-2-.895447-2-2h-2c0,1.104553-.895447,2-2,2-1.104614,0-2-.895447-2-2h-2c0,1.104553-.895447,2-2,2-1.104614,0-2-.895447-2-2h-2c0,1.104553-.895447,2-2,2-1.104614,0-2-.895447-2-2h-2c0,1.104553-.895447,2-2,2-1.104614,0-2-.895447-2-2h-2c0,1.104553-.895447,2-2,2-1.104614,0-2-.895447-2-2h-2c0,1.104553-.895447,2-2,2-1.104614,0-2-.895447-2-2h-2c0,1.104553-.895447,2-2,2-1.104614,0-2-.895447-2-2h-2c0,1.104553-.895447,2-2,2-1.104614,0-2-.895447-2-2h-2c0,1.104553-.895447,2-2,2-1.104614,0-2-.895447-2-2h-2c0,.526672-.213379,1.041809-.585815,1.414246C1.041809,1.786621.526672,2,0,2v2.264038c1.104553,0,2,.895386,2,2,0,1.104553-.895447,2-2,2v2.263977c1.104553,0,2,.895447,2,2,0,1.104553-.895447,2-2,2v2.263977c1.104553,0,2,.895447,2,2S1.104553,20.791992,0,20.791992v2.264038c1.104553,0,2,.895386,2,2,0,1.104553-.895447,2-2,2v2.263977c1.104553,0,2,.895447,2,2,0,1.104553-.895447,2-2,2v2.263977c1.104553,0,2,.895447,2,2,0,1.104614-.895447,2-2,2v2.264038c1.104553,0,2,.895447,2,2S1.104553,45.848022,0,45.848022v2.263977c1.104553,0,2,.895447,2,2,0,1.104553-.895447,2-2,2v2.263977c1.104553,0,2,.895447,2,2,0,1.104614-.895447,2-2,2v2.264038c.526672,0,1.041809.213379,1.414185.585754.372437.372437.585815.887573.585815,1.414246h2c0-1.104553.895386-2,2-2,1.104553,0,2,.895447,2,2h2c0-1.104553.895386-2,2-2,1.104553,0,2,.895447,2,2h2c0-1.104553.895386-2,2-2,1.104553,0,2,.895447,2,2h2c0-1.104553.895386-2,2-2,1.104553,0,2,.895447,2,2h2c0-1.104553.895386-2,2-2,1.104553,0,2,.895447,2,2h2c0-1.104553.895386-2,2-2,1.104553,0,2,.895447,2,2h2c0-1.104553.895386-2,2-2,1.104553,0,2,.895447,2,2h2c0-1.104553.895386-2,2-2,1.104553,0,2,.895447,2,2h2c0-1.104553.895386-2,2-2,1.104553,0,2,.895447,2,2h2c0-1.104553.895386-2,2-2,1.104553,0,2,.895447,2,2h2c0-1.104553.895386-2,2-2,1.104553,0,2,.895447,2,2h2c0-.526672.213379-1.041809.585754-1.414246.372437-.372375.887573-.585754,1.414246-.585754v-2.264038c-1.104614,0-2-.895386-2-2,0-1.104553.895386-2,2-2v-2.263977c-1.104614,0-2-.895447-2-2,0-1.104553.895386-2,2-2v-2.263977c-1.104614,0-2-.895447-2-2s.895386-2,2-2v-2.264038c-1.104614,0-2-.895386-2-2,0-1.104553.895386-2,2-2v-2.263977c-1.104614,0-2-.895447-2-2,0-1.104553.895386-2,2-2v-2.263977c-1.104614,0-2-.895447-2-2,0-1.104614.895386-2,2-2v-2.264038c-1.104614,0-2-.895386-2-2,0-1.104553.895386-2,2-2v-2.263977c-1.104614,0-2-.895447-2-2,0-1.104553.895386-2,2-2v-2.264038c-1.104614,0-2-.895386-2-2,0-1.104553.895386-2,2-2v-2.263977c-.526672,0-1.041809-.213379-1.414246-.585754C70.213379,1.041809,70,.526672,70,0Z"/><rect class="cls-16" x="7.559998" y="6.031824" width="57.599976" height=".179993"/><rect class="cls-16" x="7.559998" y="6.391809" width="57.599976" height=".179993"/><rect class="cls-16" x="7.559998" y="6.751794" width="57.599976" height=".179993"/><rect class="cls-16" x="7.559998" y="7.108179" width="57.599976" height=".180054"/><rect class="cls-16" x="7.559998" y="7.468225" width="57.599976" height=".179993"/><rect class="cls-16" x="7.559998" y="7.831812" width="57.599976" height=".179993"/><rect class="cls-16" x="7.559998" y="8.191797" width="57.599976" height=".179993"/><rect class="cls-16" x="7.559998" y="8.551782" width="57.599976" height=".180054"/><rect class="cls-16" x="7.559998" y="8.908228" width="57.599976" height=".179993"/><rect class="cls-16" x="7.559998" y="9.268213" width="57.599976" height=".179993"/><rect class="cls-16" x="7.559998" y="9.631799" width="57.599976" height=".179993"/><rect class="cls-16" x="7.559998" y="9.991785" width="57.599976" height=".179993"/><rect class="cls-16" x="7.559998" y="10.351831" width="57.599976" height=".179993"/><rect class="cls-16" x="7.559998" y="10.708215" width="57.599976" height=".179993"/><rect class="cls-16" x="7.559998" y="11.068201" width="57.599976" height=".179993"/><rect class="cls-16" x="7.559998" y="11.431787" width="57.599976" height=".179993"/><rect class="cls-16" x="7.559998" y="11.791833" width="57.599976" height=".179993"/><rect class="cls-16" x="7.559998" y="12.151819" width="57.599976" height=".179993"/><rect class="cls-16" x="7.559998" y="12.508203" width="57.599976" height=".179993"/><rect class="cls-16" x="7.559998" y="12.868188" width="57.599976" height=".179993"/><rect class="cls-16" x="7.559998" y="13.231836" width="57.599976" height=".179993"/><rect class="cls-16" x="7.559998" y="13.591821" width="57.599976" height=".179993"/><rect class="cls-16" x="7.559998" y="13.951807" width="57.599976" height=".179993"/><rect class="cls-16" x="7.559998" y="14.308191" width="57.599976" height=".179993"/><rect class="cls-16" x="7.559998" y="14.668176" width="57.599976" height=".180054"/><rect class="cls-16" x="7.559998" y="15.031824" width="57.599976" height=".179993"/><rect class="cls-16" x="7.559998" y="15.391809" width="57.599976" height=".179993"/><rect class="cls-16" x="7.559998" y="15.751794" width="57.599976" height=".179993"/><rect class="cls-16" x="7.559998" y="16.108179" width="57.599976" height=".180054"/><rect class="cls-16" x="7.559998" y="16.468225" width="57.599976" height=".179993"/><rect class="cls-16" x="7.559998" y="16.831812" width="57.599976" height=".179993"/><rect class="cls-16" x="7.559998" y="17.191797" width="57.599976" height=".179993"/><rect class="cls-16" x="7.559998" y="17.551782" width="57.599976" height=".180054"/><rect class="cls-16" x="7.559998" y="17.908228" width="57.599976" height=".179993"/><rect class="cls-16" x="7.559998" y="18.268213" width="57.599976" height=".179993"/><rect class="cls-16" x="7.559998" y="18.631799" width="57.599976" height=".179993"/><rect class="cls-16" x="7.559998" y="18.991785" width="57.599976" height=".179993"/><rect class="cls-16" x="7.559998" y="19.351831" width="57.599976" height=".179993"/><rect class="cls-16" x="7.559998" y="19.708215" width="57.599976" height=".179993"/><rect class="cls-16" x="7.559998" y="20.068201" width="57.599976" height=".179993"/><rect class="cls-16" x="7.559998" y="20.431787" width="57.599976" height=".179993"/><rect class="cls-16" x="7.559998" y="20.791833" width="57.599976" height=".179993"/><rect class="cls-16" x="7.559998" y="21.151819" width="57.599976" height=".179993"/><rect class="cls-16" x="7.559998" y="21.508203" width="57.599976" height=".179993"/><rect class="cls-16" x="7.559998" y="21.868188" width="57.599976" height=".179993"/><rect class="cls-16" x="7.559998" y="22.231836" width="57.599976" height=".179993"/><rect class="cls-16" x="7.559998" y="22.591821" width="57.599976" height=".179993"/><rect class="cls-16" x="7.559998" y="22.951807" width="57.599976" height=".179993"/><rect class="cls-16" x="7.559998" y="23.308191" width="57.599976" height=".179993"/><rect class="cls-16" x="7.559998" y="23.668176" width="57.599976" height=".180054"/><rect class="cls-16" x="7.559998" y="24.031824" width="57.599976" height=".179993"/><rect class="cls-16" x="7.559998" y="24.391809" width="57.599976" height=".179993"/><rect class="cls-16" x="7.559998" y="24.751794" width="57.599976" height=".179993"/><rect class="cls-16" x="7.559998" y="25.108179" width="57.599976" height=".180054"/><rect class="cls-16" x="7.559998" y="25.468225" width="57.599976" height=".179993"/><rect class="cls-16" x="7.559998" y="25.831812" width="57.599976" height=".179993"/><rect class="cls-16" x="7.559998" y="26.191797" width="57.599976" height=".179993"/><rect class="cls-16" x="7.559998" y="26.551782" width="57.599976" height=".180054"/><rect class="cls-16" x="7.559998" y="26.908228" width="57.599976" height=".179993"/><rect class="cls-16" x="7.559998" y="27.268213" width="57.599976" height=".179993"/><rect class="cls-16" x="7.559998" y="27.631799" width="57.599976" height=".179993"/><rect class="cls-16" x="7.559998" y="27.991785" width="57.599976" height=".179993"/><rect class="cls-16" x="7.559998" y="28.351831" width="57.599976" height=".179993"/><rect class="cls-16" x="7.559998" y="28.708215" width="57.599976" height=".179993"/><rect class="cls-16" x="7.559998" y="29.068201" width="57.599976" height=".179993"/><rect class="cls-16" x="7.559998" y="29.431787" width="57.599976" height=".179993"/><rect class="cls-16" x="7.559998" y="29.791833" width="57.599976" height=".179993"/><rect class="cls-16" x="7.559998" y="30.151819" width="57.599976" height=".179993"/><rect class="cls-16" x="7.559998" y="30.508203" width="57.599976" height=".179993"/><rect class="cls-16" x="7.559998" y="30.868188" width="57.599976" height=".179993"/><rect class="cls-16" x="7.559998" y="31.231836" width="57.599976" height=".179993"/><rect class="cls-16" x="7.559998" y="31.591821" width="57.599976" height=".179993"/><rect class="cls-16" x="7.559998" y="31.951807" width="57.599976" height=".179993"/><rect class="cls-16" x="7.559998" y="32.308191" width="57.599976" height=".179993"/><rect class="cls-16" x="7.559998" y="32.668176" width="57.599976" height=".180054"/><rect class="cls-16" x="7.559998" y="33.031824" width="57.599976" height=".179993"/><rect class="cls-16" x="7.559998" y="33.391809" width="57.599976" height=".179993"/><rect class="cls-16" x="7.559998" y="33.751794" width="57.599976" height=".179993"/><rect class="cls-16" x="7.559998" y="34.108179" width="57.599976" height=".180054"/><rect class="cls-16" x="7.559998" y="34.468225" width="57.599976" height=".179993"/><rect class="cls-16" x="7.559998" y="34.831812" width="57.599976" height=".179993"/><rect class="cls-16" x="7.559998" y="35.191797" width="57.599976" height=".179993"/><rect class="cls-16" x="7.559998" y="35.551782" width="57.599976" height=".180054"/><rect class="cls-16" x="7.559998" y="35.908228" width="57.599976" height=".179993"/><rect class="cls-16" x="7.559998" y="36.268213" width="57.599976" height=".179993"/><rect class="cls-16" x="7.559998" y="36.631799" width="57.599976" height=".179993"/><rect class="cls-16" x="7.559998" y="36.991785" width="57.599976" height=".179993"/><rect class="cls-16" x="7.559998" y="37.351831" width="57.599976" height=".179993"/><rect class="cls-16" x="7.559998" y="37.708215" width="57.599976" height=".179993"/><rect class="cls-16" x="7.559998" y="38.068201" width="57.599976" height=".179993"/><rect class="cls-16" x="7.559998" y="38.431787" width="57.599976" height=".179993"/><rect class="cls-16" x="7.559998" y="38.791833" width="57.599976" height=".179993"/><rect class="cls-16" x="7.559998" y="39.151819" width="57.599976" height=".179993"/><rect class="cls-16" x="7.559998" y="39.508203" width="57.599976" height=".179993"/><rect class="cls-16" x="7.559998" y="39.868188" width="57.599976" height=".179993"/><rect class="cls-16" x="7.559998" y="40.231836" width="57.599976" height=".179993"/><rect class="cls-16" x="7.559998" y="40.591821" width="57.599976" height=".179993"/><rect class="cls-16" x="7.559998" y="40.951807" width="57.599976" height=".179993"/><rect class="cls-16" x="7.559998" y="41.308191" width="57.599976" height=".179993"/><rect class="cls-16" x="7.559998" y="41.668176" width="57.599976" height=".180054"/><rect class="cls-16" x="7.559998" y="42.031824" width="57.599976" height=".179993"/><rect class="cls-16" x="7.559998" y="42.391809" width="57.599976" height=".179993"/><rect class="cls-16" x="7.559998" y="42.751794" width="57.599976" height=".179993"/><rect class="cls-16" x="7.559998" y="43.108179" width="57.599976" height=".180054"/><rect class="cls-16" x="7.559998" y="43.468225" width="57.599976" height=".179993"/><rect class="cls-16" x="7.559998" y="43.831812" width="57.599976" height=".179993"/><rect class="cls-16" x="7.559998" y="44.191797" width="57.599976" height=".179993"/><rect class="cls-16" x="7.559998" y="44.551782" width="57.599976" height=".180054"/><rect class="cls-16" x="7.559998" y="44.908228" width="57.599976" height=".179993"/><rect class="cls-16" x="7.559998" y="45.268213" width="57.599976" height=".179993"/><rect class="cls-16" x="7.559998" y="45.631799" width="57.599976" height=".179993"/><rect class="cls-16" x="7.559998" y="45.991785" width="57.599976" height=".179993"/><rect class="cls-16" x="7.559998" y="46.351831" width="57.599976" height=".179993"/><rect class="cls-16" x="7.559998" y="46.708215" width="57.599976" height=".179993"/><rect class="cls-16" x="7.559998" y="47.068201" width="57.599976" height=".179993"/><rect class="cls-16" x="7.559998" y="47.431787" width="57.599976" height=".179993"/><rect class="cls-16" x="7.559998" y="47.791833" width="57.599976" height=".179993"/><rect class="cls-16" x="7.559998" y="48.151819" width="57.599976" height=".179993"/><rect class="cls-16" x="7.559998" y="48.508203" width="57.599976" height=".179993"/><rect class="cls-16" x="7.559998" y="48.868188" width="57.599976" height=".179993"/><rect class="cls-16" x="7.559998" y="49.231836" width="57.599976" height=".179993"/><rect class="cls-16" x="7.559998" y="49.591821" width="57.599976" height=".179993"/><rect class="cls-16" x="7.559998" y="49.951807" width="57.599976" height=".179993"/><rect class="cls-16" x="7.559998" y="50.308191" width="57.599976" height=".179993"/><rect class="cls-16" x="7.559998" y="50.668176" width="57.599976" height=".180054"/><rect class="cls-16" x="7.559998" y="51.031824" width="57.599976" height=".179993"/><rect class="cls-16" x="7.559998" y="51.391809" width="57.599976" height=".179993"/><rect class="cls-16" x="7.559998" y="51.751794" width="57.599976" height=".179993"/><rect class="cls-16" x="7.559998" y="52.108179" width="57.599976" height=".180054"/><rect class="cls-16" x="7.559998" y="52.468225" width="57.599976" height=".179993"/><rect class="cls-16" x="7.559998" y="52.831812" width="57.599976" height=".179993"/><rect class="cls-16" x="7.559998" y="53.191797" width="57.599976" height=".179993"/><rect class="cls-16" x="7.559998" y="53.551782" width="57.599976" height=".180054"/><rect class="cls-16" x="7.559998" y="53.908228" width="57.599976" height=".179993"/><rect class="cls-16" x="7.559998" y="54.268213" width="57.599976" height=".179993"/><rect class="cls-16" x="7.559998" y="54.631799" width="57.599976" height=".179993"/><rect class="cls-16" x="7.559998" y="54.991785" width="57.599976" height=".179993"/><rect class="cls-16" x="7.559998" y="55.351831" width="57.599976" height=".179993"/><rect class="cls-16" x="7.559998" y="55.708215" width="57.599976" height=".179993"/><rect class="cls-16" x="7.559998" y="56.068201" width="57.599976" height=".179993"/><rect id="Inner" class="cls-5" x="11.303993" y="2.520007" width="50.112" height="57.6" transform="translate(5.039985 67.68) rotate(-90)"/><path id="Main" class="cls-2" d="M63.205717,11.323212c.478937.041159.899416.462684.939167.941502.039668.477823-.314846.832336-.792669.792667l-6.936679-.585999c-.47881-.03966-.833523.31645-.792273.795395.041153.477821.460954.897621.938775.938773l5.202509.439498c.478876.040453.834287-.314957.793833-.793833l-.292998-3.468338c-.040455-.478878-.461457-.899881-.940335-.940336h0s-3.468338-.292998-3.468338-.292998c-.478876-.040454-.834287.314957-.793833.793833l.439498,5.202509c.041249.478944.46284.899357.94165.939018.477687.039568.832085-.314829.792518-.792516l-.585999-6.936679c-.039752-.478818.316278-.833612.795215-.792454.477942.041072.89788.46101.938954.938952l.219752,2.601254,2.601254.219752Z"/><path id="Main-2" class="cls-2" d="M63.205717,11.323212c.478937.041159.899416.462684.939167.941502.039668.477823-.314846.832336-.792669.792667l-6.936679-.585999c-.47881-.03966-.833523.31645-.792273.795395.041153.477821.460954.897621.938775.938773l5.202509.439498c.478876.040453.834287-.314957.793833-.793833l-.292998-3.468338c-.040455-.478878-.461457-.899881-.940335-.940336h0s-3.468338-.292998-3.468338-.292998c-.478876-.040454-.834287.314957-.793833.793833l.439498,5.202509c.041249.478944.46284.899357.94165.939018.477687.039568.832085-.314829.792518-.792516l-.585999-6.936679c-.039752-.478818.316278-.833612.795215-.792454.477942.041072.89788.46101.938954.938952l.219752,2.601254,2.601254.219752Z"/><path class="cls-2" d="M62.534828,11.266535l-.392398-.033149M60.654162,9.385869l-.392398-.033149M59.21299,12.707707l-.392398-.033149M57.625318,14.295379l-.392398-.033149M62.468561,12.787934l.033149.392398M58.707216,9.026589l.033149.392398M59.146716,14.2291l.033149.392398M57.26605,12.348434l.033149.392398"/><path class="cls-2" d="M62.559353,11.268607l-.441448-.037293M60.678687,9.387941l-.441448-.037293M59.237515,12.709779l-.441448-.037293M57.649843,14.297451l-.441448-.037293M62.466489,12.763409l.037293.441448M58.705144,9.002064l.037293.441448M59.144644,14.204575l.037293.441448M57.263978,12.323909l.037293.441448"/><path id="Main-3" class="cls-2" d="M12.369249,8.500647c.041159-.478937.462684-.899416.941502-.939167.477823-.039668.832336.314846.792667.792669l-.585999,6.936679c-.03966.47881.31645.833523.795395.792273.477821-.041153.897621-.460954.938773-.938775l.439498-5.202509c.040453-.478876-.314957-.834287-.793833-.793833l-3.468338.292998c-.478878.040455-.899881.461457-.940336.940335h0s-.292998,3.468339-.292998,3.468339c-.040454.478876.314957.834287.793833.793833l5.202509-.439498c.478944-.041249.899357-.46284.939018-.94165.039568-.477687-.314829-.832085-.792516-.792518l-6.936679.585999c-.478818.039752-.833612-.316278-.792454-.795215.041072-.477942.46101-.89788.938952-.938954l2.601254-.219752.219752-2.601254Z"/><path id="Main-4" class="cls-2" d="M12.369249,8.500647c.041159-.478937.462684-.899416.941502-.939167.477823-.039668.832336.314846.792667.792669l-.585999,6.936679c-.03966.47881.31645.833523.795395.792273.477821-.041153.897621-.460954.938773-.938775l.439498-5.202509c.040453-.478876-.314957-.834287-.793833-.793833l-3.468338.292998c-.478878.040455-.899881.461457-.940336.940335h0s-.292998,3.468339-.292998,3.468339c-.040454.478876.314957.834287.793833.793833l5.202509-.439498c.478944-.041249.899357-.46284.939018-.94165.039568-.477687-.314829-.832085-.792516-.792518l-6.936679.585999c-.478818.039752-.833612-.316278-.792454-.795215.041072-.477942.46101-.89788.938952-.938954l2.601254-.219752.219752-2.601254Z"/><path class="cls-2" d="M12.312571,9.171536l-.033149.392398M10.431905,11.052202l-.033149.392398M13.753744,12.493374l-.033149.392398M15.341415,14.081046l-.033149.392398M13.83397,9.237803l.392398-.033149M10.072625,12.999148l.392398-.033149M15.275136,12.559648l.392398-.033149M13.39447,14.440314l.392398-.033149"/><path class="cls-2" d="M12.314643,9.147011l-.037293.441448M10.433977,11.027677l-.037293.441448M13.755815,12.468849l-.037293.441448M15.343487,14.056521l-.037293.441448M13.809445,9.239875l.441448-.037293M10.0481,13.00122l.441448-.037293M15.250611,12.561719l.441448-.037293M13.369945,14.442385l.441448-.037293"/><path class="cls-18" d="M10.503612,33.615054c.322937.091492.484436.137238.807373.228714-.075714.277466-.112091.41748-.181824.700027-.325256-.082474-.487915-.123703-.813202-.206177-.629822.324783-.943939.501526-1.568268.885315.068298-.329727.104309-.493118.179901-.816818.437195-.226669.656342-.333344,1.095123-.533844-.284058-.395248-.423187-.596619-.69516-1.006531.089386-.311981.135834-.466492.232117-.77243.363434.623871.552521.928543.943939,1.521744Z"/><path class="cls-18" d="M11.935894,31.843386c-.096344.27243-.143005.410019-.233246.687927-.823395-.280777-1.235199-.421158-2.058594-.701935.097748-.301086.148315-.45015.252686-.7453.815613.303711,1.223511.455582,2.039154.759308Z"/><path class="cls-18" d="M10.065563,30.618868c.406799-1.09256.633484-1.617981,1.127655-2.627151.140839.072433.211273.108673.352112.181107-.487244.995071-.710754,1.513123-1.111877,2.590424-.147156-.057739-.220734-.086624-.367889-.144379ZM10.621532,29.691363c.11261-.271652.170349-.406113.288727-.672272.724792.339417,1.08728.509125,1.812103.848557-.109924.247223-.163574.372101-.268158.624435-.733032-.320282-1.09964-.480423-1.832672-.80072Z"/><path class="cls-18" d="M11.777477,26.864047c.086731-.158401.130585-.237015.219452-.393204,1.035126-.053818,1.54776-.055359,2.557892-.012161-.149384.233307-.222748.35141-.366699.590591-.675995-.034134-1.01709-.041168-1.704041-.034149.344086.60733.522949.904968.893219,1.487167-.13089.253647-.194855.381912-.319855.641479-.542877-.882492-.799683-1.339294-1.279968-2.279724ZM12.689068,28.209368c.346985-.676773.530762-1.004974.916901-1.640991.134155.084686.201233.127045.335388.211731-.380463.626663-.561523.950027-.903412,1.616821-.139557-.075027-.20932-.112534-.348877-.187561Z"/><path class="cls-18" d="M14.335003,23.012042c.223297-.280365.336884-.418121.567963-.688934.661407.573563.992218.860352,1.653656,1.433899-.147186.172531-.21994.259827-.363739.436554-.523132-.434128-.784729-.651199-1.307892-1.085327.035706.017212.053558.025833.089203.043106.247742.556534.376953.831161.645599,1.372437-.137299.177643-.205109.267471-.338989.449112-.577698-.111511-.869354-.160767-1.457611-.24559-.035248-.038071-.052887-.057098-.088104-.09523.551117.397034.826721.595566,1.377838.992599-.13269.18985-.19809.285812-.327057.479858-.72052-.495224-1.080902-.742859-1.801392-1.238083.202423-.304596.305786-.454453.516632-.749496.636963.122818.952606.191559,1.57724.343109-.30838-.570541-.457184-.860306-.743347-1.448013Z"/><path class="cls-18" d="M17.441631,22.77495c-.176758.18573-.264099.279968-.436676.471176-.646484-.590591-.969818-.88591-1.616272-1.476501.186981-.207169.281616-.30925.473114-.510483.631897.606323.947937.9095,1.579834,1.515808Z"/><path class="cls-18" d="M16.985424,20.147265c.755005-.703598,1.147705-1.034531,1.957733-1.654739.097504.125565.146271.188354.243774.313904-.798706.611542-1.185913.937851-1.930359,1.631607-.108459-.116302-.162689-.174469-.271149-.290771ZM17.813152,19.644152c.198639-.172134.298889-.256821.501129-.423447.514099.618256.77121.927399,1.285309,1.545654-.187866.154785-.280975.233444-.465454.393326-.528381-.606216-.792633-.909317-1.320984-1.515533Z"/><path class="cls-18" d="M19.248821,18.261965c.210052-.156097.315948-.232788.529266-.383392.511261.710434.766968,1.065659,1.278259,1.776093-.196899.138992-.294647.209778-.488525.353867-.527588-.698608-.791473-1.047943-1.319-1.746567ZM19.43861,18.12221c.67511-.492523,1.021393-.724762,1.72821-1.161087.085052.134125.127594.201187.212677.335312-.69693.430237-1.038391.65921-1.704071,1.144867-.094727-.127625-.14209-.191452-.236816-.319092ZM19.976757,18.847262c.571167-.416702.86319-.61467,1.457947-.989822.086334.133347.129486.200027.21582.333374-.586182.369736-.873993.56485-1.43689.975525-.094757-.127625-.14212-.191452-.236877-.319077ZM20.506176,19.560458c.632568-.461502.957031-.679092,1.619293-1.087936.085083.134125.127625.201202.212677.335312-.652374.40274-.972015.617096-1.595123,1.071701-.094727-.127625-.14212-.191452-.236847-.319077Z"/><path class="cls-18" d="M24.233745,17.666094c-.182709.020432-.344269-.002243-.482483-.066055-.138306-.063858-.250275-.17128-.333313-.322876-.115082-.210159-.172638-.315231-.28772-.525391-.08255-.150742-.111389-.302383-.083496-.454163.02771-.150864.108704-.298843.244263-.4384s.322021-.267548.5578-.379059c.195343-.092377.383667-.146133.562897-.161942.179688-.014908.342987.00708.489929.066666.146912.05957.27124.154068.37384.283249-.240631.101166-.360413.153183-.598755.260132-.052277-.055038-.114258-.094925-.182861-.119812-.068634-.024887-.1427-.033737-.221069-.027191-.077301.006454-.158569.028168-.242432.067841-.107269.05072-.192139.109055-.252655.174515-.060944.06459-.097076.133865-.108978.206573-.011444.073578.00177.148178.041016.22403.110046.212738.1651.319122.275146.53186.039246.075851.092285.130554.157501.16507s.140869.04863.226624.041809c.085785-.006805.179962-.034775.28183-.082947.080963-.038284.147339-.083298.200195-.136887s.089996-.113647.113159-.180176c.021851-.065918.028809-.136795.018066-.211533.232117-.104156.348785-.154831.58316-.253342.024841.161865.012695.313812-.036316.457657-.048981.143829-.132843.273407-.249786.390274-.117859.118347-.26651.218704-.446503.303833-.217285.102753-.416809.164963-.59906.186264Z"/><path class="cls-18" d="M26.705913,16.580767c-.183899.002502-.342285-.036346-.474518-.114716-.130524-.078003-.230835-.196045-.296997-.353302-.215942-.513321-.323914-.769989-.539795-1.28331.23996-.096451.360474-.143295.602417-.234207.205627.521957.308472.782913.51416,1.304871.045624.115799.128143.189514.244965.219315.117432.029953.260345.013977.428833-.045303.171204-.060242.291809-.137192.363647-.233505.071503-.097229.086945-.204193.046326-.321762-.183105-.529907-.274628-.794846-.457672-1.324738.244781-.080368.367645-.119186.614105-.194046.169586.529633.254395.794449.424011,1.324081.051941.162247.052094.315567.002899.456833-.050293.142624-.147766.270523-.292175.384491-.144745.113052-.330017.209045-.56015.290009-.22876.080505-.43512.122772-.620056.12529Z"/><path class="cls-18" d="M28.384319,13.815646c.248047-.069229.372467-.102478.621918-.166214.22702.840683.340637,1.261047.567749,2.101715-.230255.058823-.345093.089508-.574036.153397-.246246-.835556-.369446-1.253342-.615631-2.088898ZM28.608043,13.754153c.794342-.214905,1.195526-.308304,2.002625-.466995.032257.154663.04837.23201.080627.386673-.795807.156479-1.191376.248581-1.97464.46048-.043427-.152054-.065186-.228104-.108612-.380157ZM28.8549,14.617968c.672058-.181824,1.010986-.262344,1.692657-.402603.033661.154373.050537.231583.084198.385956-.671783.138245-1.005829.217606-1.668182.39679-.043457-.152054-.065216-.228088-.108673-.380142ZM29.09779,15.467654c.744293-.201355,1.120178-.288879,1.876434-.437576.032257.154663.048401.23201.080658.386673-.744965.146484-1.115234.232697-1.84845.431046-.043457-.152054-.065186-.228088-.108643-.380142Z"/><path class="cls-18" d="M31.187359,13.17969c.310333-.054657.465912-.079926.777557-.126328.606598.58345.895966.883087,1.445801,1.494919-.018982.017319-.028442.026001-.047394.043365-.077515-.677063-.116272-1.01561-.193726-1.692657.244293-.02626.366547-.038147.611328-.059402.079895.864853.119904,1.297287.19989,2.162125-.290863.025253-.436157.03981-.726288.072739-.543396-.598236-.829285-.891083-1.428284-1.461136.019501-.018875.029205-.028305.048737-.04715.109039.662674.163574.994019.272614,1.656708-.224701.034775-.336853.053329-.560791.092773-.15976-.854385-.239716-1.281586-.399445-2.135956Z"/><path class="cls-18" d="M34.532757,12.783831c.256836-.015808.385376-.022339.642517-.032639.037018.868347.055603,1.302536.092712,2.170868-.237335.009521-.355957.015549-.593048.030136-.056885-.86734-.085388-1.301025-.142181-2.168365ZM34.916271,14.543307c.74942-.038971,1.125061-.045975,1.875397-.034988-.002441.157776-.003693.236679-.006134.394455-.739136-.010803-1.109192-.003906-1.847412.034485-.008728-.157578-.013092-.236374-.021851-.393951Z"/><path class="cls-18" d="M37.789745,14.935656c-.245697-.012512-.368652-.017395-.614563-.024445.02652-.868698.039764-1.30307.066376-2.171783.266449.007645.399658.012939.665863.026474-.04715.867905-.070648,1.301865-.117676,2.169754Z"/><path class="cls-18" d="M38.329174,14.558154c.240662.016693.360962.026337.601227.048187-.020599.212723-.030914.319092-.051483.531799-.250519.134552-.374146.203247-.61795.343369.027283-.369339.040924-.554001.068207-.923355Z"/><path class="cls-18" d="M41.844036,14.588397c-.068207.328934-.102295.493423-.170502.822357-.233154-.045563-.350006-.067078-.584076-.107574.060669-.330322.091003-.495499.151672-.825821-.281219-.590637-.431763-.884521-.752533-1.46788.26709.036942.400452.056931.666656.099915.194977.410858.287933.61705.464874,1.030533.320129-.32193.484222-.480789.820312-.793823.264069.054703.395844.083572.65863.144302-.519226.428513-.770355.648422-1.255035,1.097992Z"/><path class="cls-18" d="M44.094646,13.73897c.157898.042374.236664.064117.393982.108704.252777.977066.358276,1.466232.527924,2.441391-.24292-.080887-.364807-.119843-.609528-.194839-.105682-.654953-.167297-.983002-.308319-1.63916-.474548.486298-.704163.734024-1.147461,1.237457-.248413-.061096-.372925-.090164-.62265-.14537.669678-.743301,1.023193-1.105835,1.766052-1.808182ZM43.077801,14.95711c.663666.161667.993286.252686,1.646088.455154-.049133.150406-.07373.225616-.122864.376022-.643188-.199493-.967957-.289169-1.621857-.448456.039459-.153076.059174-.22963.098633-.382721Z"/><path class="cls-18" d="M46.138744,14.36928c.297363.103928.445312.157913.739838.27005.228394.802155.32663,1.203613.491547,2.003967-.026001.005402-.038971.008148-.064941.013611.28067-.623993.421021-.936005.701813-1.559998.226898.097763.339874.147903.564728.250702-.375275.787674-.562836,1.181519-.937927,1.969177-.26709-.122116-.401459-.181244-.671661-.295639-.165253-.784683-.263336-1.178177-.490723-1.964355.026062-.007034.039093-.010544.065216-.017517-.24588.627029-.368774.940536-.614594,1.567566-.21283-.079575-.319672-.118195-.534088-.19313.300262-.817764.450378-1.226654.750793-2.044434Z"/><path class="cls-18" d="M49.990825,16.045718c.891418.470535,1.327881.726639,2.176697,1.280579-.088318.13208-.132477.198135-.220764.330215-.836945-.546204-1.267334-.798721-2.146271-1.26268.076141-.139252.114197-.208878.190338-.348114ZM50.720989,16.651156c.223724.128021.33493.19342.555847.326904-.424042.682083-.636017,1.023132-1.059937,1.705215-.2052-.123993-.308502-.184738-.516296-.30365.408112-.691391.612152-1.037079,1.020386-1.72847Z"/><path class="cls-18" d="M52.484966,17.536669c.216248.145523.323639.219666.536713.370697-.512665.709534-.768951,1.064331-1.281464,1.773865-.196686-.139389-.295776-.207825-.495392-.342133.496002-.720963.743988-1.081467,1.240143-1.802429ZM52.680584,17.669558c.686951.471054,1.022736.720657,1.675659,1.247833-.100555.123184-.150848.184799-.251373.307968-.643768-.519806-.974884-.765915-1.652222-1.230392.091156-.130157.136749-.195251.227936-.325409ZM52.16267,18.408984c.581604.398849.866699.608658,1.423279,1.049042-.099365.1241-.149078.186172-.248444.310272-.548584-.434036-.829529-.640823-1.40274-1.033905.091156-.130157.136719-.195251.227905-.325409ZM51.653271,19.13634c.643646.441376.958282.675232,1.570038,1.169205-.100525.123184-.150787.184784-.251312.307968-.602631-.486603-.912567-.716965-1.546631-1.151764.091156-.130157.136749-.195251.227905-.325409Z"/><path class="cls-18" d="M54.707989,22.055376c-.082123-.167831-.115631-.329605-.099945-.482407.015015-.152084.080383-.292694.198395-.419464.163635-.175751.245453-.263626.409088-.439362.11734-.126053.25415-.200592.409515-.22197s.324951.010452.505646.096954c.181824.087616.368774.226974.556946.419876.155884.15979.272247.325363.348907.494217.075958.169525.110779.334915.103638.495972-.007141.161072-.055756.310928-.146393.449005-.180084-.20343-.271301-.303726-.455841-.501419.03421-.068619.052582-.13974.053131-.213776.00058-.074036-.016357-.149155-.049377-.222107-.033386-.074768-.082489-.145569-.148315-.213058-.0867-.088852-.170837-.151352-.255737-.190369-.083099-.038589-.162262-.051773-.23645-.040619-.074921.011856-.141266.048828-.201111.110046-.167847.171738-.25177.257599-.419586.429321-.059845.061234-.095673.128067-.106781.201385-.011108.073334.001007.150345.036804.230698.036865.081421.09491.162323.177246.246719.063568.06517.12973.115372.199554.149963.069824.034576.140564.052063.212769.054077.072174.002014.141998-.014053.211548-.046249.179718.19252.268555.290207.443939.488327-.147919.073349-.29895.107635-.454773.10379-.155823-.00386-.308807-.044724-.462799-.123337-.154724-.077927-.301514-.189789-.44516-.337036-.17337-.17775-.302277-.350388-.384857-.51918Z"/><path class="cls-18" d="M56.605114,24.126147c-.066406-.182571-.083893-.348801-.052704-.500931.030457-.151489.110046-.285294.239288-.397491.421967-.366257.632935-.549393,1.054962-.915649.175446.205429.262115.30954.433136.520462-.433868.358795-.650757.538177-1.084564.896973-.096252.079605-.138306.182083-.126587.308441.011505.124542.075409.260315.191895.411255s.232605.248489.350586.29187c.118805.04277.228516.028107.328186-.047043.44931-.338684.673981-.508026,1.123352-.84671.162323.221268.24234.333298.399902.560059-.453766.325073-.680634.48761-1.134338.812698-.138977.099579-.287231.144257-.441772.134644-.155334-.009018-.311829-.068451-.471985-.179611-.159393-.11174-.3172-.269638-.474091-.472961-.157837-.204514-.269043-.395218-.335266-.576004Z"/><path class="cls-18" d="M59.858562,24.9937c.152557.232391.227631.349991.375153.587875-.734741.47319-1.102051.709793-1.8367,1.182983-.136169-.219574-.205475-.32811-.346283-.542618.723114-.491287,1.084625-.736954,1.807831-1.228241ZM59.996105,25.20537c.481384.748489.709656,1.13681,1.138092,1.941437-.138458.077164-.207672.115753-.34613.192917-.422424-.793381-.647491-1.17627-1.122162-1.914291.13208-.088028.19812-.132034.3302-.220062ZM59.24583,25.705401c.407562.633743.602112.960983.970673,1.636276-.137665.078568-.206512.117859-.344177.196426-.363251-.665527-.554962-.988052-.956665-1.61264.13205-.088028.19809-.132034.33017-.220062ZM58.507854,26.197268c.45105.701324.664948,1.06517,1.066376,1.819077-.138428.077164-.207642.115753-.346069.192917-.395447-.742661-.60614-1.101074-1.050476-1.791931.13208-.088028.19812-.13205.33017-.220062Z"/><path class="cls-18" d="M61.435131,27.728365c.158173.314651.235229.474075.385071.796967-.358887.813705-.551208,1.210846-.958923,1.982666-.023041-.016235-.034546-.024292-.057587-.040405.627441-.269196.941193-.403793,1.568726-.672974.106476.261703.158386.393814.259491.660522-.807861.3228-1.211731.484192-2.019501.806992-.120148-.316986-.182343-.473557-.310699-.782867.396271-.75885.582947-1.149246.93103-1.948883.024811.015686.037201.023514.061981.039322-.603058.299545-.904541.44931-1.507568.748856-.109436-.231705-.165344-.346375-.27948-.573425.770935-.406708,1.156403-.610062,1.92746-1.016769Z"/><path class="cls-18" d="M62.931255,31.28139c.098846.285812.146759.430115.239441.721436-.825195.275421-1.237701.413132-2.062805.688553-.085541-.26889-.129761-.402084-.221008-.665894.817719-.297638,1.226562-.446472,2.044373-.744095ZM61.359997,32.190463c.280029.839981.406403,1.272491.628998,2.162338-.152832.039352-.229248.059021-.38208.098373-.219299-.876572-.343781-1.302628-.619629-2.130081.149078-.052246.223633-.078369.372711-.13063Z"/><path class="cls-18" d="M61.8838,35.663531c-.062469-.301575-.095367-.451004-.164459-.747116.84552-.201157,1.26825-.301743,2.113831-.502914.07486.320816.110504.482697.178162.809433-.851074.176239-1.27655.264359-2.127533.440598Z"/><path class="cls-4" d="M61.578004,40.859897c-.000122-13.917542-11.282471-25.19989-25.200012-25.19989s-25.199829,11.282349-25.199951,25.19989v.000122c0,3.464966,2.834961,6.299988,6.299988,6.299988h37.799988c3.465027,0,6.299988-2.835022,6.299988-6.299988v-.000122Z"/><g class="cls-26"><rect class="cls-11" x="56.255319" y="24.211816" width="5.980296" height="22.676392"/><rect class="cls-8" x="54.43617" y="22.231836" width="1.819149" height="23.939941"/><rect class="cls-14" x="20.606383" y="35.641809" width="30.287234" height="2.156403"/><rect class="cls-14" x="48.946809" y="17.731836" width="3.328085" height="17.909973"/><rect class="cls-21" x="50.893617" y="19.441827" width="2.489362" height="19.440002"/><rect class="cls-21" x="20.06383" y="36.876596" width="30.829787" height="2.005234"/><rect class="cls-21" x="17.893617" y="21.868188" width="2.511343" height="17.013641"/><rect class="cls-14" x="20.06383" y="20.791833" width=".829787" height="16.084762"/><rect class="cls-21" x="9.666" y="40.411814" width="40.525489" height="10.619995"/><path d="M25.393617,31.16383s-.340426-.776596-.095745-1.457447c0,0,1.095745.468085,1.148936.829787,0,0,.993943-.057747,1.085106-.042553,0,0,.43617-.816008,1.074468-.971834,0,0,.170213,1.173961.095745,1.280344,0,0,.297872.989992-.138298,1.59606,0,0,.62766,1.084791,3.957447,1.212451,0,0,2.180851-.234609,3.478723,2.297589,0,0,.085106.276879-.489362.510921,0,0-.329787.243591-1.297872.302647,0,0-1.978723,1.399481-6.074468-.111157,0,0-1.138298-.138298-2.659574-.37234,0,0-.776596-.244681-.882979-.882979,0,0,.606383-1.808511,1.351064-1.819149,0,0,.085106-.478723,0-.531915,0,0-.670213-.56383-.638298-.893617,0,0,.010638-.914894.085106-.946809Z"/><path d="M35.5,36.248936s-.085106.617021-.053191.691489.329787,1.957447,2.648936,2.829787c0,0,.361702.202128,0,.414894s-1.148936-.085106-1.148936-.085106c0,0-2.521277-1.978723-2.617021-3.56383l1.170213-.287234Z"/><path class="cls-25" d="M15.042542,36.641809l.534241,6.219238c0,.342834.960632.620728,2.14563.620728s2.145569-.277893,2.145569-.620728l.536255-6.219238h-5.361694Z"/><ellipse class="cls-8" cx="17.7224" cy="36.64" rx="2.948936" ry=".549583"/><path class="cls-8" d="M20.671326,36.639978h-5.897888v.991821h.001038c0,.303528,1.320251.549561,2.948914.549561s2.948975-.246033,2.948975-.549561l-.001038-.991821Z"/><ellipse class="cls-11" cx="17.723404" cy="36.641809" rx="2.680851" ry=".499621"/><path class="cls-18" d="M24.228723,42.841791s8.202128-.629974,9.303191-.359985c0,0,.734043.186024.606383.449982,0,0,1.244681.55119,1.196809.990021l.175532,2.159973h-8.952128l-2.329787-3.23999Z"/><path d="M26.510638,45.631799s-.670213-1.584976-1.117021-1.531792c0,0-.079787-.901802-.62234-.901802l-.542553-.356415v.446442l1.898936,2.343567.640095.720032-.257116-.720032Z"/><polyline points="26.558511 46.081781 35.510638 46.081781 35.510638 46.441827 26.819149 46.441827 26.28767 45.811792"/><path d="M56.893617,45.493617s-.529959-16.058197,2.990339-15.341813l3.026044,9.896377-1.350018,6.033585-4.666365-.588149Z"/><path class="cls-1" d="M19.510638,15.931787s16.425532,4.43817,32.638298,0"/><polygon class="cls-10" points="25.307139 21.871993 20.446809 21.061965 20.446809 16.201634 25.307139 17.011662 25.307139 21.871993"/><polygon class="cls-20" points="31.004633 22.588362 26.144303 22.093352 26.144303 17.233021 31.004633 17.728032 31.004633 22.588362"/><polygon class="cls-16" points="36.72 22.749442 31.859669 22.636931 31.859669 17.7766 36.72 17.889111 36.72 22.749442"/><polygon class="cls-10" points="42.504633 22.588362 37.644303 22.805697 37.644303 17.945366 42.504633 17.728032 42.504633 22.588362"/><polygon class="cls-20" points="48.057825 21.781996 43.197494 22.427041 43.197494 17.56671 48.057825 16.921666 48.057825 21.781996"/><path class="cls-14" d="M42.319149,33.211816l1.223404-1.170013s.521277-.163719.819149.266388l.148936.179993-1.255319,1.263611s-.925532-.247311-.93617-.539978Z"/><path class="cls-21" d="M47.87766,27.796809s.824468.590426.739362,1.526596h.989362s1.138298.197666,1.117021,1.008407c0,0,.089508.285864-.489362.266388,0,0-1.248745-.063674-2.56383,1.50527-.680693.812091-1.528473,1.993797-1.914894,3.991212,0,0-.050117.803807-.257013,1.347147-.148903.391041-.443287.574425-.556817.567747,0,0-.567589-.032889-.75-.845745-.047735-.212717-.170567-.471285-.175532-.805621,0,0-.071809-.236128-.510638-.359985s-.390957-2.209394-.390957-2.209394l.981383-1.316489s2.952128-2.909459,2.792553-3.702128c0,0,.106383-.38544.989362-.973404Z"/><polygon class="cls-13" points="29.393617 45.448206 29.680851 44.780851 29.904255 44.998224 29.393617 45.448206"/><polygon points="29.904255 44.998224 33.648936 40.048181 33.382979 39.868188 29.680851 44.780851 29.904255 44.998224"/><polygon class="cls-13" points="33.206392 40.102516 33.467553 40.287949 33.648936 40.048181 33.382979 39.868188 33.970463 39.182728 34.126658 39.290864 33.724155 39.868188 33.850313 39.958185 33.309637 40.714643 33.206392 40.633174 33.417772 40.3602 33.165174 40.157212 33.206392 40.102516"/><path class="cls-23" d="M42.579787,34.288232l.023936.402193-.574468.327128s-2.481383-.115221-2.768617-.005749l-.409574-.179993-1.18617-1.26001s.223404-1.440002.414894-1.440002h.462766l.06383.101179s.335106-.202359.462766-.101179.398936.093915.510638.536377l1.898936-.068176.654255.957637s.558511.007024.446809.730596Z"/><path class="cls-23" d="M29.925532,42.481805c1.12766-.626373,1.861702-.573295,1.957447-.562656s1.542553,1.18903,1.542553,1.18903l.882979.587566.595745.797872-.978723,1.787234c.06383-.427364-1.180851-.922642-1.180851-.922642.042553.449982-.148936.539663-.148936.539663-.62766.159574-1.106383-.08608-1.106383-.08608-.085106,0-.191489-.243707-.191489-.243707l-.297872-.209876s-.074468.326897-.159574.27359-.680851-.899963-.680851-.899963l-.117021-.540039s-.06383.089054-.202128.227352-.223404.042553-.223404.042553c.06383-.319149.212766-.539894.212766-.539894.095745-.007979.095745-1.396276.095745-1.396276"/><path class="cls-27" d="M44.87766,37.97766s-.62234-.269444-.638298-1.165868-.765957-.903564-.765957-.903564c.015957-.179993-.574468-2.041873-.606383-2.156433s-.321419.089996-.321419.089996c.207447.969058-.572198,1.080017-.572198,1.080017h-1.875287l-.03143.042807-.034647.047189s.569024.536438.648811.896423-.079787.179993-.079787.179993c0,0-.81383.706073-.734043,1.353607,0,0-.095745.622772-1.691489,2.156372,0,0-.654255.626373-.606383,1.709991s.654255,2.340027.654255,2.340027l1.882979.27359,4.771277-3.149994,1.452128-3.063599-.526596-1.26001s-.558511,1.26001-.638298,1.350006-.287234.179448-.287234.179448Z"/><path class="cls-10" d="M45.555538,36.874079c-.283372-.507336.399249-1.347451.51893-2.51876,0,0,1.914894-4.390756,4.531915-3.75712,0,0,1.835106,1.709991,2.12234,1.709991s2.728723,4.743937,3.510638,7.456703.861702,3.703331.861702,3.703331l-5.297872,2.613556-.473191,1.349991s-1.920426-.275386-2.191702-.273575-12.382979,0-12.382979,0l-.382979-.531601-2.058511.08162s-1.30759-.009523-1.227803-1.19518c0,0,.066322.034325.217603.100732.100214.04399.209148.138386.291364.183229.202476.110437.373499.205423.373499.122337,0-.179993,1.028499-1.461179-.407671-2.721128,0,0,1.104072.695038,2.731731.450012,0,0-.031915-.363242.382979-.359985s.845745.543579.845745.543579c0,0,4.340426-.720032,4.308511-1.080017s.62234-.449667.62234-.449667c0,0,2.916707-3.414894,2.639204-3.606383,0,0,.599531-1.579386.464206-1.821666Z"/><path class="cls-22" d="M37.06383,28.441827s1.680851,1.263527,1.723404,1.529999c0,0,.255319.720032-.212766,1.350006,0,0-.052488.269989.282267.449982,0,0,.185818.179993.377308.179993,0,0,.361702.805822.978723.71637,0,0-.148936.180054,0,.180054s.489362.363586.489362.363586c0,0-.106383.359985,1.276596.179993,0,0,.170213.363586,1.744681-1.26001,0,0,.319149-.183594.574468.176392,0,0,2.523936-1.937508,2.821808-2.837472l-.098404-.312522-5.574468-4.766388-3.340426.179993-1.87234,2.160034.829787,1.709991Z"/><path d="M39.319149,27.811792s-.191489-1.619995-.148936-1.529999.468085,1.166412.468085,1.166412l.212766.543579s.274439.338992.340426.360046c.106814.034081.297872.089996.297872.089996l.531915.05179,5.276596.66458s1.446809.093658,2.148936-2.426361-3.553191-5.490021-3.553191-5.490021c0,0-1.574468-1.353607-3.12766-1.173615,0,0-.425532.183655-.340426.723633s-2.425532.71637-2.425532.71637l-1.170213.089996s-1.659574,1.166351-1.638298,1.889984-.021277,1.116999-.021277,1.116999c0,0-1,1.226568-.957447,1.676611,0,0-.468085,2.786407.468085,2.606415h1.021277l.361702-.179993-.148936-1.350006.425532,1.083618h.191489l-.212766-1.353607.531915,1.263611h.510638c.212766-.092257.297872-.180054.297872-.180054l.148936-.089996s.06383-.067055.191489-.093567c0,0,.155194-.115068.319149-.176422Z"/><ellipse class="cls-16" cx="44.106383" cy="28.204624" rx="2.489362" ry="2.75356"/><path class="cls-16" d="M43.042553,25.831812l.893617-.183594s-.06383-1.076416-.340426-1.076416-.276596-.178851-.914894.179993l.361702,1.080017Z"/><path class="cls-16" d="M42.042553,25.468225s-1.297872-3.78363-3.191489-3.960022c0,0,.170213-.716431,2.191489-.896423,0,0,2.425532,1.26001,3.276596,4.140015,0,0-.744681.536438-2.276596.716431Z"/></g><path class="cls-6" d="M61.559982,40.86349c-.000122-13.917542-11.282471-25.19989-25.200012-25.19989s-25.199829,11.282349-25.199951,25.19989v.000122c0,3.464966,2.834961,6.299988,6.299988,6.299988h37.799988c3.465027,0,6.299988-2.835022,6.299988-6.299988v-.000122Z"/><ellipse class="cls-3" cx="16.956" cy="48.960007" rx="8.1" ry="5.4"/><ellipse class="cls-16" cx="16.956" cy="48.960007" rx="7.29" ry="4.86"/><text class="cls-19" transform="translate(11.587353 51.948291)"><tspan x="0" y="0">20</tspan></text><ellipse class="cls-3" cx="55.62" cy="48.931785" rx="8.1" ry="5.4"/><ellipse class="cls-16" cx="55.62" cy="48.931785" rx="7.29" ry="4.86"/><text class="cls-19" transform="translate(50.21928 52.055423)"><tspan x="0" y="0">25</tspan></text><text class="cls-17" transform="translate(28.402843 53.84977)"><tspan x="0" y="0">NIEN</tspan></text><path class="cls-9" d="M14.553191,33.195745c-.638298-.319149-3.234043,1.978723-3.234043,1.978723,0,0,2.829787-1.218546,3.148936-1.332677s.085106-.539663.085106-.539663"/><path class="cls-24" d="M11.319149,35.174468s2.12766-2.555934,3.255319-2.416265l.787234-.005523-.808511.443064s-.595745-.297872-3.234043,1.978723Z"/><path class="cls-24" d="M15.212766,32.195745c-1.829787-.914894-2.659574.926075-2.659574.926075,0,0,1.382979.691576,2.808511-.723633l-.148936-.202443Z"/><path class="cls-24" d="M11.446809,30.365957s.765957.319149,2.702128.489362c0,0-.236405-.871652-1.171394-1.063486s-1.658393.539978-1.658393.539978"/><path class="cls-9" d="M15.446809,31.681818s-.06383-.869052-.638298-.954158-1.212766.404255-1.212766.404255c0,0,1.047523.013872,1.593331.505348.016031.014436.03163.029283.046757.044555"/><path class="cls-9" d="M16.042553,35.834043c-1.161911-.632216-1.527931-.143097-1.627026.074047-.024298.053243-.032548.090135-.032548.090135,0,0-.570888-.523999.852854-.716431s.806721.552249.806721.552249Z"/><path class="cls-9" d="M18.87234,34.876596s1.765957-1.01556,2.212766-1.124801c0,0-1.404255-.470943-2.212766,1.124801Z"/><path class="cls-9" d="M19.297872,34.046809s3.191489-2.680851,4.085106.829787c0,0-.829787-2.617021-4.085106-.829787Z"/><path class="cls-24" d="M20.093851,28.441827s-.157681-.271024-.115128-.450043c0,0-.406674.34592-.799082.360046l.91421.089996Z"/><path class="cls-9" d="M20.093851,28.441827c-1.799766-.690088-2.136404,1.668811-2.136404,1.668811.446809.12766.638298.957447.638298.957447,0,0,.340426-1.524909.957447-1.773093,0,0,.224589-.196464.319149-.546056s.221511-.307109.221511-.307109Z"/><path class="cls-9" d="M23.659574,29.294992s-1-1.84198-2.319149-.406784c0,0-1.025064.882693-1.246574.903625h-.795979s.425532-1.231583,1.382979-1.350006c0,0,.787234-.154861.797872-.360046,0,0,2.031915-.325839,2.180851,1.213211Z"/><rect class="cls-9" x="18.201692" y="31.016533" width=".226558" height="5.340763" transform="translate(14.107503 -4.425335) rotate(22.232375)"/><path class="cls-24" d="M25.93617,30.855319c-2.893617-3.021277-5.191489.957447-5.191489.957447,0,0,.297872-1.879837,2.446809-2.290983s2.744681,1.333536,2.744681,1.333536Z"/><path class="cls-9" d="M21.340426,34.198206c.382979-.040092.680851-1.917355.680851-1.917355,0,0-2.255319-1.404255-2.531915-1.322666s-.386766,1.173615-.386766,1.173615c0,0,1.705915-.297757,1.854851-.170097,0,0,.787234,1.104036.521277,1.520103l-.138298.7164Z"/><path class="cls-9" d="M21.085106,31.4136s1.510638-.366791,2.957447.888528c0,0-.744681-1.713226-2.957447-.888528Z"/><path class="cls-9" d="M23.12766,33.238298c-1.319149-1.489362-3.06383-.622544-3.06383-.622544,0,0,.212766-.633006,1.414894-.483954s1.648936,1.106499,1.648936,1.106499Z"/><path class="cls-9" d="M15.723404,34.558221c-.574468-.318374-1.975144.089996-1.975144.089996,0,0,.297872-.408112.987572-.366463s.987572.276466.987572.276466Z"/><path class="cls-9" d="M22.382979,35.66383c-.680851-2.12766-3.203337-.742022-3.203337-.742022,0,0,.777805.039894,1.267167-.045212,0,0,1.170213-.291815,1.489362.194518s.446809.592716.446809.592716Z"/><path class="cls-24" d="M16.929169,26.551782s.730406.856728-.333424,2.878005l.577966,1.078416s.769733-3.68549-.244542-3.956421Z"/><rect class="cls-24" x="16.595745" y="29.429787" width=".555722" height="7.358891"/><path class="cls-9" d="M15.914894,29.759777s-.212766-1.643024.446809-1.677996c0,0,.539188.738881.567467,2.426422l-1.014275-.748426Z"/><rect class="cls-9" x="17.865729" y="31.676808" width=".106383" height="5.042795" transform="translate(19.499783 -4.37777) rotate(30)"/><polygon class="cls-9" points="17.247898 36.509608 17.038761 36.520617 15.914894 29.759777 16.926496 30.404202 17.247898 36.509608"/><rect class="cls-9" x="17.464877" y="30.132779" width=".788057" height="6.551696" transform="translate(5.177995 -2.288311) rotate(8.57019)"/><polygon class="cls-9" points="19.187865 36.532314 18.418638 36.430436 19.297872 29.791833 20.093851 29.69172 19.187865 36.532314"/><rect class="cls-24" x="17.261527" y="30.237823" width=".170213" height="6.377155" transform="translate(44.419194 59.604759) rotate(161.465026)"/><rect class="cls-24" x="19.701146" y="30.293228" width=".170213" height="6.377155" transform="translate(20.180747 72.371026) rotate(-150)"/><rect class="cls-24" x="17.763134" y="26.672912" width=".169567" height="10.029039" transform="translate(30.774457 65.680755) rotate(-171.42981)"/><rect class="cls-24" x="18.314472" y="35.712247" width="1.028868" height=".118177" transform="translate(48.052268 63.701808) rotate(161.465026)"/><path class="cls-24" d="M13.748261,29.759777s.890037.627457,1.443229.627457,1.531915,1.294584,1.531915,1.294584c0,0,0-2.188201-1-2.273307,0,0-.93617-.394244-1.404255-.250314s-.570888.60158-.570888.60158Z"/><rect class="cls-24" x="15.356849" y="30.162577" width=".459556" height="6.778152" transform="translate(46.58511 53.744483) rotate(147.998278)"/><rect class="cls-24" x="16.919226" y="31.565795" width=".197782" height="5.620706" transform="translate(52.655434 48.564788) rotate(138.047464)"/><rect class="cls-9" x="16.292496" y="35.562361" width=".226349" height="1.051719" transform="translate(52.732057 51.959556) rotate(138.047464)"/><polygon class="cls-9" points="17.016813 36.633324 17.904236 36.75122 15.623255 34.47024 14.735832 34.352344 17.016813 36.633324"/><path class="cls-24" d="M19.106383,35.641809s1.723404.383723,1.978723,1.128404c0,0-.255319-1.191489-1.170213-1.297872s-.808511.169469-.808511.169469Z"/><rect class="cls-9" x="16.103002" y="31.434394" width=".226558" height="5.340763" transform="translate(-10.766223 7.684179) rotate(-20.172496)"/><rect class="cls-24" x="19.216523" y="26.669095" width=".130213" height="9.884084" transform="translate(35.985772 64.656815) rotate(-175.434327)"/><rect class="cls-9" x="18.956763" y="32.143698" width=".106383" height="4.790841" transform="translate(19.81641 -4.877613) rotate(30)"/><rect class="cls-9" x="16.602992" y="34.729131" width="3.657199" height=".314175" transform="translate(-20.996556 33.405335) rotate(-60)"/><rect class="cls-9" x="18.006423" y="31.354749" width=".226558" height="5.340763" transform="translate(19.440145 -4.501348) rotate(30)"/><rect class="cls-9" x="17.340153" y="31.681962" width=".226558" height="5.340763" transform="translate(-10.775708 8.125994) rotate(-20.172496)"/><polygon class="cls-24" points="17.679243 36.678999 17.831755 36.604882 13.381851 27.448206 13.295623 27.658716 17.679243 36.678999"/><circle class="cls-11" cx="16.595745" cy="36.75122" r=".151507"/><circle class="cls-11" cx="16.747252" cy="36.770213" r=".151507"/><circle class="cls-11" cx="16.975195" cy="36.721796" r=".151507"/><circle class="cls-11" cx="17.126702" cy="36.721796" r=".151507"/><circle class="cls-11" cx="17.346634" cy="36.721796" r=".151507"/><circle class="cls-11" cx="17.623924" cy="36.811792" r=".151507"/><circle class="cls-11" cx="17.858906" cy="36.721796" r=".151507"/><circle class="cls-11" cx="18.119702" cy="36.631799" r=".151507"/><circle class="cls-11" cx="18.27121" cy="36.873303" r=".151507"/><circle class="cls-11" cx="18.418638" cy="36.75122" r=".151507"/><circle class="cls-11" cx="18.314971" cy="36.631799" r=".151507"/><circle class="cls-11" cx="18.431591" cy="36.503772" r=".151507"/><circle class="cls-11" cx="18.805616" cy="36.520617" r=".151507"/><circle class="cls-11" cx="18.974842" cy="36.532314" r=".151507"/><circle class="cls-11" cx="19.179642" cy="36.532314" r=".151507"/><path class="cls-10" d="M18.119702,24.211816s.007639,2.52002.346777,2.52002l.11662.071418.222518-.071418c1.352563-1.259949-.642152-2.610016-.642152-2.610016"/><ellipse class="cls-15" cx="18.583099" cy="26.103616" rx=".208872" ry=".676788"/><path class="cls-10" d="M19.425532,22.860979s-.042553.787234.914894,1.87234c0,0,.356965.767598-.608194,1.973674-.030491.038102-.062302.009234-.095485.048201,0,0-.031114.021603-.077442-.069554-.204677-.402731-.706308-1.690664-.133772-3.824661Z"/><ellipse class="cls-15" cx="19.636746" cy="26.00607" rx=".257235" ry=".676788" transform="translate(-1.430809 1.144943) rotate(-3.222418)"/><path class="cls-10" d="M13.441489,27.541489c-.143617-2.154255-1.228723-2.952128-1.228723-2.952128,0,0-.734043,2.179762,1.117021,3.132434l.111702-.180306Z"/><path class="cls-15" d="M13.257927,26.999964c.159137.338211.203527.6522.099147.701313s-.122359-.260048-.281496-.598259-.399169-.577399-.29479-.626512.318002.185247.477139.523458Z"/></g></svg>