<?xml version="1.0" encoding="UTF-8"?><svg id="Layer_2" xmlns="http://www.w3.org/2000/svg" viewBox="0 0 8.2 8.2"><defs><style>.cls-1{stroke:#f4f1e9;stroke-width:.25px;}.cls-1,.cls-2{fill:none;stroke-miterlimit:10;}.cls-2{stroke:#d3a150;}</style></defs><g id="Layer_1-2"><path id="Main" class="cls-2" d="M6.094752.732509c.367763-.309556.96315-.308817,1.329833.001651.365922.309823.365921.81118-.000002,1.121002L2.105248,6.345771c-.366614.310526-.365626.813154.002207,1.122651.36697.308771.960658.308771,1.327627,0l3.989502-3.367957c.367221-.310012.367221-.812638,0-1.12265L4.764918.732509c-.367224-.310012-.962611-.310012-1.329835,0h0S.775416,2.977814.775416,2.977814c-.367221.310012-.367221.812638,0,1.12265l3.989502,3.367957c.367832.309497.963219.308664,1.329833-.001861.365755-.309797.365755-.810991.000001-1.120789L.775416,1.855162c-.366684-.310467-.36581-.813095.001952-1.122651.366999-.308914.96088-.308914,1.32788-.000002l1.994752,1.683976,1.994752-1.683976Z"/><path id="Main-2" class="cls-2" d="M6.094752.732509c.367763-.309556.96315-.308817,1.329833.001651.365922.309823.365921.81118-.000002,1.121002L2.105248,6.345771c-.366614.310526-.365626.813154.002207,1.122651.36697.308771.960658.308771,1.327627,0l3.989502-3.367957c.367221-.310012.367221-.812638,0-1.12265L4.764918.732509c-.367224-.310012-.962611-.310012-1.329835,0h0S.775416,2.977814.775416,2.977814c-.367221.310012-.367221.812638,0,1.12265l3.989502,3.367957c.367832.309497.963219.308664,1.329833-.001861.365755-.309797.365755-.810991.000001-1.120789L.775416,1.855162c-.366684-.310467-.36581-.813095.001952-1.122651.366999-.308914.96088-.308914,1.32788-.000002l1.994752,1.683976,1.994752-1.683976Z"/><path class="cls-2" d="M5.580285,1.166822l-.300907.254027M2.920622,1.166822l-.300907.254027M4.250454,4.534779l-.300907.254027M4.250454,6.780086l-.300907.254027M6.609219,2.289472l.300907.254027M1.289874,2.289472l.300907.254027M5.279378,5.657429l.300907.254027M2.619715,5.657429l.300907.254027"/><path class="cls-2" d="M5.599092,1.150945l-.338521.285781M2.939429,1.150945l-.338521.285781M4.26926,4.518902l-.338521.285781M4.26926,6.764209l-.338521.285781M6.590412,2.273595l.338521.285781M1.271067,2.273595l.338521.285781M5.260571,5.641552l.338521.285781M2.600908,5.641552l.338521.285781"/><path id="Main-3" class="cls-1" d="M6.094752.732509c.367763-.309556.96315-.308817,1.329833.001651.365922.309823.365921.81118-.000002,1.121002L2.105248,6.345771c-.366614.310526-.365626.813154.002207,1.122651.36697.308771.960658.308771,1.327627,0l3.989502-3.367957c.367221-.310012.367221-.812638,0-1.12265L4.764918.732509c-.367224-.310012-.962611-.310012-1.329835,0h0S.775416,2.977814.775416,2.977814c-.367221.310012-.367221.812638,0,1.12265l3.989502,3.367957c.367832.309497.963219.308664,1.329833-.001861.365755-.309797.365755-.810991.000001-1.120789L.775416,1.855162c-.366684-.310467-.36581-.813095.001952-1.122651.366999-.308914.96088-.308914,1.32788-.000002l1.994752,1.683976,1.994752-1.683976Z"/><path id="Main-4" class="cls-1" d="M6.094752.732509c.367763-.309556.96315-.308817,1.329833.001651.365922.309823.365921.81118-.000002,1.121002L2.105248,6.345771c-.366614.310526-.365626.813154.002207,1.122651.36697.308771.960658.308771,1.327627,0l3.989502-3.367957c.367221-.310012.367221-.812638,0-1.12265L4.764918.732509c-.367224-.310012-.962611-.310012-1.329835,0h0S.775416,2.977814.775416,2.977814c-.367221.310012-.367221.812638,0,1.12265l3.989502,3.367957c.367832.309497.963219.308664,1.329833-.001861.365755-.309797.365755-.810991.000001-1.120789L.775416,1.855162c-.366684-.310467-.36581-.813095.001952-1.122651.366999-.308914.96088-.308914,1.32788-.000002l1.994752,1.683976,1.994752-1.683976Z"/><path class="cls-1" d="M5.580285,1.166822l-.300907.254027M2.920622,1.166822l-.300907.254027M4.250454,4.534779l-.300907.254027M4.250454,6.780086l-.300907.254027M6.609219,2.289472l.300907.254027M1.289874,2.289472l.300907.254027M5.279378,5.657429l.300907.254027M2.619715,5.657429l.300907.254027"/><path class="cls-1" d="M5.599092,1.150945l-.338521.285781M2.939429,1.150945l-.338521.285781M4.26926,4.518902l-.338521.285781M4.26926,6.764209l-.338521.285781M6.590412,2.273595l.338521.285781M1.271067,2.273595l.338521.285781M5.260571,5.641552l.338521.285781M2.600908,5.641552l.338521.285781"/></g></svg>