<?xml version="1.0" encoding="UTF-8"?><svg id="Layer_2" xmlns="http://www.w3.org/2000/svg" viewBox="0 0 7.7 7.7"><defs><style>.cls-1{fill:none;stroke:#f4f1e9;stroke-miterlimit:10;stroke-width:.5px;}</style></defs><g id="Layer_1-2"><path id="Main" class="cls-1" d="M5.844752.482509c.367763-.309556.96315-.308817,1.329833.001651.365922.309823.365921.81118-.000002,1.121002L1.855248,6.095771c-.366614.310526-.365626.813154.002207,1.122651.36697.308771.960658.308771,1.327627,0l3.989502-3.367957c.367221-.310012.367221-.812638,0-1.12265L4.514918.482509c-.367224-.310012-.962611-.310012-1.329835,0h0S.525416,2.727814.525416,2.727814c-.367221.310012-.367221.812638,0,1.12265l3.989502,3.367957c.367832.309497.963219.308664,1.329833-.001861.365755-.309797.365755-.810991.000001-1.120789L.525416,1.605162c-.366684-.310467-.36581-.813095.001952-1.122651.366999-.308914.96088-.308914,1.32788-.000002l1.994752,1.683976,1.994752-1.683976Z"/><path id="Main-2" class="cls-1" d="M5.844752.482509c.367763-.309556.96315-.308817,1.329833.001651.365922.309823.365921.81118-.000002,1.121002L1.855248,6.095771c-.366614.310526-.365626.813154.002207,1.122651.36697.308771.960658.308771,1.327627,0l3.989502-3.367957c.367221-.310012.367221-.812638,0-1.12265L4.514918.482509c-.367224-.310012-.962611-.310012-1.329835,0h0S.525416,2.727814.525416,2.727814c-.367221.310012-.367221.812638,0,1.12265l3.989502,3.367957c.367832.309497.963219.308664,1.329833-.001861.365755-.309797.365755-.810991.000001-1.120789L.525416,1.605162c-.366684-.310467-.36581-.813095.001952-1.122651.366999-.308914.96088-.308914,1.32788-.000002l1.994752,1.683976,1.994752-1.683976Z"/><path class="cls-1" d="M5.330285.916822l-.300907.254027M2.670622.916822l-.300907.254027M4.000454,4.284779l-.300907.254027M4.000454,6.530086l-.300907.254027M6.359219,2.039472l.300907.254027M1.039874,2.039472l.300907.254027M5.029378,5.407429l.300907.254027M2.369715,5.407429l.300907.254027"/><path class="cls-1" d="M5.349092.900945l-.338521.285781M2.689429.900945l-.338521.285781M4.01926,4.268902l-.338521.285781M4.01926,6.514209l-.338521.285781M6.340412,2.023595l.338521.285781M1.021067,2.023595l.338521.285781M5.010571,5.391552l.338521.285781M2.350908,5.391552l.338521.285781"/></g></svg>