<?xml version="1.0" encoding="UTF-8"?><svg id="Layer_2" xmlns="http://www.w3.org/2000/svg" xmlns:xlink="http://www.w3.org/1999/xlink" viewBox="0 0 72.72 62.640015"><defs><style>.cls-1{stroke:#000;}.cls-1,.cls-2,.cls-3,.cls-4,.cls-5,.cls-6{stroke-miterlimit:10;}.cls-1,.cls-2,.cls-3,.cls-4,.cls-6{stroke-width:.5px;}.cls-1,.cls-7,.cls-5,.cls-6{fill:none;}.cls-8{fill:#47321d;}.cls-9{fill:#407036;}.cls-10{fill:#a9fffd;}.cls-2{fill:#fff;}.cls-2,.cls-3,.cls-5,.cls-6{stroke:#a9fffd;}.cls-11{fill:#775936;}.cls-12{fill:#cecece;}.cls-13{fill:#606060;}.cls-14{fill:#262626;}.cls-15{fill:#ebe0b3;}.cls-16{fill:#ffabfb;}.cls-17{font-family:Bahnschrift-Bold, Bahnschrift;font-size:7px;font-variation-settings:'wght' 700, 'wdth' 100;font-weight:700;}.cls-17,.cls-18,.cls-3,.cls-4,.cls-19{fill:#f4f1e9;}.cls-20{fill:#c4c4c4;}.cls-21{fill:#3a3a3a;}.cls-22{fill:#5b4827;}.cls-23{fill:#513e27;}.cls-24{fill:#26ff00;}.cls-25{fill:#281d13;}.cls-4{stroke:#ff8fff;}.cls-19{font-family:Algerian, Algerian;font-size:9px;}.cls-26{clip-path:url(#clippath);}.cls-27{fill:#71afac;}</style><clipPath id="clippath"><path class="cls-7" d="M61.559982,40.86349c-.000122-13.917542-11.282471-25.19989-25.200012-25.19989s-25.199829,11.282349-25.199951,25.19989v.000122c0,3.464966,2.834961,6.299988,6.299988,6.299988h37.799988c3.465027,0,6.299988-2.835022,6.299988-6.299988v-.000122Z"/></clipPath></defs><g id="_Kua_Lo-Fi_Meli"><path class="cls-12" d="M70.72,0h-2c0,1.104553-.895447,2-2,2-1.104614,0-2-.895447-2-2h-2c0,1.104553-.895447,2-2,2-1.104614,0-2-.895447-2-2h-2c0,1.104553-.895447,2-2,2-1.104614,0-2-.895447-2-2h-2c0,1.104553-.895447,2-2,2-1.104614,0-2-.895447-2-2h-2c0,1.104553-.895447,2-2,2-1.104614,0-2-.895447-2-2h-2c0,1.104553-.895447,2-2,2-1.104614,0-2-.895447-2-2h-2c0,1.104553-.895447,2-2,2-1.104614,0-2-.895447-2-2h-2c0,1.104553-.895447,2-2,2-1.104614,0-2-.895447-2-2h-2c0,1.104553-.895447,2-2,2-1.104614,0-2-.895447-2-2h-2c0,1.104553-.895447,2-2,2-1.104614,0-2-.895447-2-2h-2c0,1.104553-.895447,2-2,2-1.104614,0-2-.895447-2-2h-2c0,.526672-.213379,1.041809-.585815,1.414246-.372375.372375-.887512.585754-1.414185.585754v2.264038c1.104553,0,2,.895386,2,2s-.895447,2-2,2v2.263977c1.104553,0,2,.895447,2,2,0,1.104553-.895447,2-2,2v2.263977c1.104553,0,2,.895447,2,2,0,1.104614-.895447,2-2,2v2.264038c1.104553,0,2,.895386,2,2s-.895447,2-2,2v2.263977c1.104553,0,2,.895447,2,2,0,1.104553-.895447,2-2,2v2.263977c1.104553,0,2,.895447,2,2,0,1.104614-.895447,2-2,2v2.264038c1.104553,0,2,.895447,2,2s-.895447,2-2,2v2.263977c1.104553,0,2,.895447,2,2s-.895447,2-2,2v2.263977c1.104553,0,2,.895447,2,2s-.895447,2-2,2v2.264038c.526672,0,1.041809.213379,1.414185.585754.372437.372437.585815.887573.585815,1.414246h2c0-1.104553.895386-2,2-2,1.104553,0,2,.895447,2,2h2c0-1.104553.895386-2,2-2,1.104553,0,2,.895447,2,2h2c0-1.104553.895386-2,2-2,1.104553,0,2,.895447,2,2h2c0-1.104553.895386-2,2-2,1.104553,0,2,.895447,2,2h2c0-1.104553.895386-2,2-2,1.104553,0,2,.895447,2,2h2c0-1.104553.895386-2,2-2,1.104553,0,2,.895447,2,2h2c0-1.104553.895386-2,2-2,1.104553,0,2,.895447,2,2h2c0-1.104553.895386-2,2-2,1.104553,0,2,.895447,2,2h2c0-1.104553.895386-2,2-2,1.104553,0,2,.895447,2,2h2c0-1.104553.895386-2,2-2,1.104553,0,2,.895447,2,2h2c0-1.104553.895386-2,2-2,1.104553,0,2,.895447,2,2h2c0-.526672.213379-1.041809.585754-1.414246.372437-.372375.887573-.585754,1.414246-.585754v-2.264038c-1.104614,0-2-.895386-2-2s.895386-2,2-2v-2.263977c-1.104614,0-2-.895447-2-2,0-1.104553.895386-2,2-2v-2.263977c-1.104614,0-2-.895447-2-2s.895386-2,2-2v-2.264038c-1.104614,0-2-.895386-2-2,0-1.104553.895386-2,2-2v-2.263977c-1.104614,0-2-.895447-2-2,0-1.104553.895386-2,2-2v-2.263977c-1.104614,0-2-.895447-2-2s.895386-2,2-2v-2.264038c-1.104614,0-2-.895386-2-2,0-1.104553.895386-2,2-2v-2.263977c-1.104614,0-2-.895447-2-2,0-1.104553.895386-2,2-2v-2.264038c-1.104614,0-2-.895386-2-2s.895386-2,2-2v-2.263977c-.526672,0-1.041809-.213379-1.414246-.585754C70.933379,1.041809,70.72.526672,70.72,0Z"/><path class="cls-18" d="M70,0h-2c0,1.104553-.895447,2-2,2-1.104614,0-2-.895447-2-2h-2c0,1.104553-.895447,2-2,2-1.104614,0-2-.895447-2-2h-2c0,1.104553-.895447,2-2,2-1.104614,0-2-.895447-2-2h-2c0,1.104553-.895447,2-2,2-1.104614,0-2-.895447-2-2h-2c0,1.104553-.895447,2-2,2-1.104614,0-2-.895447-2-2h-2c0,1.104553-.895447,2-2,2-1.104614,0-2-.895447-2-2h-2c0,1.104553-.895447,2-2,2-1.104614,0-2-.895447-2-2h-2c0,1.104553-.895447,2-2,2-1.104614,0-2-.895447-2-2h-2c0,1.104553-.895447,2-2,2-1.104614,0-2-.895447-2-2h-2c0,1.104553-.895447,2-2,2-1.104614,0-2-.895447-2-2h-2c0,1.104553-.895447,2-2,2-1.104614,0-2-.895447-2-2h-2c0,.526672-.213379,1.041809-.585815,1.414246C1.041809,1.786621.526672,2,0,2v2.264038c1.104553,0,2,.895386,2,2,0,1.104553-.895447,2-2,2v2.263977c1.104553,0,2,.895447,2,2,0,1.104553-.895447,2-2,2v2.263977c1.104553,0,2,.895447,2,2S1.104553,20.791992,0,20.791992v2.264038c1.104553,0,2,.895386,2,2,0,1.104553-.895447,2-2,2v2.263977c1.104553,0,2,.895447,2,2,0,1.104553-.895447,2-2,2v2.263977c1.104553,0,2,.895447,2,2,0,1.104614-.895447,2-2,2v2.264038c1.104553,0,2,.895447,2,2S1.104553,45.848022,0,45.848022v2.263977c1.104553,0,2,.895447,2,2,0,1.104553-.895447,2-2,2v2.263977c1.104553,0,2,.895447,2,2,0,1.104614-.895447,2-2,2v2.264038c.526672,0,1.041809.213379,1.414185.585754.372437.372437.585815.887573.585815,1.414246h2c0-1.104553.895386-2,2-2,1.104553,0,2,.895447,2,2h2c0-1.104553.895386-2,2-2,1.104553,0,2,.895447,2,2h2c0-1.104553.895386-2,2-2,1.104553,0,2,.895447,2,2h2c0-1.104553.895386-2,2-2,1.104553,0,2,.895447,2,2h2c0-1.104553.895386-2,2-2,1.104553,0,2,.895447,2,2h2c0-1.104553.895386-2,2-2,1.104553,0,2,.895447,2,2h2c0-1.104553.895386-2,2-2,1.104553,0,2,.895447,2,2h2c0-1.104553.895386-2,2-2,1.104553,0,2,.895447,2,2h2c0-1.104553.895386-2,2-2,1.104553,0,2,.895447,2,2h2c0-1.104553.895386-2,2-2,1.104553,0,2,.895447,2,2h2c0-1.104553.895386-2,2-2,1.104553,0,2,.895447,2,2h2c0-.526672.213379-1.041809.585754-1.414246.372437-.372375.887573-.585754,1.414246-.585754v-2.264038c-1.104614,0-2-.895386-2-2,0-1.104553.895386-2,2-2v-2.263977c-1.104614,0-2-.895447-2-2,0-1.104553.895386-2,2-2v-2.263977c-1.104614,0-2-.895447-2-2s.895386-2,2-2v-2.264038c-1.104614,0-2-.895386-2-2,0-1.104553.895386-2,2-2v-2.263977c-1.104614,0-2-.895447-2-2,0-1.104553.895386-2,2-2v-2.263977c-1.104614,0-2-.895447-2-2,0-1.104614.895386-2,2-2v-2.264038c-1.104614,0-2-.895386-2-2,0-1.104553.895386-2,2-2v-2.263977c-1.104614,0-2-.895447-2-2,0-1.104553.895386-2,2-2v-2.264038c-1.104614,0-2-.895386-2-2,0-1.104553.895386-2,2-2v-2.263977c-.526672,0-1.041809-.213379-1.414246-.585754C70.213379,1.041809,70,.526672,70,0Z"/><rect class="cls-16" x="7.559998" y="6.031824" width="57.599976" height=".179993"/><rect class="cls-16" x="7.559998" y="6.391809" width="57.599976" height=".179993"/><rect class="cls-16" x="7.559998" y="6.751794" width="57.599976" height=".179993"/><rect class="cls-16" x="7.559998" y="7.108179" width="57.599976" height=".180054"/><rect class="cls-16" x="7.559998" y="7.468225" width="57.599976" height=".179993"/><rect class="cls-16" x="7.559998" y="7.831812" width="57.599976" height=".179993"/><rect class="cls-16" x="7.559998" y="8.191797" width="57.599976" height=".179993"/><rect class="cls-16" x="7.559998" y="8.551782" width="57.599976" height=".180054"/><rect class="cls-16" x="7.559998" y="8.908228" width="57.599976" height=".179993"/><rect class="cls-16" x="7.559998" y="9.268213" width="57.599976" height=".179993"/><rect class="cls-16" x="7.559998" y="9.631799" width="57.599976" height=".179993"/><rect class="cls-16" x="7.559998" y="9.991785" width="57.599976" height=".179993"/><rect class="cls-16" x="7.559998" y="10.351831" width="57.599976" height=".179993"/><rect class="cls-16" x="7.559998" y="10.708215" width="57.599976" height=".179993"/><rect class="cls-16" x="7.559998" y="11.068201" width="57.599976" height=".179993"/><rect class="cls-16" x="7.559998" y="11.431787" width="57.599976" height=".179993"/><rect class="cls-16" x="7.559998" y="11.791833" width="57.599976" height=".179993"/><rect class="cls-16" x="7.559998" y="12.151819" width="57.599976" height=".179993"/><rect class="cls-16" x="7.559998" y="12.508203" width="57.599976" height=".179993"/><rect class="cls-16" x="7.559998" y="12.868188" width="57.599976" height=".179993"/><rect class="cls-16" x="7.559998" y="13.231836" width="57.599976" height=".179993"/><rect class="cls-16" x="7.559998" y="13.591821" width="57.599976" height=".179993"/><rect class="cls-16" x="7.559998" y="13.951807" width="57.599976" height=".179993"/><rect class="cls-16" x="7.559998" y="14.308191" width="57.599976" height=".179993"/><rect class="cls-16" x="7.559998" y="14.668176" width="57.599976" height=".180054"/><rect class="cls-16" x="7.559998" y="15.031824" width="57.599976" height=".179993"/><rect class="cls-16" x="7.559998" y="15.391809" width="57.599976" height=".179993"/><rect class="cls-16" x="7.559998" y="15.751794" width="57.599976" height=".179993"/><rect class="cls-16" x="7.559998" y="16.108179" width="57.599976" height=".180054"/><rect class="cls-16" x="7.559998" y="16.468225" width="57.599976" height=".179993"/><rect class="cls-16" x="7.559998" y="16.831812" width="57.599976" height=".179993"/><rect class="cls-16" x="7.559998" y="17.191797" width="57.599976" height=".179993"/><rect class="cls-16" x="7.559998" y="17.551782" width="57.599976" height=".180054"/><rect class="cls-16" x="7.559998" y="17.908228" width="57.599976" height=".179993"/><rect class="cls-16" x="7.559998" y="18.268213" width="57.599976" height=".179993"/><rect class="cls-16" x="7.559998" y="18.631799" width="57.599976" height=".179993"/><rect class="cls-16" x="7.559998" y="18.991785" width="57.599976" height=".179993"/><rect class="cls-16" x="7.559998" y="19.351831" width="57.599976" height=".179993"/><rect class="cls-16" x="7.559998" y="19.708215" width="57.599976" height=".179993"/><rect class="cls-16" x="7.559998" y="20.068201" width="57.599976" height=".179993"/><rect class="cls-16" x="7.559998" y="20.431787" width="57.599976" height=".179993"/><rect class="cls-16" x="7.559998" y="20.791833" width="57.599976" height=".179993"/><rect class="cls-16" x="7.559998" y="21.151819" width="57.599976" height=".179993"/><rect class="cls-16" x="7.559998" y="21.508203" width="57.599976" height=".179993"/><rect class="cls-16" x="7.559998" y="21.868188" width="57.599976" height=".179993"/><rect class="cls-16" x="7.559998" y="22.231836" width="57.599976" height=".179993"/><rect class="cls-16" x="7.559998" y="22.591821" width="57.599976" height=".179993"/><rect class="cls-16" x="7.559998" y="22.951807" width="57.599976" height=".179993"/><rect class="cls-16" x="7.559998" y="23.308191" width="57.599976" height=".179993"/><rect class="cls-16" x="7.559998" y="23.668176" width="57.599976" height=".180054"/><rect class="cls-16" x="7.559998" y="24.031824" width="57.599976" height=".179993"/><rect class="cls-16" x="7.559998" y="24.391809" width="57.599976" height=".179993"/><rect class="cls-16" x="7.559998" y="24.751794" width="57.599976" height=".179993"/><rect class="cls-16" x="7.559998" y="25.108179" width="57.599976" height=".180054"/><rect class="cls-16" x="7.559998" y="25.468225" width="57.599976" height=".179993"/><rect class="cls-16" x="7.559998" y="25.831812" width="57.599976" height=".179993"/><rect class="cls-16" x="7.559998" y="26.191797" width="57.599976" height=".179993"/><rect class="cls-16" x="7.559998" y="26.551782" width="57.599976" height=".180054"/><rect class="cls-16" x="7.559998" y="26.908228" width="57.599976" height=".179993"/><rect class="cls-16" x="7.559998" y="27.268213" width="57.599976" height=".179993"/><rect class="cls-16" x="7.559998" y="27.631799" width="57.599976" height=".179993"/><rect class="cls-16" x="7.559998" y="27.991785" width="57.599976" height=".179993"/><rect class="cls-16" x="7.559998" y="28.351831" width="57.599976" height=".179993"/><rect class="cls-16" x="7.559998" y="28.708215" width="57.599976" height=".179993"/><rect class="cls-16" x="7.559998" y="29.068201" width="57.599976" height=".179993"/><rect class="cls-16" x="7.559998" y="29.431787" width="57.599976" height=".179993"/><rect class="cls-16" x="7.559998" y="29.791833" width="57.599976" height=".179993"/><rect class="cls-16" x="7.559998" y="30.151819" width="57.599976" height=".179993"/><rect class="cls-16" x="7.559998" y="30.508203" width="57.599976" height=".179993"/><rect class="cls-16" x="7.559998" y="30.868188" width="57.599976" height=".179993"/><rect class="cls-16" x="7.559998" y="31.231836" width="57.599976" height=".179993"/><rect class="cls-16" x="7.559998" y="31.591821" width="57.599976" height=".179993"/><rect class="cls-16" x="7.559998" y="31.951807" width="57.599976" height=".179993"/><rect class="cls-16" x="7.559998" y="32.308191" width="57.599976" height=".179993"/><rect class="cls-16" x="7.559998" y="32.668176" width="57.599976" height=".180054"/><rect class="cls-16" x="7.559998" y="33.031824" width="57.599976" height=".179993"/><rect class="cls-16" x="7.559998" y="33.391809" width="57.599976" height=".179993"/><rect class="cls-16" x="7.559998" y="33.751794" width="57.599976" height=".179993"/><rect class="cls-16" x="7.559998" y="34.108179" width="57.599976" height=".180054"/><rect class="cls-16" x="7.559998" y="34.468225" width="57.599976" height=".179993"/><rect class="cls-16" x="7.559998" y="34.831812" width="57.599976" height=".179993"/><rect class="cls-16" x="7.559998" y="35.191797" width="57.599976" height=".179993"/><rect class="cls-16" x="7.559998" y="35.551782" width="57.599976" height=".180054"/><rect class="cls-16" x="7.559998" y="35.908228" width="57.599976" height=".179993"/><rect class="cls-16" x="7.559998" y="36.268213" width="57.599976" height=".179993"/><rect class="cls-16" x="7.559998" y="36.631799" width="57.599976" height=".179993"/><rect class="cls-16" x="7.559998" y="36.991785" width="57.599976" height=".179993"/><rect class="cls-16" x="7.559998" y="37.351831" width="57.599976" height=".179993"/><rect class="cls-16" x="7.559998" y="37.708215" width="57.599976" height=".179993"/><rect class="cls-16" x="7.559998" y="38.068201" width="57.599976" height=".179993"/><rect class="cls-16" x="7.559998" y="38.431787" width="57.599976" height=".179993"/><rect class="cls-16" x="7.559998" y="38.791833" width="57.599976" height=".179993"/><rect class="cls-16" x="7.559998" y="39.151819" width="57.599976" height=".179993"/><rect class="cls-16" x="7.559998" y="39.508203" width="57.599976" height=".179993"/><rect class="cls-16" x="7.559998" y="39.868188" width="57.599976" height=".179993"/><rect class="cls-16" x="7.559998" y="40.231836" width="57.599976" height=".179993"/><rect class="cls-16" x="7.559998" y="40.591821" width="57.599976" height=".179993"/><rect class="cls-16" x="7.559998" y="40.951807" width="57.599976" height=".179993"/><rect class="cls-16" x="7.559998" y="41.308191" width="57.599976" height=".179993"/><rect class="cls-16" x="7.559998" y="41.668176" width="57.599976" height=".180054"/><rect class="cls-16" x="7.559998" y="42.031824" width="57.599976" height=".179993"/><rect class="cls-16" x="7.559998" y="42.391809" width="57.599976" height=".179993"/><rect class="cls-16" x="7.559998" y="42.751794" width="57.599976" height=".179993"/><rect class="cls-16" x="7.559998" y="43.108179" width="57.599976" height=".180054"/><rect class="cls-16" x="7.559998" y="43.468225" width="57.599976" height=".179993"/><rect class="cls-16" x="7.559998" y="43.831812" width="57.599976" height=".179993"/><rect class="cls-16" x="7.559998" y="44.191797" width="57.599976" height=".179993"/><rect class="cls-16" x="7.559998" y="44.551782" width="57.599976" height=".180054"/><rect class="cls-16" x="7.559998" y="44.908228" width="57.599976" height=".179993"/><rect class="cls-16" x="7.559998" y="45.268213" width="57.599976" height=".179993"/><rect class="cls-16" x="7.559998" y="45.631799" width="57.599976" height=".179993"/><rect class="cls-16" x="7.559998" y="45.991785" width="57.599976" height=".179993"/><rect class="cls-16" x="7.559998" y="46.351831" width="57.599976" height=".179993"/><rect class="cls-16" x="7.559998" y="46.708215" width="57.599976" height=".179993"/><rect class="cls-16" x="7.559998" y="47.068201" width="57.599976" height=".179993"/><rect class="cls-16" x="7.559998" y="47.431787" width="57.599976" height=".179993"/><rect class="cls-16" x="7.559998" y="47.791833" width="57.599976" height=".179993"/><rect class="cls-16" x="7.559998" y="48.151819" width="57.599976" height=".179993"/><rect class="cls-16" x="7.559998" y="48.508203" width="57.599976" height=".179993"/><rect class="cls-16" x="7.559998" y="48.868188" width="57.599976" height=".179993"/><rect class="cls-16" x="7.559998" y="49.231836" width="57.599976" height=".179993"/><rect class="cls-16" x="7.559998" y="49.591821" width="57.599976" height=".179993"/><rect class="cls-16" x="7.559998" y="49.951807" width="57.599976" height=".179993"/><rect class="cls-16" x="7.559998" y="50.308191" width="57.599976" height=".179993"/><rect class="cls-16" x="7.559998" y="50.668176" width="57.599976" height=".180054"/><rect class="cls-16" x="7.559998" y="51.031824" width="57.599976" height=".179993"/><rect class="cls-16" x="7.559998" y="51.391809" width="57.599976" height=".179993"/><rect class="cls-16" x="7.559998" y="51.751794" width="57.599976" height=".179993"/><rect class="cls-16" x="7.559998" y="52.108179" width="57.599976" height=".180054"/><rect class="cls-16" x="7.559998" y="52.468225" width="57.599976" height=".179993"/><rect class="cls-16" x="7.559998" y="52.831812" width="57.599976" height=".179993"/><rect class="cls-16" x="7.559998" y="53.191797" width="57.599976" height=".179993"/><rect class="cls-16" x="7.559998" y="53.551782" width="57.599976" height=".180054"/><rect class="cls-16" x="7.559998" y="53.908228" width="57.599976" height=".179993"/><rect class="cls-16" x="7.559998" y="54.268213" width="57.599976" height=".179993"/><rect class="cls-16" x="7.559998" y="54.631799" width="57.599976" height=".179993"/><rect class="cls-16" x="7.559998" y="54.991785" width="57.599976" height=".179993"/><rect class="cls-16" x="7.559998" y="55.351831" width="57.599976" height=".179993"/><rect class="cls-16" x="7.559998" y="55.708215" width="57.599976" height=".179993"/><rect class="cls-16" x="7.559998" y="56.068201" width="57.599976" height=".179993"/><rect id="Inner" class="cls-5" x="11.303993" y="2.520007" width="50.112" height="57.6" transform="translate(5.039985 67.68) rotate(-90)"/><path id="Main" class="cls-2" d="M63.205717,11.323212c.478937.041159.899416.462684.939167.941502.039668.477823-.314846.832336-.792669.792667l-6.936679-.585999c-.47881-.03966-.833523.31645-.792273.795395.041153.477821.460954.897621.938775.938773l5.202509.439498c.478876.040453.834287-.314957.793833-.793833l-.292998-3.468338c-.040455-.478878-.461457-.899881-.940335-.940336h0s-3.468338-.292998-3.468338-.292998c-.478876-.040454-.834287.314957-.793833.793833l.439498,5.202509c.041249.478944.46284.899357.94165.939018.477687.039568.832085-.314829.792518-.792516l-.585999-6.936679c-.039752-.478818.316278-.833612.795215-.792454.477942.041072.89788.46101.938954.938952l.219752,2.601254,2.601254.219752Z"/><path id="Main-2" class="cls-2" d="M63.205717,11.323212c.478937.041159.899416.462684.939167.941502.039668.477823-.314846.832336-.792669.792667l-6.936679-.585999c-.47881-.03966-.833523.31645-.792273.795395.041153.477821.460954.897621.938775.938773l5.202509.439498c.478876.040453.834287-.314957.793833-.793833l-.292998-3.468338c-.040455-.478878-.461457-.899881-.940335-.940336h0s-3.468338-.292998-3.468338-.292998c-.478876-.040454-.834287.314957-.793833.793833l.439498,5.202509c.041249.478944.46284.899357.94165.939018.477687.039568.832085-.314829.792518-.792516l-.585999-6.936679c-.039752-.478818.316278-.833612.795215-.792454.477942.041072.89788.46101.938954.938952l.219752,2.601254,2.601254.219752Z"/><path class="cls-2" d="M62.534828,11.266535l-.392398-.033149M60.654162,9.385869l-.392398-.033149M59.21299,12.707707l-.392398-.033149M57.625318,14.295379l-.392398-.033149M62.468561,12.787934l.033149.392398M58.707216,9.026589l.033149.392398M59.146716,14.2291l.033149.392398M57.26605,12.348434l.033149.392398"/><path class="cls-2" d="M62.559353,11.268607l-.441448-.037293M60.678687,9.387941l-.441448-.037293M59.237515,12.709779l-.441448-.037293M57.649843,14.297451l-.441448-.037293M62.466489,12.763409l.037293.441448M58.705144,9.002064l.037293.441448M59.144644,14.204575l.037293.441448M57.263978,12.323909l.037293.441448"/><path id="Main-3" class="cls-2" d="M12.369249,8.500647c.041159-.478937.462684-.899416.941502-.939167.477823-.039668.832336.314846.792667.792669l-.585999,6.936679c-.03966.47881.31645.833523.795395.792273.477821-.041153.897621-.460954.938773-.938775l.439498-5.202509c.040453-.478876-.314957-.834287-.793833-.793833l-3.468338.292998c-.478878.040455-.899881.461457-.940336.940335h0s-.292998,3.468339-.292998,3.468339c-.040454.478876.314957.834287.793833.793833l5.202509-.439498c.478944-.041249.899357-.46284.939018-.94165.039568-.477687-.314829-.832085-.792516-.792518l-6.936679.585999c-.478818.039752-.833612-.316278-.792454-.795215.041072-.477942.46101-.89788.938952-.938954l2.601254-.219752.219752-2.601254Z"/><path id="Main-4" class="cls-2" d="M12.369249,8.500647c.041159-.478937.462684-.899416.941502-.939167.477823-.039668.832336.314846.792667.792669l-.585999,6.936679c-.03966.47881.31645.833523.795395.792273.477821-.041153.897621-.460954.938773-.938775l.439498-5.202509c.040453-.478876-.314957-.834287-.793833-.793833l-3.468338.292998c-.478878.040455-.899881.461457-.940336.940335h0s-.292998,3.468339-.292998,3.468339c-.040454.478876.314957.834287.793833.793833l5.202509-.439498c.478944-.041249.899357-.46284.939018-.94165.039568-.477687-.314829-.832085-.792516-.792518l-6.936679.585999c-.478818.039752-.833612-.316278-.792454-.795215.041072-.477942.46101-.89788.938952-.938954l2.601254-.219752.219752-2.601254Z"/><path class="cls-2" d="M12.312571,9.171536l-.033149.392398M10.431905,11.052202l-.033149.392398M13.753744,12.493374l-.033149.392398M15.341415,14.081046l-.033149.392398M13.83397,9.237803l.392398-.033149M10.072625,12.999148l.392398-.033149M15.275136,12.559648l.392398-.033149M13.39447,14.440314l.392398-.033149"/><path class="cls-2" d="M12.314643,9.147011l-.037293.441448M10.433977,11.027677l-.037293.441448M13.755815,12.468849l-.037293.441448M15.343487,14.056521l-.037293.441448M13.809445,9.239875l.441448-.037293M10.0481,13.00122l.441448-.037293M15.250611,12.561719l.441448-.037293M13.369945,14.442385l.441448-.037293"/><path class="cls-18" d="M10.473491,33.726321c.323303.090103.484985.135147.808289.22525-.070251.261398-.104065.393234-.169037.659119-.32547-.081604-.488251-.122406-.813751-.20401-.622467.299271-.933136.46225-1.5513.816254.064148-.309769.09787-.463348.168488-.767792.432678-.209381.649445-.307861,1.083313-.492874-.289978-.3759-.432343-.56749-.711426-.95752.082794-.294113.125763-.43985.214691-.728622.375488.594788.569916.885117.970734,1.450195Z"/><path class="cls-18" d="M11.859051,32.063631c-.08847.256989-.131378.386703-.214447.648514-.825348-.274734-1.238129-.412109-2.063446-.686829.089996-.283646.136505-.424194.23233-.702637.818176.296387,1.227356.44458,2.045563.740952Z"/><path class="cls-18" d="M9.968792,30.882632c.373932-1.033966.581543-1.532516,1.033356-2.492874.141907.070206.21286.105316.354797.175537-.445496.94693-.650238,1.438522-1.018921,2.458023-.147705-.056274-.221558-.084412-.369232-.140686ZM10.493999,30.00426c.102997-.256958.155823-.384247.263916-.636383.729156.329498,1.093811.494247,1.822968.823746-.100433.234192-.149475.352417-.245178.591095-.736633-.311386-1.105042-.467072-1.841705-.778458Z"/><path class="cls-18" d="M11.536663,27.313708c.079193-.151154.119232-.226227.200317-.375412,1.018005-.045334,1.52243-.044235,2.517395.001541-.1362.223679-.203094.336807-.334412.565689-.66684-.036377-1.003113-.045212-1.680084-.042969.364014.584335.552185.870651.940002,1.430374-.119293.24115-.177673.363007-.291718.609344-.568634-.84668-.839691-1.285141-1.351501-2.188568ZM12.488781,28.608218c.317291-.645309.485168-.958939.837646-1.568237.135803.081909.203735.122879.339508.204788-.34729.600311-.512665.909332-.825317,1.545135-.140747-.072662-.211121-.109009-.351837-.181686Z"/><path class="cls-18" d="M13.867168,23.617129c.2034-.271042.306854-.404404.517303-.667007.677368.554245,1.016174.831375,1.693573,1.38562-.134064.167297-.200317.251846-.331268.422852-.534698-.419495-.802094-.629227-1.336792-1.048721.036194.016144.05426.024231.090424.040436.27179.538559.412628.804169.703491,1.327484-.125031.171509-.186798.258148-.308777.433197-.571411-.108795-.85965-.157028-1.440674-.240631-.036804-.03624-.055206-.054367-.091949-.090668.560211.383713.840332.575577,1.400513.95929-.120911.182587-.180511.27478-.298035.46106-.731232-.478683-1.096954-.718033-1.828186-1.196732.184509-.292419.278687-.436478.470795-.720459.630737.119568.943481.186295,1.562988.333084-.331421-.550934-.492188-.830841-.803406-1.398804Z"/><path class="cls-18" d="M16.884136,23.380969c-.160614.180649-.240021.272202-.396851.457657-.663757-.570816-.995728-.856247-1.659454-1.427078.169922-.200928.255951-.30011.429962-.495834.650482.58609.97583.879166,1.626343,1.465256Z"/><path class="cls-18" d="M16.281505,20.828112c.688019-.690659,1.04599-1.017578,1.785095-1.634644.102386.121643.153595.18248.256012.304108-.72876.608444-1.081726.930786-1.760132,1.611801-.112396-.112503-.16861-.168762-.280975-.281265ZM17.052257,20.329943c.180664-.169327.271851-.252792.455841-.417297.537048.598587.805634.897873,1.342682,1.496445-.170898.152786-.255615.230331-.423401.387604-.550018-.5867-.825104-.880051-1.375122-1.466751Z"/><path class="cls-18" d="M18.345501,18.963824c.191711-.15567.288361-.232315.483154-.383133.540497.688812.810852,1.033234,1.351379,1.722031-.179779.139206-.269012.209946-.445953.353638-.555389-.677017-.833191-1.015533-1.38858-1.692535ZM18.519878,18.823428c.615784-.491486.931854-.724884,1.577545-1.16684.091034.130219.136566.195358.227631.325577-.636658.435791-.948303.665924-1.555481,1.150543-.099884-.123703-.149811-.185562-.249695-.30928ZM19.08723,19.526202c.521393-.416138.788055-.615036,1.331726-.994507.092194.12944.138275.194183.230469.323639-.535797.373993-.798645.570023-1.3125.980148-.099854-.123703-.149811-.185577-.249695-.30928ZM19.645336,20.217486c.576996-.460526.873138-.679199,1.478149-1.093323.091034.130234.136566.195358.227631.325592-.595978.407944-.887695.623367-1.456085,1.077011-.099854-.123703-.149811-.185562-.249695-.30928Z"/><path class="cls-18" d="M23.079967,18.283617c-.171875.02533-.328003.007431-.465057-.053299-.136536-.059891-.251434-.162903-.341797-.310379-.125244-.204453-.187897-.306671-.313141-.511124-.089844-.146637-.127899-.295654-.113007-.445755s.081787-.297318.200714-.438416c.120178-.141815.288422-.272903.504639-.389374.179108-.096481.354279-.154846.52359-.175583.169769-.019867.32666-.00293.470795.05162.144104.05455.269348.144241.375305.269516-.220459.107132-.33017.161987-.54834.2742-.055084-.052261-.115784-.090561-.182922-.11322s-.139008-.029449-.212402-.020691c-.075134.00856-.150055.032852-.225708.073608-.099609.05365-.174866.112808-.228912.179688-.053284.065353-.082581.134644-.088562.206696-.005463.072906.013885.145477.056885.21933.120667.207138.180969.310699.301605.517838.04303.073853.096436.127151.161133.159546.064728.032394.137848.044373.219086.035416.082397-.009628.168823-.039062.263428-.090027.073059-.039352.132874-.085632.179199-.14003.046295-.054398.077118-.114792.094177-.181183.017059-.066376.017181-.136002.002563-.21019.212494-.109283.319336-.162704.534027-.267044.035828.159363.035767.310013.000031.45372-.035706.143692-.104492.273651-.20816.393112-.10321.120331-.235962.223007-.401031.31192-.199219.10733-.385406.174652-.558136.200104Z"/><path class="cls-18" d="M25.35017,17.137942c-.176178.00856-.328674-.024139-.458862-.098038-.129791-.073029-.233948-.186676-.308685-.34021-.243866-.501205-.365814-.751801-.60965-1.252991.21994-.102798.330444-.153.552399-.250946.234772.510056.352203.765076.587036,1.275131.052094.113159.135315.182434.250214.208389.113251.02562.246582.005478.402863-.059769.156311-.065231.264557-.145935.325134-.244095.060211-.099045.067871-.206223.020386-.32132-.21402-.518738-.321045-.778107-.535004-1.296844.225464-.088821.338654-.132019.565857-.215988.201202.518997.301849.778503.503082,1.297485.061646.158997.073639.311157.036743.45372-.03653.143494-.117554.273666-.245422.392105-.128265.117554-.297485.220062-.507996.307953-.211792.088394-.403534.136566-.578094.145416Z"/><path class="cls-18" d="M26.724224,14.333178c.228882-.078995.34375-.117294.574127-.191437.279663.825516.419556,1.238297.699249,2.063797-.212646.068436-.318665.103775-.529907.176697-.297363-.819611-.446136-1.229431-.743469-2.049057ZM26.932079,14.262331c.732666-.246643,1.103241-.357605,1.850128-.554718.04248.152313.063721.228485.106201.380798-.73642.194351-1.101837.303757-1.82428.546967-.052826-.149216-.079254-.223831-.13205-.373047ZM27.232189,15.109988c.620331-.208832.933594-.304077,1.564606-.476242.043793.151962.065704.227966.109497.379929-.621887.169678-.930634.26355-1.542023.46936-.052826-.149216-.079254-.223831-.13208-.373047ZM27.527416,15.943804c.686523-.23111,1.033752-.335068,1.733582-.51976.04248.152313.063721.228485.106232.380798-.689392.181931-1.031464.284348-1.707703.511993-.052826-.1492-.079254-.223831-.132111-.373032Z"/><path class="cls-18" d="M29.317974,13.571627c.28717-.070007.431152-.103195.71994-.165955.616608.548492.912323.83075,1.477203,1.408493-.016998.018463-.025452.02771-.042419.046188-.126068-.670151-.189148-1.005249-.315155-1.6754.227875-.040375.34198-.059448.570587-.095367.143066.857162.214691,1.285736.357849,2.142899-.271545.042664-.407013.065689-.677429.115158-.556854-.565109-.848236-.841125-1.455627-1.377335.016266-.019699.024384-.029541.04071-.04921.154572.654099.231873.98114.386475,1.635223-.208008.046402-.311798.070618-.51886.121109-.217316-.842316-.326019-1.263489-.543274-2.105804Z"/><path class="cls-18" d="M32.427685,12.988162c.239655-.03186.35968-.04657.599915-.073563.10318.863312.154846,1.294983.258118,2.158295-.221741.024918-.33252.038498-.553741.067886-.121735-.861038-.182648-1.29158-.304291-2.152618ZM32.926067,14.717928c.699677-.086594,1.051117-.118866,1.754822-.161377.010162.157486.015228.236252.02536.393738-.693207.04187-1.039398.073669-1.728638.158981-.020599-.15654-.030914-.234818-.051544-.391342Z"/><path class="cls-18" d="M35.650646,14.90938c-.231598.006073-.347382.01033-.578766.02124-.043671-.868057-.065552-1.302109-.1091-2.170166.250732-.011826.37616-.016418.627045-.02301.024261.868759.036469,1.303162.060822,2.171936Z"/><path class="cls-18" d="M36.125927,14.491793c.226654-.002045.339996-.001923.56662.000595-.002502.213638-.003754.32048-.006287.534119-.223907.15416-.334229.232376-.551422.390961-.003571-.37027-.005341-.555389-.008911-.925674Z"/><path class="cls-18" d="M38.488903,12.80115c.24115.016968.361694.026672.602448.048492-.083618.865311-.125336,1.297989-.208832,2.1633-.222229-.020142-.333466-.029099-.556061-.044754.064941-.866806.097382-1.300232.162445-2.167038ZM38.684551,13.754107c.395416.031464.592865.050583.986969.095581.069305.007904.131653.003479.188599-.012283.05542-.014969.101227-.042969.135864-.078796.034668-.035858.056091-.080582.063141-.132858.007294-.05423-.000397-.102493-.024384-.147827-.024078-.044373-.062103-.081573-.112854-.110336-.050842-.027786-.112976-.046951-.185059-.055176-.401917-.045883-.603302-.065384-1.006531-.097473.013336-.157272.02002-.235916.033356-.393188.403229.032089.604584.051529,1.00647.097229.197815.022476.36911.071457.512543.146515.143433.075043.248291.167938.315216.279129.066833.111053.088898.233185.068237.364471-.020538.130325-.078979.240341-.173981.327164-.095093.086899-.218658.148514-.371155.18364-.152466.03511-.322235.041458-.510712.020035-.382965-.043533-.574829-.062057-.959045-.092636.013336-.157272.019989-.235916.033325-.393188Z"/><path class="cls-18" d="M41.238872,13.123019c.238556.03923.357697.060059.595428.104141-.168091.853683-.252075,1.280548-.420044,2.134232-.219421-.040695-.329376-.059921-.549591-.09613.149628-.856888.224426-1.285355.374207-2.142242ZM41.453686,13.159152c.761536.130951,1.140472.208832,1.891998.389389-.038971.153198-.058472.229813-.097412.383026-.741028-.17804-1.114685-.254837-1.86557-.383942.028412-.15538.042603-.233093.070984-.388474ZM41.292431,14.041857c.644287.110794.965027.175354,1.602081.322815-.037659.153519-.056458.230286-.094086.383804-.627838-.145325-.94397-.208954-1.578949-.318146.028381-.15538.042572-.233093.070953-.388474ZM41.133892,14.910143c.713501.122696,1.068573.195679,1.772736.364853-.03894.153198-.058411.229813-.097351.383011-.693665-.166641-1.043457-.238525-1.746338-.35939.028381-.15538.042572-.233093.070953-.388474Z"/><path class="cls-18" d="M43.804363,15.908083c-.124756-.057404-.238617-.119843-.34256-.189972-.104187-.069199-.195099-.143158-.27301-.221405.136597-.104706.205475-.156647.344421-.259689.093597.095459.20874.181168.34433.257599.136597.077744.280396.138489.433228.18399.17746.052811.321716.073181.432556.060822.111633-.012451.182373-.057068.20874-.134995.000244-.000732.000397-.001114.000641-.001846.018494-.054733.011139-.105469-.02243-.15213-.032562-.045303-.082184-.087723-.148254-.124695s-.153656-.07933-.260406-.125656c-.003662-.002121-.007629-.003296-.011597-.004486-.002625-.000793-.006287-.002914-.009949-.005035-.017487-.006851-.026245-.010284-.043732-.01712-.18985-.080917-.345001-.154327-.465912-.223404-.120941-.069077-.216431-.157455-.284973-.264648-.068329-.106888-.082092-.237854-.040283-.390762l.000275-.000946c.03714-.13591.112701-.240784.227936-.313629.116608-.072464.266571-.111496.450531-.114105.185608-.003159.399109.030502.638397.10289.110657.033463.219818.076416.328217.130157.108704.052811.21283.114212.309967.181274.098206.06842.186707.141602.268158.220184-.143677.09787-.215027.147202-.356567.246735-.096527-.092941-.20224-.174683-.318115-.245346-.117249-.071091-.233673-.123474-.350983-.158966-.175934-.053223-.318237-.072052-.425446-.059952-.108124.012207-.173065.05368-.194489.125946l-.000275.000946c-.018066.060989-.007507.114746.03183.164551.039612.048889.092621.091522.16037.128571.067474.037979.164337.084778.289795.142273.004761.003479.010132.005112.01651.008072.005341.001633.010406.004196.015442.00676.007751.003372.015686.007492.021545.010651.006836.003677.015137.007706.022858.011093.180298.082932.325287.164291.438721.24144.112122.076721.195862.169876.249481.279068.053955.108276.055695.232285.005341.371368-.000397.001114-.00061.001663-.001007.002762-.047363.130798-.130219.227493-.248932.291718-.117462.064651-.265656.094437-.443787.091476-.17688-.002548-.379303-.038483-.607727-.106476-.135284-.040268-.265076-.088974-.388855-.145081Z"/><path class="cls-18" d="M46.223156,16.723605c-.216492-.083969-.325165-.124741-.543335-.203888.310272-.815018.465424-1.222549.775879-2.037582.236359.085739.354126.129929.588654.220901-.328583.808228-.492798,1.212357-.821198,2.020569Z"/><path class="cls-18" d="M47.660351,14.950304c.273621.113586.409729.17218.680511.293015.155457.801987.218353,1.202271.314819,1.998489-.025116.004578-.037628.006912-.062714.011536.313751-.608673.470642-.913025.784515-1.521698.208313.103424.311951.156235.518219.264099-.416016.767731-.623962,1.151596-1.039795,1.919327-.245026-.128128-.368317-.190475-.616425-.311798-.097778-.781082-.161011-1.17366-.316528-1.960144.025238-.006088.037872-.009125.063171-.015152-.280975.612778-.421417.919174-.702301,1.531937-.195709-.085999-.293976-.127975-.491302-.209885.347046-.799881.520599-1.199829.867828-1.999725Z"/><path class="cls-18" d="M51.196361,16.721346c.816315.48497,1.215485.74585,1.991058,1.304413-.094025.128174-.141022.192276-.235046.320435-.764709-.550766-1.158295-.807983-1.963196-1.286179.082855-.135468.124298-.203201.207184-.338669ZM51.849895,17.33417c.204681.130783.306396.197388.508423.332993-.454834.662476-.68222.993713-1.136902,1.656189-.187653-.125961-.282135-.18782-.47226-.309296.440247-.671951.66037-1.007935,1.100739-1.679886Z"/><path class="cls-18" d="M53.477428,18.237597c.19754.146332.295593.220734.490143.371918-.541809.687927-.812653,1.031906-1.354309,1.719818-.179565-.139542-.270081-.208206-.452393-.343277.52655-.699371.789856-1.049072,1.316559-1.748459ZM53.656109,18.371111c.62738.472916.933777.721786,1.529266,1.244232-.105164.119278-.157776.17894-.26297.298218-.587158-.515152-.889282-.760544-1.507874-1.226837.096619-.126236.144928-.189377.241577-.315613ZM53.107189,19.088259c.531189.400406.791351.609787,1.299072,1.04686-.104126.120193-.156189.180298-.260315.300491-.500397-.430771-.756805-.637115-1.280304-1.031738.096619-.126236.144928-.189377.241547-.315613ZM52.567303,19.793688c.58783.443115.874939.6763,1.432922,1.165817-.105164.119293-.157745.17894-.262909.298218-.549652-.482224-.832458-.711929-1.41153-1.148438.096588-.126236.144897-.189362.241516-.315598Z"/><path class="cls-18" d="M55.325969,22.678469c-.069427-.163788-.091949-.321503-.067261-.470169.024017-.14798.096161-.28447.218506-.407089.169556-.169998.254364-.25499.42395-.424988.121613-.121918.258881-.193527.410858-.213272s.314484.01239.484589.097641c.171112.086349.344238.222916.515625.411224.141998.155991.245483.31723.310272.481369.064026.164795.088409.325317.072205.481461-.016174.156143-.072083.30127-.168274.434875-.164032-.197617-.247101-.295166-.415161-.487701.037292-.066483.059326-.135437.064209-.207291.004883-.071869-.007172-.144867-.034973-.215851-.028046-.072754-.071594-.141739-.131592-.207626-.078949-.086746-.156952-.147934-.237091-.18631-.0784-.037964-.154449-.051224-.227173-.040802-.073456.011093-.140137.046661-.201965.105865-.173431.166061-.260132.249084-.433563.415131-.061829.059219-.100677.124023-.115906.195267-.015259.071243-.008148.14621.021759.224533.030884.079346.082428.158295.15744.240677.057892.063614.119263.112686.18512.146561.065887.03389.133698.051132.203827.053375s.139038-.013092.208618-.044083c.163696.187515.244598.282516.404358.474976-.148376.070709-.297577.103561-.449188.09938-.151611-.004196-.298279-.044312-.443604-.121155-.146057-.076202-.282288-.185394-.413116-.329147-.157959-.173523-.272675-.342178-.342468-.506851Z"/><path class="cls-18" d="M57.053997,24.693423c-.055023-.17662-.062927-.337509-.024078-.484726.038086-.146591.12323-.276031.255615-.384445.432159-.353943.648224-.530899,1.080444-.884827.159821.199203.238739.300034.394501.504105-.44339.34668-.665039.52002-1.108368.866714-.098358.07692-.144989.175995-.14032.298141.004578.120392.059845.251617.165955.397339s.214813.239746.328186.281464c.114166.041138.222473.026825.323944-.045776.457458-.327286.686157-.490921,1.143677-.818207.147888.213196.220795.321014.364349.539062-.461121.314163-.691681.471252-1.152771.785416-.141235.096237-.28891.139633-.440033.130707-.151947-.008362-.302521-.065308-.453888-.172272-.150574-.107513-.297119-.259689-.440033-.455978-.143768-.197433-.242249-.381821-.29718-.556717Z"/><path class="cls-18" d="M60.198803,25.525439c.139038.223007.207489.335754.34201.563614-.744202.457565-1.116241.686356-1.860352,1.143906-.124176-.210312-.187317-.314377-.315674-.520203.733582-.47493,1.100342-.712387,1.834015-1.187317ZM60.324169,25.728503c.438843.717758.647034,1.089081,1.0383,1.856369-.139709.074722-.209595.112076-.349304.186798-.385773-.756577-.591064-1.122696-1.023773-1.830429.133911-.085098.200867-.127655.334778-.212738ZM59.563488,26.211916c.371552.607712.548981.920746.885437,1.56514-.139008.07605-.208527.11409-.347534.19014-.331604-.635086-.50647-.943604-.872681-1.542542.133911-.085098.200867-.127655.334778-.212738ZM58.815258,26.687426c.411163.672531.606262,1.020447.97287,1.739395-.139679.074707-.209564.112076-.349243.186783-.361145-.708221-.553314-1.050934-.958374-1.71344.133881-.085083.200836-.12764.334747-.212738Z"/><path class="cls-18" d="M61.637401,28.139056c.144562.299622.215057.451294.352142.758194-.383392.779129-.586731,1.159073-1.014343,1.897064-.022339-.015228-.033539-.022781-.055878-.037918.630402-.261765.945618-.39267,1.576111-.654419.097687.248062.145355.373199.238251.625687-.811005.314407-1.216431.471619-2.027344.786026-.110382-.300079-.16745-.44841-.285156-.741714.416351-.725845.614136-1.099472.986877-1.865402.023987.014786.03598.022171.059937.037064-.607239.290482-.910828.43573-1.518036.726227-.100128-.220322-.151245-.329422-.255585-.545639.777191-.394058,1.165741-.591095,1.943024-.985168Z"/><path class="cls-18" d="M63.009044,31.509219c.091034.270157.135193.406479.220764.681488-.826996.269623-1.240448.404449-2.067352.674072-.078979-.25383-.119751-.379654-.203766-.628998.820099-.290634,1.230133-.435944,2.050354-.726562ZM61.424846,32.387423c.258179.793503.375153,1.201309.582428,2.038834-.152924.03891-.229431.058365-.382355.097275-.204224-.825027-.319427-1.226746-.57373-2.008408.149445-.051086.224213-.07663.373657-.127701Z"/><path class="cls-18" d="M61.8838,35.663531c-.058685-.283325-.089508-.423767-.154022-.702271.845856-.199661,1.268768-.299515,2.114685-.499176.069916.301727.103302.453888.16687.760849-.851074.176239-1.27655.264359-2.127533.440598Z"/><path class="cls-4" d="M61.578004,40.859897c-.000122-13.917542-11.282471-25.19989-25.200012-25.19989s-25.199829,11.282349-25.199951,25.19989v.000122c0,3.464966,2.834961,6.299988,6.299988,6.299988h37.799988c3.465027,0,6.299988-2.835022,6.299988-6.299988v-.000122Z"/><g class="cls-26"><rect class="cls-11" x="56.255319" y="24.211816" width="5.980296" height="22.676392"/><rect class="cls-8" x="54.43617" y="22.231836" width="1.819149" height="23.939941"/><rect class="cls-14" x="20.606383" y="35.641809" width="30.287234" height="2.156403"/><rect class="cls-14" x="48.946809" y="17.731836" width="3.328085" height="17.909973"/><rect class="cls-21" x="50.893617" y="19.441827" width="2.489362" height="19.440002"/><rect class="cls-21" x="20.06383" y="36.876596" width="30.829787" height="2.005234"/><rect class="cls-21" x="17.893617" y="21.868188" width="2.511343" height="17.013641"/><rect class="cls-14" x="20.06383" y="20.791833" width=".829787" height="16.084762"/><rect class="cls-21" x="9.666" y="40.411814" width="40.525489" height="10.619995"/><path d="M25.393617,31.16383s-.340426-.776596-.095745-1.457447c0,0,1.095745.468085,1.148936.829787,0,0,.993943-.057747,1.085106-.042553,0,0,.43617-.816008,1.074468-.971834,0,0,.170213,1.173961.095745,1.280344,0,0,.297872.989992-.138298,1.59606,0,0,.62766,1.084791,3.957447,1.212451,0,0,2.180851-.234609,3.478723,2.297589,0,0,.085106.276879-.489362.510921,0,0-.329787.243591-1.297872.302647,0,0-1.978723,1.399481-6.074468-.111157,0,0-1.138298-.138298-2.659574-.37234,0,0-.776596-.244681-.882979-.882979,0,0,.606383-1.808511,1.351064-1.819149,0,0,.085106-.478723,0-.531915,0,0-.670213-.56383-.638298-.893617,0,0,.010638-.914894.085106-.946809Z"/><path d="M35.5,36.248936s-.085106.617021-.053191.691489.329787,1.957447,2.648936,2.829787c0,0,.361702.202128,0,.414894s-1.148936-.085106-1.148936-.085106c0,0-2.521277-1.978723-2.617021-3.56383l1.170213-.287234Z"/><path class="cls-25" d="M15.042542,36.641809l.534241,6.219238c0,.342834.960632.620728,2.14563.620728s2.145569-.277893,2.145569-.620728l.536255-6.219238h-5.361694Z"/><ellipse class="cls-8" cx="17.7224" cy="36.64" rx="2.948936" ry=".549583"/><path class="cls-8" d="M20.671326,36.639978h-5.897888v.991821h.001038c0,.303528,1.320251.549561,2.948914.549561s2.948975-.246033,2.948975-.549561l-.001038-.991821Z"/><ellipse class="cls-11" cx="17.723404" cy="36.641809" rx="2.680851" ry=".499621"/><path class="cls-18" d="M24.228723,42.841791s8.202128-.629974,9.303191-.359985c0,0,.734043.186024.606383.449982,0,0,1.244681.55119,1.196809.990021l.175532,2.159973h-8.952128l-2.329787-3.23999Z"/><path d="M26.510638,45.631799s-.670213-1.584976-1.117021-1.531792c0,0-.079787-.901802-.62234-.901802l-.542553-.356415v.446442l1.898936,2.343567.640095.720032-.257116-.720032Z"/><polyline points="26.558511 46.081781 35.510638 46.081781 35.510638 46.441827 26.819149 46.441827 26.28767 45.811792"/><path d="M56.893617,45.493617s-.529959-16.058197,2.990339-15.341813l3.026044,9.896377-1.350018,6.033585-4.666365-.588149Z"/><path class="cls-1" d="M19.510638,15.931787s16.425532,4.43817,32.638298,0"/><polygon class="cls-10" points="25.307139 21.871993 20.446809 21.061965 20.446809 16.201634 25.307139 17.011662 25.307139 21.871993"/><polygon class="cls-20" points="31.004633 22.588362 26.144303 22.093352 26.144303 17.233021 31.004633 17.728032 31.004633 22.588362"/><polygon class="cls-16" points="36.72 22.749442 31.859669 22.636931 31.859669 17.7766 36.72 17.889111 36.72 22.749442"/><polygon class="cls-10" points="42.504633 22.588362 37.644303 22.805697 37.644303 17.945366 42.504633 17.728032 42.504633 22.588362"/><polygon class="cls-20" points="48.057825 21.781996 43.197494 22.427041 43.197494 17.56671 48.057825 16.921666 48.057825 21.781996"/><path class="cls-14" d="M42.319149,33.211816l1.223404-1.170013s.521277-.163719.819149.266388l.148936.179993-1.255319,1.263611s-.925532-.247311-.93617-.539978Z"/><path class="cls-21" d="M47.87766,27.796809s.824468.590426.739362,1.526596h.989362s1.138298.197666,1.117021,1.008407c0,0,.089508.285864-.489362.266388,0,0-1.248745-.063674-2.56383,1.50527-.680693.812091-1.528473,1.993797-1.914894,3.991212,0,0-.050117.803807-.257013,1.347147-.148903.391041-.443287.574425-.556817.567747,0,0-.567589-.032889-.75-.845745-.047735-.212717-.170567-.471285-.175532-.805621,0,0-.071809-.236128-.510638-.359985s-.390957-2.209394-.390957-2.209394l.981383-1.316489s2.952128-2.909459,2.792553-3.702128c0,0,.106383-.38544.989362-.973404Z"/><polygon class="cls-13" points="29.393617 45.448206 29.680851 44.780851 29.904255 44.998224 29.393617 45.448206"/><polygon points="29.904255 44.998224 33.648936 40.048181 33.382979 39.868188 29.680851 44.780851 29.904255 44.998224"/><polygon class="cls-13" points="33.206392 40.102516 33.467553 40.287949 33.648936 40.048181 33.382979 39.868188 33.970463 39.182728 34.126658 39.290864 33.724155 39.868188 33.850313 39.958185 33.309637 40.714643 33.206392 40.633174 33.417772 40.3602 33.165174 40.157212 33.206392 40.102516"/><path class="cls-23" d="M42.579787,34.288232l.023936.402193-.574468.327128s-2.481383-.115221-2.768617-.005749l-.409574-.179993-1.18617-1.26001s.223404-1.440002.414894-1.440002h.462766l.06383.101179s.335106-.202359.462766-.101179.398936.093915.510638.536377l1.898936-.068176.654255.957637s.558511.007024.446809.730596Z"/><path class="cls-23" d="M29.925532,42.481805c1.12766-.626373,1.861702-.573295,1.957447-.562656s1.542553,1.18903,1.542553,1.18903l.882979.587566.595745.797872-.978723,1.787234c.06383-.427364-1.180851-.922642-1.180851-.922642.042553.449982-.148936.539663-.148936.539663-.62766.159574-1.106383-.08608-1.106383-.08608-.085106,0-.191489-.243707-.191489-.243707l-.297872-.209876s-.074468.326897-.159574.27359-.680851-.899963-.680851-.899963l-.117021-.540039s-.06383.089054-.202128.227352-.223404.042553-.223404.042553c.06383-.319149.212766-.539894.212766-.539894.095745-.007979.095745-1.396276.095745-1.396276"/><path class="cls-27" d="M44.87766,37.97766s-.62234-.269444-.638298-1.165868-.765957-.903564-.765957-.903564c.015957-.179993-.574468-2.041873-.606383-2.156433s-.321419.089996-.321419.089996c.207447.969058-.572198,1.080017-.572198,1.080017h-1.875287l-.03143.042807-.034647.047189s.569024.536438.648811.896423-.079787.179993-.079787.179993c0,0-.81383.706073-.734043,1.353607,0,0-.095745.622772-1.691489,2.156372,0,0-.654255.626373-.606383,1.709991s.654255,2.340027.654255,2.340027l1.882979.27359,4.771277-3.149994,1.452128-3.063599-.526596-1.26001s-.558511,1.26001-.638298,1.350006-.287234.179448-.287234.179448Z"/><path class="cls-10" d="M45.555538,36.874079c-.283372-.507336.399249-1.347451.51893-2.51876,0,0,1.914894-4.390756,4.531915-3.75712,0,0,1.835106,1.709991,2.12234,1.709991s2.728723,4.743937,3.510638,7.456703.861702,3.703331.861702,3.703331l-5.297872,2.613556-.473191,1.349991s-1.920426-.275386-2.191702-.273575-12.382979,0-12.382979,0l-.382979-.531601-2.058511.08162s-1.30759-.009523-1.227803-1.19518c0,0,.066322.034325.217603.100732.100214.04399.209148.138386.291364.183229.202476.110437.373499.205423.373499.122337,0-.179993,1.028499-1.461179-.407671-2.721128,0,0,1.104072.695038,2.731731.450012,0,0-.031915-.363242.382979-.359985s.845745.543579.845745.543579c0,0,4.340426-.720032,4.308511-1.080017s.62234-.449667.62234-.449667c0,0,2.916707-3.414894,2.639204-3.606383,0,0,.599531-1.579386.464206-1.821666Z"/><path class="cls-22" d="M37.06383,28.441827s1.680851,1.263527,1.723404,1.529999c0,0,.255319.720032-.212766,1.350006,0,0-.052488.269989.282267.449982,0,0,.185818.179993.377308.179993,0,0,.361702.805822.978723.71637,0,0-.148936.180054,0,.180054s.489362.363586.489362.363586c0,0-.106383.359985,1.276596.179993,0,0,.170213.363586,1.744681-1.26001,0,0,.319149-.183594.574468.176392,0,0,2.523936-1.937508,2.821808-2.837472l-.098404-.312522-5.574468-4.766388-3.340426.179993-1.87234,2.160034.829787,1.709991Z"/><path d="M39.319149,27.811792s-.191489-1.619995-.148936-1.529999.468085,1.166412.468085,1.166412l.212766.543579s.274439.338992.340426.360046c.106814.034081.297872.089996.297872.089996l.531915.05179,5.276596.66458s1.446809.093658,2.148936-2.426361-3.553191-5.490021-3.553191-5.490021c0,0-1.574468-1.353607-3.12766-1.173615,0,0-.425532.183655-.340426.723633s-2.425532.71637-2.425532.71637l-1.170213.089996s-1.659574,1.166351-1.638298,1.889984-.021277,1.116999-.021277,1.116999c0,0-1,1.226568-.957447,1.676611,0,0-.468085,2.786407.468085,2.606415h1.021277l.361702-.179993-.148936-1.350006.425532,1.083618h.191489l-.212766-1.353607.531915,1.263611h.510638c.212766-.092257.297872-.180054.297872-.180054l.148936-.089996s.06383-.067055.191489-.093567c0,0,.155194-.115068.319149-.176422Z"/><ellipse class="cls-16" cx="44.106383" cy="28.204624" rx="2.489362" ry="2.75356"/><path class="cls-16" d="M43.042553,25.831812l.893617-.183594s-.06383-1.076416-.340426-1.076416-.276596-.178851-.914894.179993l.361702,1.080017Z"/><path class="cls-16" d="M42.042553,25.468225s-1.297872-3.78363-3.191489-3.960022c0,0,.170213-.716431,2.191489-.896423,0,0,2.425532,1.26001,3.276596,4.140015,0,0-.744681.536438-2.276596.716431Z"/></g><path class="cls-6" d="M61.559982,40.86349c-.000122-13.917542-11.282471-25.19989-25.200012-25.19989s-25.199829,11.282349-25.199951,25.19989v.000122c0,3.464966,2.834961,6.299988,6.299988,6.299988h37.799988c3.465027,0,6.299988-2.835022,6.299988-6.299988v-.000122Z"/><ellipse class="cls-3" cx="16.956" cy="48.960007" rx="8.1" ry="5.4"/><ellipse class="cls-16" cx="16.956" cy="48.960007" rx="7.29" ry="4.86"/><text class="cls-19" transform="translate(11.587353 51.948291)"><tspan x="0" y="0">20</tspan></text><ellipse class="cls-3" cx="55.62" cy="48.931785" rx="8.1" ry="5.4"/><ellipse class="cls-16" cx="55.62" cy="48.931785" rx="7.29" ry="4.86"/><text class="cls-19" transform="translate(50.21928 52.055423)"><tspan x="0" y="0">25</tspan></text><text class="cls-17" transform="translate(28.402843 53.84977)"><tspan x="0" y="0">NIEN</tspan></text><path class="cls-9" d="M14.553191,33.195745c-.638298-.319149-3.234043,1.978723-3.234043,1.978723,0,0,2.829787-1.218546,3.148936-1.332677s.085106-.539663.085106-.539663"/><path class="cls-24" d="M11.319149,35.174468s2.12766-2.555934,3.255319-2.416265l.787234-.005523-.808511.443064s-.595745-.297872-3.234043,1.978723Z"/><path class="cls-24" d="M15.212766,32.195745c-1.829787-.914894-2.659574.926075-2.659574.926075,0,0,1.382979.691576,2.808511-.723633l-.148936-.202443Z"/><path class="cls-24" d="M11.446809,30.365957s.765957.319149,2.702128.489362c0,0-.236405-.871652-1.171394-1.063486s-1.658393.539978-1.658393.539978"/><path class="cls-9" d="M15.446809,31.681818s-.06383-.869052-.638298-.954158-1.212766.404255-1.212766.404255c0,0,1.047523.013872,1.593331.505348.016031.014436.03163.029283.046757.044555"/><path class="cls-9" d="M16.042553,35.834043c-1.161911-.632216-1.527931-.143097-1.627026.074047-.024298.053243-.032548.090135-.032548.090135,0,0-.570888-.523999.852854-.716431s.806721.552249.806721.552249Z"/><path class="cls-9" d="M18.87234,34.876596s1.765957-1.01556,2.212766-1.124801c0,0-1.404255-.470943-2.212766,1.124801Z"/><path class="cls-9" d="M19.297872,34.046809s3.191489-2.680851,4.085106.829787c0,0-.829787-2.617021-4.085106-.829787Z"/><path class="cls-24" d="M20.093851,28.441827s-.157681-.271024-.115128-.450043c0,0-.406674.34592-.799082.360046l.91421.089996Z"/><path class="cls-9" d="M20.093851,28.441827c-1.799766-.690088-2.136404,1.668811-2.136404,1.668811.446809.12766.638298.957447.638298.957447,0,0,.340426-1.524909.957447-1.773093,0,0,.224589-.196464.319149-.546056s.221511-.307109.221511-.307109Z"/><path class="cls-9" d="M23.659574,29.294992s-1-1.84198-2.319149-.406784c0,0-1.025064.882693-1.246574.903625h-.795979s.425532-1.231583,1.382979-1.350006c0,0,.787234-.154861.797872-.360046,0,0,2.031915-.325839,2.180851,1.213211Z"/><rect class="cls-9" x="18.201692" y="31.016533" width=".226558" height="5.340763" transform="translate(14.107503 -4.425335) rotate(22.232375)"/><path class="cls-24" d="M25.93617,30.855319c-2.893617-3.021277-5.191489.957447-5.191489.957447,0,0,.297872-1.879837,2.446809-2.290983s2.744681,1.333536,2.744681,1.333536Z"/><path class="cls-9" d="M21.340426,34.198206c.382979-.040092.680851-1.917355.680851-1.917355,0,0-2.255319-1.404255-2.531915-1.322666s-.386766,1.173615-.386766,1.173615c0,0,1.705915-.297757,1.854851-.170097,0,0,.787234,1.104036.521277,1.520103l-.138298.7164Z"/><path class="cls-9" d="M21.085106,31.4136s1.510638-.366791,2.957447.888528c0,0-.744681-1.713226-2.957447-.888528Z"/><path class="cls-9" d="M23.12766,33.238298c-1.319149-1.489362-3.06383-.622544-3.06383-.622544,0,0,.212766-.633006,1.414894-.483954s1.648936,1.106499,1.648936,1.106499Z"/><path class="cls-9" d="M15.723404,34.558221c-.574468-.318374-1.975144.089996-1.975144.089996,0,0,.297872-.408112.987572-.366463s.987572.276466.987572.276466Z"/><path class="cls-9" d="M22.382979,35.66383c-.680851-2.12766-3.203337-.742022-3.203337-.742022,0,0,.777805.039894,1.267167-.045212,0,0,1.170213-.291815,1.489362.194518s.446809.592716.446809.592716Z"/><path class="cls-24" d="M16.929169,26.551782s.730406.856728-.333424,2.878005l.577966,1.078416s.769733-3.68549-.244542-3.956421Z"/><rect class="cls-24" x="16.595745" y="29.429787" width=".555722" height="7.358891"/><path class="cls-9" d="M15.914894,29.759777s-.212766-1.643024.446809-1.677996c0,0,.539188.738881.567467,2.426422l-1.014275-.748426Z"/><rect class="cls-9" x="17.865729" y="31.676808" width=".106383" height="5.042795" transform="translate(19.499783 -4.37777) rotate(30)"/><polygon class="cls-9" points="17.247898 36.509608 17.038761 36.520617 15.914894 29.759777 16.926496 30.404202 17.247898 36.509608"/><rect class="cls-9" x="17.464877" y="30.132779" width=".788057" height="6.551696" transform="translate(5.177995 -2.288311) rotate(8.57019)"/><polygon class="cls-9" points="19.187865 36.532314 18.418638 36.430436 19.297872 29.791833 20.093851 29.69172 19.187865 36.532314"/><rect class="cls-24" x="17.261527" y="30.237823" width=".170213" height="6.377155" transform="translate(44.419194 59.604759) rotate(161.465026)"/><rect class="cls-24" x="19.701146" y="30.293228" width=".170213" height="6.377155" transform="translate(20.180747 72.371026) rotate(-150)"/><rect class="cls-24" x="17.763134" y="26.672912" width=".169567" height="10.029039" transform="translate(30.774457 65.680755) rotate(-171.42981)"/><rect class="cls-24" x="18.314472" y="35.712247" width="1.028868" height=".118177" transform="translate(48.052268 63.701808) rotate(161.465026)"/><path class="cls-24" d="M13.748261,29.759777s.890037.627457,1.443229.627457,1.531915,1.294584,1.531915,1.294584c0,0,0-2.188201-1-2.273307,0,0-.93617-.394244-1.404255-.250314s-.570888.60158-.570888.60158Z"/><rect class="cls-24" x="15.356849" y="30.162577" width=".459556" height="6.778152" transform="translate(46.58511 53.744483) rotate(147.998278)"/><rect class="cls-24" x="16.919226" y="31.565795" width=".197782" height="5.620706" transform="translate(52.655434 48.564788) rotate(138.047464)"/><rect class="cls-9" x="16.292496" y="35.562361" width=".226349" height="1.051719" transform="translate(52.732057 51.959556) rotate(138.047464)"/><polygon class="cls-9" points="17.016813 36.633324 17.904236 36.75122 15.623255 34.47024 14.735832 34.352344 17.016813 36.633324"/><path class="cls-24" d="M19.106383,35.641809s1.723404.383723,1.978723,1.128404c0,0-.255319-1.191489-1.170213-1.297872s-.808511.169469-.808511.169469Z"/><rect class="cls-9" x="16.103002" y="31.434394" width=".226558" height="5.340763" transform="translate(-10.766223 7.684179) rotate(-20.172496)"/><rect class="cls-24" x="19.216523" y="26.669095" width=".130213" height="9.884084" transform="translate(35.985772 64.656815) rotate(-175.434327)"/><rect class="cls-9" x="18.956763" y="32.143698" width=".106383" height="4.790841" transform="translate(19.81641 -4.877613) rotate(30)"/><rect class="cls-9" x="16.602992" y="34.729131" width="3.657199" height=".314175" transform="translate(-20.996556 33.405335) rotate(-60)"/><rect class="cls-9" x="18.006423" y="31.354749" width=".226558" height="5.340763" transform="translate(19.440145 -4.501348) rotate(30)"/><rect class="cls-9" x="17.340153" y="31.681962" width=".226558" height="5.340763" transform="translate(-10.775708 8.125994) rotate(-20.172496)"/><polygon class="cls-24" points="17.679243 36.678999 17.831755 36.604882 13.381851 27.448206 13.295623 27.658716 17.679243 36.678999"/><circle class="cls-11" cx="16.595745" cy="36.75122" r=".151507"/><circle class="cls-11" cx="16.747252" cy="36.770213" r=".151507"/><circle class="cls-11" cx="16.975195" cy="36.721796" r=".151507"/><circle class="cls-11" cx="17.126702" cy="36.721796" r=".151507"/><circle class="cls-11" cx="17.346634" cy="36.721796" r=".151507"/><circle class="cls-11" cx="17.623924" cy="36.811792" r=".151507"/><circle class="cls-11" cx="17.858906" cy="36.721796" r=".151507"/><circle class="cls-11" cx="18.119702" cy="36.631799" r=".151507"/><circle class="cls-11" cx="18.27121" cy="36.873303" r=".151507"/><circle class="cls-11" cx="18.418638" cy="36.75122" r=".151507"/><circle class="cls-11" cx="18.314971" cy="36.631799" r=".151507"/><circle class="cls-11" cx="18.431591" cy="36.503772" r=".151507"/><circle class="cls-11" cx="18.805616" cy="36.520617" r=".151507"/><circle class="cls-11" cx="18.974842" cy="36.532314" r=".151507"/><circle class="cls-11" cx="19.179642" cy="36.532314" r=".151507"/><path class="cls-10" d="M18.119702,24.211816s.007639,2.52002.346777,2.52002l.11662.071418.222518-.071418c1.352563-1.259949-.642152-2.610016-.642152-2.610016"/><ellipse class="cls-15" cx="18.583099" cy="26.103616" rx=".208872" ry=".676788"/><path class="cls-10" d="M19.425532,22.860979s-.042553.787234.914894,1.87234c0,0,.356965.767598-.608194,1.973674-.030491.038102-.062302.009234-.095485.048201,0,0-.031114.021603-.077442-.069554-.204677-.402731-.706308-1.690664-.133772-3.824661Z"/><ellipse class="cls-15" cx="19.636746" cy="26.00607" rx=".257235" ry=".676788" transform="translate(-1.430809 1.144943) rotate(-3.222418)"/><path class="cls-10" d="M13.441489,27.541489c-.143617-2.154255-1.228723-2.952128-1.228723-2.952128,0,0-.734043,2.179762,1.117021,3.132434l.111702-.180306Z"/><path class="cls-15" d="M13.257927,26.999964c.159137.338211.203527.6522.099147.701313s-.122359-.260048-.281496-.598259-.399169-.577399-.29479-.626512.318002.185247.477139.523458Z"/></g></svg>